<?xml version="1.0" encoding="UTF-8"?>
<svg xmlns="http://www.w3.org/2000/svg" xmlns:xlink="http://www.w3.org/1999/xlink" width="59pt" height="37pt" viewBox="0 0 59 37" version="1.1">
<g id="surface0">
<path style="fill-rule:nonzero;fill:#FED100;fill-opacity:1;stroke-width:0.4;stroke-linecap:butt;stroke-linejoin:miter;stroke:#FFFFFF;stroke-opacity:1;stroke-miterlimit:4;" d="M 53.617188 13.632812 L 57.113281 31.992188 L 30.472656 31.992188 L 26.546875 13.632812 L 53.617188 13.632812 Z M 53.617188 13.632812 " transform="matrix(1,0,0,-1,0,37)"/>
<path style="fill-rule:nonzero;fill:#FED100;fill-opacity:1;stroke-width:0.4;stroke-linecap:butt;stroke-linejoin:miter;stroke:#FFFFFF;stroke-opacity:1;stroke-miterlimit:4;" d="M 57.113281 31.992188 L 58.152344 30.644531 L 54.90625 12.835938 L 53.617188 13.632812 L 57.113281 31.992188 Z M 57.113281 31.992188 " transform="matrix(1,0,0,-1,0,37)"/>
<path style="fill-rule:nonzero;fill:#FED100;fill-opacity:1;stroke-width:0.4;stroke-linecap:butt;stroke-linejoin:miter;stroke:#FFFFFF;stroke-opacity:1;stroke-miterlimit:4;" d="M 26.546875 13.632812 L 27.710938 12.835938 L 54.90625 12.835938 L 53.617188 13.632812 L 26.546875 13.632812 Z M 26.546875 13.632812 " transform="matrix(1,0,0,-1,0,37)"/>
<path style="fill-rule:nonzero;fill:#FED100;fill-opacity:1;stroke-width:0.4;stroke-linecap:butt;stroke-linejoin:miter;stroke:#FFFFFF;stroke-opacity:1;stroke-miterlimit:4;" d="M 53.863281 12.375 L 53.863281 9.648438 L 53.160156 9.035156 C 53.160156 9.035156 51.507812 8.546875 51.871094 7.566406 L 44.492188 0.707031 L 44.492188 3.710938 L 53.863281 12.375 Z M 53.863281 12.375 " transform="matrix(1,0,0,-1,0,37)"/>
<path style="fill-rule:nonzero;fill:#FED100;fill-opacity:1;stroke-width:0.4;stroke-linecap:butt;stroke-linejoin:miter;stroke:#FFFFFF;stroke-opacity:1;stroke-miterlimit:4;" d="M 15.125 3.710938 L 15.125 0.707031 L 44.492188 0.707031 L 44.492188 3.710938 L 15.125 3.710938 " transform="matrix(1,0,0,-1,0,37)"/>
<path style="fill-rule:nonzero;fill:#FED100;fill-opacity:1;stroke-width:0.4;stroke-linecap:butt;stroke-linejoin:miter;stroke:#FFFFFF;stroke-opacity:1;stroke-miterlimit:4;" d="M 26.855469 12.191406 L 53.863281 12.375 L 44.492188 3.710938 L 15.125 3.710938 L 26.855469 12.191406 Z M 26.855469 12.191406 " transform="matrix(1,0,0,-1,0,37)"/>
<path style="fill-rule:nonzero;fill:#FED100;fill-opacity:1;stroke-width:0.4;stroke-linecap:butt;stroke-linejoin:miter;stroke:#FFFFFF;stroke-opacity:1;stroke-miterlimit:4;" d="M 51.359375 15.421875 L 54.148438 29.800781 L 32.484375 29.800781 L 29.695312 15.421875 L 51.359375 15.421875 Z M 51.359375 15.421875 " transform="matrix(1,0,0,-1,0,37)"/>
<path style="fill:none;stroke-width:0.1;stroke-linecap:butt;stroke-linejoin:round;stroke:#FFFFFF;stroke-opacity:1;stroke-miterlimit:4;" d="M 27.488281 12 L 20.675781 6.5 M 29.675781 12 L 22.863281 6.5 M 31.863281 12 L 25.050781 6.5 M 34.050781 12 L 27.238281 6.5 M 36.238281 12 L 29.425781 6.5 M 38.425781 12 L 31.613281 6.5 M 40.613281 12 L 33.800781 6.5 M 42.800781 12 L 35.988281 6.5 M 44.988281 12 L 38.175781 6.5 M 47.175781 12 L 40.363281 6.5 M 49.363281 12 L 42.550781 6.5 M 51.550781 12 L 44.738281 6.5 M 21.4375 7.078125 L 45.691406 7.078125 M 23.070312 8.339844 L 46.945312 8.339844 M 24.761719 9.601562 L 48.574219 9.601562 M 26.265625 10.859375 L 50.269531 10.859375 " transform="matrix(1,0,0,-1,0,37)"/>
<path style=" stroke:none;fill-rule:nonzero;fill:#FFFFFF;fill-opacity:1;" d="M 43.46875 10.773438 C 45.238281 12.277344 47.339844 14.671875 47.433594 16.144531 C 47.527344 17.621094 46.769531 17.996094 46.132812 18.457031 C 45.488281 18.917969 44.226562 18.980469 44.226562 18.980469 L 42.835938 17.300781 C 42.835938 17.300781 45.695312 16.988281 45.246094 15.355469 C 44.796875 13.722656 41.695312 9.273438 43.46875 10.773438 "/>
<path style=" stroke:none;fill-rule:nonzero;fill:#FFFFFF;fill-opacity:1;" d="M 43.886719 15.210938 L 45.335938 20.617188 L 41.90625 18.636719 L 43.886719 15.210938 Z M 43.886719 15.210938 "/>
<path style=" stroke:none;fill-rule:nonzero;fill:#FFFFFF;fill-opacity:1;" d="M 40.128906 18.984375 C 38.355469 17.480469 36.257812 15.089844 36.160156 13.613281 C 36.066406 12.140625 36.824219 11.761719 37.464844 11.300781 C 38.101562 10.839844 39.367188 10.777344 39.367188 10.777344 L 40.761719 12.457031 C 40.761719 12.457031 37.898438 12.769531 38.351562 14.402344 C 38.800781 16.035156 41.898438 20.484375 40.128906 18.984375 "/>
<path style=" stroke:none;fill-rule:nonzero;fill:#FFFFFF;fill-opacity:1;" d="M 39.78125 14.625 L 38.335938 9.21875 L 41.765625 11.195312 L 39.78125 14.625 Z M 39.78125 14.625 "/>
<path style="fill-rule:nonzero;fill:#FED100;fill-opacity:1;stroke-width:0.256;stroke-linecap:butt;stroke-linejoin:miter;stroke:#FFFFFF;stroke-opacity:1;stroke-miterlimit:4;" d="M 42.855469 32.414062 C 44.046875 32.414062 45.011719 33.382812 45.011719 34.570312 C 45.011719 35.761719 44.046875 36.722656 42.855469 36.722656 C 41.664062 36.722656 40.699219 35.761719 40.699219 34.570312 C 40.699219 33.382812 41.664062 32.414062 42.855469 32.414062 Z M 42.855469 32.414062 " transform="matrix(1,0,0,-1,0,37)"/>
<path style=" stroke:none;fill-rule:nonzero;fill:#FED100;fill-opacity:1;" d="M 39.734375 5.699219 L 40.292969 2.363281 C 40.292969 3.792969 41.449219 4.949219 42.878906 4.949219 C 44.304688 4.949219 45.460938 3.792969 45.460938 2.363281 L 45.988281 5.703125 L 39.734375 5.699219 "/>
<path style=" stroke:none;fill-rule:nonzero;fill:#FFFFFF;fill-opacity:1;" d="M 41.378906 2.011719 L 44.316406 2.011719 L 44.316406 2.992188 L 41.378906 2.992188 L 41.378906 2.011719 Z M 41.378906 2.011719 "/>
<path style="fill-rule:nonzero;fill:#202020;fill-opacity:1;stroke-width:2;stroke-linecap:butt;stroke-linejoin:miter;stroke:#FFFFFF;stroke-opacity:1;stroke-miterlimit:4;" d="M 3.640625 7.507812 C 3.890625 6.945312 3.632812 6.289062 3.070312 6.042969 C 2.507812 5.796875 1.851562 6.050781 1.601562 6.613281 C 1.355469 7.175781 1.613281 7.832031 2.175781 8.078125 C 2.738281 8.324219 3.394531 8.070312 3.640625 7.507812 Z M 3.640625 7.507812 " transform="matrix(1,0,0,-1,0,37)"/>
<path style="fill:none;stroke-width:2;stroke-linecap:butt;stroke-linejoin:round;stroke:#FFFFFF;stroke-opacity:1;stroke-miterlimit:4;" d="M 22.273438 13.65625 C 19.636719 11.222656 14.046875 8.449219 9.050781 7.191406 C 5.757812 6.355469 3.46875 6.367188 2.625 7.0625 M 7.988281 13.574219 C 7.960938 15.519531 8.480469 17.730469 9.597656 19.941406 C 12.371094 25.417969 17.757812 28.78125 21.628906 27.453125 C 25.503906 26.121094 26.398438 20.605469 23.625 15.128906 C 23.363281 14.605469 23.078125 14.105469 22.769531 13.628906 " transform="matrix(1,0,0,-1,0,37)"/>
<path style="fill-rule:nonzero;fill:#202020;fill-opacity:1;stroke-width:2;stroke-linecap:butt;stroke-linejoin:miter;stroke:#FFFFFF;stroke-opacity:1;stroke-miterlimit:4;" d="M 24.527344 14.398438 C 24.953125 13.429688 24.511719 12.296875 23.539062 11.871094 C 22.570312 11.445312 21.4375 11.886719 21.011719 12.859375 C 20.585938 13.828125 21.027344 14.964844 22 15.386719 C 22.96875 15.816406 24.101562 15.371094 24.527344 14.398438 Z M 24.527344 14.398438 " transform="matrix(1,0,0,-1,0,37)"/>
<path style="fill-rule:nonzero;fill:#202020;fill-opacity:1;stroke-width:2;stroke-linecap:butt;stroke-linejoin:miter;stroke:#FFFFFF;stroke-opacity:1;stroke-miterlimit:4;" d="M 8.984375 14.023438 C 9.230469 13.460938 8.976562 12.804688 8.414062 12.558594 C 7.851562 12.3125 7.195312 12.566406 6.949219 13.128906 C 6.703125 13.691406 6.957031 14.347656 7.519531 14.59375 C 8.082031 14.839844 8.738281 14.585938 8.984375 14.023438 Z M 8.984375 14.023438 " transform="matrix(1,0,0,-1,0,37)"/>
<path style=" stroke:none;fill-rule:nonzero;fill:#202020;fill-opacity:1;" d="M 3.640625 29.492188 C 3.890625 30.054688 3.632812 30.710938 3.070312 30.957031 C 2.507812 31.203125 1.851562 30.949219 1.601562 30.386719 C 1.355469 29.824219 1.613281 29.167969 2.175781 28.921875 C 2.738281 28.675781 3.394531 28.929688 3.640625 29.492188 "/>
<path style="fill:none;stroke-width:0.4;stroke-linecap:butt;stroke-linejoin:round;stroke:#000000;stroke-opacity:1;stroke-miterlimit:4;" d="M 22.273438 13.65625 C 19.636719 11.222656 14.046875 8.449219 9.050781 7.191406 C 5.757812 6.355469 3.46875 6.367188 2.625 7.0625 " transform="matrix(1,0,0,-1,0,37)"/>
<path style="fill:none;stroke-width:1;stroke-linecap:butt;stroke-linejoin:round;stroke:#000000;stroke-opacity:1;stroke-miterlimit:4;" d="M 7.988281 13.574219 C 7.960938 15.519531 8.480469 17.730469 9.597656 19.941406 C 12.371094 25.417969 17.757812 28.78125 21.628906 27.453125 C 25.503906 26.121094 26.398438 20.605469 23.625 15.128906 C 23.363281 14.605469 23.078125 14.105469 22.769531 13.628906 " transform="matrix(1,0,0,-1,0,37)"/>
<path style="fill-rule:nonzero;fill:#202020;fill-opacity:1;stroke-width:0.4;stroke-linecap:butt;stroke-linejoin:miter;stroke:#FFFFFF;stroke-opacity:1;stroke-miterlimit:4;" d="M 24.527344 14.398438 C 24.953125 13.429688 24.511719 12.296875 23.539062 11.871094 C 22.570312 11.445312 21.4375 11.886719 21.011719 12.859375 C 20.585938 13.828125 21.027344 14.964844 22 15.386719 C 22.96875 15.816406 24.101562 15.371094 24.527344 14.398438 Z M 24.527344 14.398438 " transform="matrix(1,0,0,-1,0,37)"/>
<path style=" stroke:none;fill-rule:nonzero;fill:#202020;fill-opacity:1;" d="M 8.984375 22.976562 C 9.230469 23.539062 8.976562 24.195312 8.414062 24.441406 C 7.851562 24.6875 7.195312 24.433594 6.949219 23.871094 C 6.703125 23.308594 6.957031 22.652344 7.519531 22.40625 C 8.082031 22.160156 8.738281 22.414062 8.984375 22.976562 "/>
</g>
</svg>
