<?xml version="1.0" encoding="UTF-8"?>
<svg xmlns="http://www.w3.org/2000/svg" xmlns:xlink="http://www.w3.org/1999/xlink" width="49pt" height="69pt" viewBox="0 0 49 69" version="1.1">
<defs>
<clipPath id="clip1">
  <path d="M 0 0.25 L 48.960938 0.25 L 48.960938 69 L 0 69 L 0 0.25 Z M 0 0.25 "/>
</clipPath>
<clipPath id="clip2">
  <path d="M 0 0.25 L 48.960938 0.25 L 48.960938 69 L 0 69 L 0 0.25 Z M 0 0.25 "/>
</clipPath>
<clipPath id="clip3">
  <path d="M 0 0.25 L 48.960938 0.25 L 48.960938 69 L 0 69 L 0 0.25 Z M 0 0.25 "/>
</clipPath>
<clipPath id="clip4">
  <path d="M 0 0.25 L 48.960938 0.25 L 48.960938 69 L 0 69 L 0 0.25 Z M 0 0.25 "/>
</clipPath>
<clipPath id="clip5">
  <path d="M 0 0.25 L 48.960938 0.25 L 48.960938 69 L 0 69 L 0 0.25 Z M 0 0.25 "/>
</clipPath>
<clipPath id="clip6">
  <path d="M 0 0.25 L 48.960938 0.25 L 48.960938 69 L 0 69 L 0 0.25 Z M 0 0.25 "/>
</clipPath>
</defs>
<g id="surface0">
<g clip-path="url(#clip1)" clip-rule="nonzero">
<path style="fill-rule:nonzero;fill:#FED100;fill-opacity:1;stroke-width:0.4;stroke-linecap:butt;stroke-linejoin:miter;stroke:#FFFFFF;stroke-opacity:1;stroke-miterlimit:4;" d="M 47.550781 44.101562 C 49.128906 46.351562 44.851562 47.476562 44.851562 47.476562 " transform="matrix(1,0,0,-1,0,69)"/>
</g>
<path style=" stroke:none;fill-rule:nonzero;fill:#FED100;fill-opacity:1;" d="M 44.925781 5.21875 L 42.753906 7.019531 L 25.949219 7.019531 L 28.125 5.21875 L 44.925781 5.21875 "/>
<path style="fill:none;stroke-width:0.4;stroke-linecap:butt;stroke-linejoin:miter;stroke:#FFFFFF;stroke-opacity:1;stroke-miterlimit:4;" d="M 44.925781 63.78125 L 42.753906 61.980469 L 25.949219 61.980469 L 28.125 63.78125 L 44.925781 63.78125 Z M 44.925781 63.78125 " transform="matrix(1,0,0,-1,0,69)"/>
<path style=" stroke:none;fill-rule:nonzero;fill:#FED100;fill-opacity:1;" d="M 25.800781 7.050781 L 42.753906 7.050781 L 42.753906 20.476562 L 25.800781 20.476562 L 25.800781 7.050781 Z M 25.800781 7.050781 "/>
<path style="fill:none;stroke-width:0.4;stroke-linecap:butt;stroke-linejoin:miter;stroke:#FFFFFF;stroke-opacity:1;stroke-miterlimit:4;" d="M 25.800781 48.523438 L 42.753906 48.523438 L 42.753906 61.949219 L 25.800781 61.949219 L 25.800781 48.523438 Z M 25.800781 48.523438 " transform="matrix(1,0,0,-1,0,69)"/>
<path style=" stroke:none;fill-rule:nonzero;fill:#FED100;fill-opacity:1;" d="M 44.925781 18.890625 L 44.925781 5.25 L 42.675781 7.050781 L 42.675781 20.691406 L 44.925781 18.890625 "/>
<path style="fill:none;stroke-width:0.4;stroke-linecap:butt;stroke-linejoin:miter;stroke:#FFFFFF;stroke-opacity:1;stroke-miterlimit:4;" d="M 44.925781 50.109375 L 44.925781 63.75 L 42.675781 61.949219 L 42.675781 48.308594 L 44.925781 50.109375 Z M 44.925781 50.109375 " transform="matrix(1,0,0,-1,0,69)"/>
<path style="fill-rule:nonzero;fill:#FED100;fill-opacity:1;stroke-width:0.4;stroke-linecap:butt;stroke-linejoin:miter;stroke:#FFFFFF;stroke-opacity:1;stroke-miterlimit:4;" d="M 20.101562 65.101562 C 20.25 63.601562 19.273438 62.550781 21 60.375 C 21.253906 60.058594 20.625 59.4375 20.398438 59.082031 C 20.175781 58.726562 20.101562 58.199219 20.25 57.75 C 20.101562 57.75 19.949219 57.375 19.949219 57.074219 C 19.800781 56.324219 20.101562 55.800781 19.648438 55.652344 C 18.898438 55.351562 17.851562 55.351562 17.398438 54.902344 C 16.800781 54.449219 16.199219 53.699219 15.898438 52.800781 C 15.75 52.800781 15.449219 52.800781 15.300781 52.800781 C 13.949219 54.152344 12.300781 57 10.351562 57.601562 C 9.601562 59.550781 10.949219 61.199219 11.851562 62.851562 C 12.898438 64.652344 14.851562 65.851562 16.949219 66 " transform="matrix(1,0,0,-1,0,69)"/>
<g clip-path="url(#clip2)" clip-rule="nonzero">
<path style=" stroke:none;fill-rule:nonzero;fill:#FED100;fill-opacity:1;" d="M 9.976562 11.261719 C 10.214844 11.5 10.800781 11.097656 11.25 11.25 C 12 11.550781 13.050781 11.699219 13.5 11.25 C 14.101562 10.800781 14.398438 9.898438 14.851562 9.148438 C 14.851562 9 15 8.699219 15.300781 8.550781 C 16.050781 8.550781 17.101562 8.847656 17.398438 8.398438 C 18.300781 7.5 17.101562 5.699219 18.449219 4.949219 C 19.5 4.5 21.300781 4.199219 21 2.699219 C 18.148438 1.199219 15 -0.300781 11.851562 0.449219 C 10.949219 0.75 10.199219 1.800781 9.449219 2.550781 C 9.300781 2.847656 9 3.148438 9 3.449219 C 8.851562 5.398438 8.699219 7.199219 9.148438 9.148438 C 9.300781 9.75 9.523438 10.8125 9.976562 11.261719 "/>
<path style="fill:none;stroke-width:0.4;stroke-linecap:butt;stroke-linejoin:miter;stroke:#FFFFFF;stroke-opacity:1;stroke-miterlimit:4;" d="M 9.976562 57.738281 C 10.214844 57.5 10.800781 57.902344 11.25 57.75 C 12 57.449219 13.050781 57.300781 13.5 57.75 C 14.101562 58.199219 14.398438 59.101562 14.851562 59.851562 C 14.851562 60 15 60.300781 15.300781 60.449219 C 16.050781 60.449219 17.101562 60.152344 17.398438 60.601562 C 18.300781 61.5 17.101562 63.300781 18.449219 64.050781 C 19.5 64.5 21.300781 64.800781 21 66.300781 C 18.148438 67.800781 15 69.300781 11.851562 68.550781 C 10.949219 68.25 10.199219 67.199219 9.449219 66.449219 C 9.300781 66.152344 9 65.851562 9 65.550781 C 8.851562 63.601562 8.699219 61.800781 9.148438 59.851562 C 9.300781 59.25 9.523438 58.1875 9.976562 57.738281 Z M 9.976562 57.738281 " transform="matrix(1,0,0,-1,0,69)"/>
</g>
<path style="fill-rule:nonzero;fill:#FED100;fill-opacity:1;stroke-width:0.4;stroke-linecap:butt;stroke-linejoin:miter;stroke:#FFFFFF;stroke-opacity:1;stroke-miterlimit:4;" d="M 25.574219 21.898438 C 25.574219 20.699219 25.574219 19.5 25.574219 18.300781 C 24.75 17.550781 24.824219 16.351562 24.824219 15.300781 C 26.023438 14.625 27.449219 14.925781 28.726562 14.851562 C 28.726562 15.074219 28.726562 15.375 28.800781 15.375 C 30 15.523438 31.125 15.601562 32.324219 15.75 C 32.625 16.574219 32.773438 17.550781 32.773438 18.449219 C 31.726562 18.976562 30.148438 18.898438 29.625 20.101562 C 29.175781 21.300781 29.175781 22.574219 29.25 23.773438 " transform="matrix(1,0,0,-1,0,69)"/>
<path style="fill-rule:nonzero;fill:#FED100;fill-opacity:1;stroke-width:0.4;stroke-linecap:butt;stroke-linejoin:miter;stroke:#FFFFFF;stroke-opacity:1;stroke-miterlimit:4;" d="M 21.375 23.476562 C 24.148438 23.175781 26.550781 24.675781 29.101562 25.726562 C 29.773438 26.023438 30.75 25.800781 31.574219 25.800781 C 31.800781 22.949219 31.351562 20.101562 31.5 17.25 C 32.925781 17.25 34.273438 17.101562 35.699219 17.324219 C 36.449219 17.398438 37.199219 17.773438 37.875 18.148438 C 37.875 22.125 38.101562 26.101562 37.648438 30.148438 C 37.574219 30.601562 37.273438 31.050781 36.976562 31.5 C 36.824219 31.726562 36.523438 31.949219 36.226562 32.023438 C 32.851562 32.773438 32.324219 32.398438 29.023438 32.851562 C 28.726562 32.851562 29.773438 34.5 29.550781 34.800781 C 28.960938 35.589844 21.148438 35.175781 20.175781 35.101562 " transform="matrix(1,0,0,-1,0,69)"/>
<path style="fill-rule:nonzero;fill:#FED100;fill-opacity:1;stroke-width:0.4;stroke-linecap:butt;stroke-linejoin:miter;stroke:#FFFFFF;stroke-opacity:1;stroke-miterlimit:4;" d="M 35.324219 17.398438 C 35.324219 16.875 35.175781 16.351562 35.398438 15.898438 C 35.476562 15.675781 35.925781 15.675781 36.226562 15.449219 C 36.449219 15.226562 36.675781 14.925781 36.976562 14.773438 C 37.425781 14.550781 37.949219 14.476562 38.476562 14.398438 C 39.226562 14.324219 39.976562 14.550781 40.648438 14.25 C 40.726562 14.175781 40.949219 14.175781 41.101562 14.023438 C 41.550781 13.5 41.699219 12.824219 41.398438 12.375 C 40.800781 11.476562 39.976562 10.800781 38.925781 10.574219 C 37.5 10.351562 36.074219 10.574219 34.648438 10.273438 C 34.5 10.273438 34.574219 10.273438 34.5 10.199219 C 34.425781 9.976562 34.574219 9.375 34.5 9.375 C 33.074219 9.300781 31.425781 9 30.449219 10.351562 C 30.148438 10.800781 30.074219 11.476562 30.300781 12.074219 C 30.601562 12.675781 30.75 13.273438 30.898438 13.949219 C 31.125 14.476562 31.050781 14.476562 31.273438 15 C 31.574219 15.75 31.425781 16.574219 31.425781 17.398438 " transform="matrix(1,0,0,-1,0,69)"/>
<g clip-path="url(#clip3)" clip-rule="nonzero">
<path style=" stroke:none;fill-rule:nonzero;fill:#FED100;fill-opacity:1;" d="M 17.625 52.425781 L 17.625 56.175781 L 24.898438 53.175781 C 26.101562 52.949219 26.398438 54.449219 26.398438 54.449219 L 26.398438 55.5 L 25.800781 55.5 L 25.800781 56.476562 C 25.199219 57.523438 24.226562 56.476562 24.226562 56.476562 L 24.226562 55.273438 L 18.449219 57.898438 L 25.273438 63.449219 C 26.175781 65.101562 25.351562 66.601562 25.351562 66.601562 C 26.101562 68.023438 24.75 69 24.75 69 C 22.949219 69.898438 23.023438 67.726562 23.023438 67.726562 C 22.800781 66.449219 24.074219 66.449219 24.074219 66.449219 L 24.449219 65.699219 L 16.5 58.5 L 6.148438 64.425781 L 5.777344 65.324219 C 6.601562 67.125 5.101562 67.726562 5.101562 67.726562 C 3 68.101562 3.824219 66.226562 3.824219 66.226562 C 3.75 65.175781 4.574219 65.175781 4.574219 65.175781 L 5.175781 64.5 C 5.175781 64.5 5.699219 64.726562 5.101562 64.199219 C 4.5 63.675781 4.949219 62.25 4.949219 62.25 L 14.699219 57.449219 L 11.476562 54.300781 L 10.425781 54.976562 C 10.425781 56.699219 9.226562 56.175781 9.226562 56.175781 C 7.949219 56.175781 8.699219 54.824219 8.699219 54.824219 C 9.148438 54.449219 9.75 54.226562 9.75 54.226562 L 10.5 52.574219 L 12.976562 53.851562 L 15.824219 56.25 L 15.824219 52.949219 "/>
</g>
<path style="fill-rule:nonzero;fill:#FED100;fill-opacity:1;stroke-width:0.4;stroke-linecap:butt;stroke-linejoin:miter;stroke:#FFFFFF;stroke-opacity:1;stroke-miterlimit:4;" d="M 21.976562 20.398438 L 30.449219 24.226562 C 31.050781 24.976562 30.074219 26.101562 30.074219 26.101562 L 22.125 23.101562 " transform="matrix(1,0,0,-1,0,69)"/>
<path style=" stroke:none;fill-rule:nonzero;fill:#FED100;fill-opacity:1;" d="M 27.226562 8.847656 L 41.328125 8.847656 L 41.328125 18.972656 L 27.226562 18.972656 L 27.226562 8.847656 Z M 27.226562 8.847656 "/>
<path style="fill:none;stroke-width:0.4;stroke-linecap:butt;stroke-linejoin:miter;stroke:#FFFFFF;stroke-opacity:1;stroke-miterlimit:4;" d="M 27.226562 50.027344 L 41.328125 50.027344 L 41.328125 60.152344 L 27.226562 60.152344 L 27.226562 50.027344 Z M 27.226562 50.027344 " transform="matrix(1,0,0,-1,0,69)"/>
<path style=" stroke:none;fill-rule:nonzero;fill:#FED100;fill-opacity:1;" d="M 25.941406 21.160156 L 42.964844 21.160156 L 42.964844 23.632812 L 25.941406 23.632812 L 25.941406 21.160156 Z M 25.941406 21.160156 "/>
<path style="fill:none;stroke-width:0.4;stroke-linecap:butt;stroke-linejoin:miter;stroke:#FFFFFF;stroke-opacity:1;stroke-miterlimit:4;" d="M 25.941406 45.367188 L 42.964844 45.367188 L 42.964844 47.839844 L 25.941406 47.839844 L 25.941406 45.367188 Z M 25.941406 45.367188 " transform="matrix(1,0,0,-1,0,69)"/>
<path style=" stroke:none;fill-rule:nonzero;fill:#FED100;fill-opacity:1;" d="M 22.050781 27 L 40.949219 27 L 40.949219 27.824219 L 22.050781 27.824219 L 22.050781 27 Z M 22.050781 27 "/>
<path style="fill:none;stroke-width:0.4;stroke-linecap:butt;stroke-linejoin:miter;stroke:#FFFFFF;stroke-opacity:1;stroke-miterlimit:4;" d="M 22.050781 41.175781 L 40.949219 41.175781 L 40.949219 42 L 22.050781 42 L 22.050781 41.175781 Z M 22.050781 41.175781 " transform="matrix(1,0,0,-1,0,69)"/>
<path style=" stroke:none;fill-rule:nonzero;fill:#FED100;fill-opacity:1;" d="M 44.628906 26.851562 L 47.398438 26.851562 L 47.398438 27.449219 L 44.628906 27.449219 L 44.628906 26.851562 Z M 44.628906 26.851562 "/>
<path style="fill:none;stroke-width:0.4;stroke-linecap:butt;stroke-linejoin:miter;stroke:#FFFFFF;stroke-opacity:1;stroke-miterlimit:4;" d="M 44.628906 41.550781 L 47.398438 41.550781 L 47.398438 42.152344 L 44.628906 42.152344 L 44.628906 41.550781 Z M 44.628906 41.550781 " transform="matrix(1,0,0,-1,0,69)"/>
<path style=" stroke:none;fill-rule:nonzero;fill:#FED100;fill-opacity:1;" d="M 47.398438 26.699219 L 48.601562 24.75 L 45.824219 24.75 L 44.628906 26.699219 L 47.398438 26.699219 "/>
<g clip-path="url(#clip4)" clip-rule="nonzero">
<path style="fill:none;stroke-width:0.4;stroke-linecap:butt;stroke-linejoin:miter;stroke:#FFFFFF;stroke-opacity:1;stroke-miterlimit:4;" d="M 47.398438 42.300781 L 48.601562 44.25 L 45.824219 44.25 L 44.628906 42.300781 L 47.398438 42.300781 Z M 47.398438 42.300781 " transform="matrix(1,0,0,-1,0,69)"/>
</g>
<path style=" stroke:none;fill-rule:nonzero;fill:#FED100;fill-opacity:1;" d="M 48.675781 26.476562 L 48.675781 24.75 L 47.324219 26.851562 L 47.324219 27.449219 L 48.675781 26.476562 "/>
<g clip-path="url(#clip5)" clip-rule="nonzero">
<path style="fill:none;stroke-width:0.4;stroke-linecap:butt;stroke-linejoin:miter;stroke:#FFFFFF;stroke-opacity:1;stroke-miterlimit:4;" d="M 48.675781 42.523438 L 48.675781 44.25 L 47.324219 42.148438 L 47.324219 41.550781 L 48.675781 42.523438 Z M 48.675781 42.523438 " transform="matrix(1,0,0,-1,0,69)"/>
</g>
<path style=" stroke:none;fill-rule:nonzero;fill:#FED100;fill-opacity:1;" d="M 43.648438 25.199219 L 43.648438 23.773438 L 40.878906 27 L 40.878906 27.824219 L 43.648438 25.199219 "/>
<path style="fill:none;stroke-width:0.4;stroke-linecap:butt;stroke-linejoin:miter;stroke:#FFFFFF;stroke-opacity:1;stroke-miterlimit:4;" d="M 43.648438 43.800781 L 43.648438 45.226562 L 40.878906 42 L 40.878906 41.175781 L 43.648438 43.800781 Z M 43.648438 43.800781 " transform="matrix(1,0,0,-1,0,69)"/>
<path style=" stroke:none;fill-rule:nonzero;fill:#FED100;fill-opacity:1;" d="M 45.226562 22.273438 L 45.226562 19.125 L 42.964844 21.070312 L 42.964844 24.375 L 45.226562 22.273438 "/>
<path style="fill:none;stroke-width:0.4;stroke-linecap:butt;stroke-linejoin:miter;stroke:#FFFFFF;stroke-opacity:1;stroke-miterlimit:4;" d="M 45.226562 46.726562 L 45.226562 49.875 L 42.964844 47.929688 L 42.964844 44.625 L 45.226562 46.726562 Z M 45.226562 46.726562 " transform="matrix(1,0,0,-1,0,69)"/>
<path style=" stroke:none;fill-rule:nonzero;fill:#FED100;fill-opacity:1;" d="M 26.324219 20.550781 L 42.824219 20.550781 L 42.824219 21.148438 L 26.324219 21.148438 L 26.324219 20.550781 Z M 26.324219 20.550781 "/>
<path style="fill:none;stroke-width:0.4;stroke-linecap:butt;stroke-linejoin:miter;stroke:#FFFFFF;stroke-opacity:1;stroke-miterlimit:4;" d="M 26.324219 47.851562 L 42.824219 47.851562 L 42.824219 48.453125 L 26.324219 48.453125 L 26.324219 47.851562 Z M 26.324219 47.851562 " transform="matrix(1,0,0,-1,0,69)"/>
<path style=" stroke:none;fill-rule:nonzero;fill:#FED100;fill-opacity:1;" d="M 45.003906 19.425781 L 45.003906 19.039062 L 42.675781 20.765625 L 42.675781 21.148438 L 45.003906 19.425781 "/>
<path style="fill:none;stroke-width:0.4;stroke-linecap:butt;stroke-linejoin:miter;stroke:#FFFFFF;stroke-opacity:1;stroke-miterlimit:4;" d="M 45.003906 49.574219 L 45.003906 49.960938 L 42.675781 48.234375 L 42.675781 47.851562 L 45.003906 49.574219 Z M 45.003906 49.574219 " transform="matrix(1,0,0,-1,0,69)"/>
<path style=" stroke:none;fill-rule:nonzero;fill:#FED100;fill-opacity:1;" d="M 43.503906 23.699219 L 40.949219 27.074219 L 22.125 27.074219 L 25.125 23.699219 L 43.503906 23.699219 "/>
<path style="fill:none;stroke-width:0.4;stroke-linecap:butt;stroke-linejoin:miter;stroke:#FFFFFF;stroke-opacity:1;stroke-miterlimit:4;" d="M 43.503906 45.300781 L 40.949219 41.925781 L 22.125 41.925781 L 25.125 45.300781 L 43.503906 45.300781 Z M 43.503906 45.300781 " transform="matrix(1,0,0,-1,0,69)"/>
<path style="fill-rule:nonzero;fill:#FED100;fill-opacity:1;stroke-width:0.4;stroke-linecap:butt;stroke-linejoin:miter;stroke:#FFFFFF;stroke-opacity:1;stroke-miterlimit:4;" d="M 36.898438 46.648438 L 41.550781 46.648438 " transform="matrix(1,0,0,-1,0,69)"/>
<path style="fill-rule:nonzero;fill:#FED100;fill-opacity:1;stroke-width:0.4;stroke-linecap:butt;stroke-linejoin:miter;stroke:#FFFFFF;stroke-opacity:1;stroke-miterlimit:4;" d="M 19.699219 62.101562 L 19.199219 61.199219 L 20 61.300781 " transform="matrix(1,0,0,-1,0,69)"/>
<path style="fill-rule:nonzero;fill:#FED100;fill-opacity:1;stroke-width:0.4;stroke-linecap:butt;stroke-linejoin:miter;stroke:#FFFFFF;stroke-opacity:1;stroke-miterlimit:4;" d="M 28.539062 44.179688 L 29.539062 44.175781 " transform="matrix(1,0,0,-1,0,69)"/>
<path style="fill-rule:nonzero;fill:#FED100;fill-opacity:1;stroke-width:0.4;stroke-linecap:butt;stroke-linejoin:miter;stroke:#FFFFFF;stroke-opacity:1;stroke-miterlimit:4;" d="M 29.941406 44.171875 L 30.941406 44.164062 " transform="matrix(1,0,0,-1,0,69)"/>
<path style="fill-rule:nonzero;fill:#FED100;fill-opacity:1;stroke-width:0.4;stroke-linecap:butt;stroke-linejoin:miter;stroke:#FFFFFF;stroke-opacity:1;stroke-miterlimit:4;" d="M 25.640625 44.199219 L 26.640625 44.191406 " transform="matrix(1,0,0,-1,0,69)"/>
<path style="fill-rule:nonzero;fill:#FED100;fill-opacity:1;stroke-width:0.4;stroke-linecap:butt;stroke-linejoin:miter;stroke:#FFFFFF;stroke-opacity:1;stroke-miterlimit:4;" d="M 27.039062 44.191406 L 28.039062 44.183594 " transform="matrix(1,0,0,-1,0,69)"/>
<path style="fill-rule:nonzero;fill:#FED100;fill-opacity:1;stroke-width:0.4;stroke-linecap:butt;stroke-linejoin:miter;stroke:#FFFFFF;stroke-opacity:1;stroke-miterlimit:4;" d="M 31.34375 44.160156 L 32.34375 44.15625 " transform="matrix(1,0,0,-1,0,69)"/>
<path style="fill-rule:nonzero;fill:#FED100;fill-opacity:1;stroke-width:0.4;stroke-linecap:butt;stroke-linejoin:miter;stroke:#FFFFFF;stroke-opacity:1;stroke-miterlimit:4;" d="M 32.738281 44.152344 L 33.738281 44.148438 " transform="matrix(1,0,0,-1,0,69)"/>
<path style="fill-rule:nonzero;fill:#FED100;fill-opacity:1;stroke-width:0.4;stroke-linecap:butt;stroke-linejoin:miter;stroke:#FFFFFF;stroke-opacity:1;stroke-miterlimit:4;" d="M 34.140625 44.144531 L 35.140625 44.136719 " transform="matrix(1,0,0,-1,0,69)"/>
<path style="fill-rule:nonzero;fill:#FED100;fill-opacity:1;stroke-width:0.4;stroke-linecap:butt;stroke-linejoin:miter;stroke:#FFFFFF;stroke-opacity:1;stroke-miterlimit:4;" d="M 35.539062 44.136719 L 36.539062 44.128906 " transform="matrix(1,0,0,-1,0,69)"/>
<path style="fill-rule:nonzero;fill:#FED100;fill-opacity:1;stroke-width:0.4;stroke-linecap:butt;stroke-linejoin:miter;stroke:#FFFFFF;stroke-opacity:1;stroke-miterlimit:4;" d="M 36.941406 44.125 L 37.941406 44.117188 " transform="matrix(1,0,0,-1,0,69)"/>
<path style="fill-rule:nonzero;fill:#FED100;fill-opacity:1;stroke-width:0.4;stroke-linecap:butt;stroke-linejoin:miter;stroke:#FFFFFF;stroke-opacity:1;stroke-miterlimit:4;" d="M 38.34375 44.117188 L 39.34375 44.109375 " transform="matrix(1,0,0,-1,0,69)"/>
<path style="fill-rule:nonzero;fill:#FED100;fill-opacity:1;stroke-width:0.4;stroke-linecap:butt;stroke-linejoin:miter;stroke:#FFFFFF;stroke-opacity:1;stroke-miterlimit:4;" d="M 39.738281 44.105469 L 40.738281 44.101562 " transform="matrix(1,0,0,-1,0,69)"/>
<path style="fill-rule:nonzero;fill:#FED100;fill-opacity:1;stroke-width:0.4;stroke-linecap:butt;stroke-linejoin:miter;stroke:#FFFFFF;stroke-opacity:1;stroke-miterlimit:4;" d="M 28.039062 43.382812 L 29.039062 43.375 " transform="matrix(1,0,0,-1,0,69)"/>
<path style="fill-rule:nonzero;fill:#FED100;fill-opacity:1;stroke-width:0.4;stroke-linecap:butt;stroke-linejoin:miter;stroke:#FFFFFF;stroke-opacity:1;stroke-miterlimit:4;" d="M 29.441406 43.371094 L 30.441406 43.363281 " transform="matrix(1,0,0,-1,0,69)"/>
<path style="fill-rule:nonzero;fill:#FED100;fill-opacity:1;stroke-width:0.4;stroke-linecap:butt;stroke-linejoin:miter;stroke:#FFFFFF;stroke-opacity:1;stroke-miterlimit:4;" d="M 25.140625 43.398438 L 26.140625 43.394531 " transform="matrix(1,0,0,-1,0,69)"/>
<path style="fill-rule:nonzero;fill:#FED100;fill-opacity:1;stroke-width:0.4;stroke-linecap:butt;stroke-linejoin:miter;stroke:#FFFFFF;stroke-opacity:1;stroke-miterlimit:4;" d="M 26.539062 43.390625 L 27.539062 43.382812 " transform="matrix(1,0,0,-1,0,69)"/>
<path style="fill-rule:nonzero;fill:#FED100;fill-opacity:1;stroke-width:0.4;stroke-linecap:butt;stroke-linejoin:miter;stroke:#FFFFFF;stroke-opacity:1;stroke-miterlimit:4;" d="M 30.84375 43.363281 L 31.84375 43.355469 " transform="matrix(1,0,0,-1,0,69)"/>
<path style="fill-rule:nonzero;fill:#FED100;fill-opacity:1;stroke-width:0.4;stroke-linecap:butt;stroke-linejoin:miter;stroke:#FFFFFF;stroke-opacity:1;stroke-miterlimit:4;" d="M 32.238281 43.355469 L 33.238281 43.347656 " transform="matrix(1,0,0,-1,0,69)"/>
<path style="fill-rule:nonzero;fill:#FED100;fill-opacity:1;stroke-width:0.4;stroke-linecap:butt;stroke-linejoin:miter;stroke:#FFFFFF;stroke-opacity:1;stroke-miterlimit:4;" d="M 33.640625 43.34375 L 34.640625 43.339844 " transform="matrix(1,0,0,-1,0,69)"/>
<path style="fill-rule:nonzero;fill:#FED100;fill-opacity:1;stroke-width:0.4;stroke-linecap:butt;stroke-linejoin:miter;stroke:#FFFFFF;stroke-opacity:1;stroke-miterlimit:4;" d="M 35.039062 43.335938 L 36.039062 43.328125 " transform="matrix(1,0,0,-1,0,69)"/>
<path style="fill-rule:nonzero;fill:#FED100;fill-opacity:1;stroke-width:0.4;stroke-linecap:butt;stroke-linejoin:miter;stroke:#FFFFFF;stroke-opacity:1;stroke-miterlimit:4;" d="M 36.441406 43.324219 L 37.441406 43.320312 " transform="matrix(1,0,0,-1,0,69)"/>
<path style="fill-rule:nonzero;fill:#FED100;fill-opacity:1;stroke-width:0.4;stroke-linecap:butt;stroke-linejoin:miter;stroke:#FFFFFF;stroke-opacity:1;stroke-miterlimit:4;" d="M 37.84375 43.316406 L 38.84375 43.3125 " transform="matrix(1,0,0,-1,0,69)"/>
<path style="fill-rule:nonzero;fill:#FED100;fill-opacity:1;stroke-width:0.4;stroke-linecap:butt;stroke-linejoin:miter;stroke:#FFFFFF;stroke-opacity:1;stroke-miterlimit:4;" d="M 39.238281 43.308594 L 40.238281 43.300781 " transform="matrix(1,0,0,-1,0,69)"/>
<path style="fill-rule:nonzero;fill:#FED100;fill-opacity:1;stroke-width:0.4;stroke-linecap:butt;stroke-linejoin:miter;stroke:#FFFFFF;stroke-opacity:1;stroke-miterlimit:4;" d="M 27.539062 42.578125 L 28.539062 42.574219 " transform="matrix(1,0,0,-1,0,69)"/>
<path style="fill-rule:nonzero;fill:#FED100;fill-opacity:1;stroke-width:0.4;stroke-linecap:butt;stroke-linejoin:miter;stroke:#FFFFFF;stroke-opacity:1;stroke-miterlimit:4;" d="M 28.941406 42.570312 L 29.941406 42.566406 " transform="matrix(1,0,0,-1,0,69)"/>
<path style="fill-rule:nonzero;fill:#FED100;fill-opacity:1;stroke-width:0.4;stroke-linecap:butt;stroke-linejoin:miter;stroke:#FFFFFF;stroke-opacity:1;stroke-miterlimit:4;" d="M 24.640625 42.601562 L 25.640625 42.59375 " transform="matrix(1,0,0,-1,0,69)"/>
<path style="fill-rule:nonzero;fill:#FED100;fill-opacity:1;stroke-width:0.4;stroke-linecap:butt;stroke-linejoin:miter;stroke:#FFFFFF;stroke-opacity:1;stroke-miterlimit:4;" d="M 26.039062 42.589844 L 27.039062 42.585938 " transform="matrix(1,0,0,-1,0,69)"/>
<path style="fill-rule:nonzero;fill:#FED100;fill-opacity:1;stroke-width:0.4;stroke-linecap:butt;stroke-linejoin:miter;stroke:#FFFFFF;stroke-opacity:1;stroke-miterlimit:4;" d="M 30.34375 42.5625 L 31.34375 42.554688 " transform="matrix(1,0,0,-1,0,69)"/>
<path style="fill-rule:nonzero;fill:#FED100;fill-opacity:1;stroke-width:0.4;stroke-linecap:butt;stroke-linejoin:miter;stroke:#FFFFFF;stroke-opacity:1;stroke-miterlimit:4;" d="M 31.738281 42.554688 L 32.738281 42.546875 " transform="matrix(1,0,0,-1,0,69)"/>
<path style="fill-rule:nonzero;fill:#FED100;fill-opacity:1;stroke-width:0.4;stroke-linecap:butt;stroke-linejoin:miter;stroke:#FFFFFF;stroke-opacity:1;stroke-miterlimit:4;" d="M 33.140625 42.542969 L 34.140625 42.539062 " transform="matrix(1,0,0,-1,0,69)"/>
<path style="fill-rule:nonzero;fill:#FED100;fill-opacity:1;stroke-width:0.4;stroke-linecap:butt;stroke-linejoin:miter;stroke:#FFFFFF;stroke-opacity:1;stroke-miterlimit:4;" d="M 34.539062 42.535156 L 35.539062 42.527344 " transform="matrix(1,0,0,-1,0,69)"/>
<path style="fill-rule:nonzero;fill:#FED100;fill-opacity:1;stroke-width:0.4;stroke-linecap:butt;stroke-linejoin:miter;stroke:#FFFFFF;stroke-opacity:1;stroke-miterlimit:4;" d="M 35.941406 42.527344 L 36.941406 42.519531 " transform="matrix(1,0,0,-1,0,69)"/>
<path style="fill-rule:nonzero;fill:#FED100;fill-opacity:1;stroke-width:0.4;stroke-linecap:butt;stroke-linejoin:miter;stroke:#FFFFFF;stroke-opacity:1;stroke-miterlimit:4;" d="M 37.34375 42.515625 L 38.34375 42.511719 " transform="matrix(1,0,0,-1,0,69)"/>
<path style="fill-rule:nonzero;fill:#FED100;fill-opacity:1;stroke-width:0.4;stroke-linecap:butt;stroke-linejoin:miter;stroke:#FFFFFF;stroke-opacity:1;stroke-miterlimit:4;" d="M 38.738281 42.507812 L 39.738281 42.5 " transform="matrix(1,0,0,-1,0,69)"/>
<path style="fill-rule:nonzero;fill:#FED100;fill-opacity:1;stroke-width:0.4;stroke-linecap:butt;stroke-linejoin:miter;stroke:#FFFFFF;stroke-opacity:1;stroke-miterlimit:4;" d="M 22.425781 45.898438 C 23.175781 45.898438 24 45.75 24.75 45.976562 C 25.125 46.125 25.425781 46.648438 25.800781 46.800781 C 26.324219 46.949219 26.925781 47.023438 27.449219 46.726562 C 27.523438 46.648438 27.601562 46.5 27.75 46.425781 C 28.425781 46.351562 29.101562 46.273438 29.625 45.824219 C 30 45.449219 29.699219 44.851562 29.773438 44.398438 C 29.625 44.398438 29.398438 44.101562 29.398438 44.25 C 29.175781 44.625 29.101562 45.074219 28.800781 45.300781 C 28.351562 45.449219 27.824219 45.523438 27.375 45.300781 C 27.300781 45.300781 27.375 44.925781 27.601562 44.925781 C 28.050781 44.925781 28.574219 44.625 28.273438 44.324219 C 27.300781 43.351562 25.800781 43.648438 24.449219 43.800781 C 24 43.800781 23.550781 44.175781 23.023438 44.175781 " transform="matrix(1,0,0,-1,0,69)"/>
<path style="fill-rule:nonzero;fill:#FED100;fill-opacity:1;stroke-width:0.4;stroke-linecap:butt;stroke-linejoin:miter;stroke:#FFFFFF;stroke-opacity:1;stroke-miterlimit:4;" d="M 33.601562 38.398438 C 33.976562 38.324219 34.199219 38.625 34.574219 38.699219 C 34.875 38.851562 35.25 38.699219 35.550781 38.773438 C 36.148438 39 36.601562 39.449219 37.199219 39.675781 C 37.351562 40.648438 37.351562 41.699219 37.574219 42.675781 C 37.648438 42.601562 38.824219 42.949219 38.898438 42.949219 C 38.824219 43.175781 39.050781 43.550781 38.824219 43.625 C 38 43.925781 36.074219 43.648438 35.175781 43.425781 C 35.101562 43.425781 35.101562 43.5 35.101562 43.574219 C 34.574219 43.574219 34.050781 43.648438 33.601562 43.351562 C 33 42.976562 33.300781 42.226562 33.226562 41.550781 C 33.074219 41.175781 32.699219 40.949219 32.398438 40.800781 C 32.175781 40.648438 31.800781 40.574219 31.574219 40.351562 " transform="matrix(1,0,0,-1,0,69)"/>
<path style="fill-rule:nonzero;fill:#FED100;fill-opacity:1;stroke-width:0.4;stroke-linecap:butt;stroke-linejoin:miter;stroke:#FFFFFF;stroke-opacity:1;stroke-miterlimit:4;" d="M 18.824219 46.199219 C 19.875 46.199219 21.75 46.351562 22.351562 45.898438 C 22.800781 45.449219 23.25 43.949219 22.800781 43.351562 C 22.648438 43.050781 21.449219 42.976562 20.851562 42.976562 " transform="matrix(1,0,0,-1,0,69)"/>
<path style=" stroke:none;fill-rule:nonzero;fill:#FED100;fill-opacity:1;" d="M 9.601562 11.550781 C 10.199219 11.550781 11.101562 11.398438 11.398438 11.699219 C 13.050781 12.898438 14.398438 14.398438 15.601562 16.050781 C 16.351562 17.398438 17.550781 18.148438 17.851562 19.5 C 18.148438 20.699219 18.449219 21.898438 18.898438 22.949219 C 20.101562 25.050781 21.300781 26.851562 22.648438 28.949219 C 22.949219 29.25 23.699219 29.101562 24.300781 29.398438 C 24.449219 29.550781 24.601562 30 24.75 30 C 25.648438 30 26.550781 30.148438 27.300781 29.851562 C 28.648438 29.101562 30.148438 28.949219 31.5 28.5 C 32.101562 29.851562 34.050781 30.300781 34.050781 31.800781 C 32.398438 32.851562 30.75 33.601562 29.101562 34.5 C 28.050781 34.949219 27 35.851562 25.800781 35.851562 C 25.050781 35.851562 21.601562 34.5 21.449219 34.800781 C 20.851562 36.601562 24 39.898438 23.550781 42 C 22.949219 44.25 22.648438 46.199219 22.199219 48.449219 C 22.050781 49.050781 21.75 49.648438 21.601562 50.398438 C 21.449219 50.851562 21.148438 51.300781 20.851562 51.601562 C 20.25 52.050781 19.648438 52.800781 19.050781 52.949219 C 18.300781 53.25 17.476562 53.023438 16.726562 53.324219 C 16.273438 53.476562 15.75 53.550781 15.300781 53.699219 C 14.550781 54.148438 13.5 53.851562 13.351562 53.398438 C 12.601562 51.300781 13.199219 48.898438 12.449219 46.800781 C 10.949219 42.601562 9.6875 38.941406 6.898438 34.199219 C 6.308594 33.1875 4.175781 33.574219 3.449219 32.398438 C 1.082031 28.5625 3 22.351562 4.351562 17.097656 C 4.652344 15.75 5.925781 13.875 7.273438 13.425781 C 7.726562 13.125 7.875 12.824219 8.324219 12.675781 C 8.925781 12.222656 9 11.550781 9.601562 11.550781 "/>
<path style="fill:none;stroke-width:0.4;stroke-linecap:butt;stroke-linejoin:miter;stroke:#FFFFFF;stroke-opacity:1;stroke-miterlimit:4;" d="M 9.601562 57.449219 C 10.199219 57.449219 11.101562 57.601562 11.398438 57.300781 C 13.050781 56.101562 14.398438 54.601562 15.601562 52.949219 C 16.351562 51.601562 17.550781 50.851562 17.851562 49.5 C 18.148438 48.300781 18.449219 47.101562 18.898438 46.050781 C 20.101562 43.949219 21.300781 42.148438 22.648438 40.050781 C 22.949219 39.75 23.699219 39.898438 24.300781 39.601562 C 24.449219 39.449219 24.601562 39 24.75 39 C 25.648438 39 26.550781 38.851562 27.300781 39.148438 C 28.648438 39.898438 30.148438 40.050781 31.5 40.5 C 32.101562 39.148438 34.050781 38.699219 34.050781 37.199219 C 32.398438 36.148438 30.75 35.398438 29.101562 34.5 C 28.050781 34.050781 27 33.148438 25.800781 33.148438 C 25.050781 33.148438 21.601562 34.5 21.449219 34.199219 C 20.851562 32.398438 24 29.101562 23.550781 27 C 22.949219 24.75 22.648438 22.800781 22.199219 20.550781 C 22.050781 19.949219 21.75 19.351562 21.601562 18.601562 C 21.449219 18.148438 21.148438 17.699219 20.851562 17.398438 C 20.25 16.949219 19.648438 16.199219 19.050781 16.050781 C 18.300781 15.75 17.476562 15.976562 16.726562 15.675781 C 16.273438 15.523438 15.75 15.449219 15.300781 15.300781 C 14.550781 14.851562 13.5 15.148438 13.351562 15.601562 C 12.601562 17.699219 13.199219 20.101562 12.449219 22.199219 C 10.949219 26.398438 9.6875 30.058594 6.898438 34.800781 C 6.308594 35.8125 4.175781 35.425781 3.449219 36.601562 C 1.082031 40.4375 3 46.648438 4.351562 51.902344 C 4.652344 53.25 5.925781 55.125 7.273438 55.574219 C 7.726562 55.875 7.875 56.175781 8.324219 56.324219 C 8.925781 56.777344 9 57.449219 9.601562 57.449219 Z M 9.601562 57.449219 " transform="matrix(1,0,0,-1,0,69)"/>
<path style=" stroke:none;fill-rule:nonzero;fill:#FED100;fill-opacity:1;" d="M 6.976562 51.074219 L 13.949219 53.699219 L 13.875 47.699219 C 8.699219 34.351562 7.875 34.425781 7.875 34.425781 C 6.148438 33.449219 5.699219 33.375 5.699219 33.375 C 3.226562 33.523438 1.875 30.601562 1.875 30.601562 C 1.050781 29.925781 0.226562 30.898438 0.226562 30.898438 L 6.976562 51.074219 "/>
<g clip-path="url(#clip6)" clip-rule="nonzero">
<path style="fill:none;stroke-width:0.4;stroke-linecap:butt;stroke-linejoin:miter;stroke:#FFFFFF;stroke-opacity:1;stroke-miterlimit:4;" d="M 6.976562 17.925781 L 13.949219 15.300781 L 13.875 21.300781 C 8.699219 34.648438 7.875 34.574219 7.875 34.574219 C 6.148438 35.550781 5.699219 35.625 5.699219 35.625 C 3.226562 35.476562 1.875 38.398438 1.875 38.398438 C 1.050781 39.074219 0.226562 38.101562 0.226562 38.101562 L 6.976562 17.925781 Z M 6.976562 17.925781 " transform="matrix(1,0,0,-1,0,69)"/>
</g>
</g>
</svg>
