<?xml version="1.0" encoding="UTF-8"?>
<svg xmlns="http://www.w3.org/2000/svg" xmlns:xlink="http://www.w3.org/1999/xlink" width="38pt" height="38pt" viewBox="0 0 38 38" version="1.1">
<defs>
<clipPath id="clip1">
  <path d="M 0.0585938 0.816406 L 37 0.816406 L 37 37.816406 L 0.0585938 37.816406 L 0.0585938 0.816406 Z M 0.0585938 0.816406 "/>
</clipPath>
<clipPath id="clip2">
  <path d="M 0.0585938 0.816406 L 37 0.816406 L 37 37.816406 L 0.0585938 37.816406 L 0.0585938 0.816406 Z M 0.0585938 0.816406 "/>
</clipPath>
</defs>
<g id="surface0">
<path style=" stroke:none;fill-rule:nonzero;fill:#FED100;fill-opacity:1;" d="M 36.984375 8.167969 C 36.984375 12.117188 28.75 15.320312 18.59375 15.320312 C 8.433594 15.320312 0.199219 12.117188 0.199219 8.167969 L 0.199219 30.648438 C 0.199219 34.597656 8.433594 37.800781 18.59375 37.800781 C 28.75 37.800781 36.984375 34.597656 36.984375 30.648438 L 36.984375 8.167969 "/>
<g clip-path="url(#clip1)" clip-rule="nonzero">
<path style="fill:none;stroke-width:0.4;stroke-linecap:butt;stroke-linejoin:miter;stroke:#FFFFFF;stroke-opacity:1;stroke-miterlimit:4;" d="M 36.984375 29.832031 C 36.984375 25.882812 28.75 22.679688 18.59375 22.679688 C 8.433594 22.679688 0.199219 25.882812 0.199219 29.832031 L 0.199219 7.351562 C 0.199219 3.402344 8.433594 0.199219 18.59375 0.199219 C 28.75 0.199219 36.984375 3.402344 36.984375 7.351562 L 36.984375 29.832031 Z M 36.984375 29.832031 " transform="matrix(1,0,0,-1,0,38)"/>
</g>
<path style=" stroke:none;fill-rule:nonzero;fill:#FED100;fill-opacity:1;" d="M 18.59375 15.320312 C 28.75 15.320312 36.984375 12.117188 36.984375 8.167969 C 36.984375 4.214844 28.75 1.015625 18.59375 1.015625 C 8.433594 1.015625 0.199219 4.214844 0.199219 8.167969 C 0.199219 12.117188 8.433594 15.320312 18.59375 15.320312 "/>
<g clip-path="url(#clip2)" clip-rule="nonzero">
<path style="fill:none;stroke-width:0.4;stroke-linecap:butt;stroke-linejoin:miter;stroke:#FFFFFF;stroke-opacity:1;stroke-miterlimit:4;" d="M 18.59375 22.679688 C 28.75 22.679688 36.984375 25.882812 36.984375 29.832031 C 36.984375 33.785156 28.75 36.984375 18.59375 36.984375 C 8.433594 36.984375 0.199219 33.785156 0.199219 29.832031 C 0.199219 25.882812 8.433594 22.679688 18.59375 22.679688 Z M 18.59375 22.679688 " transform="matrix(1,0,0,-1,0,38)"/>
</g>
<path style=" stroke:none;fill-rule:nonzero;fill:#FFFFFF;fill-opacity:1;" d="M 14.394531 5.371094 L 15.910156 7.648438 L 10.167969 8.976562 L 11.425781 7.929688 L 2.550781 6.414062 L 4.773438 4.746094 L 13.339844 6.195312 L 14.394531 5.371094 "/>
<path style=" stroke:none;fill-rule:nonzero;fill:#FFFFFF;fill-opacity:1;" d="M 22.472656 10.894531 L 21.4375 8.546875 L 26.617188 7.511719 L 25.71875 8.316406 L 34.351562 9.789062 L 32.277344 11.449219 L 23.699219 9.835938 L 22.472656 10.894531 "/>
<path style=" stroke:none;fill-rule:nonzero;fill:#FFFFFF;fill-opacity:1;" d="M 17.152344 13.035156 L 11.628906 14.070312 L 11.421875 11.515625 L 13.011719 11.863281 L 16.050781 9.265625 L 18.742188 9.722656 L 15.496094 12.550781 L 17.152344 13.035156 "/>
<path style="fill:none;stroke-width:0.5;stroke-linecap:butt;stroke-linejoin:miter;stroke:#FFFFFF;stroke-opacity:1;stroke-miterlimit:4;" d="M 34.09375 23.472656 L 34.09375 6.472656 M 32.09375 22.371094 L 32.09375 5.371094 M 30.050781 21.570312 L 30.050781 4.566406 M 27.6875 20.910156 L 27.6875 3.910156 M 25.40625 20.410156 L 25.40625 3.410156 M 23.148438 20.109375 L 23.148438 3.109375 M 20.710938 19.757812 L 20.710938 2.757812 M 2.46875 23.472656 L 2.46875 6.472656 M 4.46875 22.371094 L 4.46875 5.371094 M 6.511719 21.570312 L 6.511719 4.566406 M 8.875 20.910156 L 8.875 3.910156 M 11.152344 20.410156 L 11.152344 3.410156 M 13.414062 20.109375 L 13.414062 3.109375 M 15.851562 19.757812 L 15.851562 2.757812 M 18.273438 19.695312 L 18.273438 2.691406 " transform="matrix(1,0,0,-1,0,38)"/>
<path style=" stroke:none;fill-rule:nonzero;fill:#FFFFFF;fill-opacity:1;" d="M 19.265625 4.011719 L 25.066406 2.421875 L 25.136719 4.910156 L 23.683594 4.632812 L 20.855469 6.980469 L 18.152344 6.589844 L 21.074219 4.289062 L 19.265625 4.011719 "/>
</g>
</svg>
