<?xml version="1.0" encoding="UTF-8"?>
<svg xmlns="http://www.w3.org/2000/svg" xmlns:xlink="http://www.w3.org/1999/xlink" width="49pt" height="24pt" viewBox="0 0 49 24" version="1.1">
<defs>
<clipPath id="clip1">
  <path d="M 0 0.0117188 L 48.796875 0.0117188 L 48.796875 23.941406 L 0 23.941406 L 0 0.0117188 Z M 0 0.0117188 "/>
</clipPath>
<clipPath id="clip2">
  <path d="M 0 0.0117188 L 48.796875 0.0117188 L 48.796875 23.941406 L 0 23.941406 L 0 0.0117188 Z M 0 0.0117188 "/>
</clipPath>
<clipPath id="clip3">
  <path d="M 0 0.0117188 L 48.796875 0.0117188 L 48.796875 23.941406 L 0 23.941406 L 0 0.0117188 Z M 0 0.0117188 "/>
</clipPath>
</defs>
<g id="surface0">
<path style=" stroke:none;fill-rule:nonzero;fill:#FED100;fill-opacity:1;" d="M 0.566406 12.132812 L 14.992188 0.46875 L 48.304688 0.46875 L 36.363281 12.132812 L 0.566406 12.132812 "/>
<g clip-path="url(#clip1)" clip-rule="nonzero">
<path style="fill:none;stroke-width:0.4;stroke-linecap:butt;stroke-linejoin:miter;stroke:#FFFFFF;stroke-opacity:1;stroke-miterlimit:4;" d="M 0.566406 11.867188 L 14.992188 23.53125 L 48.304688 23.53125 L 36.363281 11.867188 L 0.566406 11.867188 Z M 0.566406 11.867188 " transform="matrix(1,0,0,-1,0,24)"/>
</g>
<path style=" stroke:none;fill-rule:nonzero;fill:#FFFFFF;fill-opacity:1;" d="M 33.335938 6.9375 L 34.222656 6.050781 L 36.644531 7.089844 L 31.78125 8.488281 L 33.015625 7.253906 L 24.105469 7.253906 L 24.425781 6.9375 L 33.335938 6.9375 "/>
<path style=" stroke:none;fill-rule:nonzero;fill:#FFFFFF;fill-opacity:1;" d="M 27.660156 3.960938 L 27.34375 4.277344 L 18.433594 4.277344 L 17.542969 5.167969 L 15.128906 4.113281 L 19.984375 2.726562 L 18.75 3.960938 L 27.660156 3.960938 "/>
<path style=" stroke:none;fill-rule:nonzero;fill:#FED100;fill-opacity:1;" d="M 36.363281 23.515625 L 48.304688 11.484375 L 48.304688 0.484375 L 36.363281 12.132812 L 36.363281 23.515625 "/>
<g clip-path="url(#clip2)" clip-rule="nonzero">
<path style="fill:none;stroke-width:0.4;stroke-linecap:butt;stroke-linejoin:miter;stroke:#FFFFFF;stroke-opacity:1;stroke-miterlimit:4;" d="M 36.363281 0.484375 L 48.304688 12.515625 L 48.304688 23.515625 L 36.363281 11.867188 L 36.363281 0.484375 Z M 36.363281 0.484375 " transform="matrix(1,0,0,-1,0,24)"/>
</g>
<path style=" stroke:none;fill-rule:nonzero;fill:#FFFFFF;fill-opacity:1;" d="M 22.628906 8.992188 L 22.308594 9.3125 L 13.402344 9.3125 L 12.511719 10.199219 L 10.097656 9.144531 L 14.953125 7.757812 L 13.71875 8.992188 L 22.628906 8.992188 "/>
<path style=" stroke:none;fill-rule:nonzero;fill:#FFFFFF;fill-opacity:1;" d="M 38.410156 2.734375 L 39.296875 1.847656 L 41.722656 2.890625 L 36.855469 4.289062 L 38.089844 3.054688 L 29.183594 3.054688 L 29.5 2.734375 L 38.410156 2.734375 "/>
<g clip-path="url(#clip3)" clip-rule="nonzero">
<path style=" stroke:none;fill-rule:nonzero;fill:#FED100;fill-opacity:1;" d="M 36.363281 23.667969 L 36.363281 12.132812 L 0.613281 12.132812 L 0.613281 23.738281 L 36.363281 23.667969 "/>
<path style="fill:none;stroke-width:0.4;stroke-linecap:butt;stroke-linejoin:miter;stroke:#FFFFFF;stroke-opacity:1;stroke-miterlimit:4;" d="M 36.363281 0.332031 L 36.363281 11.867188 L 0.613281 11.867188 L 0.613281 0.261719 L 36.363281 0.332031 Z M 36.363281 0.332031 " transform="matrix(1,0,0,-1,0,24)"/>
</g>
<path style=" stroke:none;fill-rule:nonzero;fill:#FFFFFF;fill-opacity:1;" d="M 13.832031 18.019531 L 7.148438 18.019531 L 7.148438 17.40625 L 4.628906 18.308594 L 7.148438 19.210938 L 7.148438 18.601562 L 13.832031 18.601562 L 13.832031 18.019531 "/>
<path style=" stroke:none;fill-rule:nonzero;fill:#FFFFFF;fill-opacity:1;" d="M 17.609375 19.9375 L 17.609375 22.308594 L 15.882812 22.308594 L 18.429688 23.199219 L 20.972656 22.308594 L 19.246094 22.308594 L 19.246094 19.9375 L 17.609375 19.9375 "/>
<path style=" stroke:none;fill-rule:nonzero;fill:#FFFFFF;fill-opacity:1;" d="M 17.609375 16.746094 L 17.609375 14.378906 L 15.882812 14.378906 L 18.429688 13.484375 L 20.972656 14.378906 L 19.246094 14.378906 L 19.246094 16.746094 L 17.609375 16.746094 "/>
<path style=" stroke:none;fill-rule:nonzero;fill:#FFFFFF;fill-opacity:1;" d="M 23.023438 18.601562 L 29.707031 18.601562 L 29.707031 19.210938 L 32.230469 18.308594 L 29.707031 17.40625 L 29.707031 18.019531 L 23.023438 18.019531 L 23.023438 18.601562 "/>
<path style="fill:none;stroke-width:0.4;stroke-linecap:butt;stroke-linejoin:miter;stroke:#FFFFFF;stroke-opacity:1;stroke-miterlimit:4;" d="M 29.179688 1.886719 C 27.925781 1.417969 22.160156 2.710938 16.3125 4.769531 C 10.460938 6.828125 6.734375 8.882812 7.988281 9.351562 C 9.242188 9.820312 15.007812 8.53125 20.855469 6.46875 C 26.710938 4.40625 30.433594 2.355469 29.179688 1.886719 Z M 28.847656 9.386719 C 30.171875 8.941406 26.527344 6.898438 20.714844 4.824219 C 14.898438 2.75 9.113281 1.429688 7.789062 1.875 C 6.464844 2.320312 10.105469 4.359375 15.921875 6.4375 C 21.734375 8.511719 27.519531 9.832031 28.847656 9.386719 Z M 28.847656 9.386719 " transform="matrix(1,0,0,-1,0,24)"/>
<path style=" stroke:none;fill-rule:nonzero;fill:#FEF3BF;fill-opacity:1;" d="M 21.167969 19.683594 C 23.378906 19.136719 23.910156 18.058594 22.367188 17.277344 C 20.820312 16.496094 17.78125 16.304688 15.574219 16.851562 C 13.367188 17.398438 12.828125 18.480469 14.378906 19.261719 C 15.921875 20.042969 18.960938 20.234375 21.167969 19.683594 "/>
</g>
</svg>
