<?xml version="1.0" encoding="UTF-8"?>
<svg xmlns="http://www.w3.org/2000/svg" xmlns:xlink="http://www.w3.org/1999/xlink" width="27pt" height="42pt" viewBox="0 0 27 42" version="1.1">
<defs>
<clipPath id="clip1">
  <path d="M 0.0585938 0.820312 L 26.554688 0.820312 L 26.554688 41.820312 L 0.0585938 41.820312 L 0.0585938 0.820312 Z M 0.0585938 0.820312 "/>
</clipPath>
<clipPath id="clip2">
  <path d="M 0.0585938 0.820312 L 26.554688 0.820312 L 26.554688 41.820312 L 0.0585938 41.820312 L 0.0585938 0.820312 Z M 0.0585938 0.820312 "/>
</clipPath>
</defs>
<g id="surface0">
<g clip-path="url(#clip1)" clip-rule="nonzero">
<path style=" stroke:none;fill-rule:nonzero;fill:#FFAA00;fill-opacity:1;" d="M 7.09375 5.617188 L 0.363281 5.464844 L 0 5.773438 L 1.929688 11.613281 L 9.074219 11.25 L 9.386719 10.886719 L 7.09375 5.617188 "/>
</g>
<path style=" stroke:none;fill-rule:nonzero;fill:#FFAA00;fill-opacity:1;" d="M 15.902344 0.820312 L 18.441406 2.90625 L 18.140625 3.71875 L 18.34375 4.839844 L 18.746094 5.957031 L 21.222656 7.027344 L 21.847656 5.722656 L 21.171875 5.203125 L 21.324219 4.003906 L 19.816406 1.082031 L 15.902344 0.820312 "/>
<path style=" stroke:none;fill-rule:nonzero;fill:#FFAA00;fill-opacity:1;" d="M 16.105469 1.890625 L 15.277344 3.117188 L 15.070312 4.367188 L 14.339844 2.59375 L 16.105469 1.890625 "/>
<path style=" stroke:none;fill-rule:nonzero;fill:#FFAA00;fill-opacity:1;" d="M 15.433594 2.542969 L 15.746094 2.960938 L 16.113281 3.011719 L 15.957031 2.699219 L 16.164062 2.28125 L 16.582031 3.117188 L 17.050781 3.324219 L 17.050781 2.90625 L 17.261719 2.542969 L 17.46875 2.960938 L 17.9375 3.222656 L 17.988281 2.855469 L 18.5625 2.804688 L 16.476562 1.082031 L 15.382812 1.136719 L 15.019531 1.5 L 15.433594 2.542969 "/>
<path style=" stroke:none;fill-rule:nonzero;fill:#FFAA00;fill-opacity:1;" d="M 15.746094 6.609375 L 17.050781 6.609375 "/>
<path style=" stroke:none;fill-rule:nonzero;fill:#FFAA00;fill-opacity:1;" d="M 15.121094 4.160156 L 15.175781 4.679688 L 15.175781 6.140625 L 14.441406 6.089844 L 14.078125 5.671875 L 14.390625 5.097656 L 14.496094 4.574219 L 14.914062 3.6875 L 15.121094 4.160156 "/>
<path style=" stroke:none;fill-rule:nonzero;fill:#FFAA00;fill-opacity:1;" d="M 9.542969 11.460938 L 2.242188 11.980469 L 1.929688 12.398438 L 2.035156 13.230469 L 5.371094 14.691406 L 12.671875 13.855469 L 12.773438 12.917969 L 9.542969 11.460938 "/>
<path style=" stroke:none;fill-rule:nonzero;fill:#FFAA00;fill-opacity:1;" d="M 8.5 10.261719 L 2.765625 10.570312 L 1.199219 6.191406 L 6.777344 6.191406 L 8.5 10.261719 "/>
<path style=" stroke:none;fill-rule:nonzero;fill:#FFAA00;fill-opacity:1;" d="M 8.394531 14.484375 L 7.71875 13.335938 L 6.832031 12.605469 L 6.777344 12.972656 L 5.476562 12.398438 L 5.632812 12.8125 L 4.796875 12.503906 L 5.109375 13.023438 L 4.640625 12.972656 L 5.109375 13.753906 L 5.683594 14.273438 L 7.351562 15.109375 L 8.394531 14.484375 "/>
<path style=" stroke:none;fill-rule:nonzero;fill:#FFAA00;fill-opacity:1;" d="M 10.027344 21.675781 L 7.15625 22.226562 L 6.453125 23.265625 L 6.511719 25.054688 L 8.144531 32.066406 L 8.113281 34.800781 L 7.058594 36.441406 L 9.402344 36.402344 L 10.546875 35.546875 L 11.054688 35.394531 L 11.097656 34 L 10.304688 32.636719 L 10.058594 31.445312 L 10.21875 28.15625 L 9.941406 26.195312 L 10.027344 21.675781 "/>
<path style=" stroke:none;fill-rule:nonzero;fill:#FFAA00;fill-opacity:1;" d="M 10.890625 33.492188 L 10.386719 33.53125 L 9.636719 34.289062 L 8.535156 35.597656 L 7.582031 35.789062 L 7.933594 35.242188 L 7.011719 36.160156 L 5.539062 36.84375 L 5.640625 37.125 L 7.191406 37.449219 L 8.53125 37.492188 L 9.382812 37.128906 L 9.976562 35.976562 L 10.425781 37.664062 L 10.59375 37.667969 L 11.328125 35.570312 L 11.3125 34.285156 L 10.890625 33.492188 "/>
<path style=" stroke:none;fill-rule:nonzero;fill:#FFAA00;fill-opacity:1;" d="M 13.71875 21.511719 L 10.238281 22.074219 L 9.757812 23.175781 L 9.507812 24.0625 L 12.082031 31.074219 L 12.054688 33.808594 L 10.996094 35.449219 L 13.34375 35.410156 L 14.484375 34.554688 L 14.992188 34.402344 L 15.035156 33.007812 L 14.242188 31.644531 L 13.996094 30.453125 L 14.15625 27.164062 L 13.882812 25.203125 L 13.71875 21.511719 "/>
<path style=" stroke:none;fill-rule:nonzero;fill:#FFAA00;fill-opacity:1;" d="M 14.828125 32.496094 L 14.324219 32.539062 L 13.574219 33.296875 L 12.476562 34.601562 L 11.519531 34.796875 L 11.871094 34.246094 L 10.949219 35.167969 L 9.476562 35.847656 L 9.578125 36.128906 L 11.132812 36.457031 L 12.472656 36.5 L 13.320312 36.136719 L 13.914062 34.980469 L 14.363281 36.671875 L 14.53125 36.675781 L 15.265625 34.578125 L 15.25 33.292969 L 14.828125 32.496094 "/>
<path style=" stroke:none;fill-rule:nonzero;fill:#FFAA00;fill-opacity:1;" d="M 19.238281 7.601562 L 16.632812 8.433594 L 14.027344 8.644531 L 11.941406 9.371094 L 11.421875 10.207031 L 12.046875 13.546875 L 11.210938 14.796875 L 10.585938 14.796875 L 10.273438 15.316406 L 9.019531 14.378906 L 7.980469 14.378906 L 6.9375 15.214844 L 7.351562 16.671875 L 10.273438 18.652344 L 12.464844 18.96875 L 13.507812 18.132812 L 12.359375 21.15625 L 9.960938 21.78125 L 9.019531 23.972656 L 9.960938 26.578125 L 14.964844 27.519531 L 17.886719 27.832031 L 20.390625 27.519531 L 21.742188 26.476562 L 22.160156 25.226562 L 22.265625 24.183594 L 22.890625 23.449219 L 22.058594 21.054688 L 21.847656 18.550781 L 22.578125 18.652344 L 23.726562 18.132812 L 24.871094 10.414062 L 24.144531 9.164062 L 21.742188 8.121094 L 19.238281 7.601562 "/>
<path style=" stroke:none;fill-rule:nonzero;fill:#FFAA00;fill-opacity:1;" d="M 15.300781 2.398438 L 16.464844 1.980469 L 18.800781 2.730469 L 19.300781 6.230469 L 19.050781 7.816406 L 16.300781 8.480469 L 15.050781 7.066406 L 14.800781 4.980469 L 15.300781 2.398438 "/>
<path style=" stroke:none;fill-rule:nonzero;fill:#FFAA00;fill-opacity:1;" d="M 22.242188 24.351562 L 21.308594 23.851562 L 20.367188 24.851562 L 17.492188 25.289062 L 14.617188 24.164062 L 12.359375 21.15625 L 9.960938 21.78125 L 9.019531 23.972656 L 9.960938 26.578125 L 16.867188 27.789062 L 20.390625 27.519531 L 21.742188 26.476562 L 22.242188 24.351562 "/>
<path style=" stroke:none;fill-rule:nonzero;fill:#FFAA00;fill-opacity:1;" d="M 15.175781 6.035156 L 15.851562 7.390625 L 16.269531 7.757812 L 16.683594 7.964844 L 16.84375 9.007812 L 15.851562 9.53125 L 15.433594 9.6875 L 13.976562 9.84375 L 13.242188 9.582031 L 12.878906 8.902344 L 13.347656 9.007812 L 13.660156 8.746094 L 13.140625 8.539062 L 12.828125 8.175781 L 12.828125 7.703125 L 13.242188 7.964844 L 13.871094 7.808594 L 13.609375 7.601562 L 13.507812 7.234375 L 14.132812 7.183594 L 14.285156 6.765625 L 14.183594 6.402344 L 14.652344 5.617188 L 15.175781 6.035156 "/>
<path style=" stroke:none;fill-rule:nonzero;fill:#FFAA00;fill-opacity:1;" d="M 18.933594 6.117188 L 18.984375 6.585938 L 18.773438 6.847656 L 18.410156 6.847656 L 18.617188 7.109375 L 18.984375 7.160156 L 18.933594 7.523438 L 18.617188 7.734375 L 18.148438 7.683594 L 18.355469 8.046875 L 18.824219 8.203125 L 19.242188 7.996094 L 19.191406 8.464844 L 18.984375 8.933594 L 18.515625 9.089844 L 18.933594 9.351562 L 19.558594 9.246094 L 19.398438 9.714844 L 19.398438 10.238281 L 19.765625 10.082031 L 20.132812 9.664062 L 20.390625 9.976562 L 20.910156 10.238281 L 21.695312 10.496094 L 22.582031 10.652344 L 23.257812 10.289062 L 23.414062 9.871094 L 22.945312 9.925781 L 22.476562 9.769531 L 22.84375 9.609375 L 23.101562 9.300781 L 23.363281 8.726562 L 23.050781 8.359375 L 22.894531 8.726562 L 22.582031 8.933594 L 22.527344 8.464844 L 22.632812 8.046875 L 22.269531 8.152344 L 21.800781 8.046875 L 21.953125 7.578125 L 22.164062 7.214844 L 22.109375 6.691406 L 21.902344 6.898438 L 21.589844 7.003906 L 21.121094 6.898438 L 21.277344 6.585938 L 21.328125 6.117188 L 21.066406 5.910156 L 20.964844 6.171875 L 20.652344 6.066406 L 20.652344 5.492188 L 19.609375 5.492188 L 18.933594 6.117188 "/>
<g clip-path="url(#clip2)" clip-rule="nonzero">
<path style=" stroke:none;fill-rule:nonzero;fill:#FFAA00;fill-opacity:1;" d="M 19.058594 9.726562 L 18.367188 10.539062 L 17.433594 9.601562 C 17.433594 9.601562 16.992188 10.789062 16.683594 10.414062 L 16.558594 9.664062 L 15.992188 10.101562 C 15.992188 10.101562 14.683594 10.351562 14.992188 10.101562 C 15.308594 9.851562 15.308594 9.351562 15.308594 9.351562 L 17.183594 7.351562 L 19.742188 7.476562 L 19.058594 9.726562 "/>
<path style=" stroke:none;fill-rule:nonzero;fill:#FFAA00;fill-opacity:1;" d="M 17.203125 28.476562 L 17.089844 32.972656 L 10.992188 34.34375 C 10.039062 34.128906 9.753906 35.316406 9.753906 35.316406 L 9.71875 36.15625 L 10.199219 36.175781 L 10.167969 36.953125 C 10.613281 37.8125 11.429688 37.003906 11.429688 37.003906 L 11.464844 36.046875 L 16.371094 34.324219 L 11.992188 37.546875 C 11.222656 38.835938 11.832031 40.0625 11.832031 40.0625 C 11.1875 41.179688 12.234375 42 12.234375 42 C 13.648438 42.773438 13.65625 41.035156 13.65625 41.035156 C 13.878906 40.023438 12.855469 39.980469 12.855469 39.980469 L 12.582031 39.371094 L 17.914062 34.867188 L 24.125 39.054688 L 24.394531 39.785156 C 23.679688 41.199219 24.859375 41.726562 24.859375 41.726562 C 26.527344 42.09375 25.925781 40.566406 25.925781 40.566406 C 26.019531 39.730469 25.359375 39.703125 25.359375 39.703125 L 24.902344 39.144531 C 24.902344 39.144531 24.476562 39.308594 24.972656 38.90625 C 25.46875 38.507812 25.152344 37.355469 25.152344 37.355469 L 19.386719 34.085938 L 23.5625 35.167969 L 24.382812 35.738281 C 24.324219 37.117188 25.304688 36.738281 25.304688 36.738281 C 26.320312 36.777344 25.765625 35.675781 25.765625 35.675781 C 25.414062 35.359375 24.945312 35.160156 24.945312 35.160156 L 24.519531 34.300781 L 22.128906 33.613281 L 18.523438 32.945312 L 18.628906 28.949219 "/>
</g>
<path style=" stroke:none;fill-rule:nonzero;fill:#FFAA00;fill-opacity:1;" d="M 15.765625 29.679688 L 7.71875 26.925781 C 7.183594 26.375 7.871094 25.402344 7.871094 25.402344 L 15.8125 27.917969 "/>
<path style=" stroke:none;fill-rule:nonzero;fill:#FFAA00;fill-opacity:1;" d="M 21.527344 27.722656 L 15.949219 29.820312 L 16.011719 25.019531 C 20.148438 14.339844 20.808594 14.398438 20.808594 14.398438 C 22.191406 13.621094 22.550781 13.5625 22.550781 13.5625 C 24.527344 13.679688 25.234375 12.964844 25.234375 12.964844 C 25.894531 12.425781 26.554688 13.207031 26.554688 13.207031 L 21.527344 27.722656 "/>
</g>
</svg>
