<?xml version="1.0" encoding="UTF-8"?>
<svg xmlns="http://www.w3.org/2000/svg" xmlns:xlink="http://www.w3.org/1999/xlink" width="39pt" height="38pt" viewBox="0 0 39 38" version="1.1">
<g id="surface0">
<path style="fill:none;stroke-width:0.4;stroke-linecap:butt;stroke-linejoin:miter;stroke:#FFAA00;stroke-opacity:1;stroke-miterlimit:4;" d="M 31.109375 19.984375 L 31.109375 36.34375 " transform="matrix(1,0,0,-1,0,38)"/>
<path style="fill:none;stroke-width:2;stroke-linecap:butt;stroke-linejoin:miter;stroke:#FFAA00;stroke-opacity:1;stroke-miterlimit:4;" d="M 31.109375 20.246094 L 31.109375 31.46875 " transform="matrix(1,0,0,-1,0,38)"/>
<path style="fill-rule:nonzero;fill:#000000;fill-opacity:1;stroke-width:1;stroke-linecap:butt;stroke-linejoin:miter;stroke:#FFAA00;stroke-opacity:1;stroke-miterlimit:4;" d="M 30.585938 36.773438 L 31.585938 36.773438 L 31.585938 34.773438 L 30.585938 34.773438 L 30.585938 36.773438 Z M 30.585938 36.773438 " transform="matrix(1,0,0,-1,0,38)"/>
<path style="fill:none;stroke-width:0.4;stroke-linecap:butt;stroke-linejoin:miter;stroke:#FFAA00;stroke-opacity:1;stroke-miterlimit:4;" d="M 6.859375 19.984375 L 6.859375 36.34375 " transform="matrix(1,0,0,-1,0,38)"/>
<path style="fill:none;stroke-width:2;stroke-linecap:butt;stroke-linejoin:miter;stroke:#FFAA00;stroke-opacity:1;stroke-miterlimit:4;" d="M 6.859375 20.246094 L 6.859375 31.46875 " transform="matrix(1,0,0,-1,0,38)"/>
<path style="fill-rule:nonzero;fill:#000000;fill-opacity:1;stroke-width:1;stroke-linecap:butt;stroke-linejoin:miter;stroke:#FFAA00;stroke-opacity:1;stroke-miterlimit:4;" d="M 6.335938 36.773438 L 7.335938 36.773438 L 7.335938 34.773438 L 6.335938 34.773438 L 6.335938 36.773438 Z M 6.335938 36.773438 " transform="matrix(1,0,0,-1,0,38)"/>
<path style="fill-rule:nonzero;fill:#FFAA00;fill-opacity:1;stroke-width:0.4;stroke-linecap:butt;stroke-linejoin:miter;stroke:#FFFFFF;stroke-opacity:1;stroke-miterlimit:4;" d="M 37.894531 17.90625 C 37.894531 13.957031 29.65625 10.753906 19.5 10.753906 C 9.34375 10.753906 1.109375 13.957031 1.109375 17.90625 L 1.109375 7.429688 C 1.109375 3.480469 9.34375 0.277344 19.5 0.277344 C 29.65625 0.277344 37.894531 3.480469 37.894531 7.429688 L 37.894531 17.90625 Z M 37.894531 17.90625 " transform="matrix(1,0,0,-1,0,38)"/>
<path style="fill-rule:nonzero;fill:#FFAA00;fill-opacity:1;stroke-width:0.4;stroke-linecap:butt;stroke-linejoin:miter;stroke:#FFFFFF;stroke-opacity:1;stroke-miterlimit:4;" d="M 19.5 10.753906 C 29.65625 10.753906 37.894531 13.957031 37.894531 17.90625 C 37.894531 21.855469 29.65625 25.058594 19.5 25.058594 C 9.34375 25.058594 1.109375 21.855469 1.109375 17.90625 C 1.109375 13.957031 9.34375 10.753906 19.5 10.753906 Z M 19.5 10.753906 " transform="matrix(1,0,0,-1,0,38)"/>
<path style=" stroke:none;fill-rule:nonzero;fill:#FFFFFF;fill-opacity:1;" d="M 15.300781 17.296875 L 16.820312 19.574219 L 11.078125 20.902344 L 12.332031 19.855469 L 3.457031 18.339844 L 5.683594 16.671875 L 14.246094 18.121094 L 15.300781 17.296875 "/>
<path style=" stroke:none;fill-rule:nonzero;fill:#FFFFFF;fill-opacity:1;" d="M 23.382812 22.820312 L 22.34375 20.472656 L 27.523438 19.4375 L 26.625 20.242188 L 35.257812 21.71875 L 33.1875 23.375 L 24.605469 21.761719 L 23.382812 22.820312 "/>
<path style=" stroke:none;fill-rule:nonzero;fill:#FFFFFF;fill-opacity:1;" d="M 20.550781 16.054688 L 26.351562 14.464844 L 26.417969 16.949219 L 24.96875 16.675781 L 22.136719 19.023438 L 19.433594 18.628906 L 22.355469 16.332031 L 20.550781 16.054688 "/>
<path style=" stroke:none;fill-rule:nonzero;fill:#FFFFFF;fill-opacity:1;" d="M 18.0625 24.964844 L 12.539062 25.996094 L 12.332031 23.441406 L 13.917969 23.789062 L 16.960938 21.191406 L 19.652344 21.648438 L 16.40625 24.476562 L 18.0625 24.964844 "/>
</g>
</svg>
