<?xml version="1.0" encoding="UTF-8"?>
<svg xmlns="http://www.w3.org/2000/svg" xmlns:xlink="http://www.w3.org/1999/xlink" width="43pt" height="33pt" viewBox="0 0 43 33" version="1.1">
<g id="surface0">
<path style="fill-rule:nonzero;fill:#FFAA00;fill-opacity:1;stroke-width:0.4;stroke-linecap:butt;stroke-linejoin:miter;stroke:#FFFFFF;stroke-opacity:1;stroke-miterlimit:4;" d="M 12.089844 28.558594 L 38.890625 28.558594 L 38.890625 1.734375 L 12.089844 1.734375 L 12.089844 28.558594 Z M 12.089844 28.558594 " transform="matrix(1,0,0,-1,0,33)"/>
<path style="fill-rule:nonzero;fill:#FFAA00;fill-opacity:1;stroke-width:0.4;stroke-linecap:butt;stroke-linejoin:miter;stroke:#FFFFFF;stroke-opacity:1;stroke-miterlimit:4;" d="M 15.226562 32.023438 L 42.027344 32.023438 L 38.671875 28.636719 L 11.871094 28.636719 L 15.226562 32.023438 Z M 15.226562 32.023438 " transform="matrix(1,0,0,-1,0,33)"/>
<path style="fill-rule:nonzero;fill:#FFAA00;fill-opacity:1;stroke-width:0.4;stroke-linecap:butt;stroke-linejoin:miter;stroke:#FFFFFF;stroke-opacity:1;stroke-miterlimit:4;" d="M 42.144531 5.992188 L 38.785156 1.089844 L 38.785156 28.808594 L 42.144531 32.199219 L 42.144531 5.992188 Z M 42.144531 5.992188 " transform="matrix(1,0,0,-1,0,33)"/>
<path style="fill-rule:nonzero;fill:#FFAA00;fill-opacity:1;stroke-width:0.4;stroke-linecap:butt;stroke-linejoin:miter;stroke:#FFFFFF;stroke-opacity:1;stroke-miterlimit:4;" d="M 1.226562 28.558594 L 12.089844 28.558594 L 12.089844 1.734375 L 1.226562 1.734375 L 1.226562 28.558594 Z M 1.226562 28.558594 " transform="matrix(1,0,0,-1,0,33)"/>
<path style="fill-rule:nonzero;fill:#FFAA00;fill-opacity:1;stroke-width:0.4;stroke-linecap:butt;stroke-linejoin:miter;stroke:#FFFFFF;stroke-opacity:1;stroke-miterlimit:4;" d="M 4.777344 32.023438 L 15.640625 32.023438 L 12.285156 28.636719 L 1.421875 28.636719 L 4.777344 32.023438 Z M 4.777344 32.023438 " transform="matrix(1,0,0,-1,0,33)"/>
<path style="fill-rule:nonzero;fill:#000000;fill-opacity:1;stroke-width:0.4;stroke-linecap:butt;stroke-linejoin:miter;stroke:#FFFFFF;stroke-opacity:1;stroke-miterlimit:4;" d="M 12.089844 28.558594 L 12.089844 1.734375 " transform="matrix(1,0,0,-1,0,33)"/>
<path style="fill-rule:nonzero;fill:#C0C0C0;fill-opacity:1;stroke-width:0.4;stroke-linecap:butt;stroke-linejoin:miter;stroke:#FFFFFF;stroke-opacity:1;stroke-miterlimit:4;" d="M 12.253906 28.636719 L 15.609375 32.023438 " transform="matrix(1,0,0,-1,0,33)"/>
<path style=" stroke:none;fill-rule:nonzero;fill:#FFFFFF;fill-opacity:1;" d="M 6.320312 11.863281 L 6.222656 12 C 5.546875 13.019531 4.996094 13.527344 4.5625 13.527344 C 4.066406 13.527344 3.578125 13.132812 3.101562 12.34375 C 3.164062 12.34375 3.210938 12.347656 3.242188 12.347656 C 3.808594 12.347656 4.4375 11.910156 5.132812 11.035156 L 5.308594 10.808594 L 5.082031 10.5625 C 4.4375 9.886719 4.117188 9.316406 4.117188 8.84375 C 4.117188 8.460938 4.46875 8.003906 5.171875 7.480469 C 5.269531 8.152344 5.566406 8.804688 6.058594 9.441406 L 6.253906 9.691406 L 6.410156 9.488281 C 7.128906 8.558594 7.785156 8.097656 8.371094 8.097656 C 8.828125 8.097656 9.175781 8.449219 9.414062 9.148438 C 9.34375 9.144531 9.292969 9.136719 9.257812 9.136719 C 9.054688 9.136719 8.765625 9.277344 8.390625 9.554688 C 8.015625 9.835938 7.699219 10.148438 7.441406 10.496094 L 7.238281 10.761719 L 7.433594 10.945312 C 8.128906 11.617188 8.851562 11.953125 9.601562 11.953125 C 9.199219 12.773438 8.777344 13.179688 8.339844 13.179688 C 7.941406 13.179688 7.367188 12.832031 6.617188 12.136719 L 6.320312 11.863281 "/>
<path style=" stroke:none;fill-rule:nonzero;fill:#FFFFFF;fill-opacity:1;" d="M 9.40625 21.9375 C 8.75 22.636719 8.03125 23.550781 7.246094 24.679688 C 6.464844 25.808594 5.882812 26.773438 5.503906 27.574219 L 5.023438 27.898438 C 4.628906 28.171875 4.355469 28.382812 4.214844 28.519531 C 4.15625 28.308594 4.035156 27.976562 3.84375 27.515625 L 3.664062 27.101562 C 3.402344 26.492188 3.164062 26.042969 2.941406 25.753906 C 2.71875 25.460938 2.46875 25.273438 2.191406 25.183594 C 2.660156 24.679688 3.089844 24.425781 3.480469 24.425781 C 3.808594 24.425781 4.175781 24.882812 4.582031 25.789062 L 4.785156 26.246094 C 5.546875 24.960938 6.734375 23.523438 8.34375 21.9375 L 8.785156 21.519531 L 10.007812 20.550781 C 10.316406 20.339844 10.605469 20.164062 10.878906 20.015625 L 11.117188 20.351562 C 10.886719 20.523438 10.632812 20.726562 10.355469 20.96875 L 9.40625 21.9375 "/>
<path style="fill-rule:nonzero;fill:#FFAA00;fill-opacity:1;stroke-width:0.4;stroke-linecap:butt;stroke-linejoin:miter;stroke:#FFFFFF;stroke-opacity:1;stroke-miterlimit:4;" d="M 12 15.636719 L 1.132812 15.636719 " transform="matrix(1,0,0,-1,0,33)"/>
<path style="fill:none;stroke-width:0.4;stroke-linecap:round;stroke-linejoin:round;stroke:#FFFFFF;stroke-opacity:1;stroke-miterlimit:4;" d="M 38.699219 9.28125 L 12.050781 9.28125 M 38.699219 5.589844 L 12.050781 5.589844 M 41.867188 10.011719 L 38.917969 5.535156 M 19.941406 5.40625 L 19.941406 2.054688 M 30.25 5.40625 L 30.25 2.054688 M 25.304688 9.117188 L 25.304688 5.765625 M 15 9.117188 L 15 5.765625 M 35.609375 9.117188 L 35.609375 5.765625 " transform="matrix(1,0,0,-1,0,33)"/>
<path style="fill-rule:nonzero;fill:#000000;fill-opacity:1;stroke-width:0.4;stroke-linecap:butt;stroke-linejoin:miter;stroke:#FFFFFF;stroke-opacity:1;stroke-miterlimit:4;" d="M 38.742188 9.207031 L 42.058594 14.089844 " transform="matrix(1,0,0,-1,0,33)"/>
<path style="fill:none;stroke-width:0.4;stroke-linecap:round;stroke-linejoin:round;stroke:#FFFFFF;stroke-opacity:1;stroke-miterlimit:4;" d="M 40.320312 7.179688 L 40.320312 3.222656 M 41.027344 12.132812 L 41.027344 8.175781 " transform="matrix(1,0,0,-1,0,33)"/>
<path style="fill-rule:nonzero;fill:#FFFFFF;fill-opacity:1;stroke-width:0.4;stroke-linecap:butt;stroke-linejoin:miter;stroke:#000000;stroke-opacity:1;stroke-miterlimit:4;" d="M 19.589844 10.457031 C 20.0625 10.457031 20.449219 10.839844 20.449219 11.316406 C 20.449219 11.792969 20.0625 12.175781 19.589844 12.175781 C 19.113281 12.175781 18.726562 11.792969 18.726562 11.316406 C 18.726562 10.839844 19.113281 10.457031 19.589844 10.457031 Z M 19.589844 10.457031 " transform="matrix(1,0,0,-1,0,33)"/>
<path style="fill-rule:nonzero;fill:#FFFFFF;fill-opacity:1;stroke-width:0.4;stroke-linecap:butt;stroke-linejoin:miter;stroke:#000000;stroke-opacity:1;stroke-miterlimit:4;" d="M 18.851562 12.234375 L 20.535156 10.59375 L 25.285156 15.453125 L 23.601562 17.097656 L 18.851562 12.234375 Z M 18.851562 12.234375 " transform="matrix(1,0,0,-1,0,33)"/>
<path style="fill-rule:nonzero;fill:#FFFFFF;fill-opacity:1;stroke-width:0.4;stroke-linecap:butt;stroke-linejoin:miter;stroke:#000000;stroke-opacity:1;stroke-miterlimit:4;" d="M 22.929688 20.679688 C 22.929688 17.125 25.824219 14.230469 29.378906 14.230469 C 32.933594 14.230469 35.828125 17.125 35.828125 20.679688 C 35.828125 24.234375 32.933594 27.128906 29.378906 27.128906 C 25.824219 27.128906 22.929688 24.234375 22.929688 20.679688 Z M 23.832031 20.679688 C 23.832031 23.738281 26.320312 26.226562 29.378906 26.226562 C 32.4375 26.226562 34.925781 23.738281 34.925781 20.679688 C 34.925781 17.621094 32.4375 15.136719 29.378906 15.136719 C 26.320312 15.136719 23.832031 17.621094 23.832031 20.679688 Z M 23.832031 20.679688 " transform="matrix(1,0,0,-1,0,33)"/>
<path style="fill-rule:nonzero;fill:#FFFFFF;fill-opacity:1;stroke-width:0.4;stroke-linecap:butt;stroke-linejoin:miter;stroke:#000000;stroke-opacity:1;stroke-miterlimit:4;" d="M 22.175781 20.308594 C 22.175781 16.753906 25.066406 13.859375 28.625 13.859375 C 32.179688 13.859375 35.070312 16.753906 35.070312 20.308594 C 35.070312 23.863281 32.179688 26.757812 28.625 26.757812 C 25.066406 26.757812 22.175781 23.863281 22.175781 20.308594 Z M 23.078125 20.308594 C 23.078125 23.367188 25.566406 25.855469 28.625 25.855469 C 31.683594 25.855469 34.171875 23.367188 34.171875 20.308594 C 34.171875 17.25 31.683594 14.761719 28.625 14.761719 C 25.566406 14.761719 23.078125 17.25 23.078125 20.308594 Z M 23.078125 20.308594 " transform="matrix(1,0,0,-1,0,33)"/>
</g>
</svg>
