<?xml version="1.0" encoding="UTF-8"?>
<svg xmlns="http://www.w3.org/2000/svg" xmlns:xlink="http://www.w3.org/1999/xlink" width="32pt" height="43pt" viewBox="0 0 32 43" version="1.1">
<g id="surface0">
<path style="fill-rule:nonzero;fill:#FFAA00;fill-opacity:1;stroke-width:0.4;stroke-linecap:butt;stroke-linejoin:miter;stroke:#FFFFFF;stroke-opacity:1;stroke-miterlimit:4;" d="M 0.773438 27.964844 L 27.601562 27.964844 L 27.601562 1.160156 L 0.773438 1.160156 L 0.773438 27.964844 Z M 0.773438 27.964844 " transform="matrix(1,0,0,-1,0,43)"/>
<path style="fill-rule:nonzero;fill:#FFAA00;fill-opacity:1;stroke-width:0.4;stroke-linecap:butt;stroke-linejoin:miter;stroke:#FFFFFF;stroke-opacity:1;stroke-miterlimit:4;" d="M 30.988281 4.515625 L 30.988281 31.316406 L 27.601562 27.964844 L 27.601562 1.160156 L 30.988281 4.515625 Z M 30.988281 4.515625 " transform="matrix(1,0,0,-1,0,43)"/>
<path style="fill-rule:nonzero;fill:#FFAA00;fill-opacity:1;stroke-width:0.4;stroke-linecap:butt;stroke-linejoin:miter;stroke:#FFFFFF;stroke-opacity:1;stroke-miterlimit:4;" d="M 5.679688 42.183594 L 0.773438 38.828125 L 27.601562 38.828125 L 30.988281 42.183594 L 5.679688 42.183594 Z M 5.679688 42.183594 " transform="matrix(1,0,0,-1,0,43)"/>
<path style="fill-rule:nonzero;fill:#FFAA00;fill-opacity:1;stroke-width:0.4;stroke-linecap:butt;stroke-linejoin:miter;stroke:#FFFFFF;stroke-opacity:1;stroke-miterlimit:4;" d="M 0.773438 38.828125 L 27.601562 38.828125 L 27.601562 27.964844 L 0.773438 27.964844 L 0.773438 38.828125 Z M 0.773438 38.828125 " transform="matrix(1,0,0,-1,0,43)"/>
<path style="fill-rule:nonzero;fill:#FFAA00;fill-opacity:1;stroke-width:0.4;stroke-linecap:butt;stroke-linejoin:miter;stroke:#FFFFFF;stroke-opacity:1;stroke-miterlimit:4;" d="M 30.988281 31.316406 L 30.988281 42.183594 L 27.601562 38.828125 L 27.601562 27.964844 L 30.988281 31.316406 Z M 30.988281 31.316406 " transform="matrix(1,0,0,-1,0,43)"/>
<path style="fill-rule:nonzero;fill:#FFAA00;fill-opacity:1;stroke-width:0.4;stroke-linecap:butt;stroke-linejoin:miter;stroke:#FFFFFF;stroke-opacity:1;stroke-miterlimit:4;" d="M 27.601562 27.964844 L 0.773438 27.964844 " transform="matrix(1,0,0,-1,0,43)"/>
<path style="fill-rule:nonzero;fill:#FFAA00;fill-opacity:1;stroke-width:0.4;stroke-linecap:butt;stroke-linejoin:miter;stroke:#FFFFFF;stroke-opacity:1;stroke-miterlimit:4;" d="M 27.601562 27.964844 L 30.988281 31.316406 " transform="matrix(1,0,0,-1,0,43)"/>
<path style=" stroke:none;fill-rule:nonzero;fill:#FFFFFF;fill-opacity:1;" d="M 5.148438 5.632812 L 9.476562 5.632812 L 9.476562 7.882812 L 5.148438 7.882812 L 5.148438 5.632812 Z M 5.148438 5.632812 "/>
<path style=" stroke:none;fill-rule:nonzero;fill:#FFFFFF;fill-opacity:1;" d="M 19.367188 5.632812 L 23.691406 5.632812 L 23.691406 7.882812 L 19.367188 7.882812 L 19.367188 5.632812 Z M 19.367188 5.632812 "/>
<path style=" stroke:none;fill-rule:nonzero;fill:#FFFFFF;fill-opacity:1;" d="M 5.148438 11.261719 L 9.476562 11.261719 L 9.476562 13.515625 L 5.148438 13.515625 L 5.148438 11.261719 Z M 5.148438 11.261719 "/>
<path style=" stroke:none;fill-rule:nonzero;fill:#FFFFFF;fill-opacity:1;" d="M 19.367188 11.261719 L 23.691406 11.261719 L 23.691406 13.515625 L 19.367188 13.515625 L 19.367188 11.261719 Z M 19.367188 11.261719 "/>
<path style="fill-rule:nonzero;fill:#000000;fill-opacity:1;stroke-width:0.4;stroke-linecap:butt;stroke-linejoin:miter;stroke:#FFFFFF;stroke-opacity:1;stroke-miterlimit:4;" d="M 8.085938 36.242188 L 21.375 36.242188 " transform="matrix(1,0,0,-1,0,43)"/>
<path style="fill-rule:nonzero;fill:#000000;fill-opacity:1;stroke-width:0.4;stroke-linecap:butt;stroke-linejoin:miter;stroke:#FFFFFF;stroke-opacity:1;stroke-miterlimit:4;" d="M 8.085938 30.613281 L 21.375 30.613281 " transform="matrix(1,0,0,-1,0,43)"/>
<path style="fill-rule:nonzero;fill:#000000;fill-opacity:1;stroke-width:0.4;stroke-linecap:butt;stroke-linejoin:miter;stroke:#FFFFFF;stroke-opacity:1;stroke-miterlimit:4;" d="M 7.3125 30.613281 L 21.375 36.242188 " transform="matrix(1,0,0,-1,0,43)"/>
<path style="fill-rule:nonzero;fill:#000000;fill-opacity:1;stroke-width:0.4;stroke-linecap:butt;stroke-linejoin:miter;stroke:#FFFFFF;stroke-opacity:1;stroke-miterlimit:4;" d="M 7.3125 36.242188 L 21.375 30.613281 " transform="matrix(1,0,0,-1,0,43)"/>
<path style=" stroke:none;fill-rule:nonzero;fill:#FFFFFF;fill-opacity:1;" d="M 8.101562 21.117188 L 8.101562 18.800781 L 8.496094 18.800781 L 7.914062 17.925781 L 7.335938 18.800781 L 7.726562 18.800781 L 7.726562 21.117188 L 8.101562 21.117188 "/>
<path style=" stroke:none;fill-rule:nonzero;fill:#FFFFFF;fill-opacity:1;" d="M 6.917969 21.453125 L 5.277344 19.816406 L 5.558594 19.535156 L 4.527344 19.328125 L 4.734375 20.355469 L 5.015625 20.078125 L 6.652344 21.71875 L 6.917969 21.453125 "/>
<path style=" stroke:none;fill-rule:nonzero;fill:#FFFFFF;fill-opacity:1;" d="M 6.320312 22.527344 L 4 22.527344 L 4 22.136719 L 3.125 22.714844 L 4 23.296875 L 4 22.902344 L 6.320312 22.902344 L 6.320312 22.527344 "/>
<path style=" stroke:none;fill-rule:nonzero;fill:#FFFFFF;fill-opacity:1;" d="M 6.652344 23.710938 L 5.015625 25.351562 L 4.734375 25.074219 L 4.527344 26.101562 L 5.558594 25.894531 L 5.277344 25.617188 L 6.917969 23.976562 L 6.652344 23.710938 "/>
<path style=" stroke:none;fill-rule:nonzero;fill:#FFFFFF;fill-opacity:1;" d="M 7.726562 24.3125 L 7.726562 26.632812 L 7.335938 26.632812 L 7.914062 27.507812 L 8.496094 26.632812 L 8.101562 26.632812 L 8.101562 24.3125 L 7.726562 24.3125 "/>
<path style=" stroke:none;fill-rule:nonzero;fill:#FFFFFF;fill-opacity:1;" d="M 9.511719 22.902344 L 11.832031 22.902344 L 11.832031 23.296875 L 12.707031 22.714844 L 11.832031 22.136719 L 11.832031 22.527344 L 9.511719 22.527344 L 9.511719 22.902344 "/>
<path style=" stroke:none;fill-rule:nonzero;fill:#FFFFFF;fill-opacity:1;" d="M 9.175781 21.71875 L 10.816406 20.078125 L 11.09375 20.355469 L 11.304688 19.328125 L 10.273438 19.535156 L 10.550781 19.816406 L 8.910156 21.453125 L 9.175781 21.71875 "/>
<path style=" stroke:none;fill-rule:nonzero;fill:#FFFFFF;fill-opacity:1;" d="M 9.335938 24.660156 C 10.421875 23.898438 10.683594 22.402344 9.925781 21.316406 C 9.164062 20.226562 7.664062 19.964844 6.578125 20.726562 C 5.492188 21.484375 5.226562 22.984375 5.988281 24.070312 C 6.75 25.15625 8.246094 25.421875 9.335938 24.660156 "/>
<path style=" stroke:none;fill-rule:nonzero;fill:#FFFFFF;fill-opacity:1;" d="M 8.101562 33.785156 L 8.101562 31.46875 L 8.496094 31.46875 L 7.914062 30.59375 L 7.335938 31.46875 L 7.726562 31.46875 L 7.726562 33.785156 L 8.101562 33.785156 "/>
<path style=" stroke:none;fill-rule:nonzero;fill:#FFFFFF;fill-opacity:1;" d="M 6.917969 34.121094 L 5.277344 32.480469 L 5.558594 32.203125 L 4.527344 31.992188 L 4.734375 33.023438 L 5.015625 32.746094 L 6.652344 34.386719 L 6.917969 34.121094 "/>
<path style=" stroke:none;fill-rule:nonzero;fill:#FFFFFF;fill-opacity:1;" d="M 6.320312 35.195312 L 4 35.195312 L 4 34.800781 L 3.125 35.382812 L 4 35.964844 L 4 35.570312 L 6.320312 35.570312 L 6.320312 35.195312 "/>
<path style=" stroke:none;fill-rule:nonzero;fill:#FFFFFF;fill-opacity:1;" d="M 6.652344 36.378906 L 5.015625 38.019531 L 4.734375 37.738281 L 4.527344 38.769531 L 5.558594 38.5625 L 5.277344 38.28125 L 6.917969 36.644531 L 6.652344 36.378906 "/>
<path style=" stroke:none;fill-rule:nonzero;fill:#FFFFFF;fill-opacity:1;" d="M 7.726562 36.976562 L 7.726562 39.296875 L 7.335938 39.296875 L 7.914062 40.175781 L 8.496094 39.296875 L 8.101562 39.296875 L 8.101562 36.976562 L 7.726562 36.976562 "/>
<path style=" stroke:none;fill-rule:nonzero;fill:#FFFFFF;fill-opacity:1;" d="M 8.910156 36.644531 L 10.550781 38.28125 L 10.273438 38.5625 L 11.304688 38.769531 L 11.09375 37.738281 L 10.816406 38.019531 L 9.175781 36.378906 L 8.910156 36.644531 "/>
<path style=" stroke:none;fill-rule:nonzero;fill:#FFFFFF;fill-opacity:1;" d="M 9.511719 35.570312 L 11.832031 35.570312 L 11.832031 35.964844 L 12.707031 35.382812 L 11.832031 34.800781 L 11.832031 35.195312 L 9.511719 35.195312 L 9.511719 35.570312 "/>
<path style=" stroke:none;fill-rule:nonzero;fill:#FFFFFF;fill-opacity:1;" d="M 9.335938 37.324219 C 10.421875 36.566406 10.683594 35.066406 9.925781 33.980469 C 9.164062 32.894531 7.664062 32.632812 6.578125 33.390625 C 5.492188 34.152344 5.226562 35.648438 5.988281 36.734375 C 6.75 37.824219 8.246094 38.085938 9.335938 37.324219 "/>
<path style=" stroke:none;fill-rule:nonzero;fill:#FFFFFF;fill-opacity:1;" d="M 20.769531 21.117188 L 20.769531 18.800781 L 21.164062 18.800781 L 20.582031 17.925781 L 20.003906 18.800781 L 20.394531 18.800781 L 20.394531 21.117188 L 20.769531 21.117188 "/>
<path style=" stroke:none;fill-rule:nonzero;fill:#FFFFFF;fill-opacity:1;" d="M 19.585938 21.453125 L 17.945312 19.816406 L 18.222656 19.535156 L 17.195312 19.328125 L 17.402344 20.355469 L 17.679688 20.078125 L 19.320312 21.71875 L 19.585938 21.453125 "/>
<path style=" stroke:none;fill-rule:nonzero;fill:#FFFFFF;fill-opacity:1;" d="M 18.984375 22.527344 L 16.664062 22.527344 L 16.664062 22.136719 L 15.789062 22.714844 L 16.664062 23.296875 L 16.664062 22.902344 L 18.984375 22.902344 L 18.984375 22.527344 "/>
<path style=" stroke:none;fill-rule:nonzero;fill:#FFFFFF;fill-opacity:1;" d="M 20.394531 24.3125 L 20.394531 26.632812 L 20.003906 26.632812 L 20.582031 27.507812 L 21.164062 26.632812 L 20.769531 26.632812 L 20.769531 24.3125 L 20.394531 24.3125 "/>
<path style=" stroke:none;fill-rule:nonzero;fill:#FFFFFF;fill-opacity:1;" d="M 21.578125 23.976562 L 23.21875 25.617188 L 22.941406 25.894531 L 23.96875 26.101562 L 23.761719 25.074219 L 23.484375 25.351562 L 21.84375 23.710938 L 21.578125 23.976562 "/>
<path style=" stroke:none;fill-rule:nonzero;fill:#FFFFFF;fill-opacity:1;" d="M 22.179688 22.902344 L 24.496094 22.902344 L 24.496094 23.296875 L 25.371094 22.714844 L 24.496094 22.136719 L 24.496094 22.527344 L 22.179688 22.527344 L 22.179688 22.902344 "/>
<path style=" stroke:none;fill-rule:nonzero;fill:#FFFFFF;fill-opacity:1;" d="M 21.84375 21.71875 L 23.484375 20.078125 L 23.761719 20.355469 L 23.96875 19.328125 L 22.941406 19.535156 L 23.21875 19.816406 L 21.578125 21.453125 L 21.84375 21.71875 "/>
<path style=" stroke:none;fill-rule:nonzero;fill:#FFFFFF;fill-opacity:1;" d="M 22 24.660156 C 23.089844 23.898438 23.351562 22.402344 22.589844 21.316406 C 21.828125 20.226562 20.332031 19.964844 19.246094 20.726562 C 18.160156 21.484375 17.894531 22.984375 18.65625 24.070312 C 19.417969 25.15625 20.914062 25.421875 22 24.660156 "/>
<path style=" stroke:none;fill-rule:nonzero;fill:#FFFFFF;fill-opacity:1;" d="M 20.769531 33.785156 L 20.769531 31.46875 L 21.164062 31.46875 L 20.582031 30.59375 L 20.003906 31.46875 L 20.394531 31.46875 L 20.394531 33.785156 L 20.769531 33.785156 "/>
<path style=" stroke:none;fill-rule:nonzero;fill:#FFFFFF;fill-opacity:1;" d="M 18.984375 35.195312 L 16.664062 35.195312 L 16.664062 34.800781 L 15.789062 35.382812 L 16.664062 35.964844 L 16.664062 35.570312 L 18.984375 35.570312 L 18.984375 35.195312 "/>
<path style=" stroke:none;fill-rule:nonzero;fill:#FFFFFF;fill-opacity:1;" d="M 19.320312 36.378906 L 17.679688 38.019531 L 17.402344 37.738281 L 17.195312 38.769531 L 18.222656 38.5625 L 17.945312 38.28125 L 19.585938 36.644531 L 19.320312 36.378906 "/>
<path style=" stroke:none;fill-rule:nonzero;fill:#FFFFFF;fill-opacity:1;" d="M 20.394531 36.976562 L 20.394531 39.296875 L 20.003906 39.296875 L 20.582031 40.175781 L 21.164062 39.296875 L 20.769531 39.296875 L 20.769531 36.976562 L 20.394531 36.976562 "/>
<path style=" stroke:none;fill-rule:nonzero;fill:#FFFFFF;fill-opacity:1;" d="M 21.578125 36.644531 L 23.21875 38.28125 L 22.941406 38.5625 L 23.96875 38.769531 L 23.761719 37.738281 L 23.484375 38.019531 L 21.84375 36.378906 L 21.578125 36.644531 "/>
<path style=" stroke:none;fill-rule:nonzero;fill:#FFFFFF;fill-opacity:1;" d="M 22.179688 35.570312 L 24.496094 35.570312 L 24.496094 35.964844 L 25.371094 35.382812 L 24.496094 34.800781 L 24.496094 35.195312 L 22.179688 35.195312 L 22.179688 35.570312 "/>
<path style=" stroke:none;fill-rule:nonzero;fill:#FFFFFF;fill-opacity:1;" d="M 21.84375 34.386719 L 23.484375 32.746094 L 23.761719 33.023438 L 23.96875 31.992188 L 22.941406 32.203125 L 23.21875 32.480469 L 21.578125 34.121094 L 21.84375 34.386719 "/>
<path style=" stroke:none;fill-rule:nonzero;fill:#FFFFFF;fill-opacity:1;" d="M 22 37.324219 C 23.089844 36.566406 23.351562 35.066406 22.589844 33.980469 C 21.828125 32.894531 20.332031 32.632812 19.246094 33.390625 C 18.160156 34.152344 17.894531 35.648438 18.65625 36.734375 C 19.417969 37.824219 20.914062 38.085938 22 37.324219 "/>
<path style="fill:none;stroke-width:1;stroke-linecap:butt;stroke-linejoin:miter;stroke:#FFFFFF;stroke-opacity:1;stroke-miterlimit:4;" d="M 9.152344 19.015625 L 19.488281 8.683594 M 8.964844 8.683594 L 19.632812 19.351562 " transform="matrix(1,0,0,-1,0,43)"/>
</g>
</svg>
