<?xml version="1.0" encoding="UTF-8"?>
<svg xmlns="http://www.w3.org/2000/svg" xmlns:xlink="http://www.w3.org/1999/xlink" width="26pt" height="34pt" viewBox="0 0 26 34" version="1.1">
<defs>
<clipPath id="clip1">
  <path d="M 0.0585938 0.339844 L 25.125 0.339844 L 25.125 34 L 0.0585938 34 L 0.0585938 0.339844 Z M 0.0585938 0.339844 "/>
</clipPath>
<clipPath id="clip2">
  <path d="M 0.0585938 0.339844 L 25.125 0.339844 L 25.125 34 L 0.0585938 34 L 0.0585938 0.339844 Z M 0.0585938 0.339844 "/>
</clipPath>
<clipPath id="clip3">
  <path d="M 0.0585938 0.339844 L 25.125 0.339844 L 25.125 34 L 0.0585938 34 L 0.0585938 0.339844 Z M 0.0585938 0.339844 "/>
</clipPath>
<clipPath id="clip4">
  <path d="M 0.0585938 0.339844 L 25.125 0.339844 L 25.125 34 L 0.0585938 34 L 0.0585938 0.339844 Z M 0.0585938 0.339844 "/>
</clipPath>
<clipPath id="clip5">
  <path d="M 0.0585938 0.339844 L 25.125 0.339844 L 25.125 34 L 0.0585938 34 L 0.0585938 0.339844 Z M 0.0585938 0.339844 "/>
</clipPath>
<clipPath id="clip6">
  <path d="M 0.0585938 0.339844 L 25.125 0.339844 L 25.125 34 L 0.0585938 34 L 0.0585938 0.339844 Z M 0.0585938 0.339844 "/>
</clipPath>
</defs>
<g id="surface0">
<path style=" stroke:none;fill-rule:nonzero;fill:#202020;fill-opacity:1;" d="M 24.625 9.929688 L 20.515625 13.828125 L 0.597656 13.828125 L 5.757812 9.929688 L 24.625 9.929688 "/>
<g clip-path="url(#clip1)" clip-rule="nonzero">
<path style="fill:none;stroke-width:0.4;stroke-linecap:round;stroke-linejoin:round;stroke:#FFFFFF;stroke-opacity:1;stroke-miterlimit:4;" d="M 24.625 24.070312 L 20.515625 20.171875 L 0.597656 20.171875 L 5.757812 24.070312 L 24.625 24.070312 Z M 24.625 24.070312 " transform="matrix(1,0,0,-1,0,34)"/>
</g>
<path style=" stroke:none;fill-rule:nonzero;fill:#FFAA00;fill-opacity:1;" d="M 0.597656 13.828125 L 20.515625 13.828125 L 20.515625 33.527344 L 0.597656 33.527344 L 0.597656 13.828125 Z M 0.597656 13.828125 "/>
<g clip-path="url(#clip2)" clip-rule="nonzero">
<path style="fill:none;stroke-width:0.4;stroke-linecap:butt;stroke-linejoin:miter;stroke:#FFFFFF;stroke-opacity:1;stroke-miterlimit:4;" d="M 0.597656 0.472656 L 20.515625 0.472656 L 20.515625 20.171875 L 0.597656 20.171875 L 0.597656 0.472656 Z M 0.597656 0.472656 " transform="matrix(1,0,0,-1,0,34)"/>
</g>
<path style=" stroke:none;fill-rule:nonzero;fill:#FFAA00;fill-opacity:1;" d="M 24.214844 29.828125 L 24.214844 10.128906 L 20.398438 13.828125 L 20.398438 33.527344 L 24.214844 29.828125 "/>
<g clip-path="url(#clip3)" clip-rule="nonzero">
<path style="fill:none;stroke-width:0.4;stroke-linecap:butt;stroke-linejoin:miter;stroke:#FFFFFF;stroke-opacity:1;stroke-miterlimit:4;" d="M 24.214844 4.171875 L 24.214844 23.871094 L 20.398438 20.171875 L 20.398438 0.472656 L 24.214844 4.171875 Z M 24.214844 4.171875 " transform="matrix(1,0,0,-1,0,34)"/>
</g>
<path style=" stroke:none;fill-rule:nonzero;fill:#FFFFFF;fill-opacity:1;" d="M 7.671875 23.148438 L 3.386719 23.148438 L 3.386719 22.042969 L 1.769531 23.671875 L 3.386719 25.304688 L 3.386719 24.199219 L 7.671875 24.199219 L 7.671875 23.148438 "/>
<path style=" stroke:none;fill-rule:nonzero;fill:#FFFFFF;fill-opacity:1;" d="M 10.097656 26.621094 L 10.097656 30.910156 L 8.988281 30.910156 L 10.621094 32.527344 L 12.253906 30.910156 L 11.148438 30.910156 L 11.148438 26.621094 L 10.097656 26.621094 "/>
<path style=" stroke:none;fill-rule:nonzero;fill:#FFFFFF;fill-opacity:1;" d="M 10.097656 20.847656 L 10.097656 16.5625 L 8.988281 16.5625 L 10.621094 14.945312 L 12.253906 16.5625 L 11.148438 16.5625 L 11.148438 20.847656 L 10.097656 20.847656 "/>
<path style=" stroke:none;fill-rule:nonzero;fill:#FFFFFF;fill-opacity:1;" d="M 13.570312 24.199219 L 17.855469 24.199219 L 17.855469 25.304688 L 19.476562 23.671875 L 17.855469 22.042969 L 17.855469 23.148438 L 13.570312 23.148438 L 13.570312 24.199219 "/>
<path style="fill:none;stroke-width:0.4;stroke-linecap:butt;stroke-linejoin:miter;stroke:#FFFFFF;stroke-opacity:1;stroke-miterlimit:4;" d="M 17.519531 3.445312 C 16.714844 2.59375 13.015625 4.929688 9.261719 8.660156 C 5.507812 12.390625 3.117188 16.101562 3.921875 16.953125 C 4.726562 17.800781 8.425781 15.464844 12.179688 11.734375 C 15.933594 8.007812 18.324219 4.292969 17.519531 3.445312 Z M 17.304688 17.015625 C 18.152344 16.210938 15.816406 12.515625 12.089844 8.761719 C 8.359375 5.007812 4.644531 2.617188 3.796875 3.421875 C 2.945312 4.226562 5.28125 7.921875 9.011719 11.675781 C 12.742188 15.429688 16.453125 17.820312 17.304688 17.015625 Z M 17.304688 17.015625 " transform="matrix(1,0,0,-1,0,34)"/>
<path style=" stroke:none;fill-rule:nonzero;fill:#FFE9BF;fill-opacity:1;" d="M 12.378906 26.164062 C 13.796875 25.171875 14.140625 23.222656 13.148438 21.808594 C 12.15625 20.390625 10.207031 20.046875 8.789062 21.039062 C 7.375 22.027344 7.03125 23.980469 8.023438 25.394531 C 9.011719 26.8125 10.964844 27.15625 12.378906 26.164062 "/>
<path style=" stroke:none;fill-rule:nonzero;fill:#FFAA00;fill-opacity:1;" d="M 24.625 0.613281 L 20.515625 4.511719 L 0.597656 4.511719 L 5.757812 0.613281 L 24.625 0.613281 "/>
<g clip-path="url(#clip4)" clip-rule="nonzero">
<path style="fill:none;stroke-width:0.4;stroke-linecap:butt;stroke-linejoin:miter;stroke:#FFFFFF;stroke-opacity:1;stroke-miterlimit:4;" d="M 24.625 33.386719 L 20.515625 29.488281 L 0.597656 29.488281 L 5.757812 33.386719 L 24.625 33.386719 Z M 24.625 33.386719 " transform="matrix(1,0,0,-1,0,34)"/>
</g>
<path style=" stroke:none;fill-rule:nonzero;fill:#FFAA00;fill-opacity:1;" d="M 0.597656 4.511719 L 20.515625 4.511719 L 20.515625 13.96875 L 0.597656 13.96875 L 0.597656 4.511719 Z M 0.597656 4.511719 "/>
<g clip-path="url(#clip5)" clip-rule="nonzero">
<path style="fill:none;stroke-width:0.4;stroke-linecap:butt;stroke-linejoin:miter;stroke:#FFFFFF;stroke-opacity:1;stroke-miterlimit:4;" d="M 0.597656 20.03125 L 20.515625 20.03125 L 20.515625 29.488281 L 0.597656 29.488281 L 0.597656 20.03125 Z M 0.597656 20.03125 " transform="matrix(1,0,0,-1,0,34)"/>
</g>
<path style=" stroke:none;fill-rule:nonzero;fill:#FFAA00;fill-opacity:1;" d="M 24.214844 10.269531 L 24.214844 0.8125 L 20.398438 4.511719 L 20.398438 13.96875 L 24.214844 10.269531 "/>
<g clip-path="url(#clip6)" clip-rule="nonzero">
<path style="fill:none;stroke-width:0.4;stroke-linecap:butt;stroke-linejoin:miter;stroke:#FFFFFF;stroke-opacity:1;stroke-miterlimit:4;" d="M 24.214844 23.730469 L 24.214844 33.1875 L 20.398438 29.488281 L 20.398438 20.03125 L 24.214844 23.730469 Z M 24.214844 23.730469 " transform="matrix(1,0,0,-1,0,34)"/>
</g>
<path style=" stroke:none;fill-rule:nonzero;fill:#FFFFFF;fill-opacity:1;" d="M 2.382812 5.96875 L 6.277344 5.96875 L 6.277344 8 L 2.382812 8 L 2.382812 5.96875 Z M 2.382812 5.96875 "/>
<path style=" stroke:none;fill-rule:nonzero;fill:#FFFFFF;fill-opacity:1;" d="M 15.179688 5.96875 L 19.070312 5.96875 L 19.070312 8 L 15.179688 8 L 15.179688 5.96875 Z M 15.179688 5.96875 "/>
<path style=" stroke:none;fill-rule:nonzero;fill:#FFFFFF;fill-opacity:1;" d="M 2.382812 11.039062 L 6.277344 11.039062 L 6.277344 13.066406 L 2.382812 13.066406 L 2.382812 11.039062 Z M 2.382812 11.039062 "/>
<path style=" stroke:none;fill-rule:nonzero;fill:#FFFFFF;fill-opacity:1;" d="M 15.179688 11.039062 L 19.070312 11.039062 L 19.070312 13.066406 L 15.179688 13.066406 L 15.179688 11.039062 Z M 15.179688 11.039062 "/>
<path style="fill-rule:nonzero;fill:#202020;fill-opacity:1;stroke-width:0.4;stroke-linecap:butt;stroke-linejoin:miter;stroke:#FFFFFF;stroke-opacity:1;stroke-miterlimit:4;" d="M 5.027344 27.015625 L 16.984375 27.015625 " transform="matrix(1,0,0,-1,0,34)"/>
<path style="fill-rule:nonzero;fill:#202020;fill-opacity:1;stroke-width:0.4;stroke-linecap:butt;stroke-linejoin:miter;stroke:#FFFFFF;stroke-opacity:1;stroke-miterlimit:4;" d="M 5.027344 21.800781 L 16.984375 21.800781 " transform="matrix(1,0,0,-1,0,34)"/>
<path style="fill-rule:nonzero;fill:#202020;fill-opacity:1;stroke-width:0.4;stroke-linecap:butt;stroke-linejoin:miter;stroke:#FFFFFF;stroke-opacity:1;stroke-miterlimit:4;" d="M 4.332031 21.945312 L 16.984375 27.015625 " transform="matrix(1,0,0,-1,0,34)"/>
<path style="fill-rule:nonzero;fill:#202020;fill-opacity:1;stroke-width:0.4;stroke-linecap:butt;stroke-linejoin:miter;stroke:#FFFFFF;stroke-opacity:1;stroke-miterlimit:4;" d="M 4.332031 27.015625 L 16.984375 21.945312 " transform="matrix(1,0,0,-1,0,34)"/>
</g>
</svg>
