<?xml version="1.0" encoding="UTF-8"?>
<svg xmlns="http://www.w3.org/2000/svg" xmlns:xlink="http://www.w3.org/1999/xlink" width="33pt" height="34pt" viewBox="0 0 33 34" version="1.1">
<g id="surface0">
<path style="fill:none;stroke-width:0.414;stroke-linecap:butt;stroke-linejoin:miter;stroke:#FFFFFF;stroke-opacity:1;stroke-miterlimit:4;" d="M 0.613281 17.660156 L 24.082031 17.660156 " transform="matrix(1,0,0,-1,0,34)"/>
<path style="fill-rule:nonzero;fill:#FFAA00;fill-opacity:1;stroke-width:0.4;stroke-linecap:butt;stroke-linejoin:miter;stroke:#FFFFFF;stroke-opacity:1;stroke-miterlimit:4;" d="M 0.613281 0.417969 L 24.085938 0.417969 L 24.085938 8.101562 L 0.613281 8.101562 L 0.613281 0.417969 Z M 0.613281 0.417969 " transform="matrix(1,0,0,-1,0,34)"/>
<path style="fill-rule:nonzero;fill:#000000;fill-opacity:1;stroke-width:0.36;stroke-linecap:butt;stroke-linejoin:miter;stroke:#FFFFFF;stroke-opacity:1;stroke-miterlimit:4;" d="M 31.640625 15.058594 L 24.085938 8.109375 L 0.589844 8.109375 L 8.984375 15.058594 L 31.640625 15.058594 Z M 31.640625 15.058594 " transform="matrix(1,0,0,-1,0,34)"/>
<path style="fill-rule:nonzero;fill:#FFAA00;fill-opacity:1;stroke-width:0.4;stroke-linecap:butt;stroke-linejoin:miter;stroke:#FFFFFF;stroke-opacity:1;stroke-miterlimit:4;" d="M 31.667969 7.855469 L 31.667969 15.039062 L 24.085938 8.085938 L 24.085938 0.515625 L 31.667969 7.855469 Z M 31.667969 7.855469 " transform="matrix(1,0,0,-1,0,34)"/>
<path style="fill-rule:nonzero;fill:#FFAA00;fill-opacity:1;stroke-width:0.4;stroke-linecap:butt;stroke-linejoin:miter;stroke:#FFFFFF;stroke-opacity:1;stroke-miterlimit:4;" d="M 0.613281 9.664062 L 24.085938 9.664062 L 24.085938 17.34375 L 0.613281 17.34375 L 0.613281 9.664062 Z M 0.613281 9.664062 " transform="matrix(1,0,0,-1,0,34)"/>
<path style="fill-rule:nonzero;fill:#000000;fill-opacity:1;stroke-width:0.36;stroke-linecap:butt;stroke-linejoin:miter;stroke:#FFFFFF;stroke-opacity:1;stroke-miterlimit:4;" d="M 31.640625 24.558594 L 24.085938 17.609375 L 0.589844 17.609375 L 8.984375 24.558594 L 31.640625 24.558594 Z M 31.640625 24.558594 " transform="matrix(1,0,0,-1,0,34)"/>
<path style="fill-rule:nonzero;fill:#FFAA00;fill-opacity:1;stroke-width:0.4;stroke-linecap:butt;stroke-linejoin:miter;stroke:#FFFFFF;stroke-opacity:1;stroke-miterlimit:4;" d="M 31.667969 16.324219 L 31.667969 23.960938 L 24.085938 17.007812 L 24.085938 9.433594 L 31.667969 16.324219 Z M 31.667969 16.324219 " transform="matrix(1,0,0,-1,0,34)"/>
<path style="fill-rule:nonzero;fill:#FFAA00;fill-opacity:1;stroke-width:0.4;stroke-linecap:butt;stroke-linejoin:miter;stroke:#FFFFFF;stroke-opacity:1;stroke-miterlimit:4;" d="M 0.613281 18.902344 L 24.085938 18.902344 L 24.085938 26.582031 L 0.613281 26.582031 L 0.613281 18.902344 Z M 0.613281 18.902344 " transform="matrix(1,0,0,-1,0,34)"/>
<path style="fill-rule:nonzero;fill:#FFAA00;fill-opacity:1;stroke-width:0.4;stroke-linecap:butt;stroke-linejoin:miter;stroke:#FFFFFF;stroke-opacity:1;stroke-miterlimit:4;" d="M 31.640625 33.539062 L 24.085938 26.589844 L 0.589844 26.589844 L 8.984375 33.539062 L 31.640625 33.539062 Z M 31.640625 33.539062 " transform="matrix(1,0,0,-1,0,34)"/>
<path style="fill-rule:nonzero;fill:#FFAA00;fill-opacity:1;stroke-width:0.4;stroke-linecap:butt;stroke-linejoin:miter;stroke:#FFFFFF;stroke-opacity:1;stroke-miterlimit:4;" d="M 31.667969 26.015625 L 31.667969 33.523438 L 24.085938 26.566406 L 24.085938 18.996094 L 31.667969 26.015625 Z M 31.667969 26.015625 " transform="matrix(1,0,0,-1,0,34)"/>
<path style=" stroke:none;fill-rule:nonzero;fill:#000000;fill-opacity:1;" d="M 19.832031 4.453125 L 20.824219 3.707031 L 23.527344 4.582031 L 18.101562 5.753906 L 19.011719 4.859375 L 13.628906 4.859375 L 14.445312 4.453125 L 19.832031 4.453125 "/>
<path style=" stroke:none;fill-rule:nonzero;fill:#000000;fill-opacity:1;" d="M 17.179688 2.4375 L 16.730469 2.914062 L 12.277344 2.914062 L 11.378906 3.449219 L 8.683594 2.566406 L 14.101562 1.402344 L 12.722656 2.4375 L 17.179688 2.4375 "/>
<path style=" stroke:none;fill-rule:nonzero;fill:#000000;fill-opacity:1;" d="M 13.332031 5.503906 L 12.699219 5.976562 L 8.242188 5.976562 L 7.53125 6.515625 L 4.835938 5.632812 L 10.253906 4.46875 L 8.878906 5.503906 L 13.332031 5.503906 "/>
<path style=" stroke:none;fill-rule:nonzero;fill:#000000;fill-opacity:1;" d="M 24.101562 1.664062 L 25.089844 0.921875 L 27.796875 1.792969 L 22.367188 2.964844 L 23.375 2.140625 L 17.988281 2.140625 L 18.714844 1.664062 L 24.101562 1.664062 "/>
<path style=" stroke:none;fill-rule:nonzero;fill:#FFFFFF;fill-opacity:1;" d="M 19.832031 4.710938 L 20.824219 3.964844 L 23.527344 4.839844 L 18.101562 6.011719 L 19.011719 5.117188 L 13.628906 5.117188 L 14.445312 4.710938 L 19.832031 4.710938 "/>
<path style=" stroke:none;fill-rule:nonzero;fill:#FFFFFF;fill-opacity:1;" d="M 17.179688 2.695312 L 16.730469 3.171875 L 12.277344 3.171875 L 11.378906 3.707031 L 8.683594 2.824219 L 14.101562 1.660156 L 12.722656 2.695312 L 17.179688 2.695312 "/>
<path style=" stroke:none;fill-rule:nonzero;fill:#FFFFFF;fill-opacity:1;" d="M 13.332031 5.761719 L 12.699219 6.238281 L 8.242188 6.238281 L 7.53125 6.773438 L 4.835938 5.890625 L 10.253906 4.726562 L 8.878906 5.761719 L 13.332031 5.761719 "/>
<path style=" stroke:none;fill-rule:nonzero;fill:#FFFFFF;fill-opacity:1;" d="M 24.101562 1.921875 L 25.089844 1.179688 L 27.796875 2.050781 L 22.367188 3.222656 L 23.375 2.398438 L 17.988281 2.398438 L 18.714844 1.921875 L 24.101562 1.921875 "/>
<path style=" stroke:none;fill-rule:nonzero;fill:#FFFFFF;fill-opacity:1;" d="M 13.152344 15.972656 L 13.152344 10.777344 L 14.035156 10.777344 L 12.734375 8.816406 L 11.433594 10.777344 L 12.316406 10.777344 L 12.316406 15.972656 L 13.152344 15.972656 "/>
<path style=" stroke:none;fill-rule:nonzero;fill:#FFFFFF;fill-opacity:1;" d="M 10.503906 17.757812 L 6.828125 14.082031 L 7.453125 13.460938 L 5.144531 12.992188 L 5.613281 15.300781 L 6.234375 14.675781 L 9.910156 18.351562 L 10.503906 17.757812 "/>
<path style=" stroke:none;fill-rule:nonzero;fill:#FFFFFF;fill-opacity:1;" d="M 9.160156 20.160156 L 3.964844 20.160156 L 3.964844 19.28125 L 2.003906 20.582031 L 3.964844 21.882812 L 3.964844 21 L 9.160156 21 L 9.160156 20.160156 "/>
<path style=" stroke:none;fill-rule:nonzero;fill:#FFFFFF;fill-opacity:1;" d="M 9.910156 22.8125 L 6.234375 26.484375 L 5.613281 25.863281 L 5.144531 28.171875 L 7.453125 27.703125 L 6.828125 27.078125 L 10.503906 23.40625 L 9.910156 22.8125 "/>
<path style=" stroke:none;fill-rule:nonzero;fill:#FFFFFF;fill-opacity:1;" d="M 12.316406 24.15625 L 12.316406 29.351562 L 11.433594 29.351562 L 12.734375 31.3125 L 14.035156 29.351562 L 13.152344 29.351562 L 13.152344 24.15625 L 12.316406 24.15625 "/>
<path style=" stroke:none;fill-rule:nonzero;fill:#FFFFFF;fill-opacity:1;" d="M 14.964844 23.40625 L 18.640625 27.078125 L 18.015625 27.703125 L 20.324219 28.171875 L 19.855469 25.863281 L 19.234375 26.484375 L 15.558594 22.8125 L 14.964844 23.40625 "/>
<path style=" stroke:none;fill-rule:nonzero;fill:#FFFFFF;fill-opacity:1;" d="M 16.308594 21 L 21.507812 21 L 21.507812 21.882812 L 23.46875 20.582031 L 21.507812 19.28125 L 21.507812 20.160156 L 16.308594 20.160156 L 16.308594 21 "/>
<path style=" stroke:none;fill-rule:nonzero;fill:#FFFFFF;fill-opacity:1;" d="M 15.558594 18.351562 L 19.234375 14.675781 L 19.855469 15.300781 L 20.324219 12.992188 L 18.015625 13.460938 L 18.640625 14.082031 L 14.964844 17.757812 L 15.558594 18.351562 "/>
<path style=" stroke:none;fill-rule:nonzero;fill:#FFFFFF;fill-opacity:1;" d="M 14.996094 23.742188 C 16.710938 22.542969 17.128906 20.179688 15.925781 18.460938 C 14.726562 16.746094 12.359375 16.328125 10.644531 17.527344 C 8.929688 18.730469 8.511719 21.097656 9.714844 22.8125 C 10.914062 24.527344 13.277344 24.945312 14.996094 23.742188 "/>
<path style="fill:none;stroke-width:0.252;stroke-linecap:butt;stroke-linejoin:miter;stroke:#000000;stroke-opacity:1;stroke-miterlimit:4;" d="M 14.996094 10.257812 C 16.710938 11.457031 17.128906 13.820312 15.925781 15.539062 C 14.726562 17.253906 12.359375 17.671875 10.644531 16.472656 C 8.929688 15.269531 8.511719 12.902344 9.714844 11.1875 C 10.914062 9.472656 13.277344 9.054688 14.996094 10.257812 Z M 14.996094 10.257812 " transform="matrix(1,0,0,-1,0,34)"/>
<path style="fill:none;stroke-width:0.9;stroke-linecap:butt;stroke-linejoin:miter;stroke:#FFFFFF;stroke-opacity:1;stroke-miterlimit:4;" d="M 30.523438 16.617188 C 30.148438 11.746094 28.707031 7.882812 27.300781 7.988281 C 25.898438 8.101562 25.066406 12.136719 25.441406 17.011719 C 25.816406 21.882812 27.261719 25.746094 28.664062 25.636719 C 30.066406 25.53125 30.902344 21.492188 30.523438 16.617188 Z M 30.523438 16.617188 " transform="matrix(1,0,0,-1,0,34)"/>
</g>
</svg>
