<?xml version="1.0" encoding="UTF-8"?>
<svg xmlns="http://www.w3.org/2000/svg" xmlns:xlink="http://www.w3.org/1999/xlink" width="25pt" height="37pt" viewBox="0 0 25 37" version="1.1">
<defs>
<clipPath id="clip1">
  <path d="M 0 0.53125 L 24 0.53125 L 24 36.53125 L 0 36.53125 L 0 0.53125 Z M 0 0.53125 "/>
</clipPath>
<clipPath id="clip2">
  <path d="M 0 0.53125 L 24 0.53125 L 24 36.53125 L 0 36.53125 L 0 0.53125 Z M 0 0.53125 "/>
</clipPath>
<clipPath id="clip3">
  <path d="M 0 0.53125 L 24 0.53125 L 24 36.53125 L 0 36.53125 L 0 0.53125 Z M 0 0.53125 "/>
</clipPath>
</defs>
<g id="surface0">
<path style=" stroke:none;fill-rule:nonzero;fill:#FFAA00;fill-opacity:1;" d="M 0.648438 4.753906 L 19.171875 4.753906 L 19.171875 36.484375 L 0.648438 36.484375 L 0.648438 4.753906 Z M 0.648438 4.753906 "/>
<g clip-path="url(#clip1)" clip-rule="nonzero">
<path style="fill:none;stroke-width:0.4;stroke-linecap:butt;stroke-linejoin:miter;stroke:#FFFFFF;stroke-opacity:1;stroke-miterlimit:4;" d="M 0.648438 32.246094 L 19.171875 32.246094 L 19.171875 0.515625 L 0.648438 0.515625 L 0.648438 32.246094 Z M 0.648438 32.246094 " transform="matrix(1,0,0,-1,0,37)"/>
</g>
<path style=" stroke:none;fill-rule:nonzero;fill:#FFAA00;fill-opacity:1;" d="M 6.203125 0.953125 L 0.648438 4.753906 L 19.171875 4.753906 L 23.777344 0.953125 L 6.203125 0.953125 "/>
<g clip-path="url(#clip2)" clip-rule="nonzero">
<path style="fill:none;stroke-width:0.4;stroke-linecap:butt;stroke-linejoin:miter;stroke:#FFFFFF;stroke-opacity:1;stroke-miterlimit:4;" d="M 6.203125 36.046875 L 0.648438 32.246094 L 19.171875 32.246094 L 23.777344 36.046875 L 6.203125 36.046875 Z M 6.203125 36.046875 " transform="matrix(1,0,0,-1,0,37)"/>
</g>
<path style=" stroke:none;fill-rule:nonzero;fill:#FFAA00;fill-opacity:1;" d="M 23.777344 31.429688 L 23.777344 0.953125 L 19.171875 4.753906 L 19.171875 36.484375 L 23.777344 31.429688 "/>
<g clip-path="url(#clip3)" clip-rule="nonzero">
<path style="fill:none;stroke-width:0.4;stroke-linecap:butt;stroke-linejoin:miter;stroke:#FFFFFF;stroke-opacity:1;stroke-miterlimit:4;" d="M 23.777344 5.570312 L 23.777344 36.046875 L 19.171875 32.246094 L 19.171875 0.515625 L 23.777344 5.570312 Z M 23.777344 5.570312 " transform="matrix(1,0,0,-1,0,37)"/>
</g>
<path style=" stroke:none;fill-rule:nonzero;fill:#FFFFFF;fill-opacity:1;" d="M 7.84375 10.382812 L 16.199219 10.378906 L 16.199219 11.4375 L 7.84375 11.441406 L 7.839844 13.089844 L 4.046875 10.910156 L 7.839844 8.730469 L 7.84375 10.382812 "/>
<path style=" stroke:none;fill-rule:nonzero;fill:#FFFFFF;fill-opacity:1;" d="M 13.191406 19.097656 L 4.835938 19.105469 L 4.835938 18.046875 L 13.191406 18.042969 L 13.195312 16.390625 L 16.988281 18.570312 L 13.195312 20.753906 L 13.191406 19.097656 "/>
</g>
</svg>
