<?xml version="1.0" encoding="UTF-8"?>
<svg xmlns="http://www.w3.org/2000/svg" xmlns:xlink="http://www.w3.org/1999/xlink" width="32pt" height="26pt" viewBox="0 0 32 26" version="1.1">
<defs>
<clipPath id="clip1">
  <path d="M 0.0585938 0.796875 L 31 0.796875 L 31 25.796875 L 0.0585938 25.796875 L 0.0585938 0.796875 Z M 0.0585938 0.796875 "/>
</clipPath>
</defs>
<g id="surface0">
<g clip-path="url(#clip1)" clip-rule="nonzero">
<path style=" stroke:none;fill-rule:nonzero;fill:#00B38A;fill-opacity:1;" d="M 31.320312 6.757812 C 31.320312 9.941406 24.355469 12.519531 15.761719 12.519531 C 7.167969 12.519531 0.199219 9.941406 0.199219 6.757812 L 0.199219 20.039062 C 0.199219 23.21875 7.167969 25.800781 15.761719 25.800781 C 24.355469 25.800781 31.320312 23.21875 31.320312 20.039062 L 31.320312 6.757812 "/>
<path style="fill:none;stroke-width:0.4;stroke-linecap:butt;stroke-linejoin:miter;stroke:#FFFFFF;stroke-opacity:1;stroke-miterlimit:4;" d="M 31.320312 19.242188 C 31.320312 16.058594 24.355469 13.480469 15.761719 13.480469 C 7.167969 13.480469 0.199219 16.058594 0.199219 19.242188 L 0.199219 5.960938 C 0.199219 2.78125 7.167969 0.199219 15.761719 0.199219 C 24.355469 0.199219 31.320312 2.78125 31.320312 5.960938 L 31.320312 19.242188 Z M 31.320312 19.242188 " transform="matrix(1,0,0,-1,0,26)"/>
<path style=" stroke:none;fill-rule:nonzero;fill:#00B38A;fill-opacity:1;" d="M 15.761719 12.519531 C 24.355469 12.519531 31.320312 9.941406 31.320312 6.757812 C 31.320312 3.574219 24.355469 0.992188 15.761719 0.992188 C 7.167969 0.992188 0.199219 3.574219 0.199219 6.757812 C 0.199219 9.941406 7.167969 12.519531 15.761719 12.519531 "/>
<path style="fill:none;stroke-width:0.4;stroke-linecap:butt;stroke-linejoin:miter;stroke:#FFFFFF;stroke-opacity:1;stroke-miterlimit:4;" d="M 15.761719 13.480469 C 24.355469 13.480469 31.320312 16.058594 31.320312 19.242188 C 31.320312 22.425781 24.355469 25.007812 15.761719 25.007812 C 7.167969 25.007812 0.199219 22.425781 0.199219 19.242188 C 0.199219 16.058594 7.167969 13.480469 15.761719 13.480469 Z M 15.761719 13.480469 " transform="matrix(1,0,0,-1,0,26)"/>
</g>
</g>
</svg>
