<?xml version="1.0" encoding="UTF-8" standalone="no"?>
<svg
   xmlns:dc="http://purl.org/dc/elements/1.1/"
   xmlns:cc="http://creativecommons.org/ns#"
   xmlns:rdf="http://www.w3.org/1999/02/22-rdf-syntax-ns#"
   xmlns:svg="http://www.w3.org/2000/svg"
   xmlns="http://www.w3.org/2000/svg"
   xmlns:sodipodi="http://sodipodi.sourceforge.net/DTD/sodipodi-0.dtd"
   xmlns:inkscape="http://www.inkscape.org/namespaces/inkscape"
   width="38pt"
   height="38pt"
   viewBox="0 0 38 38"
   version="1.1"
   id="svg11629"
   inkscape:version="0.48.1 r9760"
   sodipodi:docname="ASR9k.svg">
  <metadata
     id="metadata11681">
    <rdf:RDF>
      <cc:Work
         rdf:about="">
        <dc:format>image/svg+xml</dc:format>
        <dc:type
           rdf:resource="http://purl.org/dc/dcmitype/StillImage" />
        <dc:title></dc:title>
      </cc:Work>
    </rdf:RDF>
  </metadata>
  <sodipodi:namedview
     pagecolor="#ffffff"
     bordercolor="#666666"
     borderopacity="1"
     objecttolerance="10"
     gridtolerance="10"
     guidetolerance="10"
     inkscape:pageopacity="0"
     inkscape:pageshadow="2"
     inkscape:window-width="1386"
     inkscape:window-height="856"
     id="namedview11679"
     showgrid="false"
     inkscape:zoom="2"
     inkscape:cx="23.75"
     inkscape:cy="23.75"
     inkscape:window-x="54"
     inkscape:window-y="0"
     inkscape:window-maximized="0"
     inkscape:current-layer="svg11629">
    <inkscape:grid
       type="xygrid"
       id="grid11717" />
  </sodipodi:namedview>
  <defs
     id="defs11631">
    <clipPath
       id="clip1">
      <path
         d="M 0.0585938 0.589844 L 37 0.589844 L 37 37.589844 L 0.0585938 37.589844 L 0.0585938 0.589844 Z M 0.0585938 0.589844 "
         id="path11634" />
    </clipPath>
    <clipPath
       id="clip2">
      <path
         d="M 0.0585938 0.589844 L 37 0.589844 L 37 37.589844 L 0.0585938 37.589844 L 0.0585938 0.589844 Z M 0.0585938 0.589844 "
         id="path11637" />
    </clipPath>
    <clipPath
       id="clip3">
      <path
         d="M 22.472656 10.671875 L 21.4375 8.320312 L 26.617188 7.285156 L 25.71875 8.089844 L 34.351562 9.566406 L 32.28125 11.222656 L 23.699219 9.609375 L 22.472656 10.671875 "
         id="path11640" />
    </clipPath>
    <clipPath
       id="clip4">
      <path
         d="M 19.640625 3.902344 L 25.441406 2.3125 L 25.511719 4.800781 L 24.0625 4.523438 L 21.230469 6.871094 L 18.527344 6.476562 L 21.449219 4.179688 L 19.640625 3.902344 "
         id="path11643" />
    </clipPath>
    <clipPath
       id="clip5">
      <path
         d="M 17.15625 12.8125 L 11.628906 13.847656 L 11.421875 11.289062 L 13.011719 11.636719 L 16.050781 9.039062 L 18.742188 9.496094 L 15.496094 12.324219 L 17.15625 12.8125 "
         id="path11646" />
    </clipPath>
  </defs>
  <g
     id="g11649"
     clip-rule="nonzero"
     clip-path="url(#clip1)">
    <path
       inkscape:connector-curvature="0"
       id="path11651"
       d="m 36.984375,7.941406 c 0,3.949219 -8.234375,7.152344 -18.390625,7.152344 -10.160156,0 -18.394531,-3.203125 -18.394531,-7.152344 l 0,22.707032 c 0,3.949218 8.234375,7.152343 18.394531,7.152343 10.15625,0 18.390625,-3.203125 18.390625,-7.152343 l 0,-22.707032"
       style="fill:#00B38A;fill-opacity:1;fill-rule:nonzero;stroke:none" />
    <path
       inkscape:connector-curvature="0"
       id="path11653"
       transform="matrix(1,0,0,-1,0,38)"
       d="m 36.984375,30.058594 c 0,-3.949219 -8.234375,-7.152344 -18.390625,-7.152344 -10.160156,0 -18.394531,3.203125 -18.394531,7.152344 l 0,-22.707032 c 0,-3.949218 8.234375,-7.152343 18.394531,-7.152343 10.15625,0 18.390625,3.203125 18.390625,7.152343 l 0,22.707032 z m 0,0"
       style="fill:none;stroke:#ffffff;stroke-width:0.40000001;stroke-linecap:butt;stroke-linejoin:miter;stroke-miterlimit:4;stroke-opacity:1" />
  </g>
  <path
     inkscape:connector-curvature="0"
     id="path11655"
     d="m 18.59375,15.09375 c 10.15625,0 18.390625,-3.203125 18.390625,-7.152344 0,-3.953125 -8.234375,-7.152344 -18.390625,-7.152344 -10.160156,0 -18.394531,3.199219 -18.394531,7.152344 0,3.949219 8.234375,7.152344 18.394531,7.152344"
     style="fill:#00B38A;fill-opacity:1;fill-rule:nonzero;stroke:none" />
  <g
     id="g11657"
     clip-rule="nonzero"
     clip-path="url(#clip2)">
    <path
       inkscape:connector-curvature="0"
       id="path11659"
       transform="matrix(1,0,0,-1,0,38)"
       d="m 18.59375,22.90625 c 10.15625,0 18.390625,3.203125 18.390625,7.152344 0,3.953125 -8.234375,7.152344 -18.390625,7.152344 -10.160156,0 -18.394531,-3.199219 -18.394531,-7.152344 0,-3.949219 8.234375,-7.152344 18.394531,-7.152344 z m 0,0"
       style="fill:none;stroke:#ffffff;stroke-width:0.40000001;stroke-linecap:butt;stroke-linejoin:miter;stroke-miterlimit:4;stroke-opacity:1" />
  </g>
  <path
     inkscape:connector-curvature="0"
     id="path11661"
     d="M 19.640625,3.902344 25.441406,2.3125 25.511719,4.800781 24.0625,4.523438 21.230469,6.871094 18.527344,6.476562 21.449219,4.179688 19.640625,3.902344"
     style="fill:#ffffff;fill-opacity:1;fill-rule:nonzero;stroke:none" />
  <path
     inkscape:connector-curvature="0"
     id="path11663"
     d="M 22.472656,10.671875 21.4375,8.320312 26.617188,7.285156 25.71875,8.089844 l 8.632812,1.476562 -2.070312,1.65625 -8.582031,-1.613281 -1.226563,1.0625"
     style="fill:#ffffff;fill-opacity:1;fill-rule:nonzero;stroke:none" />
  <path
     inkscape:connector-curvature="0"
     id="path11665"
     d="m 17.15625,12.8125 -5.527344,1.035156 -0.207031,-2.558594 1.589844,0.347657 3.039062,-2.597657 2.691407,0.457032 -3.246094,2.828125 1.660156,0.488281"
     style="fill:#ffffff;fill-opacity:1;fill-rule:nonzero;stroke:none" />
  <path
     inkscape:connector-curvature="0"
     id="path11667"
     d="M 14.394531,5.144531 15.910156,7.425781 10.167969,8.75 11.425781,7.703125 2.550781,6.1875 4.777344,4.519531 l 8.5625,1.449219 1.054687,-0.824219"
     style="fill:#ffffff;fill-opacity:1;fill-rule:nonzero;stroke:none" />
  <g
     id="g12514"
     transform="translate(0.79999847,-1.1444092e-6)">
    <rect
       y="19.6"
       x="9.6000004"
       height="1.6"
       width="17.6"
       id="rect11721"
       style="fill:#ffffff;fill-opacity:1;stroke:none" />
    <rect
       y="25.200001"
       x="8.8000002"
       height="1.6"
       width="17.6"
       id="rect12491"
       style="fill:#ffffff;fill-opacity:1;stroke:none" />
    <rect
       y="30.800001"
       x="7.9999986"
       height="1.6"
       width="17.6"
       id="rect12493"
       style="fill:#ffffff;fill-opacity:1;stroke:none" />
    <path
       sodipodi:nodetypes="ccccc"
       inkscape:connector-curvature="0"
       id="rect12495"
       d="m 23,22.5 2,0 -4,20 -2,0 z"
       style="fill:#ffffff;fill-opacity:1;stroke:none"
       transform="scale(0.8,0.8)" />
    <path
       sodipodi:nodetypes="ccccc"
       inkscape:connector-curvature="0"
       id="rect12497"
       d="m 12.8,18 1.6,0 -3.2,16 -1.6,0 z"
       style="fill:#ffffff;fill-opacity:1;stroke:none" />
    <path
       sodipodi:nodetypes="ccccc"
       inkscape:connector-curvature="0"
       id="rect12499"
       d="m 30,22.5 2,0 -4,20 -2,0 z"
       style="fill:#ffffff;fill-opacity:1;stroke:none"
       transform="scale(0.8,0.8)" />
  </g>
</svg>
