<?xml version="1.0" encoding="UTF-8"?>
<svg xmlns="http://www.w3.org/2000/svg" xmlns:xlink="http://www.w3.org/1999/xlink" width="38pt" height="33pt" viewBox="0 0 38 33" version="1.1">
<defs>
<clipPath id="clip1">
  <path d="M 0.0585938 0.320312 L 37 0.320312 L 37 33 L 0.0585938 33 L 0.0585938 0.320312 Z M 0.0585938 0.320312 "/>
</clipPath>
<clipPath id="clip2">
  <path d="M 0.0585938 0.320312 L 37 0.320312 L 37 33 L 0.0585938 33 L 0.0585938 0.320312 Z M 0.0585938 0.320312 "/>
</clipPath>
</defs>
<g id="surface0">
<path style=" stroke:none;fill-rule:nonzero;fill:#00B38A;fill-opacity:1;" d="M 36.984375 7.671875 C 36.984375 11.621094 28.75 14.824219 18.59375 14.824219 C 8.433594 14.824219 0.199219 11.621094 0.199219 7.671875 L 0.199219 25.648438 C 0.199219 29.597656 8.433594 32.800781 18.59375 32.800781 C 28.75 32.800781 36.984375 29.597656 36.984375 25.648438 L 36.984375 7.671875 "/>
<g clip-path="url(#clip1)" clip-rule="nonzero">
<path style="fill:none;stroke-width:0.4;stroke-linecap:butt;stroke-linejoin:miter;stroke:#FFFFFF;stroke-opacity:1;stroke-miterlimit:4;" d="M 36.984375 25.328125 C 36.984375 21.378906 28.75 18.175781 18.59375 18.175781 C 8.433594 18.175781 0.199219 21.378906 0.199219 25.328125 L 0.199219 7.351562 C 0.199219 3.402344 8.433594 0.199219 18.59375 0.199219 C 28.75 0.199219 36.984375 3.402344 36.984375 7.351562 L 36.984375 25.328125 Z M 36.984375 25.328125 " transform="matrix(1,0,0,-1,0,33)"/>
</g>
<path style=" stroke:none;fill-rule:nonzero;fill:#00B38A;fill-opacity:1;" d="M 18.59375 14.824219 C 28.75 14.824219 36.984375 11.621094 36.984375 7.671875 C 36.984375 3.722656 28.75 0.519531 18.59375 0.519531 C 8.433594 0.519531 0.199219 3.722656 0.199219 7.671875 C 0.199219 11.621094 8.433594 14.824219 18.59375 14.824219 "/>
<g clip-path="url(#clip2)" clip-rule="nonzero">
<path style="fill:none;stroke-width:0.4;stroke-linecap:butt;stroke-linejoin:miter;stroke:#FFFFFF;stroke-opacity:1;stroke-miterlimit:4;" d="M 18.59375 18.175781 C 28.75 18.175781 36.984375 21.378906 36.984375 25.328125 C 36.984375 29.277344 28.75 32.480469 18.59375 32.480469 C 8.433594 32.480469 0.199219 29.277344 0.199219 25.328125 C 0.199219 21.378906 8.433594 18.175781 18.59375 18.175781 Z M 18.59375 18.175781 " transform="matrix(1,0,0,-1,0,33)"/>
</g>
<path style=" stroke:none;fill-rule:nonzero;fill:#FFFFFF;fill-opacity:1;" d="M 14.390625 4.875 L 15.910156 7.152344 L 10.167969 8.480469 L 11.421875 7.4375 L 2.546875 5.917969 L 4.773438 4.25 L 13.339844 5.699219 L 14.390625 4.875 "/>
<path style=" stroke:none;fill-rule:nonzero;fill:#FFFFFF;fill-opacity:1;" d="M 22.472656 10.398438 L 21.4375 8.050781 L 26.617188 7.015625 L 25.71875 7.820312 L 34.351562 9.296875 L 32.277344 10.953125 L 23.699219 9.339844 L 22.472656 10.398438 "/>
<path style=" stroke:none;fill-rule:nonzero;fill:#FFFFFF;fill-opacity:1;" d="M 19.640625 3.632812 L 25.441406 2.042969 L 25.511719 4.527344 L 24.058594 4.253906 L 21.230469 6.601562 L 18.527344 6.207031 L 21.449219 3.910156 L 19.640625 3.632812 "/>
<path style=" stroke:none;fill-rule:nonzero;fill:#FFFFFF;fill-opacity:1;" d="M 17.152344 12.539062 L 11.628906 13.574219 L 11.421875 11.019531 L 13.011719 11.367188 L 16.050781 8.769531 L 18.742188 9.226562 L 15.496094 12.058594 L 17.152344 12.539062 "/>
<path style=" stroke:none;fill-rule:nonzero;fill:#FFFFFF;fill-opacity:1;" d="M 27.867188 27.503906 L 27.867188 22.90625 L 25.097656 25.117188 L 27.867188 27.503906 "/>
<path style="fill:none;stroke-width:0.076;stroke-linecap:butt;stroke-linejoin:miter;stroke:#FFFFFF;stroke-opacity:1;stroke-miterlimit:4;" d="M 27.867188 5.496094 L 27.867188 10.09375 L 25.097656 7.882812 L 27.867188 5.496094 Z M 27.867188 5.496094 " transform="matrix(1,0,0,-1,0,33)"/>
<path style=" stroke:none;fill-rule:nonzero;fill:#FFFFFF;fill-opacity:1;" d="M 8.300781 27.503906 L 8.300781 22.90625 L 11.066406 25.117188 L 8.300781 27.503906 "/>
<path style="fill:none;stroke-width:0.076;stroke-linecap:butt;stroke-linejoin:miter;stroke:#FFFFFF;stroke-opacity:1;stroke-miterlimit:4;" d="M 8.300781 5.496094 L 8.300781 10.09375 L 11.066406 7.882812 L 8.300781 5.496094 Z M 8.300781 5.496094 " transform="matrix(1,0,0,-1,0,33)"/>
<path style=" stroke:none;fill-rule:nonzero;fill:#FFFFFF;fill-opacity:1;" d="M 10.15625 18.382812 L 10.15625 22.976562 L 7.386719 20.769531 L 10.15625 18.382812 "/>
<path style="fill:none;stroke-width:0.076;stroke-linecap:butt;stroke-linejoin:miter;stroke:#FFFFFF;stroke-opacity:1;stroke-miterlimit:4;" d="M 10.15625 14.617188 L 10.15625 10.023438 L 7.386719 12.230469 L 10.15625 14.617188 Z M 10.15625 14.617188 " transform="matrix(1,0,0,-1,0,33)"/>
<path style=" stroke:none;fill-rule:nonzero;fill:#FFFFFF;fill-opacity:1;" d="M 25.800781 18.382812 L 25.800781 22.976562 L 28.570312 20.769531 L 25.800781 18.382812 "/>
<path style="fill:none;stroke-width:0.076;stroke-linecap:butt;stroke-linejoin:miter;stroke:#FFFFFF;stroke-opacity:1;stroke-miterlimit:4;" d="M 25.800781 14.617188 L 25.800781 10.023438 L 28.570312 12.230469 L 25.800781 14.617188 Z M 25.800781 14.617188 " transform="matrix(1,0,0,-1,0,33)"/>
<path style="fill:none;stroke-width:0.76;stroke-linecap:butt;stroke-linejoin:miter;stroke:#FFFFFF;stroke-opacity:1;stroke-miterlimit:4;" d="M 26.402344 12.378906 L 24.730469 12.378906 M 26.984375 7.921875 L 29.078125 7.921875 M 9.039062 7.921875 L 6.8125 7.921875 M 9.136719 12.242188 L 11.226562 12.242188 " transform="matrix(1,0,0,-1,0,33)"/>
<path style=" stroke:none;fill-rule:nonzero;fill:#FFFFFF;fill-opacity:1;" d="M 22.898438 20.855469 L 22.882812 29.203125 L 13.210938 29.203125 L 13.199219 20.855469 L 22.898438 20.855469 "/>
<path style="fill:none;stroke-width:0.35;stroke-linecap:butt;stroke-linejoin:miter;stroke:#00B38A;stroke-opacity:1;stroke-miterlimit:4;" d="M 22.898438 12.144531 L 22.882812 3.796875 L 13.210938 3.796875 L 13.199219 12.144531 L 22.898438 12.144531 Z M 14.261719 11.273438 L 21.863281 11.273438 L 21.863281 9.753906 L 14.261719 9.753906 L 14.261719 11.273438 Z M 14.261719 8.394531 L 21.863281 8.394531 L 21.863281 4.597656 L 14.261719 4.597656 L 14.261719 8.394531 Z M 14.261719 8.394531 " transform="matrix(1,0,0,-1,0,33)"/>
<path style=" stroke:none;fill-rule:nonzero;fill:#FFFFFF;fill-opacity:1;" d="M 20.035156 17.886719 C 20.035156 17.886719 20.511719 17.835938 20.621094 18.3125 L 20.726562 19.855469 L 23.917969 20.390625 L 24.238281 19.695312 L 23.4375 17.78125 C 19.34375 16.769531 17.90625 17.089844 17.90625 17.089844 L 18.066406 17.089844 C 18.066406 17.089844 16.628906 16.769531 12.53125 17.78125 L 11.734375 19.695312 L 12.054688 20.390625 L 15.246094 19.855469 L 15.351562 18.3125 C 15.457031 17.835938 15.9375 17.886719 15.9375 17.886719 L 20.035156 17.886719 "/>
<path style="fill:none;stroke-width:0.35;stroke-linecap:butt;stroke-linejoin:miter;stroke:#00B38A;stroke-opacity:1;stroke-miterlimit:4;" d="M 21.863281 9.089844 L 14.261719 9.089844 " transform="matrix(1,0,0,-1,0,33)"/>
</g>
</svg>
