<?xml version="1.0" encoding="UTF-8"?>
<svg xmlns="http://www.w3.org/2000/svg" xmlns:xlink="http://www.w3.org/1999/xlink" width="31pt" height="24pt" viewBox="0 0 31 24" version="1.1">
<defs>
<clipPath id="clip1">
  <path d="M 0 0.933594 L 30.804688 0.933594 L 30.804688 23.933594 L 0 23.933594 L 0 0.933594 Z M 0 0.933594 "/>
</clipPath>
<clipPath id="clip2">
  <path d="M 0 0.933594 L 30.804688 0.933594 L 30.804688 23.933594 L 0 23.933594 L 0 0.933594 Z M 0 0.933594 "/>
</clipPath>
<clipPath id="clip3">
  <path d="M 0 0.933594 L 30.804688 0.933594 L 30.804688 23.933594 L 0 23.933594 L 0 0.933594 Z M 0 0.933594 "/>
</clipPath>
<clipPath id="clip4">
  <path d="M 0 0.933594 L 30.804688 0.933594 L 30.804688 23.933594 L 0 23.933594 L 0 0.933594 Z M 0 0.933594 "/>
</clipPath>
<clipPath id="clip5">
  <path d="M 0 0.933594 L 30.804688 0.933594 L 30.804688 23.933594 L 0 23.933594 L 0 0.933594 Z M 0 0.933594 "/>
</clipPath>
<clipPath id="clip6">
  <path d="M 0 0.933594 L 30.804688 0.933594 L 30.804688 23.933594 L 0 23.933594 L 0 0.933594 Z M 0 0.933594 "/>
</clipPath>
</defs>
<g id="surface0">
<path style=" stroke:none;fill-rule:nonzero;fill:#00B38A;fill-opacity:1;" d="M 0.402344 18.492188 L 21.390625 18.492188 L 21.390625 23.417969 L 0.402344 23.417969 L 0.402344 18.492188 Z M 0.402344 18.492188 "/>
<g clip-path="url(#clip1)" clip-rule="nonzero">
<path style="fill:none;stroke-width:0.4;stroke-linecap:butt;stroke-linejoin:miter;stroke:#FFFFFF;stroke-opacity:1;stroke-miterlimit:4;" d="M 0.402344 5.507812 L 21.390625 5.507812 L 21.390625 0.582031 L 0.402344 0.582031 L 0.402344 5.507812 Z M 0.402344 5.507812 " transform="matrix(1,0,0,-1,0,24)"/>
</g>
<path style=" stroke:none;fill-rule:nonzero;fill:#00B38A;fill-opacity:1;" d="M 21.390625 18.492188 L 0.382812 18.492188 L 10.363281 4 L 30.441406 4 L 21.390625 18.492188 "/>
<g clip-path="url(#clip2)" clip-rule="nonzero">
<path style="fill:none;stroke-width:0.4;stroke-linecap:butt;stroke-linejoin:miter;stroke:#FFFFFF;stroke-opacity:1;stroke-miterlimit:4;" d="M 21.390625 5.507812 L 0.382812 5.507812 L 10.363281 20 L 30.441406 20 L 21.390625 5.507812 Z M 21.390625 5.507812 " transform="matrix(1,0,0,-1,0,24)"/>
</g>
<path style=" stroke:none;fill-rule:nonzero;fill:#00B38A;fill-opacity:1;" d="M 30.441406 4 L 30.441406 13.265625 L 21.390625 23.472656 L 21.390625 18.492188 L 30.441406 4 "/>
<g clip-path="url(#clip3)" clip-rule="nonzero">
<path style="fill:none;stroke-width:0.4;stroke-linecap:butt;stroke-linejoin:miter;stroke:#FFFFFF;stroke-opacity:1;stroke-miterlimit:4;" d="M 30.441406 20 L 30.441406 10.734375 L 21.390625 0.527344 L 21.390625 5.507812 L 30.441406 20 Z M 30.441406 20 " transform="matrix(1,0,0,-1,0,24)"/>
</g>
<path style=" stroke:none;fill-rule:nonzero;fill:#00B38A;fill-opacity:1;" d="M 21.390625 18.492188 L 30.441406 4 "/>
<g clip-path="url(#clip4)" clip-rule="nonzero">
<path style="fill:none;stroke-width:0.4;stroke-linecap:butt;stroke-linejoin:miter;stroke:#FFFFFF;stroke-opacity:1;stroke-miterlimit:4;" d="M 21.390625 5.507812 L 30.441406 20 " transform="matrix(1,0,0,-1,0,24)"/>
</g>
<path style=" stroke:none;fill-rule:nonzero;fill:#00B38A;fill-opacity:1;" d="M 17.003906 6.636719 C 15.710938 8.117188 14.121094 9.847656 13.101562 11.523438 L 13.1875 12.613281 L 10.007812 17.523438 L 9.640625 14.328125 C 10.242188 11.90625 17.753906 2.402344 19.480469 1.277344 L 19.847656 4.476562 L 17.082031 7.65625 L 17.003906 6.636719 "/>
<g clip-path="url(#clip5)" clip-rule="nonzero">
<path style="fill:none;stroke-width:0.4;stroke-linecap:butt;stroke-linejoin:miter;stroke:#FFFFFF;stroke-opacity:1;stroke-miterlimit:4;" d="M 17.003906 17.363281 C 15.710938 15.882812 14.121094 14.152344 13.101562 12.476562 L 13.1875 11.386719 L 10.007812 6.476562 L 9.640625 9.671875 C 10.242188 12.09375 17.753906 21.597656 19.480469 22.722656 L 19.847656 19.523438 L 17.082031 16.34375 L 17.003906 17.363281 Z M 17.003906 17.363281 " transform="matrix(1,0,0,-1,0,24)"/>
</g>
<path style=" stroke:none;fill-rule:nonzero;fill:#00B38A;fill-opacity:1;" d="M 5.882812 14.328125 L 5.515625 17.523438 L 10.007812 17.523438 L 9.640625 14.328125 L 5.882812 14.328125 "/>
<path style="fill:none;stroke-width:0.4;stroke-linecap:butt;stroke-linejoin:miter;stroke:#FFFFFF;stroke-opacity:1;stroke-miterlimit:4;" d="M 5.882812 9.671875 L 5.515625 6.476562 L 10.007812 6.476562 L 9.640625 9.671875 L 5.882812 9.671875 Z M 5.882812 9.671875 " transform="matrix(1,0,0,-1,0,24)"/>
<path style=" stroke:none;fill-rule:nonzero;fill:#00B38A;fill-opacity:1;" d="M 19.480469 1.277344 C 17.753906 2.402344 10.242188 11.90625 9.640625 14.328125 L 5.882812 14.328125 C 6.488281 11.90625 13.992188 2.402344 15.722656 1.277344 L 19.480469 1.277344 "/>
<g clip-path="url(#clip6)" clip-rule="nonzero">
<path style="fill:none;stroke-width:0.4;stroke-linecap:butt;stroke-linejoin:miter;stroke:#FFFFFF;stroke-opacity:1;stroke-miterlimit:4;" d="M 19.480469 22.722656 C 17.753906 21.597656 10.242188 12.09375 9.640625 9.671875 L 5.882812 9.671875 C 6.488281 12.09375 13.992188 21.597656 15.722656 22.722656 L 19.480469 22.722656 Z M 19.480469 22.722656 " transform="matrix(1,0,0,-1,0,24)"/>
</g>
<path style=" stroke:none;fill-rule:nonzero;fill:#00B38A;fill-opacity:1;" d="M 12.992188 16.824219 L 17.429688 10.496094 L 24.105469 10.496094 L 20.140625 16.824219 L 12.992188 16.824219 "/>
<path style="fill:none;stroke-width:0.4;stroke-linecap:butt;stroke-linejoin:miter;stroke:#FFFFFF;stroke-opacity:1;stroke-miterlimit:4;" d="M 12.992188 7.175781 L 17.429688 13.503906 L 24.105469 13.503906 L 20.140625 7.175781 L 12.992188 7.175781 Z M 12.992188 7.175781 " transform="matrix(1,0,0,-1,0,24)"/>
<path style="fill-rule:nonzero;fill:#00B38A;fill-opacity:1;stroke-width:0.4;stroke-linecap:butt;stroke-linejoin:miter;stroke:#FFFFFF;stroke-opacity:1;stroke-miterlimit:4;" d="M 17.757812 7.175781 L 21.878906 13.503906 " transform="matrix(1,0,0,-1,0,24)"/>
<path style="fill-rule:nonzero;fill:#00B38A;fill-opacity:1;stroke-width:0.4;stroke-linecap:butt;stroke-linejoin:miter;stroke:#FFFFFF;stroke-opacity:1;stroke-miterlimit:4;" d="M 15.375 7.175781 L 19.652344 13.503906 " transform="matrix(1,0,0,-1,0,24)"/>
<path style="fill-rule:nonzero;fill:#00B38A;fill-opacity:1;stroke-width:0.4;stroke-linecap:butt;stroke-linejoin:miter;stroke:#FFFFFF;stroke-opacity:1;stroke-miterlimit:4;" d="M 21.132812 8.757812 L 14.101562 8.757812 " transform="matrix(1,0,0,-1,0,24)"/>
<path style="fill-rule:nonzero;fill:#00B38A;fill-opacity:1;stroke-width:0.4;stroke-linecap:butt;stroke-linejoin:miter;stroke:#FFFFFF;stroke-opacity:1;stroke-miterlimit:4;" d="M 22.121094 10.339844 L 15.210938 10.339844 " transform="matrix(1,0,0,-1,0,24)"/>
<path style="fill-rule:nonzero;fill:#00B38A;fill-opacity:1;stroke-width:0.4;stroke-linecap:butt;stroke-linejoin:miter;stroke:#FFFFFF;stroke-opacity:1;stroke-miterlimit:4;" d="M 23.113281 11.921875 L 16.316406 11.921875 " transform="matrix(1,0,0,-1,0,24)"/>
</g>
</svg>
