<?xml version="1.0" encoding="UTF-8"?>
<svg xmlns="http://www.w3.org/2000/svg" xmlns:xlink="http://www.w3.org/1999/xlink" width="51pt" height="24pt" viewBox="0 0 51 24" version="1.1">
<defs>
<clipPath id="clip1">
  <path d="M 0.0585938 0.933594 L 50.914062 0.933594 L 50.914062 23.933594 L 0.0585938 23.933594 L 0.0585938 0.933594 Z M 0.0585938 0.933594 "/>
</clipPath>
<clipPath id="clip2">
  <path d="M 0.0585938 0.933594 L 50.914062 0.933594 L 50.914062 23.933594 L 0.0585938 23.933594 L 0.0585938 0.933594 Z M 0.0585938 0.933594 "/>
</clipPath>
<clipPath id="clip3">
  <path d="M 0.0585938 0.933594 L 50.914062 0.933594 L 50.914062 23.933594 L 0.0585938 23.933594 L 0.0585938 0.933594 Z M 0.0585938 0.933594 "/>
</clipPath>
<clipPath id="clip4">
  <path d="M 0.0585938 0.933594 L 50.914062 0.933594 L 50.914062 23.933594 L 0.0585938 23.933594 L 0.0585938 0.933594 Z M 0.0585938 0.933594 "/>
</clipPath>
<clipPath id="clip5">
  <path d="M 0.0585938 0.933594 L 50.914062 0.933594 L 50.914062 23.933594 L 0.0585938 23.933594 L 0.0585938 0.933594 Z M 0.0585938 0.933594 "/>
</clipPath>
<clipPath id="clip6">
  <path d="M 0.0585938 0.933594 L 50.914062 0.933594 L 50.914062 23.933594 L 0.0585938 23.933594 L 0.0585938 0.933594 Z M 0.0585938 0.933594 "/>
</clipPath>
</defs>
<g id="surface0">
<path style=" stroke:none;fill-rule:nonzero;fill:#00B38A;fill-opacity:1;" d="M 0.402344 18.492188 L 41.5 18.492188 L 41.5 23.417969 L 0.402344 23.417969 L 0.402344 18.492188 Z M 0.402344 18.492188 "/>
<g clip-path="url(#clip1)" clip-rule="nonzero">
<path style="fill:none;stroke-width:0.4;stroke-linecap:butt;stroke-linejoin:miter;stroke:#FFFFFF;stroke-opacity:1;stroke-miterlimit:4;" d="M 0.402344 5.507812 L 41.5 5.507812 L 41.5 0.582031 L 0.402344 0.582031 L 0.402344 5.507812 Z M 0.402344 5.507812 " transform="matrix(1,0,0,-1,0,24)"/>
</g>
<path style=" stroke:none;fill-rule:nonzero;fill:#00B38A;fill-opacity:1;" d="M 41.5 18.492188 L 0.382812 18.492188 L 10.363281 4 L 50.554688 4 L 41.5 18.492188 "/>
<g clip-path="url(#clip2)" clip-rule="nonzero">
<path style="fill:none;stroke-width:0.4;stroke-linecap:butt;stroke-linejoin:miter;stroke:#FFFFFF;stroke-opacity:1;stroke-miterlimit:4;" d="M 41.5 5.507812 L 0.382812 5.507812 L 10.363281 20 L 50.554688 20 L 41.5 5.507812 Z M 41.5 5.507812 " transform="matrix(1,0,0,-1,0,24)"/>
</g>
<path style=" stroke:none;fill-rule:nonzero;fill:#00B38A;fill-opacity:1;" d="M 50.554688 4 L 50.554688 13.265625 L 41.5 23.472656 L 41.5 18.492188 L 50.554688 4 "/>
<g clip-path="url(#clip3)" clip-rule="nonzero">
<path style="fill:none;stroke-width:0.4;stroke-linecap:butt;stroke-linejoin:miter;stroke:#FFFFFF;stroke-opacity:1;stroke-miterlimit:4;" d="M 50.554688 20 L 50.554688 10.734375 L 41.5 0.527344 L 41.5 5.507812 L 50.554688 20 Z M 50.554688 20 " transform="matrix(1,0,0,-1,0,24)"/>
</g>
<path style=" stroke:none;fill-rule:nonzero;fill:#00B38A;fill-opacity:1;" d="M 3.191406 16.820312 L 6.070312 12.601562 L 27.441406 12.601562 L 24.558594 16.820312 L 3.191406 16.820312 "/>
<path style="fill:none;stroke-width:0.4;stroke-linecap:butt;stroke-linejoin:miter;stroke:#FFFFFF;stroke-opacity:1;stroke-miterlimit:4;" d="M 3.191406 7.179688 L 6.070312 11.398438 L 27.441406 11.398438 L 24.558594 7.179688 L 3.191406 7.179688 Z M 3.191406 7.179688 " transform="matrix(1,0,0,-1,0,24)"/>
<path style="fill-rule:nonzero;fill:#00B38A;fill-opacity:1;stroke-width:0.4;stroke-linecap:butt;stroke-linejoin:miter;stroke:#FFFFFF;stroke-opacity:1;stroke-miterlimit:4;" d="M 6.070312 11.398438 L 8.949219 15.613281 " transform="matrix(1,0,0,-1,0,24)"/>
<path style="fill-rule:nonzero;fill:#00B38A;fill-opacity:1;stroke-width:0.4;stroke-linecap:butt;stroke-linejoin:miter;stroke:#FFFFFF;stroke-opacity:1;stroke-miterlimit:4;" d="M 27.441406 11.398438 L 30.320312 15.613281 " transform="matrix(1,0,0,-1,0,24)"/>
<path style=" stroke:none;fill-rule:nonzero;fill:#00B38A;fill-opacity:1;" d="M 41.5 18.492188 L 50.554688 4 "/>
<g clip-path="url(#clip4)" clip-rule="nonzero">
<path style="fill:none;stroke-width:0.4;stroke-linecap:butt;stroke-linejoin:miter;stroke:#FFFFFF;stroke-opacity:1;stroke-miterlimit:4;" d="M 41.5 5.507812 L 50.554688 20 " transform="matrix(1,0,0,-1,0,24)"/>
</g>
<path style=" stroke:none;fill-rule:nonzero;fill:#00B38A;fill-opacity:1;" d="M 37.113281 6.636719 C 35.824219 8.117188 34.234375 9.847656 33.214844 11.523438 L 33.300781 12.613281 L 30.117188 17.523438 L 29.75 14.328125 C 30.355469 11.90625 37.863281 2.402344 39.589844 1.277344 L 39.960938 4.476562 L 37.195312 7.65625 L 37.113281 6.636719 "/>
<g clip-path="url(#clip5)" clip-rule="nonzero">
<path style="fill:none;stroke-width:0.4;stroke-linecap:butt;stroke-linejoin:miter;stroke:#FFFFFF;stroke-opacity:1;stroke-miterlimit:4;" d="M 37.113281 17.363281 C 35.824219 15.882812 34.234375 14.152344 33.214844 12.476562 L 33.300781 11.386719 L 30.117188 6.476562 L 29.75 9.671875 C 30.355469 12.09375 37.863281 21.597656 39.589844 22.722656 L 39.960938 19.523438 L 37.195312 16.34375 L 37.113281 17.363281 Z M 37.113281 17.363281 " transform="matrix(1,0,0,-1,0,24)"/>
</g>
<path style=" stroke:none;fill-rule:nonzero;fill:#00B38A;fill-opacity:1;" d="M 25.992188 14.328125 L 25.625 17.523438 L 30.117188 17.523438 L 29.75 14.328125 L 25.992188 14.328125 "/>
<path style="fill:none;stroke-width:0.4;stroke-linecap:butt;stroke-linejoin:miter;stroke:#FFFFFF;stroke-opacity:1;stroke-miterlimit:4;" d="M 25.992188 9.671875 L 25.625 6.476562 L 30.117188 6.476562 L 29.75 9.671875 L 25.992188 9.671875 Z M 25.992188 9.671875 " transform="matrix(1,0,0,-1,0,24)"/>
<path style=" stroke:none;fill-rule:nonzero;fill:#00B38A;fill-opacity:1;" d="M 39.589844 1.277344 C 37.863281 2.402344 30.355469 11.90625 29.75 14.328125 L 25.992188 14.328125 C 26.597656 11.90625 34.105469 2.402344 35.835938 1.277344 L 39.589844 1.277344 "/>
<g clip-path="url(#clip6)" clip-rule="nonzero">
<path style="fill:none;stroke-width:0.4;stroke-linecap:butt;stroke-linejoin:miter;stroke:#FFFFFF;stroke-opacity:1;stroke-miterlimit:4;" d="M 39.589844 22.722656 C 37.863281 21.597656 30.355469 12.09375 29.75 9.671875 L 25.992188 9.671875 C 26.597656 12.09375 34.105469 21.597656 35.835938 22.722656 L 39.589844 22.722656 Z M 39.589844 22.722656 " transform="matrix(1,0,0,-1,0,24)"/>
</g>
<path style=" stroke:none;fill-rule:nonzero;fill:#00B38A;fill-opacity:1;" d="M 33.101562 16.828125 L 37.539062 10.496094 L 44.214844 10.496094 L 40.253906 16.828125 L 33.101562 16.828125 "/>
<path style="fill:none;stroke-width:0.4;stroke-linecap:butt;stroke-linejoin:miter;stroke:#FFFFFF;stroke-opacity:1;stroke-miterlimit:4;" d="M 33.101562 7.171875 L 37.539062 13.503906 L 44.214844 13.503906 L 40.253906 7.171875 L 33.101562 7.171875 Z M 33.101562 7.171875 " transform="matrix(1,0,0,-1,0,24)"/>
<path style="fill-rule:nonzero;fill:#00B38A;fill-opacity:1;stroke-width:0.4;stroke-linecap:butt;stroke-linejoin:miter;stroke:#FFFFFF;stroke-opacity:1;stroke-miterlimit:4;" d="M 37.867188 7.171875 L 41.988281 13.503906 " transform="matrix(1,0,0,-1,0,24)"/>
<path style="fill-rule:nonzero;fill:#00B38A;fill-opacity:1;stroke-width:0.4;stroke-linecap:butt;stroke-linejoin:miter;stroke:#FFFFFF;stroke-opacity:1;stroke-miterlimit:4;" d="M 35.484375 7.171875 L 39.765625 13.503906 " transform="matrix(1,0,0,-1,0,24)"/>
<path style="fill-rule:nonzero;fill:#00B38A;fill-opacity:1;stroke-width:0.4;stroke-linecap:butt;stroke-linejoin:miter;stroke:#FFFFFF;stroke-opacity:1;stroke-miterlimit:4;" d="M 41.242188 8.757812 L 34.210938 8.757812 " transform="matrix(1,0,0,-1,0,24)"/>
<path style="fill-rule:nonzero;fill:#00B38A;fill-opacity:1;stroke-width:0.4;stroke-linecap:butt;stroke-linejoin:miter;stroke:#FFFFFF;stroke-opacity:1;stroke-miterlimit:4;" d="M 42.234375 10.339844 L 35.320312 10.339844 " transform="matrix(1,0,0,-1,0,24)"/>
<path style="fill-rule:nonzero;fill:#00B38A;fill-opacity:1;stroke-width:0.4;stroke-linecap:butt;stroke-linejoin:miter;stroke:#FFFFFF;stroke-opacity:1;stroke-miterlimit:4;" d="M 43.226562 11.921875 L 36.429688 11.921875 " transform="matrix(1,0,0,-1,0,24)"/>
</g>
</svg>
