<?xml version="1.0" encoding="UTF-8"?>
<svg xmlns="http://www.w3.org/2000/svg" xmlns:xlink="http://www.w3.org/1999/xlink" width="38pt" height="34pt" viewBox="0 0 38 34" version="1.1">
<defs>
<clipPath id="clip1">
  <path d="M 0.0585938 0.0625 L 37.765625 0.0625 L 37.765625 34 L 0.0585938 34 L 0.0585938 0.0625 Z M 0.0585938 0.0625 "/>
</clipPath>
<clipPath id="clip2">
  <path d="M 0.0585938 0.0625 L 37.765625 0.0625 L 37.765625 34 L 0.0585938 34 L 0.0585938 0.0625 Z M 0.0585938 0.0625 "/>
</clipPath>
<clipPath id="clip3">
  <path d="M 0.0585938 0.0625 L 37.765625 0.0625 L 37.765625 34 L 0.0585938 34 L 0.0585938 0.0625 Z M 0.0585938 0.0625 "/>
</clipPath>
<clipPath id="clip4">
  <path d="M 0.0585938 0.0625 L 37.765625 0.0625 L 37.765625 34 L 0.0585938 34 L 0.0585938 0.0625 Z M 0.0585938 0.0625 "/>
</clipPath>
<clipPath id="clip5">
  <path d="M 0.0585938 0.0625 L 37.765625 0.0625 L 37.765625 34 L 0.0585938 34 L 0.0585938 0.0625 Z M 0.0585938 0.0625 "/>
</clipPath>
<clipPath id="clip6">
  <path d="M 0.0585938 0.0625 L 37.765625 0.0625 L 37.765625 34 L 0.0585938 34 L 0.0585938 0.0625 Z M 0.0585938 0.0625 "/>
</clipPath>
<clipPath id="clip7">
  <path d="M 0.0585938 0.0625 L 37.765625 0.0625 L 37.765625 34 L 0.0585938 34 L 0.0585938 0.0625 Z M 0.0585938 0.0625 "/>
</clipPath>
</defs>
<g id="surface0">
<path style=" stroke:none;fill-rule:nonzero;fill:#B5BF00;fill-opacity:1;" d="M 0.503906 22.800781 L 31.976562 22.800781 L 31.976562 28.703125 L 0.503906 28.703125 L 0.503906 22.800781 Z M 0.503906 22.800781 "/>
<g clip-path="url(#clip1)" clip-rule="nonzero">
<path style="fill:none;stroke-width:0.4;stroke-linecap:butt;stroke-linejoin:miter;stroke:#FFFFFF;stroke-opacity:1;stroke-miterlimit:4;" d="M 0.503906 5.296875 L 31.976562 5.296875 L 31.976562 11.199219 L 0.503906 11.199219 L 0.503906 5.296875 Z M 0.503906 5.296875 " transform="matrix(1,0,0,-1,0,34)"/>
</g>
<path style="fill-rule:nonzero;fill:#B5BF00;fill-opacity:1;stroke-width:0.4;stroke-linecap:butt;stroke-linejoin:miter;stroke:#FFFFFF;stroke-opacity:1;stroke-miterlimit:4;" d="M 22.335938 7.855469 L 30.277344 7.855469 " transform="matrix(1,0,0,-1,0,34)"/>
<path style="fill-rule:nonzero;fill:#B5BF00;fill-opacity:1;stroke-width:0.4;stroke-linecap:butt;stroke-linejoin:miter;stroke:#FFFFFF;stroke-opacity:1;stroke-miterlimit:4;" d="M 22.335938 8.140625 L 30.277344 8.140625 " transform="matrix(1,0,0,-1,0,34)"/>
<path style=" stroke:none;fill-rule:nonzero;fill:#B5BF00;fill-opacity:1;" d="M 37.261719 23.105469 L 37.261719 17.820312 L 31.972656 22.820312 L 31.972656 28.703125 L 37.261719 23.105469 "/>
<g clip-path="url(#clip2)" clip-rule="nonzero">
<path style="fill:none;stroke-width:0.4;stroke-linecap:butt;stroke-linejoin:miter;stroke:#FFFFFF;stroke-opacity:1;stroke-miterlimit:4;" d="M 37.261719 10.894531 L 37.261719 16.179688 L 31.972656 11.179688 L 31.972656 5.296875 L 37.261719 10.894531 Z M 37.261719 10.894531 " transform="matrix(1,0,0,-1,0,34)"/>
</g>
<path style=" stroke:none;fill-rule:nonzero;fill:#B5BF00;fill-opacity:1;" d="M 26.386719 33.519531 L 26.386719 32.210938 L 29.246094 28.234375 L 29.246094 30.65625 L 26.386719 33.519531 "/>
<g clip-path="url(#clip3)" clip-rule="nonzero">
<path style="fill:none;stroke-width:0.4;stroke-linecap:butt;stroke-linejoin:miter;stroke:#FFFFFF;stroke-opacity:1;stroke-miterlimit:4;" d="M 26.386719 0.480469 L 26.386719 1.789062 L 29.246094 5.765625 L 29.246094 3.34375 L 26.386719 0.480469 Z M 26.386719 0.480469 " transform="matrix(1,0,0,-1,0,34)"/>
</g>
<path style=" stroke:none;fill-rule:nonzero;fill:#B5BF00;fill-opacity:1;" d="M 1.199219 32.210938 L 26.386719 32.210938 L 26.386719 33.519531 L 1.199219 33.519531 L 1.199219 32.210938 Z M 1.199219 32.210938 "/>
<g clip-path="url(#clip4)" clip-rule="nonzero">
<path style="fill:none;stroke-width:0.4;stroke-linecap:butt;stroke-linejoin:miter;stroke:#FFFFFF;stroke-opacity:1;stroke-miterlimit:4;" d="M 1.199219 1.789062 L 26.386719 1.789062 L 26.386719 0.480469 L 1.199219 0.480469 L 1.199219 1.789062 Z M 1.199219 1.789062 " transform="matrix(1,0,0,-1,0,34)"/>
</g>
<path style=" stroke:none;fill-rule:nonzero;fill:#B5BF00;fill-opacity:1;" d="M 26.386719 32.210938 L 1.199219 32.210938 L 4.113281 28.234375 L 29.246094 28.234375 L 26.386719 32.210938 "/>
<path style="fill:none;stroke-width:0.4;stroke-linecap:butt;stroke-linejoin:miter;stroke:#FFFFFF;stroke-opacity:1;stroke-miterlimit:4;" d="M 26.386719 1.789062 L 1.199219 1.789062 L 4.113281 5.765625 L 29.246094 5.765625 L 26.386719 1.789062 Z M 26.386719 1.789062 " transform="matrix(1,0,0,-1,0,34)"/>
<path style=" stroke:none;fill-rule:nonzero;fill:#B5BF00;fill-opacity:1;" d="M 37.261719 17.820312 L 5.777344 17.820312 L 0.503906 22.800781 L 31.976562 22.800781 L 37.261719 17.820312 "/>
<g clip-path="url(#clip5)" clip-rule="nonzero">
<path style="fill:none;stroke-width:0.4;stroke-linecap:butt;stroke-linejoin:miter;stroke:#FFFFFF;stroke-opacity:1;stroke-miterlimit:4;" d="M 37.261719 16.179688 L 5.777344 16.179688 L 0.503906 11.199219 L 31.976562 11.199219 L 37.261719 16.179688 Z M 37.261719 16.179688 " transform="matrix(1,0,0,-1,0,34)"/>
</g>
<path style=" stroke:none;fill-rule:nonzero;fill:#B5BF00;fill-opacity:1;" d="M 6.132812 3.960938 L 27.832031 3.960938 L 27.832031 19.882812 L 6.132812 19.882812 L 6.132812 3.960938 Z M 6.132812 3.960938 "/>
<path style="fill:none;stroke-width:0.4;stroke-linecap:butt;stroke-linejoin:miter;stroke:#FFFFFF;stroke-opacity:1;stroke-miterlimit:4;" d="M 6.132812 14.117188 L 27.832031 14.117188 L 27.832031 30.039062 L 6.132812 30.039062 L 6.132812 14.117188 Z M 6.132812 14.117188 " transform="matrix(1,0,0,-1,0,34)"/>
<path style=" stroke:none;fill-rule:nonzero;fill:#B5BF00;fill-opacity:1;" d="M 7.964844 7.453125 C 7.964844 5.859375 9.621094 5.621094 9.621094 5.621094 C 9.621094 5.621094 22.394531 5.621094 23.929688 5.621094 C 25.941406 5.621094 25.882812 7.515625 25.882812 7.515625 C 25.882812 7.515625 25.882812 15.320312 25.882812 16.441406 C 25.882812 17.566406 24.34375 18.039062 24.34375 18.039062 C 24.34375 18.039062 11.277344 18.039062 9.859375 18.039062 C 8.4375 18.039062 7.964844 16.558594 7.964844 16.558594 L 7.964844 7.453125 "/>
<path style="fill:none;stroke-width:0.4;stroke-linecap:butt;stroke-linejoin:miter;stroke:#FFFFFF;stroke-opacity:1;stroke-miterlimit:4;" d="M 7.964844 26.546875 C 7.964844 28.140625 9.621094 28.378906 9.621094 28.378906 C 9.621094 28.378906 22.394531 28.378906 23.929688 28.378906 C 25.941406 28.378906 25.882812 26.484375 25.882812 26.484375 C 25.882812 26.484375 25.882812 18.679688 25.882812 17.558594 C 25.882812 16.433594 24.34375 15.960938 24.34375 15.960938 C 24.34375 15.960938 11.277344 15.960938 9.859375 15.960938 C 8.4375 15.960938 7.964844 17.441406 7.964844 17.441406 L 7.964844 26.546875 Z M 7.964844 26.546875 " transform="matrix(1,0,0,-1,0,34)"/>
<path style=" stroke:none;fill-rule:nonzero;fill:#B5BF00;fill-opacity:1;" d="M 31.46875 0.535156 L 9.769531 0.535156 L 6.132812 3.960938 L 27.832031 3.960938 L 31.46875 0.535156 "/>
<g clip-path="url(#clip6)" clip-rule="nonzero">
<path style="fill:none;stroke-width:0.4;stroke-linecap:butt;stroke-linejoin:miter;stroke:#FFFFFF;stroke-opacity:1;stroke-miterlimit:4;" d="M 31.46875 33.464844 L 9.769531 33.464844 L 6.132812 30.039062 L 27.832031 30.039062 L 31.46875 33.464844 Z M 31.46875 33.464844 " transform="matrix(1,0,0,-1,0,34)"/>
</g>
<path style=" stroke:none;fill-rule:nonzero;fill:#B5BF00;fill-opacity:1;" d="M 31.472656 16.492188 L 31.472656 0.527344 L 27.871094 3.960938 L 27.871094 19.882812 L 31.472656 16.492188 "/>
<g clip-path="url(#clip7)" clip-rule="nonzero">
<path style="fill:none;stroke-width:0.4;stroke-linecap:butt;stroke-linejoin:miter;stroke:#FFFFFF;stroke-opacity:1;stroke-miterlimit:4;" d="M 31.472656 17.507812 L 31.472656 33.472656 L 27.871094 30.039062 L 27.871094 14.117188 L 31.472656 17.507812 Z M 31.472656 17.507812 " transform="matrix(1,0,0,-1,0,34)"/>
</g>
</g>
</svg>
