<?xml version="1.0" encoding="UTF-8"?>
<svg xmlns="http://www.w3.org/2000/svg" xmlns:xlink="http://www.w3.org/1999/xlink" width="41pt" height="33pt" viewBox="0 0 41 33" version="1.1">
<defs>
<clipPath id="clip1">
  <path d="M 0 0.480469 L 40.578125 0.480469 L 40.578125 33 L 0 33 L 0 0.480469 Z M 0 0.480469 "/>
</clipPath>
<clipPath id="clip2">
  <path d="M 0 0.480469 L 40.578125 0.480469 L 40.578125 33 L 0 33 L 0 0.480469 Z M 0 0.480469 "/>
</clipPath>
<clipPath id="clip3">
  <path d="M 0 0.480469 L 40.578125 0.480469 L 40.578125 33 L 0 33 L 0 0.480469 Z M 0 0.480469 "/>
</clipPath>
<clipPath id="clip4">
  <path d="M 0 0.480469 L 40.578125 0.480469 L 40.578125 33 L 0 33 L 0 0.480469 Z M 0 0.480469 "/>
</clipPath>
<clipPath id="clip5">
  <path d="M 0 0.480469 L 40.578125 0.480469 L 40.578125 33 L 0 33 L 0 0.480469 Z M 0 0.480469 "/>
</clipPath>
</defs>
<g id="surface0">
<path style="fill-rule:nonzero;fill:#B5BF00;fill-opacity:1;stroke-width:0.4;stroke-linecap:butt;stroke-linejoin:miter;stroke:#FFFFFF;stroke-opacity:1;stroke-miterlimit:4;" d="M 5.046875 11.097656 L 27.917969 11.097656 L 27.917969 6.820312 L 5.046875 6.820312 L 5.046875 11.097656 Z M 5.046875 11.097656 " transform="matrix(1,0,0,-1,0,33)"/>
<path style="fill-rule:nonzero;fill:#B5BF00;fill-opacity:1;stroke-width:0.4;stroke-linecap:butt;stroke-linejoin:miter;stroke:#FFFFFF;stroke-opacity:1;stroke-miterlimit:4;" d="M 31.789062 14.996094 L 31.789062 10.675781 L 27.917969 6.777344 L 27.917969 11.097656 L 5.03125 11.097656 " transform="matrix(1,0,0,-1,0,33)"/>
<path style="fill-rule:nonzero;fill:#B5BF00;fill-opacity:1;stroke-width:0.4;stroke-linecap:butt;stroke-linejoin:miter;stroke:#FFFFFF;stroke-opacity:1;stroke-miterlimit:4;" d="M 5.210938 14.996094 L 31.789062 14.996094 " transform="matrix(1,0,0,-1,0,33)"/>
<path style="fill-rule:nonzero;fill:#B5BF00;fill-opacity:1;stroke-width:0.4;stroke-linecap:butt;stroke-linejoin:miter;stroke:#FFFFFF;stroke-opacity:1;stroke-miterlimit:4;" d="M 27.917969 11.097656 L 31.789062 14.996094 " transform="matrix(1,0,0,-1,0,33)"/>
<path style=" stroke:none;fill-rule:nonzero;fill:#B5BF00;fill-opacity:1;" d="M 26.785156 29.308594 L 26.785156 26.773438 L 0.484375 26.773438 L 3.476562 23.78125 L 29.78125 23.78125 L 29.78125 26.316406 L 26.785156 29.308594 "/>
<g clip-path="url(#clip1)" clip-rule="nonzero">
<path style="fill:none;stroke-width:0.4;stroke-linecap:butt;stroke-linejoin:miter;stroke:#FFFFFF;stroke-opacity:1;stroke-miterlimit:4;" d="M 26.785156 3.691406 L 26.785156 6.226562 L 0.484375 6.226562 L 3.476562 9.21875 L 29.78125 9.21875 L 29.78125 6.683594 L 26.785156 3.691406 Z M 26.785156 3.691406 " transform="matrix(1,0,0,-1,0,33)"/>
</g>
<path style=" stroke:none;fill-rule:nonzero;fill:#B5BF00;fill-opacity:1;" d="M 0.484375 26.773438 L 26.785156 26.773438 L 26.785156 29.308594 L 0.484375 29.308594 L 0.484375 26.773438 Z M 0.484375 26.773438 "/>
<g clip-path="url(#clip2)" clip-rule="nonzero">
<path style="fill:none;stroke-width:0.4;stroke-linecap:butt;stroke-linejoin:miter;stroke:#FFFFFF;stroke-opacity:1;stroke-miterlimit:4;" d="M 0.484375 6.226562 L 26.785156 6.226562 L 26.785156 3.691406 L 0.484375 3.691406 L 0.484375 6.226562 Z M 0.484375 6.226562 " transform="matrix(1,0,0,-1,0,33)"/>
</g>
<path style="fill-rule:nonzero;fill:#B5BF00;fill-opacity:1;stroke-width:0.4;stroke-linecap:butt;stroke-linejoin:miter;stroke:#FFFFFF;stroke-opacity:1;stroke-miterlimit:4;" d="M 26.785156 6.226562 L 29.78125 9.21875 " transform="matrix(1,0,0,-1,0,33)"/>
<path style=" stroke:none;fill-rule:nonzero;fill:#B5BF00;fill-opacity:1;" d="M 5.03125 4.582031 L 27.886719 4.582031 L 27.886719 21.816406 L 5.03125 21.816406 L 5.03125 4.582031 Z M 5.03125 4.582031 "/>
<path style="fill:none;stroke-width:0.4;stroke-linecap:butt;stroke-linejoin:miter;stroke:#FFFFFF;stroke-opacity:1;stroke-miterlimit:4;" d="M 5.03125 11.183594 L 27.886719 11.183594 L 27.886719 28.417969 L 5.03125 28.417969 L 5.03125 11.183594 Z M 5.03125 11.183594 " transform="matrix(1,0,0,-1,0,33)"/>
<path style=" stroke:none;fill-rule:nonzero;fill:#B5BF00;fill-opacity:1;" d="M 27.886719 21.816406 L 31.789062 17.914062 L 31.789062 0.679688 L 8.929688 0.679688 L 5.03125 4.582031 L 27.886719 4.582031 L 27.886719 21.816406 "/>
<g clip-path="url(#clip3)" clip-rule="nonzero">
<path style="fill:none;stroke-width:0.4;stroke-linecap:butt;stroke-linejoin:miter;stroke:#FFFFFF;stroke-opacity:1;stroke-miterlimit:4;" d="M 27.886719 11.183594 L 31.789062 15.085938 L 31.789062 32.320312 L 8.929688 32.320312 L 5.03125 28.417969 L 27.886719 28.417969 L 27.886719 11.183594 Z M 27.886719 11.183594 " transform="matrix(1,0,0,-1,0,33)"/>
</g>
<path style=" stroke:none;fill-rule:nonzero;fill:#B5BF00;fill-opacity:1;" d="M 7.023438 6.578125 L 25.890625 6.578125 L 25.890625 19.820312 L 7.023438 19.820312 L 7.023438 6.578125 Z M 7.023438 6.578125 "/>
<path style="fill:none;stroke-width:0.4;stroke-linecap:butt;stroke-linejoin:miter;stroke:#FFFFFF;stroke-opacity:1;stroke-miterlimit:4;" d="M 7.023438 13.179688 L 25.890625 13.179688 L 25.890625 26.421875 L 7.023438 26.421875 L 7.023438 13.179688 Z M 7.023438 13.179688 " transform="matrix(1,0,0,-1,0,33)"/>
<path style=" stroke:none;fill-rule:nonzero;fill:#B5BF00;fill-opacity:1;" d="M 27.886719 4.582031 L 31.789062 0.679688 "/>
<g clip-path="url(#clip4)" clip-rule="nonzero">
<path style="fill:none;stroke-width:0.4;stroke-linecap:butt;stroke-linejoin:miter;stroke:#FFFFFF;stroke-opacity:1;stroke-miterlimit:4;" d="M 27.886719 28.417969 L 31.789062 32.320312 " transform="matrix(1,0,0,-1,0,33)"/>
</g>
<path style=" stroke:none;fill-rule:nonzero;fill:#B5BF00;fill-opacity:1;" d="M 40.296875 30.023438 L 36.351562 24.546875 L 32.609375 27.246094 L 36.558594 32.722656 L 40.296875 30.023438 "/>
<g clip-path="url(#clip5)" clip-rule="nonzero">
<path style="fill:none;stroke-width:0.4;stroke-linecap:butt;stroke-linejoin:miter;stroke:#FFFFFF;stroke-opacity:1;stroke-miterlimit:4;" d="M 40.296875 2.976562 L 36.351562 8.453125 L 32.609375 5.753906 L 36.558594 0.277344 L 40.296875 2.976562 Z M 40.296875 2.976562 " transform="matrix(1,0,0,-1,0,33)"/>
</g>
<path style="fill:none;stroke-width:0.4;stroke-linecap:butt;stroke-linejoin:miter;stroke:#B5BF00;stroke-opacity:1;stroke-miterlimit:4;" d="M 34.550781 7.171875 C 33.878906 8.296875 32.664062 7.605469 32.921875 9.476562 C 33.183594 11.402344 31.890625 12.675781 29.546875 11.613281 " transform="matrix(1,0,0,-1,0,33)"/>
</g>
</svg>
