<?xml version="1.0" encoding="UTF-8"?>
<svg xmlns="http://www.w3.org/2000/svg" xmlns:xlink="http://www.w3.org/1999/xlink" width="50pt" height="73pt" viewBox="0 0 50 73" version="1.1">
<defs>
<clipPath id="clip1">
  <path d="M 0.0585938 0.101562 L 49.761719 0.101562 L 49.761719 72.941406 L 0.0585938 72.941406 L 0.0585938 0.101562 Z M 0.0585938 0.101562 "/>
</clipPath>
<clipPath id="clip2">
  <path d="M 0.0585938 0.101562 L 49.761719 0.101562 L 49.761719 72.941406 L 0.0585938 72.941406 L 0.0585938 0.101562 Z M 0.0585938 0.101562 "/>
</clipPath>
</defs>
<g id="surface0">
<path style=" stroke:none;fill-rule:nonzero;fill:#B5BF00;fill-opacity:1;" d="M 29.8125 64.65625 L 28.75 66.984375 C 28.75 66.984375 28.75 67.984375 30.152344 67.484375 L 31.351562 66.984375 L 32.652344 65.484375 L 32.863281 65.394531 C 32.890625 64.945312 32.929688 64.492188 33.023438 64.035156 C 33.191406 63.242188 32.929688 62.394531 33.179688 61.683594 C 33.808594 59.878906 34.425781 58.105469 35.089844 56.3125 C 35.605469 54.914062 34.851562 53.273438 35.394531 51.894531 L 31.515625 50.644531 C 31.246094 54.800781 31.191406 58.910156 30.988281 63.050781 C 30.613281 63.617188 30.207031 64.144531 29.796875 64.671875 L 29.8125 64.65625 "/>
<path style=" stroke:none;fill-rule:nonzero;fill:#B5BF00;fill-opacity:1;" d="M 40.386719 64.351562 L 40.386719 64.351562 L 40.4375 64.800781 L 41.535156 66.199219 L 43.335938 67.699219 L 44.535156 67.601562 C 44.835938 66.800781 45.234375 66.597656 45.234375 66.597656 C 44.507812 65.914062 43.597656 65.425781 43.191406 64.449219 C 42.933594 63.835938 42.753906 63.15625 42.773438 62.554688 C 42.910156 58.609375 43.3125 54.722656 43.722656 50.753906 L 39.585938 51.75 C 39.234375 51.921875 39.382812 52.316406 39.359375 52.558594 C 39.269531 53.476562 39.125 54.40625 39.335938 55.339844 C 39.527344 56.179688 39.867188 56.929688 40.015625 57.761719 C 40.40625 59.988281 40.566406 62.144531 40.386719 64.351562 "/>
<path style=" stroke:none;fill-rule:nonzero;fill:#B5BF00;fill-opacity:1;" d="M 11.09375 2.695312 C 11.242188 2.882812 11.308594 3.136719 11.324219 3.308594 C 11.410156 4.109375 11.117188 4.929688 10.828125 5.679688 C 10.753906 5.871094 10.761719 6.382812 10.53125 6.230469 C 10.269531 6.058594 10.046875 5.660156 9.765625 5.5625 C 9.414062 5.441406 9.039062 5.800781 8.6875 6 C 9.335938 6.871094 10.128906 7.761719 9.785156 8.898438 C 8.964844 7.683594 8.097656 6.476562 7.480469 5.15625 C 7.148438 4.4375 7.277344 3.386719 7.714844 2.792969 C 8.386719 1.875 9.398438 1.097656 10.515625 0.816406 C 12.023438 0.433594 13.527344 0.117188 15.085938 0.101562 C 13.683594 0.804688 12.351562 1.480469 11.003906 2.425781 C 10.933594 2.476562 11.023438 2.609375 11.09375 2.695312 "/>
<path style=" stroke:none;fill-rule:nonzero;fill:#B5BF00;fill-opacity:1;" d="M 16.398438 2.804688 C 16.046875 3.496094 15.707031 4.164062 15.285156 4.800781 C 15.3125 4.703125 15.265625 4.625 15.183594 4.613281 C 14.984375 4.578125 14.722656 4.667969 14.621094 4.566406 C 14.519531 4.464844 14.519531 4.144531 14.621094 4.03125 C 14.734375 3.902344 15.105469 4.097656 15.128906 4.0625 C 15.8125 2.960938 14.546875 2.0625 14.085938 1.101562 C 15.101562 1.078125 15.917969 1.753906 16.886719 1.898438 C 16.6875 2.183594 16.558594 2.496094 16.398438 2.804688 "/>
<path style=" stroke:none;fill-rule:nonzero;fill:#404040;fill-opacity:1;" d="M 12.585938 4.710938 C 12.417969 4.679688 12.152344 4.730469 12.140625 4.683594 C 11.847656 3.714844 13.183594 4.167969 13.785156 3.898438 C 13.644531 4.539062 13.265625 4.839844 12.585938 4.710938 "/>
<path style=" stroke:none;fill-rule:nonzero;fill:#404040;fill-opacity:1;" d="M 14.285156 6.300781 C 14.054688 6.300781 13.820312 6.300781 13.585938 6.300781 C 13.863281 6.0625 14.152344 5.851562 14.488281 5.699219 C 14.449219 5.910156 14.515625 6.105469 14.585938 6.300781 C 14.488281 6.300781 14.386719 6.300781 14.285156 6.300781 "/>
<path style=" stroke:none;fill-rule:nonzero;fill:#404040;fill-opacity:1;" d="M 14.085938 7.5 C 13.621094 7.5 13.152344 7.5 12.6875 7.5 C 12.855469 7.339844 13.121094 7.28125 13.292969 7.261719 C 13.738281 7.210938 14.328125 6.894531 14.6875 7.5 C 14.488281 7.5 14.285156 7.5 14.085938 7.5 "/>
<path style=" stroke:none;fill-rule:nonzero;fill:#404040;fill-opacity:1;" d="M 13.976562 7.925781 C 14.3125 8.066406 13.835938 8.070312 13.886719 8.199219 C 13.625 8.261719 13.542969 8.019531 13.386719 7.898438 C 13.585938 7.898438 13.804688 7.851562 13.976562 7.925781 "/>
<g clip-path="url(#clip1)" clip-rule="nonzero">
<path style=" stroke:none;fill-rule:nonzero;fill:#B5BF00;fill-opacity:1;" d="M 17.785156 69.398438 C 19.105469 70.269531 20.394531 71.191406 21.6875 72.101562 C 21.496094 72.253906 21.558594 72.644531 21.386719 72.644531 C 20.324219 72.652344 19.261719 72.691406 18.199219 72.527344 C 17.222656 72.378906 16.40625 71.753906 15.46875 71.464844 C 15.316406 71.417969 15.296875 71.910156 15.175781 71.9375 C 14.386719 72.09375 13.539062 71.828125 12.964844 71.394531 C 12.519531 71.0625 12.96875 70.203125 12.667969 69.609375 L 17.785156 69.398438 "/>
<path style=" stroke:none;fill-rule:nonzero;fill:#B5BF00;fill-opacity:1;" d="M 12.667969 69.609375 C 12.65625 69.582031 12.511719 69.601562 12.511719 69.597656 C 12.214844 60.589844 12.371094 51.601562 12.085938 42.601562 C 10.636719 51.394531 9.503906 59.917969 7.808594 68.984375 C 7.777344 69.148438 7.195312 69.054688 7.148438 69.3125 L 2.78125 69.242188 C 2.941406 68.949219 2.636719 68.386719 2.691406 67.898438 C 3.214844 63.109375 3.824219 58.449219 4.066406 53.691406 C 4.3125 48.855469 4.433594 44.042969 4.664062 39.203125 C 4.703125 38.34375 5.085938 37.460938 5.011719 36.605469 C 4.984375 36.335938 4.535156 36.179688 4.1875 36.101562 C 4.519531 35.292969 4.617188 34.421875 4.886719 33.601562 C 3.421875 32.03125 1.878906 30.640625 0.589844 28.828125 C 0.175781 28.246094 -0.0390625 27.398438 0 26.707031 C 0.238281 22.511719 1.199219 18.414062 1.1875 14.199219 C 3.230469 12.910156 5.667969 12.601562 7.84375 11.605469 C 8.652344 11.234375 9.492188 10.75 9.785156 9.800781 C 10.898438 10.578125 11.800781 11.632812 13.015625 12.242188 C 13.128906 12.300781 13.214844 11.984375 13.285156 11.800781 C 13.320312 11.835938 13.351562 11.867188 13.386719 11.898438 C 13.496094 11.578125 13.496094 11.34375 13.785156 11.101562 C 13.71875 11.050781 13.636719 10.976562 13.699219 10.914062 C 13.886719 10.730469 13.914062 10.472656 14.085938 10.300781 C 14.269531 10.652344 14.601562 10.90625 14.910156 11.046875 C 16.636719 11.839844 18.390625 12.46875 20.164062 13.15625 C 20.796875 13.398438 21.496094 13.84375 21.769531 14.363281 C 21.964844 14.742188 21.710938 15.417969 21.578125 15.996094 C 21.421875 16.683594 21.269531 17.351562 21.265625 18 C 21.246094 20.953125 22.058594 23.847656 22.285156 26.800781 C 21.011719 28.40625 20.058594 30.222656 18.886719 31.898438 C 19.140625 33.320312 19.8125 34.699219 19.769531 36.097656 C 19.765625 36.214844 18.992188 36.363281 18.984375 36.601562 C 18.941406 38.222656 19.265625 39.851562 19.171875 41.5 C 18.636719 50.828125 18.617188 60.113281 17.785156 69.398438 L 12.667969 69.609375 "/>
<path style=" stroke:none;fill-rule:nonzero;fill:#B5BF00;fill-opacity:1;" d="M 7.148438 69.3125 C 7.046875 69.894531 7.40625 70.597656 7.09375 71.03125 C 6.675781 71.621094 5.894531 71.875 5.210938 72.238281 C 4.96875 72.367188 5.105469 72.914062 4.78125 72.949219 C 3.449219 73.097656 2.121094 73 0.785156 73 C 0.820312 72.363281 0.65625 71.644531 0.976562 71.15625 C 1.464844 70.414062 2.371094 69.980469 2.78125 69.242188 L 7.148438 69.3125 "/>
</g>
<path style=" stroke:none;fill-rule:nonzero;fill:#B5BF00;fill-opacity:1;" d="M 5.761719 25.601562 C 5.738281 24.429688 5.589844 23.257812 5.386719 22.101562 C 4.921875 23.222656 4.695312 24.460938 4.71875 25.597656 C 4.730469 26.078125 5.320312 26.597656 5.6875 27.101562 C 5.933594 26.613281 5.769531 26.097656 5.761719 25.601562 "/>
<path style=" stroke:none;fill-rule:nonzero;fill:#B5BF00;fill-opacity:1;" d="M 32.285156 13.398438 C 31.972656 13.0625 31.386719 13.058594 31.386719 12.5 C 31.734375 12.503906 32.085938 12.53125 32.386719 12.300781 C 31.800781 12.082031 31.503906 11.550781 31.445312 10.992188 C 31.4375 10.925781 31.574219 10.632812 31.683594 10.644531 C 31.925781 10.664062 31.933594 11.074219 32.1875 11.195312 C 32.28125 11.238281 32.355469 11.175781 32.378906 11.097656 C 32.453125 10.789062 32.34375 10.496094 32.285156 10.199219 C 32.613281 10.304688 33.21875 10.433594 33.214844 10.101562 C 33.207031 9.609375 32.519531 9.0625 32.945312 8.660156 C 33.066406 8.546875 33.550781 9.160156 33.59375 8.789062 C 33.636719 8.433594 33.117188 8.011719 33.152344 7.605469 C 33.175781 7.320312 33.726562 7.25 33.835938 6.980469 C 34.015625 6.527344 33.644531 5.949219 33.773438 5.527344 C 34.148438 4.273438 34.890625 3.171875 35.488281 2 C 37.023438 1.953125 37.601562 0.453125 40.082031 1.761719 C 40.144531 1.796875 39.835938 1.746094 39.898438 1.894531 C 39.933594 1.976562 40.015625 2.074219 40.089844 2.078125 C 40.496094 2.113281 40.96875 2.039062 41.144531 2.421875 C 41.269531 2.695312 40.855469 3.03125 40.945312 3.28125 C 41.074219 3.660156 41.824219 3.484375 41.902344 3.820312 C 42.058594 4.464844 41.308594 5.097656 41.40625 5.679688 C 41.464844 6.007812 42.199219 6.148438 42.425781 6.535156 C 42.6875 6.984375 42.351562 7.628906 42.785156 8.101562 C 42.957031 7.898438 43.167969 7.742188 43.386719 7.601562 C 43.445312 7.992188 43.605469 8.351562 43.785156 8.699219 C 44.042969 8.359375 44.347656 8.054688 44.585938 7.699219 C 44.824219 7.902344 44.71875 8.269531 44.636719 8.347656 C 44.210938 8.757812 43.804688 9.296875 43.203125 9.457031 C 43.125 9.480469 43.074219 9.53125 43.039062 9.601562 L 42.339844 9.203125 C 42.253906 9.371094 42.835938 9.628906 42.585938 9.699219 L 42.6875 10.101562 C 43.050781 10.492188 43.476562 10.226562 43.886719 10.101562 C 44.097656 10.800781 43.15625 10.890625 43.0625 11.414062 C 43.015625 11.683594 43.515625 11.605469 43.785156 11.5 C 43.695312 11.996094 43.269531 12.242188 42.984375 12.601562 "/>
<g clip-path="url(#clip2)" clip-rule="nonzero">
<path style=" stroke:none;fill-rule:nonzero;fill:#C7CF3F;fill-opacity:1;" d="M 45.234375 66.496094 C 45.894531 67.117188 46.328125 68.042969 46.917969 68.710938 C 47.042969 68.851562 46.609375 69.199219 46.390625 69.1875 C 45.246094 69.121094 44.253906 69.328125 43.222656 68.949219 C 42.332031 68.617188 42.304688 67.339844 41.085938 66.75 C 40.679688 67.148438 40.941406 67.703125 40.757812 68.136719 C 40.742188 68.175781 40.527344 68.167969 40.519531 68.140625 C 40.128906 66.855469 39.121094 65.292969 40.386719 64.25 L 40.4375 64.699219 L 41.535156 66.101562 L 43.335938 67.601562 L 44.535156 67.5 C 44.835938 66.699219 45.234375 66.496094 45.234375 66.496094 "/>
<path style=" stroke:none;fill-rule:nonzero;fill:#B5BF00;fill-opacity:1;" d="M 35.394531 52.441406 C 35.605469 51.902344 36.488281 51.820312 37.078125 51.882812 C 37.339844 51.90625 37.539062 52.496094 37.792969 52.519531 C 38.277344 52.558594 38.671875 51.910156 39.191406 51.851562 C 39.347656 51.835938 39.476562 52.113281 39.585938 52.300781 L 41.234375 51.800781 L 42.636719 52.550781 L 43.484375 51.300781 L 43.722656 51.304688 C 43.734375 51.199219 44.03125 51.128906 44.035156 51.09375 C 44.597656 46.238281 44.804688 41.5625 45.394531 36.699219 C 45.480469 35.980469 45.234375 35.304688 45.285156 34.601562 C 45.503906 34.664062 45.675781 34.46875 45.886719 34.5 C 45.828125 33.414062 45.414062 32.390625 45.386719 31.300781 C 46.855469 29.527344 48.386719 27.867188 49.601562 25.847656 C 49.816406 25.484375 49.914062 24.898438 49.761719 24.410156 C 49.269531 22.871094 48.734375 21.410156 48.179688 19.902344 C 47.359375 17.664062 46.714844 15.414062 45.886719 13.199219 C 44.945312 12.882812 43.929688 12.921875 42.984375 12.601562 L 38.4375 12.050781 L 32.285156 13.398438 C 30.894531 13.847656 29.535156 14.332031 28.285156 15.101562 C 28.042969 17.226562 28.304688 19.304688 27.851562 21.492188 C 27.59375 22.742188 27.453125 23.875 27.246094 25.109375 C 27.15625 25.636719 26.933594 26.171875 27.113281 26.691406 C 27.332031 27.328125 27.339844 28.09375 27.761719 28.53125 C 28.925781 29.746094 30.515625 30.394531 31.785156 31.5 C 31.667969 32.367188 31.367188 33.164062 31.09375 34 C 30.984375 34.324219 31.445312 34.273438 31.425781 34.390625 C 31.328125 34.953125 30.9375 35.484375 30.882812 36.011719 C 30.34375 41.070312 30.546875 46.0625 30.796875 51.09375 C 30.800781 51.203125 31.535156 50.90625 31.515625 51.195312 L 32.488281 52.148438 L 34.136719 51.648438 L 35.386719 52.550781 "/>
</g>
<path style=" stroke:none;fill-rule:nonzero;fill:#404040;fill-opacity:1;" d="M 41.585938 10.699219 C 41.335938 10.378906 40.964844 10.191406 40.6875 9.898438 C 40.585938 10 40.417969 10.101562 40.421875 10.199219 C 40.429688 10.566406 40.296875 11.21875 40.683594 11.199219 C 40.925781 11.1875 40.726562 10.632812 40.785156 10.300781 C 40.898438 10.546875 40.988281 10.824219 41.207031 10.96875 C 41.382812 11.085938 41.421875 10.757812 41.585938 10.699219 "/>
<path style=" stroke:none;fill-rule:nonzero;fill:#FFFFFF;fill-opacity:1;" d="M 40.492188 14.886719 C 40.425781 14.859375 40.382812 14.773438 40.285156 14.800781 C 40.285156 14.667969 40.242188 14.492188 40.308594 14.421875 C 40.378906 14.355469 40.554688 14.398438 40.6875 14.398438 C 40.660156 14.496094 40.71875 14.550781 40.785156 14.601562 C 41.011719 13.898438 40.808594 13.191406 40.710938 12.511719 C 40.675781 12.242188 40.109375 12.257812 39.949219 12.050781 C 39.636719 11.648438 39.460938 10.199219 39.875 10.230469 C 40.945312 10.308594 40.996094 8.226562 41.304688 7.0625 C 41.433594 6.585938 41.1875 6.414062 40.984375 5.898438 C 40.847656 5.964844 40.921875 6.148438 40.871094 6.171875 C 40.644531 6.285156 40.304688 6.429688 40.121094 6.261719 C 40.019531 6.171875 40.019531 5.828125 40.121094 5.738281 C 40.300781 5.578125 41.082031 5.453125 41.074219 5.480469 C 41.261719 4.933594 40.949219 4.492188 40.585938 4 C 40.402344 4.28125 40.222656 4.351562 39.886719 4.300781 C 40.101562 4.117188 40.089844 3.523438 39.832031 3.675781 C 39.40625 3.925781 39.464844 4.699219 38.785156 4.699219 C 38.804688 4.410156 38.804688 4.125 38.585938 3.898438 C 38.371094 4.21875 38.125 4.570312 37.796875 4.53125 C 37.578125 4.503906 37.652344 3.863281 37.335938 4.152344 C 36.96875 4.484375 37.605469 4.945312 37.46875 5.394531 C 37.199219 6.289062 37.210938 7.164062 36.710938 8.015625 C 36.636719 8.144531 36.644531 8.351562 36.707031 8.492188 C 36.808594 8.710938 37.019531 8.863281 37.285156 8.800781 C 37.273438 9.1875 36.855469 8.96875 36.703125 9.210938 C 36.65625 9.285156 36.65625 9.414062 36.703125 9.492188 C 36.886719 9.8125 37.25 9.835938 37.585938 9.800781 C 37.492188 10.402344 36.8125 10.496094 36.386719 10.199219 C 36.285156 10.816406 36.609375 11.351562 37.1875 11.5 C 36.917969 11.871094 36.488281 11.566406 36.230469 11.757812 C 35.886719 12.003906 36.3125 12.5 36.1875 12.898438 C 36.121094 12.757812 35.945312 12.769531 35.914062 12.820312 C 35.613281 13.25 35.988281 13.828125 36.085938 14.300781 C 36.148438 14.160156 36.285156 14.179688 36.382812 14.214844 C 36.5625 14.273438 36.464844 14.464844 36.488281 14.601562 C 36.386719 14.601562 36.277344 14.574219 36.191406 14.613281 C 35.910156 14.742188 36.296875 14.933594 36.1875 15.101562 C 37.136719 15.640625 38.214844 15.960938 39.277344 15.824219 C 39.558594 15.789062 39.914062 15.621094 40.1875 15.398438 C 39.929688 15.210938 39.417969 15.378906 39.605469 14.90625 C 39.6875 14.699219 39.949219 14.773438 40.070312 14.832031 C 40.226562 14.90625 40.050781 15.136719 40.097656 15.296875 C 40.117188 15.378906 40.199219 15.449219 40.28125 15.390625 C 40.539062 15.203125 40.847656 15.070312 40.960938 14.789062 C 40.972656 14.753906 40.855469 14.625 40.785156 14.621094 C 40.648438 14.617188 40.714844 14.96875 40.492188 14.886719 "/>
<path style=" stroke:none;fill-rule:nonzero;fill:#404040;fill-opacity:1;" d="M 39.277344 6.265625 C 39.234375 6.347656 39.148438 6.453125 39.089844 6.445312 C 38.660156 6.386719 38.21875 6.417969 37.984375 5.972656 C 38.523438 5.808594 39.074219 5.578125 39.550781 5.921875 C 39.683594 6.011719 39.359375 6.109375 39.277344 6.265625 "/>
<path style=" stroke:none;fill-rule:nonzero;fill:#404040;fill-opacity:1;" d="M 40.632812 7.679688 C 40.519531 7.992188 40.132812 7.726562 39.835938 7.800781 C 40.019531 7.488281 40.164062 7.359375 40.535156 7.300781 C 40.539062 7.472656 40.664062 7.59375 40.632812 7.679688 "/>
<path style=" stroke:none;fill-rule:nonzero;fill:#404040;fill-opacity:1;" d="M 40.257812 8.660156 C 39.925781 8.699219 39.59375 8.789062 39.253906 8.683594 C 39.773438 8.367188 40.378906 8.519531 40.929688 8.375 C 40.863281 8.433594 40.816406 8.492188 40.855469 8.585938 C 40.65625 8.609375 40.457031 8.636719 40.257812 8.660156 "/>
<path style=" stroke:none;fill-rule:nonzero;fill:#404040;fill-opacity:1;" d="M 39.273438 15.578125 C 39.066406 15.710938 38.695312 15.503906 38.804688 15.207031 C 38.855469 15.066406 39.003906 14.929688 39.183594 15.011719 C 39.402344 15.109375 39.507812 15.429688 39.273438 15.578125 "/>
<path style=" stroke:none;fill-rule:nonzero;fill:#404040;fill-opacity:1;" d="M 38.386719 15.5 C 38.253906 15.558594 38.21875 15.34375 38.085938 15.398438 C 38.109375 15.265625 38.007812 15.066406 38.191406 15.019531 C 38.316406 14.984375 38.511719 14.921875 38.574219 15.105469 C 38.636719 15.273438 38.5625 15.421875 38.386719 15.5 "/>
<path style=" stroke:none;fill-rule:nonzero;fill:#B5BF00;fill-opacity:1;" d="M 37.585938 15.292969 C 37.476562 15.308594 37.324219 15.347656 37.300781 15.199219 C 37.28125 15.066406 37.207031 14.871094 37.390625 14.816406 C 37.65625 14.738281 37.890625 14.945312 37.773438 15.195312 C 37.746094 15.246094 37.65625 15.28125 37.585938 15.292969 "/>
<path style=" stroke:none;fill-rule:nonzero;fill:#404040;fill-opacity:1;" d="M 36.980469 14.882812 C 36.894531 14.925781 36.742188 14.945312 36.691406 14.800781 C 36.59375 14.519531 36.933594 14.410156 37.0625 14.527344 C 37.140625 14.59375 37.113281 14.816406 36.980469 14.882812 "/>
<path style=" stroke:none;fill-rule:nonzero;fill:#404040;fill-opacity:1;" d="M 40.210938 9.082031 C 40.007812 9.09375 39.847656 9.027344 39.6875 8.933594 C 40.019531 8.890625 40.351562 8.851562 40.679688 8.808594 C 40.578125 8.996094 40.429688 9.070312 40.210938 9.082031 "/>
<path style=" stroke:none;fill-rule:nonzero;fill:#FFFFFF;fill-opacity:1;" d="M 8.738281 11.351562 L 10.238281 15.851562 L 13.4375 23.449219 L 14.9375 15.550781 L 14.636719 11.148438 L 14.035156 10.550781 L 13.035156 12.398438 L 9.738281 10.050781 C 9.738281 10.699219 8.738281 11.351562 8.738281 11.351562 "/>
<path style=" stroke:none;fill-rule:nonzero;fill:#B5BF00;fill-opacity:1;" d="M 12.6875 12.5 L 13.085938 12.75 L 13.335938 12.449219 L 13.738281 13 L 13.238281 13.699219 L 13.988281 20.699219 L 13.4375 23.648438 L 11.988281 20.300781 L 12.6875 13.648438 L 12.285156 13.148438 L 12.6875 12.5 "/>
<path style=" stroke:none;fill-rule:nonzero;fill:#FFFFFF;fill-opacity:1;" d="M 36.238281 15.101562 L 36.585938 16.699219 L 40.4375 23.800781 L 41.785156 17.199219 L 40.886719 14.851562 C 39.234375 16.949219 36.238281 15.101562 36.238281 15.101562 "/>
<path style=" stroke:none;fill-rule:nonzero;fill:#C7CF3F;fill-opacity:1;" d="M 32.636719 65.398438 L 31.335938 66.898438 L 30.136719 67.398438 C 28.738281 67.898438 28.738281 66.898438 28.738281 66.898438 L 29.796875 64.570312 C 29.238281 65.289062 28.671875 66 28.191406 66.8125 C 27.78125 67.5 27.242188 68.246094 27.257812 69.050781 C 27.261719 69.1875 27.585938 69.429688 27.882812 69.339844 C 28.785156 69.070312 29.742188 69.070312 30.546875 68.671875 C 31.265625 68.3125 31.574219 67.414062 32.1875 66.851562 C 32.421875 67.148438 32.179688 67.542969 32.386719 67.851562 C 32.777344 67.03125 32.804688 66.171875 32.863281 65.296875 L 32.636719 65.398438 "/>
<path style=" stroke:none;fill-rule:nonzero;fill:#FFFFFF;fill-opacity:1;" d="M 45.734375 20.25 C 44.734375 18.851562 43.734375 20.199219 43.734375 20.199219 C 43.1875 21 43.886719 21.699219 43.886719 21.699219 L 43.984375 21.550781 C 43.386719 20.699219 44.136719 20.101562 44.136719 20.101562 C 44.886719 20.898438 45.734375 20.25 45.734375 20.25 "/>
<path style=" stroke:none;fill-rule:nonzero;fill:#FFFFFF;fill-opacity:1;" d="M 45.363281 18.398438 C 45.367188 17.925781 44.792969 18.160156 44.585938 18.398438 C 44.519531 18.242188 44.722656 18.136719 44.675781 18.003906 C 44.609375 17.824219 44.410156 17.878906 44.292969 17.921875 C 44.085938 17.996094 44.222656 18.234375 44.1875 18.398438 C 43.828125 18.167969 43.414062 17.945312 43.320312 18.507812 C 43.261719 18.859375 43.800781 18.695312 43.886719 19 C 43.71875 19.035156 43.480469 18.898438 43.40625 19.105469 C 43.367188 19.222656 43.304688 19.433594 43.492188 19.480469 C 43.738281 19.542969 43.976562 19.453125 44.1875 19.300781 C 44.160156 19.601562 44 20.046875 44.480469 19.878906 C 44.757812 19.78125 44.6875 19.460938 44.6875 19.199219 C 44.78125 19.417969 45.050781 19.347656 45.1875 19.5 C 45.285156 19.382812 45.335938 19.242188 45.398438 19.105469 C 45.574219 18.722656 45.066406 18.882812 44.984375 18.699219 C 45.230469 18.746094 45.363281 18.589844 45.363281 18.398438 "/>
</g>
</svg>
