<?xml version="1.0" encoding="UTF-8"?>
<svg xmlns="http://www.w3.org/2000/svg" xmlns:xlink="http://www.w3.org/1999/xlink" width="40pt" height="44pt" viewBox="0 0 40 44" version="1.1">
<defs>
<clipPath id="clip1">
  <path d="M 0.0585938 0.105469 L 39 0.105469 L 39 44 L 0.0585938 44 L 0.0585938 0.105469 Z M 0.0585938 0.105469 "/>
</clipPath>
</defs>
<g id="surface0">
<path style=" stroke:none;fill-rule:nonzero;fill:#B5BF00;fill-opacity:1;" d="M 29.625 2.761719 L 27.3125 1.945312 L 23.863281 4.277344 L 26.070312 6.453125 L 26.257812 6.132812 L 26.6875 6.535156 L 27.199219 6.5625 L 27.414062 6.050781 L 27.597656 6.046875 L 27.65625 5.703125 L 27.898438 5.757812 L 28.085938 5.324219 L 28.707031 5.539062 L 28.867188 5.433594 L 28.949219 4.113281 L 29.433594 3.839844 L 29.644531 2.925781 "/>
<path style=" stroke:none;fill-rule:nonzero;fill:#B5BF00;fill-opacity:1;" d="M 29.855469 21.28125 L 31.050781 20.015625 L 31.402344 20.4375 L 33.160156 20.929688 L 33.582031 22.40625 L 33.019531 22.339844 L 32.597656 23.253906 L 32.316406 22.898438 L 31.613281 23.53125 L 31.542969 22.828125 L 30.839844 22.761719 L 30.417969 21.703125 L 29.855469 21.28125 "/>
<path style=" stroke:none;fill-rule:nonzero;fill:#B5BF00;fill-opacity:1;" d="M 8.320312 14.851562 L 7.175781 15.453125 L 6.890625 16.003906 L 5.46875 17.019531 L 5.601562 17.433594 L 6.835938 16.660156 L 5.683594 17.886719 L 5.941406 18.207031 L 7.101562 17.304688 L 6.148438 18.804688 L 6.503906 19.058594 L 7.539062 17.765625 L 7.191406 19.136719 L 7.613281 19.25 L 8.34375 17.476562 L 8.667969 17.464844 L 9.148438 18.300781 L 9.578125 18.273438 L 9.324219 16.84375 L 9.464844 15.578125 L 8.320312 14.851562 "/>
<path style=" stroke:none;fill-rule:nonzero;fill:#B5BF00;fill-opacity:1;" d="M 30.839844 23.039062 L 31.261719 23.253906 L 31.121094 23.742188 L 30.980469 24.515625 L 30.347656 24.234375 L 30.488281 23.53125 L 30.839844 23.039062 "/>
<g clip-path="url(#clip1)" clip-rule="nonzero">
<path style=" stroke:none;fill-rule:nonzero;fill:#B5BF00;fill-opacity:1;" d="M 33.652344 21.703125 L 34.425781 22.058594 L 34.566406 22.761719 L 33.933594 23.039062 L 33.933594 22.40625 L 33.652344 21.703125 "/>
<path style=" stroke:none;fill-rule:nonzero;fill:#B5BF00;fill-opacity:1;" d="M 36.605469 22.339844 L 27.675781 25.503906 L 29.566406 31.738281 L 30.839844 32.816406 L 39.140625 29.652344 L 38.226562 23.253906 L 36.605469 22.339844 "/>
<path style=" stroke:none;fill-rule:nonzero;fill:#B5BF00;fill-opacity:1;" d="M 30.488281 40.835938 L 29.433594 41.820312 L 28.027344 41.679688 L 27.746094 42.804688 L 28.027344 44 L 30.066406 44 L 30.488281 43.578125 L 31.613281 44 L 34.074219 44 L 34.988281 43.648438 L 34.707031 42.875 L 32.316406 42.382812 L 30.839844 41.398438 L 30.488281 40.835938 "/>
<path style=" stroke:none;fill-rule:nonzero;fill:#B5BF00;fill-opacity:1;" d="M 3.890625 35.773438 L 3.167969 34.523438 L 3.621094 33.183594 L 2.589844 32.65625 L 1.359375 32.660156 L 0.902344 34.648438 L 1.21875 35.15625 L 0.554688 36.15625 L 0 38.554688 L 0.136719 39.523438 L 0.953125 39.425781 L 1.972656 37.207031 L 3.261719 35.988281 L 3.890625 35.773438 "/>
</g>
<path style=" stroke:none;fill-rule:nonzero;fill:#B5BF00;fill-opacity:1;" d="M 13.75 21.703125 L 12.414062 20.507812 L 14.945312 16.429688 L 16 10.101562 L 13.46875 11.507812 L 11.148438 15.65625 L 8.40625 14.039062 L 11.289062 8.621094 L 17.6875 4.683594 L 22.964844 4.824219 L 25.847656 7.007812 L 28.449219 10.523438 L 27.535156 11.507812 L 27.183594 16.359375 L 30.839844 19.664062 L 28.378906 21.636719 L 24.089844 17.90625 L 24.230469 22.550781 "/>
<path style=" stroke:none;fill-rule:nonzero;fill:#B5BF00;fill-opacity:1;" d="M 24.230469 22.550781 L 28.238281 29.300781 L 31.683594 39.285156 L 27.535156 40.695312 L 24.230469 31.550781 L 19.164062 24.445312 L 16.5625 32.253906 L 6.085938 36.261719 L 4.46875 32.816406 L 12.273438 29.792969 L 12.414062 28.878906 L 13.257812 28.949219 L 14.101562 23.320312 L 13.75 21.703125 L 24.230469 22.550781 "/>
<path style=" stroke:none;fill-rule:nonzero;fill:#B5BF00;fill-opacity:1;" d="M 13.417969 21.371094 L 20.457031 23.613281 L 23.789062 22.03125 "/>
<path style=" stroke:none;fill-rule:nonzero;fill:#B5BF00;fill-opacity:1;" d="M 29.644531 2.925781 L 30.425781 2.957031 L 29.890625 1.691406 L 27.65625 0.160156 L 26.285156 0.105469 L 25.074219 0.804688 L 23.863281 4.277344 L 25 3.445312 L 26.3125 2.886719 L 26.4375 3.195312 L 27.125 3.570312 L 27.75 2.445312 L 29.625 2.761719 "/>
</g>
</svg>
