<?xml version="1.0" encoding="UTF-8"?>
<svg xmlns="http://www.w3.org/2000/svg" xmlns:xlink="http://www.w3.org/1999/xlink" width="39pt" height="38pt" viewBox="0 0 39 38" version="1.1">
<g id="surface0">
<path style="fill-rule:nonzero;fill:#B5BF00;fill-opacity:1;stroke-width:0.4;stroke-linecap:butt;stroke-linejoin:miter;stroke:#FFFFFF;stroke-opacity:1;stroke-miterlimit:4;" d="M 1.0625 30.222656 C 1.0625 26.273438 9.300781 23.074219 19.457031 23.074219 C 29.613281 23.074219 37.847656 26.273438 37.847656 30.222656 L 37.847656 7.519531 C 37.847656 3.566406 29.613281 0.367188 19.457031 0.367188 C 9.300781 0.367188 1.0625 3.566406 1.0625 7.519531 L 1.0625 30.222656 Z M 1.0625 30.222656 " transform="matrix(1,0,0,-1,0,38)"/>
<path style=" stroke:none;fill-rule:nonzero;fill:#B5BF00;fill-opacity:1;" d="M 37.792969 7.777344 C 37.792969 11.726562 29.558594 14.925781 19.398438 14.925781 C 9.242188 14.925781 1.007812 11.726562 1.007812 7.777344 L 1.007812 30.480469 C 1.007812 34.433594 9.242188 37.632812 19.398438 37.632812 C 29.558594 37.632812 37.792969 34.433594 37.792969 30.480469 L 37.792969 7.777344 "/>
<path style="fill:none;stroke-width:0.4;stroke-linecap:butt;stroke-linejoin:miter;stroke:#FFFFFF;stroke-opacity:1;stroke-miterlimit:4;" d="M 37.792969 30.222656 C 37.792969 26.273438 29.558594 23.074219 19.398438 23.074219 C 9.242188 23.074219 1.007812 26.273438 1.007812 30.222656 L 1.007812 7.519531 C 1.007812 3.566406 9.242188 0.367188 19.398438 0.367188 C 29.558594 0.367188 37.792969 3.566406 37.792969 7.519531 L 37.792969 30.222656 Z M 37.792969 30.222656 " transform="matrix(1,0,0,-1,0,38)"/>
<path style="fill-rule:nonzero;fill:#B5BF00;fill-opacity:1;stroke-width:0.4;stroke-linecap:butt;stroke-linejoin:miter;stroke:#FFFFFF;stroke-opacity:1;stroke-miterlimit:4;" d="M 19.398438 23.074219 C 29.558594 23.074219 37.792969 26.273438 37.792969 30.222656 C 37.792969 34.175781 29.558594 37.378906 19.398438 37.378906 C 9.242188 37.378906 1.007812 34.175781 1.007812 30.222656 C 1.007812 26.273438 9.242188 23.074219 19.398438 23.074219 Z M 19.398438 23.074219 " transform="matrix(1,0,0,-1,0,38)"/>
<path style=" stroke:none;fill-rule:nonzero;fill:#FFFFFF;fill-opacity:1;" d="M 15.460938 4.730469 L 16.980469 7.011719 L 11.238281 8.335938 L 12.492188 7.292969 L 3.617188 5.777344 L 5.84375 4.105469 L 14.40625 5.554688 L 15.460938 4.730469 "/>
<path style=" stroke:none;fill-rule:nonzero;fill:#FFFFFF;fill-opacity:1;" d="M 23.539062 10.257812 L 22.503906 7.910156 L 27.683594 6.871094 L 26.785156 7.675781 L 35.421875 9.152344 L 33.347656 10.808594 L 24.765625 9.199219 L 23.539062 10.257812 "/>
<path style=" stroke:none;fill-rule:nonzero;fill:#FFFFFF;fill-opacity:1;" d="M 20.710938 3.488281 L 26.511719 1.898438 L 26.578125 4.386719 L 25.128906 4.109375 L 22.296875 6.457031 L 19.597656 6.0625 L 22.519531 3.765625 L 20.710938 3.488281 "/>
<path style=" stroke:none;fill-rule:nonzero;fill:#FFFFFF;fill-opacity:1;" d="M 18.222656 12.398438 L 12.699219 13.433594 L 12.492188 10.878906 L 14.078125 11.222656 L 17.121094 8.628906 L 19.8125 9.082031 L 16.566406 11.914062 L 18.222656 12.398438 "/>
<path style="fill-rule:nonzero;fill:#FFFFFF;fill-opacity:1;stroke-width:0.4;stroke-linecap:butt;stroke-linejoin:miter;stroke:#B5BF00;stroke-opacity:1;stroke-miterlimit:4;" d="M 15.714844 16.488281 L 22.601562 16.488281 L 22.601562 9.601562 L 15.714844 9.601562 L 15.714844 16.488281 Z M 15.714844 16.488281 " transform="matrix(1,0,0,-1,0,38)"/>
<path style="fill-rule:nonzero;fill:#FFFFFF;fill-opacity:1;stroke-width:0.4;stroke-linecap:butt;stroke-linejoin:miter;stroke:#B5BF00;stroke-opacity:1;stroke-miterlimit:4;" d="M 11.09375 21.367188 L 11.097656 18.511719 L 5.910156 18.507812 L 5.910156 21.363281 L 11.09375 21.367188 Z M 11.09375 21.367188 " transform="matrix(1,0,0,-1,0,38)"/>
<path style="fill-rule:nonzero;fill:#FFFFFF;fill-opacity:1;stroke-width:0.4;stroke-linecap:butt;stroke-linejoin:miter;stroke:#B5BF00;stroke-opacity:1;stroke-miterlimit:4;" d="M 11.09375 14.226562 L 11.097656 11.371094 L 5.910156 11.367188 L 5.910156 14.222656 L 11.09375 14.226562 Z M 11.09375 14.226562 " transform="matrix(1,0,0,-1,0,38)"/>
<path style="fill-rule:nonzero;fill:#FFFFFF;fill-opacity:1;stroke-width:0.4;stroke-linecap:butt;stroke-linejoin:miter;stroke:#B5BF00;stroke-opacity:1;stroke-miterlimit:4;" d="M 11.09375 7.5 L 11.097656 4.644531 L 5.910156 4.640625 L 5.910156 7.492188 L 11.09375 7.5 Z M 11.09375 7.5 " transform="matrix(1,0,0,-1,0,38)"/>
<path style="fill-rule:nonzero;fill:#FFFFFF;fill-opacity:1;stroke-width:0.4;stroke-linecap:butt;stroke-linejoin:miter;stroke:#B5BF00;stroke-opacity:1;stroke-miterlimit:4;" d="M 21.761719 7.5 L 21.761719 4.644531 L 16.578125 4.640625 L 16.574219 7.492188 L 21.761719 7.5 Z M 21.761719 7.5 " transform="matrix(1,0,0,-1,0,38)"/>
<path style="fill-rule:nonzero;fill:#FFFFFF;fill-opacity:1;stroke-width:0.4;stroke-linecap:butt;stroke-linejoin:miter;stroke:#B5BF00;stroke-opacity:1;stroke-miterlimit:4;" d="M 32.761719 21.367188 L 32.761719 18.511719 L 27.578125 18.507812 L 27.574219 21.363281 L 32.761719 21.367188 Z M 32.761719 21.367188 " transform="matrix(1,0,0,-1,0,38)"/>
<path style="fill-rule:nonzero;fill:#FFFFFF;fill-opacity:1;stroke-width:0.4;stroke-linecap:butt;stroke-linejoin:miter;stroke:#B5BF00;stroke-opacity:1;stroke-miterlimit:4;" d="M 21.761719 21.367188 L 21.761719 18.511719 L 16.578125 18.507812 L 16.574219 21.363281 L 21.761719 21.367188 Z M 21.761719 21.367188 " transform="matrix(1,0,0,-1,0,38)"/>
<path style="fill-rule:nonzero;fill:#FFFFFF;fill-opacity:1;stroke-width:0.4;stroke-linecap:butt;stroke-linejoin:miter;stroke:#B5BF00;stroke-opacity:1;stroke-miterlimit:4;" d="M 32.761719 14.226562 L 32.761719 11.371094 L 27.578125 11.367188 L 27.574219 14.222656 L 32.761719 14.226562 Z M 32.761719 14.226562 " transform="matrix(1,0,0,-1,0,38)"/>
<path style="fill-rule:nonzero;fill:#FFFFFF;fill-opacity:1;stroke-width:0.4;stroke-linecap:butt;stroke-linejoin:miter;stroke:#B5BF00;stroke-opacity:1;stroke-miterlimit:4;" d="M 32.761719 7.5 L 32.761719 4.644531 L 27.578125 4.640625 L 27.574219 7.492188 L 32.761719 7.5 Z M 32.761719 7.5 " transform="matrix(1,0,0,-1,0,38)"/>
<path style="fill:none;stroke-width:0.8;stroke-linecap:butt;stroke-linejoin:miter;stroke:#FFFFFF;stroke-opacity:1;stroke-miterlimit:4;" d="M 8.625 12.960938 L 30.125 12.960938 M 19.125 19.457031 L 19.125 5.960938 M 9.5 5.960938 L 29.375 19.832031 M 29 5.960938 L 9.125 19.832031 " transform="matrix(1,0,0,-1,0,38)"/>
</g>
</svg>
