<?xml version="1.0" encoding="UTF-8"?>
<svg xmlns="http://www.w3.org/2000/svg" xmlns:xlink="http://www.w3.org/1999/xlink" width="37pt" height="25pt" viewBox="0 0 37 25" version="1.1">
<defs>
<clipPath id="clip1">
  <path d="M 0 0.265625 L 36 0.265625 L 36 24.941406 L 0 24.941406 L 0 0.265625 Z M 0 0.265625 "/>
</clipPath>
</defs>
<g id="surface0">
<g clip-path="url(#clip1)" clip-rule="nonzero">
<path style=" stroke:none;fill-rule:nonzero;fill:#B5BF00;fill-opacity:1;" d="M 36.320312 7.488281 C 36.320312 11.367188 28.234375 14.511719 18.261719 14.511719 C 8.285156 14.511719 0.199219 11.367188 0.199219 7.488281 L 0.199219 17.777344 C 0.199219 21.65625 8.285156 24.800781 18.261719 24.800781 C 28.234375 24.800781 36.320312 21.65625 36.320312 17.777344 L 36.320312 7.488281 "/>
<path style="fill:none;stroke-width:0.4;stroke-linecap:butt;stroke-linejoin:miter;stroke:#FFFFFF;stroke-opacity:1;stroke-miterlimit:4;" d="M 36.320312 17.511719 C 36.320312 13.632812 28.234375 10.488281 18.261719 10.488281 C 8.285156 10.488281 0.199219 13.632812 0.199219 17.511719 L 0.199219 7.222656 C 0.199219 3.34375 8.285156 0.199219 18.261719 0.199219 C 28.234375 0.199219 36.320312 3.34375 36.320312 7.222656 L 36.320312 17.511719 Z M 36.320312 17.511719 " transform="matrix(1,0,0,-1,0,25)"/>
<path style=" stroke:none;fill-rule:nonzero;fill:#B5BF00;fill-opacity:1;" d="M 36.320312 7.488281 C 36.320312 11.367188 28.234375 14.511719 18.261719 14.511719 C 8.285156 14.511719 0.199219 11.367188 0.199219 7.488281 L 0.199219 17.777344 C 0.199219 21.65625 8.285156 24.800781 18.261719 24.800781 C 28.234375 24.800781 36.320312 21.65625 36.320312 17.777344 L 36.320312 7.488281 "/>
<path style="fill:none;stroke-width:0.4;stroke-linecap:butt;stroke-linejoin:miter;stroke:#FFFFFF;stroke-opacity:1;stroke-miterlimit:4;" d="M 36.320312 17.511719 C 36.320312 13.632812 28.234375 10.488281 18.261719 10.488281 C 8.285156 10.488281 0.199219 13.632812 0.199219 17.511719 L 0.199219 7.222656 C 0.199219 3.34375 8.285156 0.199219 18.261719 0.199219 C 28.234375 0.199219 36.320312 3.34375 36.320312 7.222656 L 36.320312 17.511719 Z M 36.320312 17.511719 " transform="matrix(1,0,0,-1,0,25)"/>
<path style=" stroke:none;fill-rule:nonzero;fill:#B5BF00;fill-opacity:1;" d="M 18.261719 14.511719 C 28.234375 14.511719 36.320312 11.367188 36.320312 7.488281 C 36.320312 3.609375 28.234375 0.464844 18.261719 0.464844 C 8.285156 0.464844 0.199219 3.609375 0.199219 7.488281 C 0.199219 11.367188 8.285156 14.511719 18.261719 14.511719 "/>
<path style="fill:none;stroke-width:0.4;stroke-linecap:butt;stroke-linejoin:miter;stroke:#FFFFFF;stroke-opacity:1;stroke-miterlimit:4;" d="M 18.261719 10.488281 C 28.234375 10.488281 36.320312 13.632812 36.320312 17.511719 C 36.320312 21.390625 28.234375 24.535156 18.261719 24.535156 C 8.285156 24.535156 0.199219 21.390625 0.199219 17.511719 C 0.199219 13.632812 8.285156 10.488281 18.261719 10.488281 Z M 18.261719 10.488281 " transform="matrix(1,0,0,-1,0,25)"/>
</g>
<path style=" stroke:none;fill-rule:nonzero;fill:#FFFFFF;fill-opacity:1;" d="M 12.929688 11.386719 L 12.929688 2.273438 L 21.628906 6.679688 L 12.929688 11.386719 "/>
<path style=" stroke:none;fill-rule:nonzero;fill:#FFFFFF;fill-opacity:1;" d="M 21.773438 2.535156 L 24.476562 2.535156 L 24.476562 10.972656 L 21.773438 10.972656 L 21.773438 2.535156 Z M 21.773438 2.535156 "/>
</g>
</svg>
