<?xml version="1.0" encoding="UTF-8"?>
<svg xmlns="http://www.w3.org/2000/svg" xmlns:xlink="http://www.w3.org/1999/xlink" width="34pt" height="39pt" viewBox="0 0 34 39" version="1.1">
<defs>
<clipPath id="clip1">
  <path d="M 0.0585938 0.550781 L 33 0.550781 L 33 38.550781 L 0.0585938 38.550781 L 0.0585938 0.550781 Z M 0.0585938 0.550781 "/>
</clipPath>
<clipPath id="clip2">
  <path d="M 0.0585938 0.550781 L 33 0.550781 L 33 38.550781 L 0.0585938 38.550781 L 0.0585938 0.550781 Z M 0.0585938 0.550781 "/>
</clipPath>
<clipPath id="clip3">
  <path d="M 0.0585938 0.550781 L 33 0.550781 L 33 38.550781 L 0.0585938 38.550781 L 0.0585938 0.550781 Z M 0.0585938 0.550781 "/>
</clipPath>
</defs>
<g id="surface0">
<path style=" stroke:none;fill-rule:nonzero;fill:#FF5A00;fill-opacity:1;" d="M 12.28125 5.160156 C 12.28125 7.601562 10.304688 9.578125 7.859375 9.578125 C 5.417969 9.578125 3.441406 7.601562 3.441406 5.160156 C 3.441406 2.714844 5.417969 0.738281 7.859375 0.738281 C 10.304688 0.738281 12.28125 2.714844 12.28125 5.160156 "/>
<g clip-path="url(#clip1)" clip-rule="nonzero">
<path style="fill:none;stroke-width:0.4;stroke-linecap:butt;stroke-linejoin:miter;stroke:#FFFFFF;stroke-opacity:1;stroke-miterlimit:4;" d="M 12.28125 33.839844 C 12.28125 31.398438 10.304688 29.421875 7.859375 29.421875 C 5.417969 29.421875 3.441406 31.398438 3.441406 33.839844 C 3.441406 36.285156 5.417969 38.261719 7.859375 38.261719 C 10.304688 38.261719 12.28125 36.285156 12.28125 33.839844 Z M 12.28125 33.839844 " transform="matrix(1,0,0,-1,0,39)"/>
<path style=" stroke:none;fill-rule:nonzero;fill:#FF5A00;fill-opacity:1;" d="M 14.710938 19.253906 L 33 19.253906 L 33 38.550781 L 14.710938 38.550781 L 14.710938 19.253906 Z M 14.710938 19.253906 "/>
<path style="fill:none;stroke-width:0.4;stroke-linecap:butt;stroke-linejoin:miter;stroke:#FFFFFF;stroke-opacity:1;stroke-miterlimit:4;" d="M 14.710938 19.746094 L 33.097656 19.746094 L 33.097656 0.199219 L 14.710938 0.199219 L 14.710938 19.746094 Z M 14.710938 19.746094 " transform="matrix(1,0,0,-1,0,39)"/>
</g>
<path style="fill-rule:nonzero;fill:#FF5A00;fill-opacity:1;stroke-width:0.4;stroke-linecap:butt;stroke-linejoin:miter;stroke:#FFFFFF;stroke-opacity:1;stroke-miterlimit:4;" d="M 21.144531 22.238281 L 31.84375 22.238281 L 31.84375 19.800781 L 21.144531 19.800781 L 21.144531 22.238281 Z M 21.144531 22.238281 " transform="matrix(1,0,0,-1,0,39)"/>
<path style=" stroke:none;fill-rule:nonzero;fill:#FF5A00;fill-opacity:1;" d="M 29.675781 10.542969 L 29.675781 16.761719 L 21.347656 16.761719 L 21.347656 8.4375 L 28.699219 9.394531 C 28.699219 9.394531 29.695312 9.492188 29.675781 10.542969 "/>
<path style="fill:none;stroke-width:0.4;stroke-linecap:butt;stroke-linejoin:miter;stroke:#FFFFFF;stroke-opacity:1;stroke-miterlimit:4;" d="M 29.675781 28.457031 L 29.675781 22.238281 L 21.347656 22.238281 L 21.347656 30.5625 L 28.699219 29.605469 C 28.699219 29.605469 29.695312 29.507812 29.675781 28.457031 Z M 29.675781 28.457031 " transform="matrix(1,0,0,-1,0,39)"/>
<g clip-path="url(#clip2)" clip-rule="nonzero">
<path style=" stroke:none;fill-rule:nonzero;fill:#FF5A00;fill-opacity:1;" d="M 13.617188 36.273438 L 8.539062 36.273438 L 8.539062 30.269531 L 5.992188 30.269531 L 5.992188 36.273438 L 0.992188 36.273438 C 0.554688 36.273438 0.199219 36.628906 0.199219 37.070312 L 0.199219 37.996094 C 0.199219 38.4375 0.554688 38.792969 0.992188 38.792969 L 13.617188 38.792969 C 14.054688 38.792969 14.410156 38.4375 14.410156 37.996094 L 14.410156 37.070312 C 14.410156 36.628906 14.054688 36.273438 13.617188 36.273438 "/>
<path style="fill:none;stroke-width:0.4;stroke-linecap:butt;stroke-linejoin:miter;stroke:#FFFFFF;stroke-opacity:1;stroke-miterlimit:4;" d="M 13.617188 2.726562 L 8.539062 2.726562 L 8.539062 8.730469 L 5.992188 8.730469 L 5.992188 2.726562 L 0.992188 2.726562 C 0.554688 2.726562 0.199219 2.371094 0.199219 1.929688 L 0.199219 1.003906 C 0.199219 0.5625 0.554688 0.207031 0.992188 0.207031 L 13.617188 0.207031 C 14.054688 0.207031 14.410156 0.5625 14.410156 1.003906 L 14.410156 1.929688 C 14.410156 2.371094 14.054688 2.726562 13.617188 2.726562 Z M 13.617188 2.726562 " transform="matrix(1,0,0,-1,0,39)"/>
</g>
<path style=" stroke:none;fill-rule:nonzero;fill:#FF5A00;fill-opacity:1;" d="M 13.839844 27.464844 L 3.371094 27.464844 L 3.371094 12.59375 C 3.371094 12.109375 2.980469 11.71875 2.496094 11.71875 L 1.472656 11.71875 C 0.988281 11.71875 0.597656 12.109375 0.597656 12.59375 L 0.597656 29.363281 C 0.597656 29.847656 0.988281 30.238281 1.472656 30.238281 L 13.839844 30.238281 C 14.324219 30.238281 14.714844 29.847656 14.714844 29.363281 L 14.714844 28.339844 C 14.714844 27.855469 14.324219 27.464844 13.839844 27.464844 "/>
<g clip-path="url(#clip3)" clip-rule="nonzero">
<path style="fill:none;stroke-width:0.4;stroke-linecap:butt;stroke-linejoin:miter;stroke:#FFFFFF;stroke-opacity:1;stroke-miterlimit:4;" d="M 13.839844 11.535156 L 3.371094 11.535156 L 3.371094 26.40625 C 3.371094 26.890625 2.980469 27.28125 2.496094 27.28125 L 1.472656 27.28125 C 0.988281 27.28125 0.597656 26.890625 0.597656 26.40625 L 0.597656 9.636719 C 0.597656 9.152344 0.988281 8.761719 1.472656 8.761719 L 13.839844 8.761719 C 14.324219 8.761719 14.714844 9.152344 14.714844 9.636719 L 14.714844 10.660156 C 14.714844 11.144531 14.324219 11.535156 13.839844 11.535156 Z M 13.839844 11.535156 " transform="matrix(1,0,0,-1,0,39)"/>
</g>
<path style=" stroke:none;fill-rule:nonzero;fill:#FF5A00;fill-opacity:1;" d="M 11.382812 10.53125 L 19.414062 16.355469 C 19.757812 16.652344 19.972656 17.089844 19.972656 17.574219 C 19.972656 18.464844 19.25 19.1875 18.359375 19.1875 C 18.089844 19.1875 17.730469 19.097656 17.445312 18.9375 L 10.722656 14.78125 L 10.722656 22.328125 L 14.519531 22.347656 L 14.519531 27.203125 L 3.777344 27.183594 L 3.777344 11.164062 C 3.777344 11.164062 3.847656 9.894531 5.929688 9.894531 L 9.796875 9.894531 C 9.796875 9.894531 10.53125 9.929688 11.382812 10.53125 "/>
<path style="fill:none;stroke-width:0.4;stroke-linecap:butt;stroke-linejoin:miter;stroke:#FFFFFF;stroke-opacity:1;stroke-miterlimit:4;" d="M 11.382812 28.46875 L 19.414062 22.644531 C 19.757812 22.347656 19.972656 21.910156 19.972656 21.425781 C 19.972656 20.535156 19.25 19.8125 18.359375 19.8125 C 18.089844 19.8125 17.730469 19.902344 17.445312 20.0625 L 10.722656 24.21875 L 10.722656 16.671875 L 14.519531 16.652344 L 14.519531 11.796875 L 3.777344 11.816406 L 3.777344 27.835938 C 3.777344 27.835938 3.847656 29.105469 5.929688 29.105469 L 9.796875 29.105469 C 9.796875 29.105469 10.53125 29.070312 11.382812 28.46875 Z M 11.382812 28.46875 " transform="matrix(1,0,0,-1,0,39)"/>
</g>
</svg>
