<?xml version="1.0" encoding="UTF-8"?>
<svg xmlns="http://www.w3.org/2000/svg" xmlns:xlink="http://www.w3.org/1999/xlink" width="36pt" height="31pt" viewBox="0 0 36 31" version="1.1">
<defs>
<clipPath id="clip1">
  <path d="M 0 0.679688 L 36 0.679688 L 36 30.679688 L 0 30.679688 L 0 0.679688 Z M 0 0.679688 "/>
</clipPath>
<clipPath id="clip2">
  <path d="M 0 0.679688 L 36 0.679688 L 36 30.679688 L 0 30.679688 L 0 0.679688 Z M 0 0.679688 "/>
</clipPath>
<clipPath id="clip3">
  <path d="M 0 0.679688 L 36 0.679688 L 36 30.679688 L 0 30.679688 L 0 0.679688 Z M 0 0.679688 "/>
</clipPath>
<clipPath id="clip4">
  <path d="M 0 0.679688 L 36 0.679688 L 36 30.679688 L 0 30.679688 L 0 0.679688 Z M 0 0.679688 "/>
</clipPath>
<clipPath id="clip5">
  <path d="M 0 0.679688 L 36 0.679688 L 36 30.679688 L 0 30.679688 L 0 0.679688 Z M 0 0.679688 "/>
</clipPath>
<clipPath id="clip6">
  <path d="M 0 0.679688 L 36 0.679688 L 36 30.679688 L 0 30.679688 L 0 0.679688 Z M 0 0.679688 "/>
</clipPath>
<clipPath id="clip7">
  <path d="M 0 0.679688 L 36 0.679688 L 36 30.679688 L 0 30.679688 L 0 0.679688 Z M 0 0.679688 "/>
</clipPath>
<clipPath id="clip8">
  <path d="M 0 0.679688 L 36 0.679688 L 36 30.679688 L 0 30.679688 L 0 0.679688 Z M 0 0.679688 "/>
</clipPath>
</defs>
<g id="surface0">
<g clip-path="url(#clip1)" clip-rule="nonzero">
<path style="fill:none;stroke-width:0.4;stroke-linecap:round;stroke-linejoin:round;stroke:#000000;stroke-opacity:1;stroke-miterlimit:4;" d="M 32.625 4.789062 C 33.03125 5.277344 30.808594 5.941406 33.3125 6.351562 C 34.910156 6.613281 39.75 9.460938 28.398438 9.609375 " transform="matrix(1,0,0,-1,0,31)"/>
</g>
<path style="fill-rule:nonzero;fill:#FF5A00;fill-opacity:1;stroke-width:0.4;stroke-linecap:butt;stroke-linejoin:miter;stroke:#FFFFFF;stroke-opacity:1;stroke-miterlimit:4;" d="M 6.65625 8.390625 L 25.007812 8.390625 L 25.007812 5.621094 L 6.65625 5.621094 L 6.65625 8.390625 Z M 6.65625 8.390625 " transform="matrix(1,0,0,-1,0,31)"/>
<path style=" stroke:none;fill-rule:nonzero;fill:#FF5A00;fill-opacity:1;" d="M 24.988281 25.390625 L 24.988281 22.609375 L 28.691406 18.839844 L 28.691406 21.6875 L 24.988281 25.390625 "/>
<path style="fill:none;stroke-width:0.4;stroke-linecap:butt;stroke-linejoin:miter;stroke:#FFFFFF;stroke-opacity:1;stroke-miterlimit:4;" d="M 24.988281 5.609375 L 24.988281 8.390625 L 28.691406 12.160156 L 28.691406 9.3125 L 24.988281 5.609375 Z M 24.988281 5.609375 " transform="matrix(1,0,0,-1,0,31)"/>
<path style="fill-rule:nonzero;fill:#FF5A00;fill-opacity:1;stroke-width:0.4;stroke-linecap:butt;stroke-linejoin:miter;stroke:#FFFFFF;stroke-opacity:1;stroke-miterlimit:4;" d="M 6.65625 8.390625 L 25.007812 8.390625 L 25.007812 5.121094 L 6.65625 5.121094 L 6.65625 8.390625 Z M 6.65625 8.390625 " transform="matrix(1,0,0,-1,0,31)"/>
<path style=" stroke:none;fill-rule:nonzero;fill:#FF5A00;fill-opacity:1;" d="M 24.988281 25.890625 L 24.988281 22.609375 L 28.691406 18.839844 L 28.691406 22.1875 L 24.988281 25.890625 "/>
<path style="fill:none;stroke-width:0.4;stroke-linecap:butt;stroke-linejoin:miter;stroke:#FFFFFF;stroke-opacity:1;stroke-miterlimit:4;" d="M 24.988281 5.109375 L 24.988281 8.390625 L 28.691406 12.160156 L 28.691406 8.8125 L 24.988281 5.109375 Z M 24.988281 5.109375 " transform="matrix(1,0,0,-1,0,31)"/>
<path style=" stroke:none;fill-rule:nonzero;fill:#FF5A00;fill-opacity:1;" d="M 29.976562 18.339844 L 27.382812 22.105469 L 4.542969 22.105469 L 8.21875 18.339844 L 29.976562 18.339844 "/>
<path style="fill:none;stroke-width:0.4;stroke-linecap:butt;stroke-linejoin:miter;stroke:#FFFFFF;stroke-opacity:1;stroke-miterlimit:4;" d="M 29.976562 12.660156 L 27.382812 8.894531 L 4.542969 8.894531 L 8.21875 12.660156 L 29.976562 12.660156 Z M 29.976562 12.660156 " transform="matrix(1,0,0,-1,0,31)"/>
<path style="fill-rule:nonzero;fill:#FF5A00;fill-opacity:1;stroke-width:0.4;stroke-linecap:butt;stroke-linejoin:miter;stroke:#FFFFFF;stroke-opacity:1;stroke-miterlimit:4;" d="M 4.488281 8.894531 L 26.339844 8.894531 L 26.339844 7.621094 L 4.488281 7.621094 L 4.488281 8.894531 Z M 4.488281 8.894531 " transform="matrix(1,0,0,-1,0,31)"/>
<path style=" stroke:none;fill-rule:nonzero;fill:#FF5A00;fill-opacity:1;" d="M 26.320312 23.390625 L 26.320312 22.105469 L 30.023438 18.339844 L 30.023438 19.6875 L 26.320312 23.390625 "/>
<path style="fill:none;stroke-width:0.4;stroke-linecap:butt;stroke-linejoin:miter;stroke:#FFFFFF;stroke-opacity:1;stroke-miterlimit:4;" d="M 26.320312 7.609375 L 26.320312 8.894531 L 30.023438 12.660156 L 30.023438 11.3125 L 26.320312 7.609375 Z M 26.320312 7.609375 " transform="matrix(1,0,0,-1,0,31)"/>
<path style=" stroke:none;fill-rule:nonzero;fill:#FF5A00;fill-opacity:1;" d="M 29.976562 18.339844 L 27.382812 22.105469 L 4.542969 22.105469 L 8.21875 18.339844 L 29.976562 18.339844 "/>
<path style="fill:none;stroke-width:0.4;stroke-linecap:butt;stroke-linejoin:miter;stroke:#FFFFFF;stroke-opacity:1;stroke-miterlimit:4;" d="M 29.976562 12.660156 L 27.382812 8.894531 L 4.542969 8.894531 L 8.21875 12.660156 L 29.976562 12.660156 Z M 29.976562 12.660156 " transform="matrix(1,0,0,-1,0,31)"/>
<path style="fill-rule:nonzero;fill:#FF5A00;fill-opacity:1;stroke-width:0.4;stroke-linecap:butt;stroke-linejoin:miter;stroke:#FFFFFF;stroke-opacity:1;stroke-miterlimit:4;" d="M 4.488281 8.894531 L 26.339844 8.894531 L 26.339844 7.621094 L 4.488281 7.621094 L 4.488281 8.894531 Z M 4.488281 8.894531 " transform="matrix(1,0,0,-1,0,31)"/>
<path style=" stroke:none;fill-rule:nonzero;fill:#FF5A00;fill-opacity:1;" d="M 26.320312 23.390625 L 26.320312 22.105469 L 30.023438 18.339844 L 30.023438 19.6875 L 26.320312 23.390625 "/>
<path style="fill:none;stroke-width:0.4;stroke-linecap:butt;stroke-linejoin:miter;stroke:#FFFFFF;stroke-opacity:1;stroke-miterlimit:4;" d="M 26.320312 7.609375 L 26.320312 8.894531 L 30.023438 12.660156 L 30.023438 11.3125 L 26.320312 7.609375 Z M 26.320312 7.609375 " transform="matrix(1,0,0,-1,0,31)"/>
<path style=" stroke:none;fill-rule:nonzero;fill:#FF5A00;fill-opacity:1;" d="M 30.09375 1.007812 L 10.359375 1.007812 L 4.585938 2.367188 L 27.445312 2.367188 L 30.09375 1.007812 "/>
<g clip-path="url(#clip2)" clip-rule="nonzero">
<path style="fill:none;stroke-width:0.4;stroke-linecap:butt;stroke-linejoin:miter;stroke:#FFFFFF;stroke-opacity:1;stroke-miterlimit:4;" d="M 30.09375 29.992188 L 10.359375 29.992188 L 4.585938 28.632812 L 27.445312 28.632812 L 30.09375 29.992188 Z M 30.09375 29.992188 " transform="matrix(1,0,0,-1,0,31)"/>
</g>
<path style=" stroke:none;fill-rule:nonzero;fill:#FF5A00;fill-opacity:1;" d="M 26.457031 20.507812 L 25.445312 19.675781 L 6.90625 19.675781 L 7.882812 20.507812 L 26.457031 20.507812 "/>
<path style="fill:none;stroke-width:0.4;stroke-linecap:butt;stroke-linejoin:miter;stroke:#FFFFFF;stroke-opacity:1;stroke-miterlimit:4;" d="M 26.457031 10.492188 L 25.445312 11.324219 L 6.90625 11.324219 L 7.882812 10.492188 L 26.457031 10.492188 Z M 26.457031 10.492188 " transform="matrix(1,0,0,-1,0,31)"/>
<path style=" stroke:none;fill-rule:nonzero;fill:#FF5A00;fill-opacity:1;" d="M 26.570312 20.363281 L 25.292969 19.507812 L 30.019531 17.007812 L 26.976562 20.019531 L 26.570312 20.363281 "/>
<path style="fill:none;stroke-width:0.4;stroke-linecap:butt;stroke-linejoin:miter;stroke:#FFFFFF;stroke-opacity:1;stroke-miterlimit:4;" d="M 26.570312 10.636719 L 25.292969 11.492188 L 30.019531 13.992188 L 26.976562 10.980469 L 26.570312 10.636719 Z M 26.570312 10.636719 " transform="matrix(1,0,0,-1,0,31)"/>
<path style=" stroke:none;fill-rule:nonzero;fill:#FF5A00;fill-opacity:1;" d="M 27.445312 2.367188 L 27.445312 19.414062 L 30.09375 16.949219 L 30.09375 1.007812 L 27.445312 2.367188 "/>
<g clip-path="url(#clip3)" clip-rule="nonzero">
<path style="fill:none;stroke-width:0.4;stroke-linecap:butt;stroke-linejoin:miter;stroke:#FFFFFF;stroke-opacity:1;stroke-miterlimit:4;" d="M 27.445312 28.632812 L 27.445312 11.585938 L 30.09375 14.050781 L 30.09375 29.992188 L 27.445312 28.632812 Z M 27.445312 28.632812 " transform="matrix(1,0,0,-1,0,31)"/>
</g>
<path style=" stroke:none;fill-rule:nonzero;fill:#FF5A00;fill-opacity:1;" d="M 4.585938 2.367188 L 27.445312 2.367188 L 27.445312 19.601562 L 4.585938 19.601562 L 4.585938 2.367188 Z M 4.585938 2.367188 "/>
<path style="fill:none;stroke-width:0.4;stroke-linecap:butt;stroke-linejoin:miter;stroke:#FFFFFF;stroke-opacity:1;stroke-miterlimit:4;" d="M 4.585938 11.398438 L 27.445312 11.398438 L 27.445312 28.632812 L 4.585938 28.632812 L 4.585938 11.398438 Z M 4.585938 11.398438 " transform="matrix(1,0,0,-1,0,31)"/>
<path style=" stroke:none;fill-rule:nonzero;fill:#FF5A00;fill-opacity:1;" d="M 25.523438 30.351562 L 25.523438 29.023438 L 28.382812 25.070312 L 28.382812 27.492188 L 25.523438 30.351562 "/>
<g clip-path="url(#clip4)" clip-rule="nonzero">
<path style="fill:none;stroke-width:0.4;stroke-linecap:butt;stroke-linejoin:miter;stroke:#FFFFFF;stroke-opacity:1;stroke-miterlimit:4;" d="M 25.523438 0.648438 L 25.523438 1.976562 L 28.382812 5.929688 L 28.382812 3.507812 L 25.523438 0.648438 Z M 25.523438 0.648438 " transform="matrix(1,0,0,-1,0,31)"/>
</g>
<path style=" stroke:none;fill-rule:nonzero;fill:#FF5A00;fill-opacity:1;" d="M 0.308594 29.046875 L 25.523438 29.046875 L 25.523438 30.351562 L 0.308594 30.351562 L 0.308594 29.046875 Z M 0.308594 29.046875 "/>
<g clip-path="url(#clip5)" clip-rule="nonzero">
<path style="fill:none;stroke-width:0.4;stroke-linecap:butt;stroke-linejoin:miter;stroke:#FFFFFF;stroke-opacity:1;stroke-miterlimit:4;" d="M 0.308594 1.953125 L 25.523438 1.953125 L 25.523438 0.648438 L 0.308594 0.648438 L 0.308594 1.953125 Z M 0.308594 1.953125 " transform="matrix(1,0,0,-1,0,31)"/>
</g>
<path style=" stroke:none;fill-rule:nonzero;fill:#FF5A00;fill-opacity:1;" d="M 32.691406 29.304688 L 34.367188 25.960938 L 30.542969 25.960938 L 28.871094 29.304688 L 32.691406 29.304688 "/>
<path style="fill:none;stroke-width:0.4;stroke-linecap:butt;stroke-linejoin:miter;stroke:#FFFFFF;stroke-opacity:1;stroke-miterlimit:4;" d="M 32.691406 1.695312 L 34.367188 5.039062 L 30.542969 5.039062 L 28.871094 1.695312 L 32.691406 1.695312 Z M 32.691406 1.695312 " transform="matrix(1,0,0,-1,0,31)"/>
<path style=" stroke:none;fill-rule:nonzero;fill:#FF5A00;fill-opacity:1;" d="M 28.871094 29.304688 L 32.691406 29.304688 L 32.691406 30.382812 L 28.871094 30.382812 L 28.871094 29.304688 Z M 28.871094 29.304688 "/>
<g clip-path="url(#clip6)" clip-rule="nonzero">
<path style="fill:none;stroke-width:0.4;stroke-linecap:butt;stroke-linejoin:miter;stroke:#FFFFFF;stroke-opacity:1;stroke-miterlimit:4;" d="M 28.871094 1.695312 L 32.691406 1.695312 L 32.691406 0.617188 L 28.871094 0.617188 L 28.871094 1.695312 Z M 28.871094 1.695312 " transform="matrix(1,0,0,-1,0,31)"/>
</g>
<path style=" stroke:none;fill-rule:nonzero;fill:#FF5A00;fill-opacity:1;" d="M 32.664062 30.410156 L 32.671875 29.304688 L 34.34375 25.960938 L 34.335938 28.261719 L 32.664062 30.410156 "/>
<g clip-path="url(#clip7)" clip-rule="nonzero">
<path style="fill:none;stroke-width:0.4;stroke-linecap:butt;stroke-linejoin:miter;stroke:#FFFFFF;stroke-opacity:1;stroke-miterlimit:4;" d="M 32.664062 0.589844 L 32.671875 1.695312 L 34.34375 5.039062 L 34.335938 2.738281 L 32.664062 0.589844 Z M 32.664062 0.589844 " transform="matrix(1,0,0,-1,0,31)"/>
</g>
<path style=" stroke:none;fill-rule:nonzero;fill:#FF5A00;fill-opacity:1;" d="M 25.523438 29.046875 L 0.390625 29.046875 L 3.25 25.070312 L 28.382812 25.070312 L 25.523438 29.046875 "/>
<g clip-path="url(#clip8)" clip-rule="nonzero">
<path style="fill:none;stroke-width:0.4;stroke-linecap:butt;stroke-linejoin:miter;stroke:#FFFFFF;stroke-opacity:1;stroke-miterlimit:4;" d="M 25.523438 1.953125 L 0.390625 1.953125 L 3.25 5.929688 L 28.382812 5.929688 L 25.523438 1.953125 Z M 25.523438 1.953125 " transform="matrix(1,0,0,-1,0,31)"/>
</g>
<path style=" stroke:none;fill-rule:nonzero;fill:#FF5A00;fill-opacity:1;" d="M 7.90625 4.164062 L 23.960938 4.164062 C 25.003906 4.164062 25.851562 5.011719 25.851562 6.058594 L 25.851562 16.199219 C 25.851562 17.242188 25.003906 18.09375 23.960938 18.09375 L 7.90625 18.09375 C 6.859375 18.09375 6.015625 17.242188 6.015625 16.199219 L 6.015625 6.058594 C 6.015625 5.011719 6.859375 4.164062 7.90625 4.164062 "/>
<path style="fill:none;stroke-width:0.4;stroke-linecap:butt;stroke-linejoin:miter;stroke:#FFFFFF;stroke-opacity:1;stroke-miterlimit:4;" d="M 7.90625 26.835938 L 23.960938 26.835938 C 25.003906 26.835938 25.851562 25.988281 25.851562 24.941406 L 25.851562 14.800781 C 25.851562 13.757812 25.003906 12.90625 23.960938 12.90625 L 7.90625 12.90625 C 6.859375 12.90625 6.015625 13.757812 6.015625 14.800781 L 6.015625 24.941406 C 6.015625 25.988281 6.859375 26.835938 7.90625 26.835938 Z M 7.90625 26.835938 " transform="matrix(1,0,0,-1,0,31)"/>
</g>
</svg>
