<?xml version="1.0" encoding="UTF-8"?>
<svg xmlns="http://www.w3.org/2000/svg" xmlns:xlink="http://www.w3.org/1999/xlink" width="38pt" height="26pt" viewBox="0 0 38 26" version="1.1">
<defs>
<clipPath id="clip1">
  <path d="M 0.0585938 0.738281 L 37.261719 0.738281 L 37.261719 26 L 0.0585938 26 L 0.0585938 0.738281 Z M 0.0585938 0.738281 "/>
</clipPath>
<clipPath id="clip2">
  <path d="M 0.0585938 0.738281 L 37.261719 0.738281 L 37.261719 26 L 0.0585938 26 L 0.0585938 0.738281 Z M 0.0585938 0.738281 "/>
</clipPath>
</defs>
<g id="surface0">
<path style=" stroke:none;fill-rule:evenodd;fill:#FF5A00;fill-opacity:1;" d="M 37.023438 8.132812 C 37.023438 12.082031 28.789062 15.285156 18.632812 15.285156 C 8.472656 15.285156 0.238281 12.082031 0.238281 8.132812 L 0.238281 18.609375 C 0.238281 22.558594 8.472656 25.761719 18.632812 25.761719 C 28.789062 25.761719 37.023438 22.558594 37.023438 18.609375 L 37.023438 8.132812 "/>
<path style=" stroke:none;fill-rule:evenodd;fill:#FF5A00;fill-opacity:1;" d="M 18.632812 15.285156 C 28.789062 15.285156 37.023438 12.082031 37.023438 8.132812 C 37.023438 4.179688 28.789062 0.976562 18.632812 0.976562 C 8.472656 0.976562 0.238281 4.179688 0.238281 8.132812 C 0.238281 12.082031 8.472656 15.285156 18.632812 15.285156 "/>
<g clip-path="url(#clip1)" clip-rule="nonzero">
<path style="fill:none;stroke-width:0.477;stroke-linecap:square;stroke-linejoin:bevel;stroke:#FFD5BF;stroke-opacity:1;stroke-miterlimit:10;" d="M 37.023438 17.867188 C 37.023438 13.917969 28.789062 10.714844 18.632812 10.714844 C 8.472656 10.714844 0.238281 13.917969 0.238281 17.867188 L 0.238281 7.390625 C 0.238281 3.441406 8.472656 0.238281 18.632812 0.238281 C 28.789062 0.238281 37.023438 3.441406 37.023438 7.390625 L 37.023438 17.867188 Z M 18.632812 10.714844 C 28.789062 10.714844 37.023438 13.917969 37.023438 17.867188 C 37.023438 21.820312 28.789062 25.023438 18.632812 25.023438 C 8.472656 25.023438 0.238281 21.820312 0.238281 17.867188 C 0.238281 13.917969 8.472656 10.714844 18.632812 10.714844 Z M 18.632812 10.714844 " transform="matrix(1,0,0,-1,0,26)"/>
</g>
<path style=" stroke:none;fill-rule:nonzero;fill:#FFFFFF;fill-opacity:1;" d="M 14.429688 5.335938 L 15.949219 7.609375 L 10.207031 8.9375 L 11.460938 7.894531 L 2.585938 6.378906 L 4.8125 4.710938 L 13.375 6.160156 L 14.429688 5.335938 "/>
<path style=" stroke:none;fill-rule:nonzero;fill:#FFFFFF;fill-opacity:1;" d="M 22.511719 10.859375 L 21.472656 8.511719 L 26.652344 7.476562 L 25.757812 8.277344 L 34.390625 9.753906 L 32.316406 11.410156 L 23.738281 9.800781 L 22.511719 10.859375 "/>
<path style=" stroke:none;fill-rule:nonzero;fill:#FFFFFF;fill-opacity:1;" d="M 19.679688 4.089844 L 25.480469 2.503906 L 25.550781 4.988281 L 24.097656 4.710938 L 21.265625 7.058594 L 18.566406 6.664062 L 21.488281 4.367188 L 19.679688 4.089844 "/>
<path style=" stroke:none;fill-rule:nonzero;fill:#FFFFFF;fill-opacity:1;" d="M 17.191406 13 L 11.667969 14.035156 L 11.460938 11.480469 L 13.050781 11.824219 L 16.089844 9.230469 L 18.78125 9.683594 L 15.535156 12.515625 L 17.191406 13 "/>
<path style=" stroke:none;fill-rule:evenodd;fill:#FF5A00;fill-opacity:1;" d="M 10.449219 16.714844 L 26.96875 16.714844 L 26.96875 23.972656 L 10.449219 23.972656 L 10.449219 16.714844 Z M 10.449219 16.714844 "/>
<g clip-path="url(#clip2)" clip-rule="nonzero">
<path style="fill:none;stroke-width:0.716;stroke-linecap:square;stroke-linejoin:miter;stroke:#FFAC7F;stroke-opacity:1;stroke-miterlimit:10;" d="M 10.449219 9.285156 L 26.96875 9.285156 L 26.96875 2.027344 L 10.449219 2.027344 L 10.449219 9.285156 Z M 10.449219 9.285156 " transform="matrix(1,0,0,-1,0,26)"/>
</g>
<path style="fill-rule:evenodd;fill:#FFFFFF;fill-opacity:1;stroke-width:0.239;stroke-linecap:square;stroke-linejoin:miter;stroke:#FFFFFF;stroke-opacity:1;stroke-miterlimit:10;" d="M 23.15625 7.328125 L 25.402344 7.328125 L 25.402344 4.1875 L 23.15625 4.1875 L 23.15625 7.328125 Z M 23.15625 7.328125 " transform="matrix(1,0,0,-1,0,26)"/>
<path style="fill-rule:evenodd;fill:#FFFFFF;fill-opacity:1;stroke-width:0.239;stroke-linecap:square;stroke-linejoin:miter;stroke:#FFFFFF;stroke-opacity:1;stroke-miterlimit:10;" d="M 25.402344 8.796875 L 26.089844 8.796875 L 26.089844 8.214844 L 25.402344 8.214844 L 25.402344 8.796875 Z M 25.402344 8.796875 " transform="matrix(1,0,0,-1,0,26)"/>
<path style="fill-rule:evenodd;fill:#FFFFFF;fill-opacity:1;stroke-width:0.239;stroke-linecap:square;stroke-linejoin:miter;stroke:#FFFFFF;stroke-opacity:1;stroke-miterlimit:10;" d="M 24.035156 8.796875 L 24.71875 8.796875 L 24.71875 8.214844 L 24.035156 8.214844 L 24.035156 8.796875 Z M 24.035156 8.796875 " transform="matrix(1,0,0,-1,0,26)"/>
<path style="fill-rule:evenodd;fill:#FFFFFF;fill-opacity:1;stroke-width:0.239;stroke-linecap:square;stroke-linejoin:miter;stroke:#FFFFFF;stroke-opacity:1;stroke-miterlimit:10;" d="M 22.667969 8.796875 L 23.351562 8.796875 L 23.351562 8.214844 L 22.667969 8.214844 L 22.667969 8.796875 Z M 22.667969 8.796875 " transform="matrix(1,0,0,-1,0,26)"/>
<path style="fill-rule:evenodd;fill:#FFFFFF;fill-opacity:1;stroke-width:0.239;stroke-linecap:square;stroke-linejoin:miter;stroke:#FFFFFF;stroke-opacity:1;stroke-miterlimit:10;" d="M 21.398438 8.796875 L 21.984375 8.796875 L 21.984375 8.214844 L 21.398438 8.214844 L 21.398438 8.796875 Z M 21.398438 8.796875 " transform="matrix(1,0,0,-1,0,26)"/>
<path style="fill-rule:evenodd;fill:#FFFFFF;fill-opacity:1;stroke-width:0.239;stroke-linecap:square;stroke-linejoin:miter;stroke:#FFFFFF;stroke-opacity:1;stroke-miterlimit:10;" d="M 20.027344 8.796875 L 20.617188 8.796875 L 20.617188 8.214844 L 20.027344 8.214844 L 20.027344 8.796875 Z M 20.027344 8.796875 " transform="matrix(1,0,0,-1,0,26)"/>
<path style="fill-rule:evenodd;fill:#FFFFFF;fill-opacity:1;stroke-width:0.239;stroke-linecap:square;stroke-linejoin:miter;stroke:#FFFFFF;stroke-opacity:1;stroke-miterlimit:10;" d="M 18.660156 8.796875 L 19.34375 8.796875 L 19.34375 8.214844 L 18.660156 8.214844 L 18.660156 8.796875 Z M 18.660156 8.796875 " transform="matrix(1,0,0,-1,0,26)"/>
<path style="fill-rule:evenodd;fill:#FFFFFF;fill-opacity:1;stroke-width:0.239;stroke-linecap:square;stroke-linejoin:miter;stroke:#FFFFFF;stroke-opacity:1;stroke-miterlimit:10;" d="M 17.289062 8.796875 L 17.972656 8.796875 L 17.972656 8.214844 L 17.289062 8.214844 L 17.289062 8.796875 Z M 17.289062 8.796875 " transform="matrix(1,0,0,-1,0,26)"/>
<path style="fill-rule:evenodd;fill:#FFFFFF;fill-opacity:1;stroke-width:0.239;stroke-linecap:square;stroke-linejoin:miter;stroke:#FFFFFF;stroke-opacity:1;stroke-miterlimit:10;" d="M 15.921875 8.796875 L 16.605469 8.796875 L 16.605469 8.214844 L 15.921875 8.214844 L 15.921875 8.796875 Z M 15.921875 8.796875 " transform="matrix(1,0,0,-1,0,26)"/>
<path style="fill-rule:evenodd;fill:#FFFFFF;fill-opacity:1;stroke-width:0.239;stroke-linecap:square;stroke-linejoin:miter;stroke:#FFFFFF;stroke-opacity:1;stroke-miterlimit:10;" d="M 14.554688 8.796875 L 15.238281 8.796875 L 15.238281 8.214844 L 14.554688 8.214844 L 14.554688 8.796875 Z M 14.554688 8.796875 " transform="matrix(1,0,0,-1,0,26)"/>
<path style="fill-rule:evenodd;fill:#FFFFFF;fill-opacity:1;stroke-width:0.239;stroke-linecap:square;stroke-linejoin:miter;stroke:#FFFFFF;stroke-opacity:1;stroke-miterlimit:10;" d="M 13.285156 8.796875 L 13.871094 8.796875 L 13.871094 8.214844 L 13.285156 8.214844 L 13.285156 8.796875 Z M 13.285156 8.796875 " transform="matrix(1,0,0,-1,0,26)"/>
<path style=" stroke:none;fill-rule:evenodd;fill:#FFFFFF;fill-opacity:1;" d="M 11.914062 17.203125 L 12.503906 17.203125 L 12.601562 17.785156 L 11.914062 17.785156 L 11.914062 17.203125 "/>
<path style="fill:none;stroke-width:0.239;stroke-linecap:square;stroke-linejoin:miter;stroke:#FFFFFF;stroke-opacity:1;stroke-miterlimit:10;" d="M 11.914062 8.796875 L 12.503906 8.796875 L 12.601562 8.214844 L 11.914062 8.214844 L 11.914062 8.796875 Z M 11.914062 8.796875 " transform="matrix(1,0,0,-1,0,26)"/>
<path style="fill-rule:evenodd;fill:#FFFFFF;fill-opacity:1;stroke-width:0.239;stroke-linecap:square;stroke-linejoin:miter;stroke:#FFFFFF;stroke-opacity:1;stroke-miterlimit:10;" d="M 25.402344 3.304688 L 26.089844 3.304688 L 26.089844 2.71875 L 25.402344 2.71875 L 25.402344 3.304688 Z M 25.402344 3.304688 " transform="matrix(1,0,0,-1,0,26)"/>
<path style="fill-rule:evenodd;fill:#FFFFFF;fill-opacity:1;stroke-width:0.239;stroke-linecap:square;stroke-linejoin:miter;stroke:#FFFFFF;stroke-opacity:1;stroke-miterlimit:10;" d="M 24.035156 3.304688 L 24.71875 3.304688 L 24.71875 2.71875 L 24.035156 2.71875 L 24.035156 3.304688 Z M 24.035156 3.304688 " transform="matrix(1,0,0,-1,0,26)"/>
<path style="fill-rule:evenodd;fill:#FFFFFF;fill-opacity:1;stroke-width:0.239;stroke-linecap:square;stroke-linejoin:miter;stroke:#FFFFFF;stroke-opacity:1;stroke-miterlimit:10;" d="M 22.667969 3.304688 L 23.351562 3.304688 L 23.351562 2.71875 L 22.667969 2.71875 L 22.667969 3.304688 Z M 22.667969 3.304688 " transform="matrix(1,0,0,-1,0,26)"/>
<path style="fill-rule:evenodd;fill:#FFFFFF;fill-opacity:1;stroke-width:0.239;stroke-linecap:square;stroke-linejoin:miter;stroke:#FFFFFF;stroke-opacity:1;stroke-miterlimit:10;" d="M 21.398438 3.304688 L 21.984375 3.304688 L 21.984375 2.71875 L 21.398438 2.71875 L 21.398438 3.304688 Z M 21.398438 3.304688 " transform="matrix(1,0,0,-1,0,26)"/>
<path style="fill-rule:evenodd;fill:#FFFFFF;fill-opacity:1;stroke-width:0.239;stroke-linecap:square;stroke-linejoin:miter;stroke:#FFFFFF;stroke-opacity:1;stroke-miterlimit:10;" d="M 20.027344 3.304688 L 20.617188 3.304688 L 20.617188 2.71875 L 20.027344 2.71875 L 20.027344 3.304688 Z M 20.027344 3.304688 " transform="matrix(1,0,0,-1,0,26)"/>
<path style="fill-rule:evenodd;fill:#FFFFFF;fill-opacity:1;stroke-width:0.239;stroke-linecap:square;stroke-linejoin:miter;stroke:#FFFFFF;stroke-opacity:1;stroke-miterlimit:10;" d="M 18.660156 3.304688 L 19.34375 3.304688 L 19.34375 2.71875 L 18.660156 2.71875 L 18.660156 3.304688 Z M 18.660156 3.304688 " transform="matrix(1,0,0,-1,0,26)"/>
<path style="fill-rule:evenodd;fill:#FFFFFF;fill-opacity:1;stroke-width:0.239;stroke-linecap:square;stroke-linejoin:miter;stroke:#FFFFFF;stroke-opacity:1;stroke-miterlimit:10;" d="M 17.289062 3.304688 L 17.972656 3.304688 L 17.972656 2.71875 L 17.289062 2.71875 L 17.289062 3.304688 Z M 17.289062 3.304688 " transform="matrix(1,0,0,-1,0,26)"/>
<path style="fill-rule:evenodd;fill:#FFFFFF;fill-opacity:1;stroke-width:0.239;stroke-linecap:square;stroke-linejoin:miter;stroke:#FFFFFF;stroke-opacity:1;stroke-miterlimit:10;" d="M 15.921875 3.304688 L 16.605469 3.304688 L 16.605469 2.71875 L 15.921875 2.71875 L 15.921875 3.304688 Z M 15.921875 3.304688 " transform="matrix(1,0,0,-1,0,26)"/>
<path style="fill-rule:evenodd;fill:#FFFFFF;fill-opacity:1;stroke-width:0.239;stroke-linecap:square;stroke-linejoin:miter;stroke:#FFFFFF;stroke-opacity:1;stroke-miterlimit:10;" d="M 14.554688 3.304688 L 15.238281 3.304688 L 15.238281 2.71875 L 14.554688 2.71875 L 14.554688 3.304688 Z M 14.554688 3.304688 " transform="matrix(1,0,0,-1,0,26)"/>
<path style="fill-rule:evenodd;fill:#FFFFFF;fill-opacity:1;stroke-width:0.239;stroke-linecap:square;stroke-linejoin:miter;stroke:#FFFFFF;stroke-opacity:1;stroke-miterlimit:10;" d="M 13.285156 3.304688 L 13.871094 3.304688 L 13.871094 2.71875 L 13.285156 2.71875 L 13.285156 3.304688 Z M 13.285156 3.304688 " transform="matrix(1,0,0,-1,0,26)"/>
<path style="fill-rule:evenodd;fill:#FFFFFF;fill-opacity:1;stroke-width:0.239;stroke-linecap:square;stroke-linejoin:miter;stroke:#FFFFFF;stroke-opacity:1;stroke-miterlimit:10;" d="M 11.914062 3.304688 L 12.601562 3.304688 L 12.601562 2.71875 L 11.914062 2.71875 L 11.914062 3.304688 Z M 11.914062 3.304688 " transform="matrix(1,0,0,-1,0,26)"/>
<path style="fill-rule:evenodd;fill:#FFFFFF;fill-opacity:1;stroke-width:0.239;stroke-linecap:square;stroke-linejoin:miter;stroke:#FFFFFF;stroke-opacity:1;stroke-miterlimit:10;" d="M 19.542969 7.328125 L 21.789062 7.328125 L 21.789062 4.1875 L 19.542969 4.1875 L 19.542969 7.328125 Z M 19.542969 7.328125 " transform="matrix(1,0,0,-1,0,26)"/>
<path style="fill-rule:evenodd;fill:#FFFFFF;fill-opacity:1;stroke-width:0.239;stroke-linecap:square;stroke-linejoin:miter;stroke:#FFFFFF;stroke-opacity:1;stroke-miterlimit:10;" d="M 15.921875 7.328125 L 18.167969 7.328125 L 18.167969 4.1875 L 15.921875 4.1875 L 15.921875 7.328125 Z M 15.921875 7.328125 " transform="matrix(1,0,0,-1,0,26)"/>
<path style="fill-rule:evenodd;fill:#FFFFFF;fill-opacity:1;stroke-width:0.239;stroke-linecap:square;stroke-linejoin:miter;stroke:#FFFFFF;stroke-opacity:1;stroke-miterlimit:10;" d="M 12.40625 7.328125 L 14.554688 7.328125 L 14.554688 4.1875 L 12.40625 4.1875 L 12.40625 7.328125 Z M 12.40625 7.328125 " transform="matrix(1,0,0,-1,0,26)"/>
</g>
</svg>
