<?xml version="1.0" encoding="UTF-8"?>
<svg xmlns="http://www.w3.org/2000/svg" xmlns:xlink="http://www.w3.org/1999/xlink" width="37pt" height="25pt" viewBox="0 0 37 25" version="1.1">
<defs>
<clipPath id="clip1">
  <path d="M 0 0.765625 L 36 0.765625 L 36 24.765625 L 0 24.765625 L 0 0.765625 Z M 0 0.765625 "/>
</clipPath>
<clipPath id="clip2">
  <path d="M 0 0.765625 L 36 0.765625 L 36 24.765625 L 0 24.765625 L 0 0.765625 Z M 0 0.765625 "/>
</clipPath>
<clipPath id="clip3">
  <path d="M 23.007812 3.121094 L 29.460938 3.144531 L 28.585938 6.023438 L 27.296875 5.308594 L 21.121094 8.359375 L 18.429688 6.832031 L 24.574219 3.890625 L 23.007812 3.121094 "/>
</clipPath>
<clipPath id="clip4">
  <path d="M 20.53125 11.757812 L 19.664062 8.953125 L 26.320312 9.003906 L 24.734375 9.710938 L 31.0625 12.277344 L 28.28125 13.667969 L 22.007812 11.117188 L 20.53125 11.757812 "/>
</clipPath>
<clipPath id="clip5">
  <path d="M 0 0.765625 L 36 0.765625 L 36 24.765625 L 0 24.765625 L 0 0.765625 Z M 0 0.765625 "/>
</clipPath>
</defs>
<g id="surface0">
<g clip-path="url(#clip1)" clip-rule="nonzero">
<path style=" stroke:none;fill-rule:nonzero;fill:#FF5A00;fill-opacity:1;" d="M 18.210938 14.972656 C 28.15625 14.972656 36.21875 11.835938 36.21875 7.96875 C 36.21875 4.101562 28.15625 0.964844 18.210938 0.964844 C 8.261719 0.964844 0.199219 4.101562 0.199219 7.96875 C 0.199219 11.835938 8.261719 14.972656 18.210938 14.972656 "/>
<path style="fill:none;stroke-width:0.4;stroke-linecap:butt;stroke-linejoin:miter;stroke:#FFFFFF;stroke-opacity:1;stroke-miterlimit:4;" d="M 18.210938 10.027344 C 28.15625 10.027344 36.21875 13.164062 36.21875 17.03125 C 36.21875 20.898438 28.15625 24.035156 18.210938 24.035156 C 8.261719 24.035156 0.199219 20.898438 0.199219 17.03125 C 0.199219 13.164062 8.261719 10.027344 18.210938 10.027344 Z M 18.210938 10.027344 " transform="matrix(1,0,0,-1,0,25)"/>
<path style=" stroke:none;fill-rule:nonzero;fill:#FF5A00;fill-opacity:1;" d="M 35.8125 6.511719 C 30.40625 4.964844 28.789062 8.046875 25.648438 8.046875 C 21.492188 8.046875 23.019531 6.191406 18.242188 6.175781 C 12.574219 6.15625 14.878906 7.992188 10.769531 8.007812 C 7.792969 8.019531 6.628906 5.578125 0.597656 6.511719 C 0.285156 7.136719 0.175781 7.519531 0.230469 8.476562 C 5.839844 7.207031 7.402344 10.082031 10.761719 9.9375 C 15.410156 9.734375 12.976562 7.957031 18.234375 8.101562 C 23.148438 8.238281 20.6875 9.976562 25.640625 9.976562 C 29.929688 9.976562 30.441406 6.96875 36.144531 8.328125 C 36.144531 8.328125 36.402344 7.464844 35.8125 6.511719 "/>
<path style="fill:none;stroke-width:0.35;stroke-linecap:butt;stroke-linejoin:miter;stroke:#FFFFFF;stroke-opacity:1;stroke-miterlimit:4;" d="M 35.8125 18.488281 C 30.40625 20.035156 28.789062 16.953125 25.648438 16.953125 C 21.492188 16.953125 23.019531 18.808594 18.242188 18.824219 C 12.574219 18.84375 14.878906 17.007812 10.769531 16.992188 C 7.792969 16.980469 6.628906 19.421875 0.597656 18.488281 C 0.285156 17.863281 0.175781 17.480469 0.230469 16.523438 C 5.839844 17.792969 7.402344 14.917969 10.761719 15.0625 C 15.410156 15.265625 12.976562 17.042969 18.234375 16.898438 C 23.148438 16.761719 20.6875 15.023438 25.640625 15.023438 C 29.929688 15.023438 30.441406 18.03125 36.144531 16.671875 C 36.144531 16.671875 36.402344 17.535156 35.8125 18.488281 Z M 35.8125 18.488281 " transform="matrix(1,0,0,-1,0,25)"/>
</g>
<path style=" stroke:none;fill-rule:nonzero;fill:#FF5A00;fill-opacity:1;" d="M 31.3125 3.152344 C 28.359375 2.609375 29.117188 4.515625 25.648438 4.515625 C 21.492188 4.515625 23.164062 2.660156 18.386719 2.644531 C 12.722656 2.625 14.617188 4.683594 10.507812 4.707031 C 7.789062 4.722656 6.980469 3.421875 4.476562 3.457031 C 3.742188 3.714844 2.527344 4.488281 1.757812 5.113281 C 6.058594 4.082031 7.703125 6.386719 10.613281 6.40625 C 15.265625 6.433594 13.125 4.425781 18.378906 4.570312 C 23.296875 4.707031 20.6875 6.445312 25.640625 6.445312 C 29.117188 6.445312 29.179688 3.554688 34.121094 4.707031 C 34.121094 4.707031 32.859375 3.777344 31.3125 3.152344 "/>
<path style="fill:none;stroke-width:0.35;stroke-linecap:butt;stroke-linejoin:miter;stroke:#FFFFFF;stroke-opacity:1;stroke-miterlimit:4;" d="M 31.3125 21.847656 C 28.359375 22.390625 29.117188 20.484375 25.648438 20.484375 C 21.492188 20.484375 23.164062 22.339844 18.386719 22.355469 C 12.722656 22.375 14.617188 20.316406 10.507812 20.292969 C 7.789062 20.277344 6.980469 21.578125 4.476562 21.542969 C 3.742188 21.285156 2.527344 20.511719 1.757812 19.886719 C 6.058594 20.917969 7.703125 18.613281 10.613281 18.59375 C 15.265625 18.566406 13.125 20.574219 18.378906 20.429688 C 23.296875 20.292969 20.6875 18.554688 25.640625 18.554688 C 29.117188 18.554688 29.179688 21.445312 34.121094 20.292969 C 34.121094 20.292969 32.859375 21.222656 31.3125 21.847656 Z M 31.3125 21.847656 " transform="matrix(1,0,0,-1,0,25)"/>
<path style=" stroke:none;fill-rule:nonzero;fill:#FF5A00;fill-opacity:1;" d="M 35.46875 9.992188 C 29.988281 8.667969 29.964844 11.578125 26.089844 11.578125 C 21.933594 11.578125 23.605469 9.648438 18.828125 9.632812 C 13.164062 9.613281 15.171875 11.441406 11.066406 11.464844 C 8.34375 11.480469 4.882812 8.714844 1.058594 10.078125 C 1.621094 10.960938 3.503906 12.007812 3.503906 12.007812 C 5.730469 11.289062 7.421875 13.394531 11.054688 13.394531 C 15.707031 13.394531 13.566406 11.414062 18.820312 11.558594 C 23.738281 11.695312 21.128906 13.316406 26.082031 13.433594 C 29.695312 13.515625 30.605469 10.824219 33.753906 11.511719 C 33.753906 11.511719 34.796875 10.921875 35.46875 9.992188 "/>
<g clip-path="url(#clip2)" clip-rule="nonzero">
<path style="fill:none;stroke-width:0.35;stroke-linecap:butt;stroke-linejoin:miter;stroke:#FFFFFF;stroke-opacity:1;stroke-miterlimit:4;" d="M 35.46875 15.007812 C 29.988281 16.332031 29.964844 13.421875 26.089844 13.421875 C 21.933594 13.421875 23.605469 15.351562 18.828125 15.367188 C 13.164062 15.386719 15.171875 13.558594 11.066406 13.535156 C 8.34375 13.519531 4.882812 16.285156 1.058594 14.921875 C 1.621094 14.039062 3.503906 12.992188 3.503906 12.992188 C 5.730469 13.710938 7.421875 11.605469 11.054688 11.605469 C 15.707031 11.605469 13.566406 13.585938 18.820312 13.441406 C 23.738281 13.304688 21.128906 11.683594 26.082031 11.566406 C 29.695312 11.484375 30.605469 14.175781 33.753906 13.488281 C 33.753906 13.488281 34.796875 14.078125 35.46875 15.007812 Z M 35.46875 15.007812 " transform="matrix(1,0,0,-1,0,25)"/>
</g>
<path style=" stroke:none;fill-rule:nonzero;fill:#FFFFFF;fill-opacity:1;" d="M 14.375 13.386719 L 7.890625 13.652344 L 8.796875 10.484375 L 10.085938 11.199219 L 16.269531 8.1875 L 18.960938 9.710938 L 12.808594 12.617188 L 14.375 13.386719 "/>
<g clip-path="url(#clip3)" clip-rule="nonzero">
<path style=" stroke:none;fill-rule:nonzero;fill:#FFFFFF;fill-opacity:1;" d="M 23.03125 2.878906 L 29.488281 2.90625 L 28.609375 5.78125 L 27.320312 5.066406 L 21.144531 8.117188 L 18.453125 6.449219 L 24.597656 3.503906 L 23.03125 2.878906 "/>
</g>
<path style=" stroke:none;fill-rule:nonzero;fill:#FFFFFF;fill-opacity:1;" d="M 15.695312 5.019531 L 17.511719 7.324219 L 9.359375 7.742188 L 10.945312 7.03125 L 5.039062 4.527344 L 8.113281 2.855469 L 14.230469 5.652344 L 15.695312 5.019531 "/>
<g clip-path="url(#clip4)" clip-rule="nonzero">
<path style=" stroke:none;fill-rule:nonzero;fill:#FFFFFF;fill-opacity:1;" d="M 20.601562 11.730469 L 19.734375 8.925781 L 26.390625 8.972656 L 24.804688 9.683594 L 31.132812 12.246094 L 28.351562 13.640625 L 22.078125 11.089844 L 20.601562 11.730469 "/>
</g>
<g clip-path="url(#clip5)" clip-rule="nonzero">
<path style=" stroke:none;fill-rule:nonzero;fill:#FF5A00;fill-opacity:1;" d="M 36.21875 7.539062 C 36.21875 11.40625 28.15625 14.542969 18.210938 14.542969 C 8.261719 14.542969 0.199219 11.40625 0.199219 7.539062 L 0.199219 17.796875 C 0.199219 21.664062 8.261719 24.800781 18.210938 24.800781 C 28.15625 24.800781 36.21875 21.664062 36.21875 17.796875 L 36.21875 7.539062 "/>
<path style="fill:none;stroke-width:0.4;stroke-linecap:butt;stroke-linejoin:miter;stroke:#FFFFFF;stroke-opacity:1;stroke-miterlimit:4;" d="M 36.21875 17.460938 C 36.21875 13.59375 28.15625 10.457031 18.210938 10.457031 C 8.261719 10.457031 0.199219 13.59375 0.199219 17.460938 L 0.199219 7.203125 C 0.199219 3.335938 8.261719 0.199219 18.210938 0.199219 C 28.15625 0.199219 36.21875 3.335938 36.21875 7.203125 L 36.21875 17.460938 Z M 36.21875 17.460938 " transform="matrix(1,0,0,-1,0,25)"/>
</g>
</g>
</svg>
