<?xml version="1.0" encoding="UTF-8"?>
<svg xmlns="http://www.w3.org/2000/svg" xmlns:xlink="http://www.w3.org/1999/xlink" width="28pt" height="38pt" viewBox="0 0 28 38" version="1.1">
<g id="surface0">
<path style="fill-rule:nonzero;fill:#FF5A00;fill-opacity:1;stroke-width:0.4;stroke-linecap:butt;stroke-linejoin:miter;stroke:#FFFFFF;stroke-opacity:1;stroke-miterlimit:4;" d="M 1.105469 1.027344 L 22.679688 1.027344 L 22.679688 23.003906 L 1.105469 23.003906 L 1.105469 1.027344 Z M 1.105469 1.027344 " transform="matrix(1,0,0,-1,0,38)"/>
<path style="fill-rule:nonzero;fill:#FF5A00;fill-opacity:1;stroke-width:0.4;stroke-linecap:butt;stroke-linejoin:miter;stroke:#FFFFFF;stroke-opacity:1;stroke-miterlimit:4;" d="M 22.679688 23.003906 L 27.144531 27.386719 " transform="matrix(1,0,0,-1,0,38)"/>
<path style="fill-rule:nonzero;fill:#FF5A00;fill-opacity:1;stroke-width:0.4;stroke-linecap:butt;stroke-linejoin:miter;stroke:#FFFFFF;stroke-opacity:1;stroke-miterlimit:4;" d="M 14.148438 23.003906 L 14.148438 1.027344 " transform="matrix(1,0,0,-1,0,38)"/>
<path style="fill-rule:nonzero;fill:#FF5A00;fill-opacity:1;stroke-width:0.4;stroke-linecap:butt;stroke-linejoin:miter;stroke:#FFFFFF;stroke-opacity:1;stroke-miterlimit:4;" d="M 1.105469 10.359375 L 22.679688 10.359375 L 22.679688 32.339844 L 1.105469 32.339844 L 1.105469 10.359375 Z M 1.105469 10.359375 " transform="matrix(1,0,0,-1,0,38)"/>
<path style="fill-rule:nonzero;fill:#FF5A00;fill-opacity:1;stroke-width:0.4;stroke-linecap:butt;stroke-linejoin:miter;stroke:#FFFFFF;stroke-opacity:1;stroke-miterlimit:4;" d="M 27.144531 36.71875 L 27.144531 5.871094 L 22.679688 1.371094 L 22.679688 32.339844 L 27.144531 36.71875 Z M 27.144531 36.71875 " transform="matrix(1,0,0,-1,0,38)"/>
<path style="fill-rule:nonzero;fill:#FF5A00;fill-opacity:1;stroke-width:0.4;stroke-linecap:butt;stroke-linejoin:miter;stroke:#FFFFFF;stroke-opacity:1;stroke-miterlimit:4;" d="M 22.679688 32.339844 L 1.132812 32.339844 L 6.582031 36.71875 L 27.144531 36.71875 L 22.679688 32.339844 Z M 22.679688 32.339844 " transform="matrix(1,0,0,-1,0,38)"/>
<path style="fill-rule:nonzero;fill:#FF5A00;fill-opacity:1;stroke-width:0.4;stroke-linecap:butt;stroke-linejoin:miter;stroke:#FFFFFF;stroke-opacity:1;stroke-miterlimit:4;" d="M 22.679688 32.339844 L 27.144531 36.71875 " transform="matrix(1,0,0,-1,0,38)"/>
<path style="fill-rule:nonzero;fill:#FF5A00;fill-opacity:1;stroke-width:0.4;stroke-linecap:butt;stroke-linejoin:miter;stroke:#FFFFFF;stroke-opacity:1;stroke-miterlimit:4;" d="M 4.105469 26.660156 L 21.527344 26.660156 " transform="matrix(1,0,0,-1,0,38)"/>
<path style="fill-rule:nonzero;fill:#FF5A00;fill-opacity:1;stroke-width:0.4;stroke-linecap:butt;stroke-linejoin:miter;stroke:#FFFFFF;stroke-opacity:1;stroke-miterlimit:4;" d="M 3.285156 21.335938 L 20.820312 21.335938 " transform="matrix(1,0,0,-1,0,38)"/>
<path style="fill-rule:nonzero;fill:#FF5A00;fill-opacity:1;stroke-width:0.4;stroke-linecap:butt;stroke-linejoin:miter;stroke:#FFFFFF;stroke-opacity:1;stroke-miterlimit:4;" d="M 2.511719 16.277344 L 19.933594 16.277344 " transform="matrix(1,0,0,-1,0,38)"/>
<path style="fill-rule:nonzero;fill:#FF5A00;fill-opacity:1;stroke-width:0.4;stroke-linecap:butt;stroke-linejoin:miter;stroke:#FFFFFF;stroke-opacity:1;stroke-miterlimit:4;" d="M 4.894531 13.304688 L 8.488281 29.859375 " transform="matrix(1,0,0,-1,0,38)"/>
<path style="fill-rule:nonzero;fill:#FF5A00;fill-opacity:1;stroke-width:0.4;stroke-linecap:butt;stroke-linejoin:miter;stroke:#FFFFFF;stroke-opacity:1;stroke-miterlimit:4;" d="M 16.074219 13.304688 L 19.671875 29.859375 " transform="matrix(1,0,0,-1,0,38)"/>
<path style="fill-rule:nonzero;fill:#FF5A00;fill-opacity:1;stroke-width:0.4;stroke-linecap:butt;stroke-linejoin:miter;stroke:#FFFFFF;stroke-opacity:1;stroke-miterlimit:4;" d="M 10.484375 13.433594 L 14.078125 29.988281 " transform="matrix(1,0,0,-1,0,38)"/>
<path style=" stroke:none;fill-rule:nonzero;fill:#FFFFFF;fill-opacity:1;" d="M 9.140625 11.289062 C 9.140625 11.792969 8.527344 12.199219 7.777344 12.199219 C 7.023438 12.199219 6.410156 11.792969 6.410156 11.289062 C 6.410156 10.789062 7.023438 10.382812 7.777344 10.382812 C 8.527344 10.382812 9.140625 10.789062 9.140625 11.289062 "/>
<path style=" stroke:none;fill-rule:nonzero;fill:#FFFFFF;fill-opacity:1;" d="M 14.789062 11.066406 C 14.789062 11.566406 14.179688 11.972656 13.425781 11.972656 C 12.671875 11.972656 12.0625 11.566406 12.0625 11.066406 C 12.0625 10.5625 12.671875 10.15625 13.425781 10.15625 C 14.179688 10.15625 14.789062 10.5625 14.789062 11.066406 "/>
<path style=" stroke:none;fill-rule:nonzero;fill:#FFFFFF;fill-opacity:1;" d="M 20.449219 11.464844 C 20.449219 11.96875 19.839844 12.371094 19.089844 12.371094 C 18.335938 12.371094 17.726562 11.96875 17.726562 11.464844 C 17.726562 10.964844 18.335938 10.554688 19.089844 10.554688 C 19.839844 10.554688 20.449219 10.964844 20.449219 11.464844 "/>
<path style=" stroke:none;fill-rule:nonzero;fill:#FFFFFF;fill-opacity:1;" d="M 7.855469 16.691406 C 7.855469 17.191406 7.242188 17.601562 6.488281 17.601562 C 5.738281 17.601562 5.128906 17.191406 5.128906 16.691406 C 5.128906 16.1875 5.738281 15.78125 6.488281 15.78125 C 7.242188 15.78125 7.855469 16.1875 7.855469 16.691406 "/>
<path style=" stroke:none;fill-rule:nonzero;fill:#FFFFFF;fill-opacity:1;" d="M 13.503906 16.863281 C 13.503906 17.363281 12.894531 17.773438 12.140625 17.773438 C 11.386719 17.773438 10.777344 17.363281 10.777344 16.863281 C 10.777344 16.359375 11.386719 15.953125 12.140625 15.953125 C 12.894531 15.953125 13.503906 16.359375 13.503906 16.863281 "/>
<path style=" stroke:none;fill-rule:nonzero;fill:#FFFFFF;fill-opacity:1;" d="M 19.164062 16.597656 C 19.164062 17.101562 18.554688 17.503906 17.804688 17.503906 C 17.050781 17.503906 16.4375 17.101562 16.4375 16.597656 C 16.4375 16.09375 17.050781 15.6875 17.804688 15.6875 C 18.554688 15.6875 19.164062 16.09375 19.164062 16.597656 "/>
<path style=" stroke:none;fill-rule:nonzero;fill:#FFFFFF;fill-opacity:1;" d="M 6.726562 21.816406 C 6.726562 22.320312 6.117188 22.726562 5.363281 22.726562 C 4.609375 22.726562 4 22.320312 4 21.816406 C 4 21.316406 4.609375 20.90625 5.363281 20.90625 C 6.117188 20.90625 6.726562 21.316406 6.726562 21.816406 "/>
<path style=" stroke:none;fill-rule:nonzero;fill:#FFFFFF;fill-opacity:1;" d="M 12.378906 21.855469 C 12.378906 22.359375 11.769531 22.765625 11.015625 22.765625 C 10.261719 22.765625 9.648438 22.359375 9.648438 21.855469 C 9.648438 21.355469 10.261719 20.945312 11.015625 20.945312 C 11.769531 20.945312 12.378906 21.355469 12.378906 21.855469 "/>
<path style=" stroke:none;fill-rule:nonzero;fill:#FFFFFF;fill-opacity:1;" d="M 18.039062 21.855469 C 18.039062 22.359375 17.429688 22.765625 16.675781 22.765625 C 15.921875 22.765625 15.3125 22.359375 15.3125 21.855469 C 15.3125 21.355469 15.921875 20.945312 16.675781 20.945312 C 17.429688 20.945312 18.039062 21.355469 18.039062 21.855469 "/>
<path style="fill-rule:nonzero;fill:#FF5A00;fill-opacity:1;stroke-width:0.4;stroke-linecap:butt;stroke-linejoin:miter;stroke:#FFFFFF;stroke-opacity:1;stroke-miterlimit:4;" d="M 21.246094 7.921875 C 21.246094 7.382812 20.070312 6.945312 18.617188 6.945312 C 17.164062 6.945312 15.988281 7.382812 15.988281 7.921875 L 15.988281 3.113281 C 15.988281 2.574219 17.164062 2.136719 18.617188 2.136719 C 20.070312 2.136719 21.246094 2.574219 21.246094 3.113281 L 21.246094 7.921875 Z M 21.246094 7.921875 " transform="matrix(1,0,0,-1,0,38)"/>
<path style="fill-rule:nonzero;fill:#FF5A00;fill-opacity:1;stroke-width:0.4;stroke-linecap:butt;stroke-linejoin:miter;stroke:#FFFFFF;stroke-opacity:1;stroke-miterlimit:4;" d="M 18.617188 6.945312 C 20.070312 6.945312 21.246094 7.382812 21.246094 7.921875 C 21.246094 8.457031 20.070312 8.894531 18.617188 8.894531 C 17.164062 8.894531 15.988281 8.457031 15.988281 7.921875 C 15.988281 7.382812 17.164062 6.945312 18.617188 6.945312 Z M 18.617188 6.945312 " transform="matrix(1,0,0,-1,0,38)"/>
<path style=" stroke:none;fill-rule:nonzero;fill:#FFFFFF;fill-opacity:1;" d="M 3.984375 34.871094 L 9.191406 34.871094 L 9.167969 35.957031 L 11.554688 34.421875 L 9.167969 32.792969 L 9.191406 33.929688 L 3.984375 33.929688 "/>
<path style=" stroke:none;fill-rule:nonzero;fill:#FFFFFF;fill-opacity:1;" d="M 11.21875 30.328125 L 6.011719 30.328125 L 6.035156 29.242188 L 3.648438 30.777344 L 6.035156 32.40625 L 6.011719 31.269531 L 11.21875 31.269531 "/>
</g>
</svg>
