<?xml version="1.0" encoding="UTF-8"?>
<svg xmlns="http://www.w3.org/2000/svg" xmlns:xlink="http://www.w3.org/1999/xlink" width="28pt" height="28pt" viewBox="0 0 28 28" version="1.1">
<g id="surface0">
<path style="fill-rule:nonzero;fill:#FF5A00;fill-opacity:1;stroke-width:0.4;stroke-linecap:butt;stroke-linejoin:miter;stroke:#FFFFFF;stroke-opacity:1;stroke-miterlimit:4;" d="M 1.109375 0.695312 L 22.679688 0.695312 L 22.679688 22.671875 L 1.109375 22.671875 L 1.109375 0.695312 Z M 1.109375 0.695312 " transform="matrix(1,0,0,-1,0,28)"/>
<path style="fill-rule:nonzero;fill:#FF5A00;fill-opacity:1;stroke-width:0.4;stroke-linecap:butt;stroke-linejoin:miter;stroke:#FFFFFF;stroke-opacity:1;stroke-miterlimit:4;" d="M 22.679688 22.671875 L 1.132812 22.671875 L 6.582031 27.054688 L 27.144531 27.054688 L 27.144531 5.207031 L 22.679688 0.707031 L 22.679688 22.671875 Z M 22.679688 22.671875 " transform="matrix(1,0,0,-1,0,28)"/>
<path style="fill-rule:nonzero;fill:#FF5A00;fill-opacity:1;stroke-width:0.4;stroke-linecap:butt;stroke-linejoin:miter;stroke:#FFFFFF;stroke-opacity:1;stroke-miterlimit:4;" d="M 22.679688 22.671875 L 27.144531 27.054688 " transform="matrix(1,0,0,-1,0,28)"/>
<path style="fill-rule:nonzero;fill:#FF5A00;fill-opacity:1;stroke-width:0.4;stroke-linecap:butt;stroke-linejoin:miter;stroke:#FFFFFF;stroke-opacity:1;stroke-miterlimit:4;" d="M 4.105469 16.992188 L 21.527344 16.992188 " transform="matrix(1,0,0,-1,0,28)"/>
<path style="fill-rule:nonzero;fill:#FF5A00;fill-opacity:1;stroke-width:0.4;stroke-linecap:butt;stroke-linejoin:miter;stroke:#FFFFFF;stroke-opacity:1;stroke-miterlimit:4;" d="M 3.285156 11.671875 L 20.820312 11.671875 " transform="matrix(1,0,0,-1,0,28)"/>
<path style="fill-rule:nonzero;fill:#FF5A00;fill-opacity:1;stroke-width:0.4;stroke-linecap:butt;stroke-linejoin:miter;stroke:#FFFFFF;stroke-opacity:1;stroke-miterlimit:4;" d="M 2.511719 6.613281 L 19.933594 6.613281 " transform="matrix(1,0,0,-1,0,28)"/>
<path style="fill-rule:nonzero;fill:#FF5A00;fill-opacity:1;stroke-width:0.4;stroke-linecap:butt;stroke-linejoin:miter;stroke:#FFFFFF;stroke-opacity:1;stroke-miterlimit:4;" d="M 4.894531 3.636719 L 8.488281 20.191406 " transform="matrix(1,0,0,-1,0,28)"/>
<path style="fill-rule:nonzero;fill:#FF5A00;fill-opacity:1;stroke-width:0.4;stroke-linecap:butt;stroke-linejoin:miter;stroke:#FFFFFF;stroke-opacity:1;stroke-miterlimit:4;" d="M 16.074219 3.636719 L 19.671875 20.191406 " transform="matrix(1,0,0,-1,0,28)"/>
<path style="fill-rule:nonzero;fill:#FF5A00;fill-opacity:1;stroke-width:0.4;stroke-linecap:butt;stroke-linejoin:miter;stroke:#FFFFFF;stroke-opacity:1;stroke-miterlimit:4;" d="M 10.484375 3.765625 L 14.078125 20.320312 " transform="matrix(1,0,0,-1,0,28)"/>
<path style=" stroke:none;fill-rule:nonzero;fill:#FFFFFF;fill-opacity:1;" d="M 9.140625 10.957031 C 9.140625 11.460938 8.53125 11.867188 7.777344 11.867188 C 7.023438 11.867188 6.410156 11.460938 6.410156 10.957031 C 6.410156 10.457031 7.023438 10.050781 7.777344 10.050781 C 8.53125 10.050781 9.140625 10.457031 9.140625 10.957031 "/>
<path style=" stroke:none;fill-rule:nonzero;fill:#FFFFFF;fill-opacity:1;" d="M 14.789062 10.730469 C 14.789062 11.234375 14.179688 11.640625 13.425781 11.640625 C 12.671875 11.640625 12.0625 11.234375 12.0625 10.730469 C 12.0625 10.230469 12.671875 9.820312 13.425781 9.820312 C 14.179688 9.820312 14.789062 10.230469 14.789062 10.730469 "/>
<path style=" stroke:none;fill-rule:nonzero;fill:#FFFFFF;fill-opacity:1;" d="M 20.449219 11.132812 C 20.449219 11.632812 19.839844 12.039062 19.089844 12.039062 C 18.335938 12.039062 17.726562 11.632812 17.726562 11.132812 C 17.726562 10.628906 18.335938 10.222656 19.089844 10.222656 C 19.839844 10.222656 20.449219 10.628906 20.449219 11.132812 "/>
<path style=" stroke:none;fill-rule:nonzero;fill:#FFFFFF;fill-opacity:1;" d="M 7.855469 16.355469 C 7.855469 16.859375 7.242188 17.265625 6.488281 17.265625 C 5.738281 17.265625 5.128906 16.859375 5.128906 16.355469 C 5.128906 15.851562 5.738281 15.445312 6.488281 15.445312 C 7.242188 15.445312 7.855469 15.851562 7.855469 16.355469 "/>
<path style=" stroke:none;fill-rule:nonzero;fill:#FFFFFF;fill-opacity:1;" d="M 13.503906 16.527344 C 13.503906 17.03125 12.894531 17.4375 12.140625 17.4375 C 11.386719 17.4375 10.777344 17.03125 10.777344 16.527344 C 10.777344 16.027344 11.386719 15.621094 12.140625 15.621094 C 12.894531 15.621094 13.503906 16.027344 13.503906 16.527344 "/>
<path style=" stroke:none;fill-rule:nonzero;fill:#FFFFFF;fill-opacity:1;" d="M 19.164062 16.261719 C 19.164062 16.765625 18.554688 17.171875 17.804688 17.171875 C 17.050781 17.171875 16.4375 16.765625 16.4375 16.261719 C 16.4375 15.761719 17.050781 15.351562 17.804688 15.351562 C 18.554688 15.351562 19.164062 15.761719 19.164062 16.261719 "/>
<path style=" stroke:none;fill-rule:nonzero;fill:#FFFFFF;fill-opacity:1;" d="M 6.726562 21.484375 C 6.726562 21.984375 6.117188 22.394531 5.363281 22.394531 C 4.609375 22.394531 4 21.984375 4 21.484375 C 4 20.980469 4.609375 20.574219 5.363281 20.574219 C 6.117188 20.574219 6.726562 20.980469 6.726562 21.484375 "/>
<path style=" stroke:none;fill-rule:nonzero;fill:#FFFFFF;fill-opacity:1;" d="M 12.378906 21.523438 C 12.378906 22.023438 11.765625 22.433594 11.011719 22.433594 C 10.261719 22.433594 9.648438 22.023438 9.648438 21.523438 C 9.648438 21.023438 10.261719 20.613281 11.011719 20.613281 C 11.765625 20.613281 12.378906 21.023438 12.378906 21.523438 "/>
<path style=" stroke:none;fill-rule:nonzero;fill:#FFFFFF;fill-opacity:1;" d="M 18.039062 21.523438 C 18.039062 22.023438 17.429688 22.433594 16.675781 22.433594 C 15.921875 22.433594 15.3125 22.023438 15.3125 21.523438 C 15.3125 21.023438 15.921875 20.613281 16.675781 20.613281 C 17.429688 20.613281 18.039062 21.023438 18.039062 21.523438 "/>
</g>
</svg>
