<?xml version="1.0" encoding="UTF-8"?>
<svg xmlns="http://www.w3.org/2000/svg" xmlns:xlink="http://www.w3.org/1999/xlink" width="49pt" height="28pt" viewBox="0 0 49 28" version="1.1">
<g id="surface0">
<path style="fill-rule:nonzero;fill:#FF5A00;fill-opacity:1;stroke-width:0.4;stroke-linecap:butt;stroke-linejoin:miter;stroke:#FFFFFF;stroke-opacity:1;stroke-miterlimit:4;" d="M 0.679688 15.789062 L 15.105469 27.460938 L 48.417969 27.460938 L 36.476562 15.789062 L 0.679688 15.789062 Z M 0.679688 15.789062 " transform="matrix(1,0,0,-1,0,28)"/>
<path style="fill-rule:nonzero;fill:#FF5A00;fill-opacity:1;stroke-width:0.4;stroke-linecap:butt;stroke-linejoin:miter;stroke:#FFFFFF;stroke-opacity:1;stroke-miterlimit:4;" d="M 36.476562 0.898438 L 48.417969 13.066406 L 48.417969 27.4375 L 36.476562 15.789062 L 36.476562 0.898438 Z M 36.476562 0.898438 " transform="matrix(1,0,0,-1,0,28)"/>
<path style="fill-rule:nonzero;fill:#FF5A00;fill-opacity:1;stroke-width:0.4;stroke-linecap:butt;stroke-linejoin:miter;stroke:#FFFFFF;stroke-opacity:1;stroke-miterlimit:4;" d="M 0.726562 0.890625 L 36.476562 0.890625 L 36.476562 15.789062 L 0.726562 15.789062 L 0.726562 0.890625 Z M 0.726562 0.890625 " transform="matrix(1,0,0,-1,0,28)"/>
<path style=" stroke:none;fill-rule:nonzero;fill:#FFFFFF;fill-opacity:1;" d="M 11.527344 7.96875 L 15.988281 7.535156 L 15.34375 9.390625 L 13.988281 8.738281 L 9.105469 10.832031 L 7.914062 10.503906 L 12.65625 8.445312 L 11.527344 7.96875 "/>
<path style=" stroke:none;fill-rule:nonzero;fill:#FFFFFF;fill-opacity:1;" d="M 30.59375 8.042969 L 26.710938 7.375 L 26.894531 9.417969 L 28.1875 8.789062 L 31.699219 10.5625 L 32.851562 10.25 L 29.457031 8.519531 L 30.59375 8.042969 "/>
<path style="fill:none;stroke-width:0.45;stroke-linecap:round;stroke-linejoin:miter;stroke:#FFFFFF;stroke-opacity:1;stroke-miterlimit:1;" d="M 34.460938 7.921875 C 34.460938 7.921875 32.082031 1.804688 29.222656 7.941406 C 26.363281 14.066406 23.980469 7.949219 23.980469 7.949219 C 23.980469 7.949219 21.605469 1.832031 18.746094 7.964844 C 15.890625 14.09375 13.523438 7.925781 13.523438 7.925781 C 13.523438 7.925781 11.148438 1.804688 8.289062 7.941406 C 5.433594 14.066406 3.0625 7.957031 3.0625 7.957031 " transform="matrix(1,0,0,-1,0,28)"/>
<path style="fill:none;stroke-width:0.9;stroke-linecap:round;stroke-linejoin:miter;stroke:#FFFFFF;stroke-opacity:1;stroke-miterlimit:1;" d="M 3.0625 7.921875 C 3.0625 7.921875 5.441406 1.804688 8.300781 7.941406 C 11.15625 14.066406 13.539062 7.949219 13.539062 7.949219 C 13.539062 7.949219 15.917969 1.832031 18.773438 7.964844 C 21.632812 14.09375 24 7.925781 24 7.925781 C 24 7.925781 26.371094 1.804688 29.230469 7.941406 C 32.089844 14.066406 34.460938 7.957031 34.460938 7.957031 " transform="matrix(1,0,0,-1,0,28)"/>
<path style="fill:none;stroke-width:0.45;stroke-linecap:round;stroke-linejoin:miter;stroke:#FFFFFF;stroke-opacity:1;stroke-miterlimit:1;" d="M 34.460938 7.921875 C 34.460938 7.921875 32.082031 1.804688 29.222656 7.941406 C 26.363281 14.066406 23.980469 7.949219 23.980469 7.949219 C 23.980469 7.949219 21.605469 1.832031 18.746094 7.964844 C 15.890625 14.09375 13.523438 7.925781 13.523438 7.925781 C 13.523438 7.925781 11.148438 1.804688 8.289062 7.941406 C 5.433594 14.066406 3.0625 7.957031 3.0625 7.957031 " transform="matrix(1,0,0,-1,0,28)"/>
<path style="fill:none;stroke-width:0.9;stroke-linecap:round;stroke-linejoin:miter;stroke:#FFFFFF;stroke-opacity:1;stroke-miterlimit:1;" d="M 3.0625 7.921875 C 3.0625 7.921875 5.441406 1.804688 8.300781 7.941406 C 11.15625 14.066406 13.539062 7.949219 13.539062 7.949219 C 13.539062 7.949219 15.917969 1.832031 18.773438 7.964844 C 21.632812 14.09375 24 7.925781 24 7.925781 C 24 7.925781 26.371094 1.804688 29.230469 7.941406 C 32.089844 14.066406 34.460938 7.957031 34.460938 7.957031 " transform="matrix(1,0,0,-1,0,28)"/>
<path style="fill:none;stroke-width:0.45;stroke-linecap:round;stroke-linejoin:miter;stroke:#FFFFFF;stroke-opacity:1;stroke-miterlimit:1;" d="M 34.460938 7.921875 C 34.460938 7.921875 32.082031 1.804688 29.222656 7.941406 C 26.363281 14.066406 23.980469 7.949219 23.980469 7.949219 C 23.980469 7.949219 21.605469 1.832031 18.746094 7.964844 C 15.890625 14.09375 13.523438 7.925781 13.523438 7.925781 C 13.523438 7.925781 11.148438 1.804688 8.289062 7.941406 C 5.433594 14.066406 3.0625 7.957031 3.0625 7.957031 " transform="matrix(1,0,0,-1,0,28)"/>
<path style="fill:none;stroke-width:0.9;stroke-linecap:round;stroke-linejoin:miter;stroke:#FFFFFF;stroke-opacity:1;stroke-miterlimit:1;" d="M 3.0625 7.921875 C 3.0625 7.921875 5.441406 1.804688 8.300781 7.941406 C 11.15625 14.066406 13.539062 7.949219 13.539062 7.949219 C 13.539062 7.949219 15.917969 1.832031 18.773438 7.964844 C 21.632812 14.09375 24 7.925781 24 7.925781 C 24 7.925781 26.371094 1.804688 29.230469 7.941406 C 32.089844 14.066406 34.460938 7.957031 34.460938 7.957031 " transform="matrix(1,0,0,-1,0,28)"/>
<path style=" stroke:none;fill-rule:nonzero;fill:#FFFFFF;fill-opacity:1;" d="M 23.832031 3.460938 L 21.898438 3.332031 L 28.203125 1.714844 L 30.960938 3.867188 L 28.925781 3.757812 L 28.523438 3.742188 L 25.125 6.164062 L 20.507812 6.191406 L 24.132812 3.480469 L 23.832031 3.460938 "/>
<path style=" stroke:none;fill-rule:nonzero;fill:#FFFFFF;fill-opacity:1;" d="M 19.898438 9.300781 L 18.5625 9.273438 L 22.082031 7.085938 L 22.304688 9.296875 L 20.882812 9.304688 L 21.105469 9.3125 L 19.316406 11.261719 L 18.003906 11.253906 L 19.800781 9.308594 L 19.898438 9.300781 "/>
</g>
</svg>
