<?xml version="1.0" encoding="UTF-8"?>
<svg xmlns="http://www.w3.org/2000/svg" xmlns:xlink="http://www.w3.org/1999/xlink" width="37pt" height="30pt" viewBox="0 0 37 30" version="1.1">
<defs>
<clipPath id="clip1">
  <path d="M 0 0.417969 L 36 0.417969 L 36 29.941406 L 0 29.941406 L 0 0.417969 Z M 0 0.417969 "/>
</clipPath>
<clipPath id="clip2">
  <path d="M 0 0.417969 L 36 0.417969 L 36 29.941406 L 0 29.941406 L 0 0.417969 Z M 0 0.417969 "/>
</clipPath>
<clipPath id="clip3">
  <path d="M 0 0.417969 L 36 0.417969 L 36 29.941406 L 0 29.941406 L 0 0.417969 Z M 0 0.417969 "/>
</clipPath>
</defs>
<g id="surface0">
<path style=" stroke:none;fill-rule:nonzero;fill:#FF5A00;fill-opacity:1;" d="M 8.28125 1.8125 L 0.402344 5.886719 C 19.664062 18.125 30.988281 5.105469 30.988281 5.105469 C 19.535156 12.003906 8.28125 1.8125 8.28125 1.8125 "/>
<g clip-path="url(#clip1)" clip-rule="nonzero">
<path style="fill:none;stroke-width:0.4;stroke-linecap:butt;stroke-linejoin:miter;stroke:#FFFFFF;stroke-opacity:1;stroke-miterlimit:4;" d="M 8.28125 28.1875 L 0.402344 24.113281 C 19.664062 11.875 30.988281 24.894531 30.988281 24.894531 C 19.535156 17.996094 8.28125 28.1875 8.28125 28.1875 Z M 8.28125 28.1875 " transform="matrix(1,0,0,-1,0,30)"/>
</g>
<path style=" stroke:none;fill-rule:nonzero;fill:#FF5A00;fill-opacity:1;" d="M 35.933594 0.550781 C 34.632812 3.15625 30.859375 5.234375 30.859375 5.234375 L 30.859375 29.578125 L 35.933594 25.410156 L 35.933594 0.550781 "/>
<g clip-path="url(#clip2)" clip-rule="nonzero">
<path style="fill:none;stroke-width:0.4;stroke-linecap:butt;stroke-linejoin:miter;stroke:#FFFFFF;stroke-opacity:1;stroke-miterlimit:4;" d="M 35.933594 29.449219 C 34.632812 26.84375 30.859375 24.765625 30.859375 24.765625 L 30.859375 0.421875 L 35.933594 4.589844 L 35.933594 29.449219 Z M 35.933594 29.449219 " transform="matrix(1,0,0,-1,0,30)"/>
</g>
<path style=" stroke:none;fill-rule:nonzero;fill:#FF5A00;fill-opacity:1;" d="M 30.859375 5.234375 C 30.859375 5.234375 19.664062 18.125 0.402344 5.886719 L 0.402344 29.578125 L 30.859375 29.578125 L 30.859375 5.234375 "/>
<g clip-path="url(#clip3)" clip-rule="nonzero">
<path style="fill:none;stroke-width:0.4;stroke-linecap:butt;stroke-linejoin:miter;stroke:#FFFFFF;stroke-opacity:1;stroke-miterlimit:4;" d="M 30.859375 24.765625 C 30.859375 24.765625 19.664062 11.875 0.402344 24.113281 L 0.402344 0.421875 L 30.859375 0.421875 L 30.859375 24.765625 Z M 30.859375 24.765625 " transform="matrix(1,0,0,-1,0,30)"/>
</g>
<path style="fill:none;stroke-width:0.45;stroke-linecap:round;stroke-linejoin:miter;stroke:#FFFFFF;stroke-opacity:1;stroke-miterlimit:1;" d="M 28.242188 9.980469 C 28.242188 9.980469 26.285156 4.953125 23.933594 9.996094 C 21.582031 15.039062 19.621094 10.007812 19.621094 10.007812 C 19.621094 10.007812 17.664062 4.972656 15.316406 10.019531 C 12.964844 15.0625 11.015625 9.988281 11.015625 9.988281 C 11.015625 9.988281 9.0625 4.953125 6.710938 9.996094 C 4.359375 15.039062 2.410156 10.011719 2.410156 10.011719 " transform="matrix(1,0,0,-1,0,30)"/>
<path style="fill:none;stroke-width:0.9;stroke-linecap:round;stroke-linejoin:miter;stroke:#FFFFFF;stroke-opacity:1;stroke-miterlimit:1;" d="M 2.410156 9.980469 C 2.410156 9.980469 4.367188 4.953125 6.71875 9.996094 C 9.070312 15.039062 11.03125 10.007812 11.03125 10.007812 C 11.03125 10.007812 12.984375 4.972656 15.335938 10.019531 C 17.6875 15.0625 19.636719 9.988281 19.636719 9.988281 C 19.636719 9.988281 21.585938 4.953125 23.941406 9.996094 C 26.292969 15.039062 28.242188 10.011719 28.242188 10.011719 " transform="matrix(1,0,0,-1,0,30)"/>
</g>
</svg>
