<?xml version="1.0" encoding="UTF-8"?>
<svg xmlns="http://www.w3.org/2000/svg" xmlns:xlink="http://www.w3.org/1999/xlink" width="55pt" height="21pt" viewBox="0 0 55 21" version="1.1">
<defs>
<clipPath id="clip1">
  <path d="M 0 21 L 54.8125 21 L 54.8125 0.359375 L 0 0.359375 L 0 21 Z M 0 21 "/>
</clipPath>
<clipPath id="clip2">
  <path d="M 0 21 L 54.8125 21 L 54.8125 0.359375 L 0 0.359375 L 0 21 Z M 0 21 "/>
</clipPath>
</defs>
<g id="surface0">
<path style=" stroke:none;fill-rule:nonzero;fill:#CC092F;fill-opacity:1;" d="M 0.65625 12.445312 L 42.378906 12.445312 L 42.378906 20.152344 L 0.65625 20.152344 L 0.65625 12.445312 Z M 0.65625 12.445312 "/>
<path style=" stroke:none;fill-rule:nonzero;fill:#CC092F;fill-opacity:1;" d="M 1.480469 13.511719 L 41.363281 13.511719 L 41.363281 19.800781 L 1.480469 19.800781 L 1.480469 13.511719 Z M 1.480469 13.511719 "/>
<path style="fill:none;stroke-width:0.4;stroke-linecap:butt;stroke-linejoin:miter;stroke:#FFFFFF;stroke-opacity:1;stroke-miterlimit:4;" d="M 1.480469 1.199219 L 41.363281 1.199219 L 41.363281 7.488281 L 1.480469 7.488281 L 1.480469 1.199219 Z M 1.480469 1.199219 " transform="matrix(1,0,0,-1,0,21)"/>
<path style=" stroke:none;fill-rule:nonzero;fill:#CC092F;fill-opacity:1;" d="M 0.5625 12.507812 L 14.992188 0.8125 L 54.324219 0.8125 L 42.34375 12.507812 L 0.5625 12.507812 "/>
<g clip-path="url(#clip1)" clip-rule="nonzero">
<path style="fill:none;stroke-width:0.4;stroke-linecap:butt;stroke-linejoin:miter;stroke:#FFFFFF;stroke-opacity:1;stroke-miterlimit:4;" d="M 0.5625 8.492188 L 14.992188 20.1875 L 54.324219 20.1875 L 42.34375 8.492188 L 0.5625 8.492188 Z M 0.5625 8.492188 " transform="matrix(1,0,0,-1,0,21)"/>
</g>
<path style=" stroke:none;fill-rule:nonzero;fill:#CC092F;fill-opacity:1;" d="M 42.359375 20.519531 L 54.289062 8.636719 L 54.296875 0.832031 L 42.359375 12.488281 L 42.359375 20.519531 "/>
<g clip-path="url(#clip2)" clip-rule="nonzero">
<path style="fill:none;stroke-width:0.4;stroke-linecap:butt;stroke-linejoin:miter;stroke:#FFFFFF;stroke-opacity:1;stroke-miterlimit:4;" d="M 42.359375 0.480469 L 54.289062 12.363281 L 54.296875 20.167969 L 42.359375 8.511719 L 42.359375 0.480469 Z M 42.359375 0.480469 " transform="matrix(1,0,0,-1,0,21)"/>
</g>
<path style=" stroke:none;fill-rule:nonzero;fill:#FFFFFF;fill-opacity:1;" d="M 3.183594 15.679688 L 5.65625 15.679688 L 5.65625 17.554688 L 3.183594 17.554688 L 3.183594 15.679688 Z M 3.183594 15.679688 "/>
<path style=" stroke:none;fill-rule:nonzero;fill:#FFFFFF;fill-opacity:1;" d="M 19.183594 15.679688 L 21.65625 15.679688 L 21.65625 17.554688 L 19.183594 17.554688 L 19.183594 15.679688 Z M 19.183594 15.679688 "/>
<path style=" stroke:none;fill-rule:nonzero;fill:#FFFFFF;fill-opacity:1;" d="M 37.851562 15.679688 L 40.320312 15.679688 L 40.320312 17.554688 L 37.851562 17.554688 L 37.851562 15.679688 Z M 37.851562 15.679688 "/>
<path style="fill-rule:nonzero;fill:#CC092F;fill-opacity:1;stroke-width:0.373;stroke-linecap:butt;stroke-linejoin:miter;stroke:#FFFFFF;stroke-opacity:1;stroke-miterlimit:4;" d="M 31.925781 7.574219 C 33.40625 6.933594 34.386719 5.816406 34.386719 4.554688 C 34.386719 2.5625 31.960938 0.949219 28.96875 0.949219 C 25.980469 0.949219 23.554688 2.5625 23.554688 4.554688 C 23.554688 6.542969 25.980469 8.15625 28.96875 8.15625 C 30.058594 8.15625 31.074219 7.941406 31.925781 7.574219 " transform="matrix(1,0,0,-1,0,21)"/>
<path style=" stroke:none;fill-rule:nonzero;fill:#FFFFFF;fill-opacity:1;" d="M 33.074219 16.429688 C 33.074219 17.921875 31.253906 19.132812 29.011719 19.132812 C 26.769531 19.132812 24.949219 17.921875 24.949219 16.429688 C 24.949219 14.9375 26.769531 13.726562 29.011719 13.726562 C 31.253906 13.726562 33.074219 14.9375 33.074219 16.429688 "/>
<path style="fill:none;stroke-width:0.28;stroke-linecap:butt;stroke-linejoin:miter;stroke:#FFFFFF;stroke-opacity:1;stroke-miterlimit:4;" d="M 33.074219 4.570312 C 33.074219 3.078125 31.253906 1.867188 29.011719 1.867188 C 26.769531 1.867188 24.949219 3.078125 24.949219 4.570312 C 24.949219 6.0625 26.769531 7.273438 29.011719 7.273438 C 31.253906 7.273438 33.074219 6.0625 33.074219 4.570312 Z M 33.074219 4.570312 " transform="matrix(1,0,0,-1,0,21)"/>
</g>
</svg>
