<?xml version="1.0" encoding="UTF-8"?>
<svg xmlns="http://www.w3.org/2000/svg" xmlns:xlink="http://www.w3.org/1999/xlink" width="33pt" height="51pt" viewBox="0 0 33 51" version="1.1">
<defs>
<clipPath id="clip1">
  <path d="M 0.0585938 0.425781 L 32 0.425781 L 32 51 L 0.0585938 51 L 0.0585938 0.425781 Z M 0.0585938 0.425781 "/>
</clipPath>
<clipPath id="clip2">
  <path d="M 0.0585938 0.425781 L 32 0.425781 L 32 51 L 0.0585938 51 L 0.0585938 0.425781 Z M 0.0585938 0.425781 "/>
</clipPath>
<clipPath id="clip3">
  <path d="M 0.0585938 0.425781 L 32 0.425781 L 32 51 L 0.0585938 51 L 0.0585938 0.425781 Z M 0.0585938 0.425781 "/>
</clipPath>
<clipPath id="clip4">
  <path d="M 0.0585938 0.425781 L 32 0.425781 L 32 51 L 0.0585938 51 L 0.0585938 0.425781 Z M 0.0585938 0.425781 "/>
</clipPath>
<clipPath id="clip5">
  <path d="M 0.0585938 0.425781 L 32 0.425781 L 32 51 L 0.0585938 51 L 0.0585938 0.425781 Z M 0.0585938 0.425781 "/>
</clipPath>
<clipPath id="clip6">
  <path d="M 0.0585938 0.425781 L 32 0.425781 L 32 51 L 0.0585938 51 L 0.0585938 0.425781 Z M 0.0585938 0.425781 "/>
</clipPath>
</defs>
<g id="surface0">
<path style="fill-rule:nonzero;fill:#CC092F;fill-opacity:1;stroke-width:0.4;stroke-linecap:butt;stroke-linejoin:miter;stroke:#FFFFFF;stroke-opacity:1;stroke-miterlimit:4;" d="M 28.761719 32.558594 C 30.226562 33.261719 28.730469 36.246094 24.273438 33.816406 " transform="matrix(1,0,0,-1,0,51)"/>
<path style=" stroke:none;fill-rule:nonzero;fill:#CC092F;fill-opacity:1;" d="M 11.730469 7.8125 L 25.167969 7.8125 L 25.167969 17.945312 L 11.730469 17.945312 L 11.730469 7.8125 Z M 11.730469 7.8125 "/>
<path style="fill:none;stroke-width:0.4;stroke-linecap:butt;stroke-linejoin:miter;stroke:#FFFFFF;stroke-opacity:1;stroke-miterlimit:4;" d="M 25.171875 33.054688 L 25.171875 43.1875 L 11.730469 43.1875 L 11.730469 33.054688 " transform="matrix(1,0,0,-1,0,51)"/>
<path style=" stroke:none;fill-rule:nonzero;fill:#CC092F;fill-opacity:1;" d="M 25.171875 7.8125 L 25.171875 17.980469 L 26.730469 15.210938 L 26.730469 6.328125 L 25.171875 7.8125 "/>
<path style="fill:none;stroke-width:0.4;stroke-linecap:butt;stroke-linejoin:miter;stroke:#FFFFFF;stroke-opacity:1;stroke-miterlimit:4;" d="M 25.171875 43.1875 L 25.171875 33.019531 L 26.730469 35.789062 L 26.730469 44.671875 L 25.171875 43.1875 Z M 25.171875 43.1875 " transform="matrix(1,0,0,-1,0,51)"/>
<path style=" stroke:none;fill-rule:nonzero;fill:#CC092F;fill-opacity:1;" d="M 26.730469 6.328125 L 16.890625 6.328125 L 11.730469 7.8125 L 25.171875 7.8125 L 26.730469 6.328125 "/>
<path style="fill:none;stroke-width:0.4;stroke-linecap:butt;stroke-linejoin:miter;stroke:#FFFFFF;stroke-opacity:1;stroke-miterlimit:4;" d="M 26.730469 44.671875 L 16.890625 44.671875 L 11.730469 43.1875 L 25.171875 43.1875 L 26.730469 44.671875 Z M 26.730469 44.671875 " transform="matrix(1,0,0,-1,0,51)"/>
<path style=" stroke:none;fill-rule:nonzero;fill:#CC092F;fill-opacity:1;" d="M 12.902344 8.984375 L 23.996094 8.984375 L 23.996094 16.769531 L 12.902344 16.769531 L 12.902344 8.984375 Z M 12.902344 8.984375 "/>
<path style="fill:none;stroke-width:0.4;stroke-linecap:butt;stroke-linejoin:miter;stroke:#FFFFFF;stroke-opacity:1;stroke-miterlimit:4;" d="M 12.902344 34.226562 L 23.996094 34.226562 L 23.996094 42.015625 L 12.902344 42.015625 L 12.902344 34.226562 Z M 12.902344 34.226562 " transform="matrix(1,0,0,-1,0,51)"/>
<path style="fill-rule:nonzero;fill:#CC092F;fill-opacity:1;stroke-width:0.4;stroke-linecap:butt;stroke-linejoin:miter;stroke:#FFFFFF;stroke-opacity:1;stroke-miterlimit:4;" d="M 23.039062 31.835938 L 23.59375 30.550781 L 25.136719 32.238281 L 24.949219 32.863281 " transform="matrix(1,0,0,-1,0,51)"/>
<path style=" stroke:none;fill-rule:nonzero;fill:#CC092F;fill-opacity:1;" d="M 23.039062 19.164062 L 25.171875 17.988281 L 11.722656 17.988281 L 14.699219 19.164062 L 23.039062 19.164062 "/>
<path style="fill:none;stroke-width:0.4;stroke-linecap:butt;stroke-linejoin:miter;stroke:#FFFFFF;stroke-opacity:1;stroke-miterlimit:4;" d="M 23.039062 31.835938 L 25.171875 33.011719 L 11.722656 33.011719 L 14.699219 31.835938 L 23.039062 31.835938 Z M 23.039062 31.835938 " transform="matrix(1,0,0,-1,0,51)"/>
<path style=" stroke:none;fill-rule:nonzero;fill:#CC092F;fill-opacity:1;" d="M 23.628906 20.488281 L 23.039062 19.164062 L 14.699219 19.164062 L 13.925781 20.488281 L 23.628906 20.488281 "/>
<path style="fill:none;stroke-width:0.4;stroke-linecap:butt;stroke-linejoin:miter;stroke:#FFFFFF;stroke-opacity:1;stroke-miterlimit:4;" d="M 23.628906 30.511719 L 23.039062 31.835938 L 14.699219 31.835938 L 13.925781 30.511719 L 23.628906 30.511719 Z M 23.628906 30.511719 " transform="matrix(1,0,0,-1,0,51)"/>
<path style="fill-rule:nonzero;fill:#CC092F;fill-opacity:1;stroke-width:0.4;stroke-linecap:butt;stroke-linejoin:miter;stroke:#FFFFFF;stroke-opacity:1;stroke-miterlimit:4;" d="M 6.035156 26.5625 L 5.917969 26.5625 L 5.953125 11.148438 C 5.917969 11.128906 4.703125 11.195312 4.683594 11.128906 C 4.675781 9.777344 4.695312 9.398438 4.730469 8.199219 C 4.660156 8.195312 3.285156 8.195312 3.285156 8.179688 C 3.296875 12.675781 3.230469 22.066406 3.183594 27.117188 " transform="matrix(1,0,0,-1,0,51)"/>
<g clip-path="url(#clip1)" clip-rule="nonzero">
<path style="fill-rule:nonzero;fill:#CC092F;fill-opacity:1;stroke-width:0.4;stroke-linecap:butt;stroke-linejoin:miter;stroke:#FFFFFF;stroke-opacity:1;stroke-miterlimit:4;" d="M 31.214844 27.679688 C 31.234375 29.632812 32.019531 29.773438 32.113281 30.0625 C 32.113281 30.371094 32.160156 30.8125 32.117188 31.074219 C 31.367188 31.101562 31.234375 31.054688 30.21875 31.074219 L 8.664062 31.269531 C 8.664062 31.191406 5.222656 30.304688 5.160156 30.273438 C 4.113281 30.335938 3.726562 29.933594 2.722656 29.886719 C 2.601562 29.609375 2.738281 29.71875 2.769531 29.378906 C 2.96875 29.210938 3.261719 29.132812 3.464844 28.898438 C 3.585938 28.191406 3.589844 27.898438 3.585938 27.296875 C 3.585938 26.910156 3.582031 26.523438 3.582031 26.136719 " transform="matrix(1,0,0,-1,0,51)"/>
</g>
<path style="fill-rule:nonzero;fill:#CC092F;fill-opacity:1;stroke-width:0.4;stroke-linecap:butt;stroke-linejoin:miter;stroke:#FFFFFF;stroke-opacity:1;stroke-miterlimit:4;" d="M 31.128906 26.976562 L 31.011719 26.976562 L 31.046875 11.5625 C 31.011719 11.539062 29.796875 11.609375 29.773438 11.539062 C 29.765625 10.1875 29.789062 9.8125 29.820312 8.613281 C 29.753906 8.605469 28.378906 8.605469 28.378906 8.59375 C 28.390625 13.085938 28.324219 22.480469 28.273438 27.527344 " transform="matrix(1,0,0,-1,0,51)"/>
<path style=" stroke:none;fill-rule:nonzero;fill:#CC092F;fill-opacity:1;" d="M 30.632812 25.480469 L 30.632812 22.472656 L 3.546875 22.085938 L 3.546875 24.863281 L 30.632812 25.480469 "/>
<path style="fill:none;stroke-width:0.4;stroke-linecap:butt;stroke-linejoin:miter;stroke:#FFFFFF;stroke-opacity:1;stroke-miterlimit:4;" d="M 30.632812 25.519531 L 30.632812 28.527344 L 3.546875 28.914062 L 3.546875 26.136719 L 30.632812 25.519531 Z M 30.632812 25.519531 " transform="matrix(1,0,0,-1,0,51)"/>
<path style=" stroke:none;fill-rule:nonzero;fill:#CC092F;fill-opacity:1;" d="M 31.90625 24.136719 L 31.90625 21.105469 L 30.632812 22.449219 L 30.632812 25.457031 L 31.90625 24.136719 "/>
<g clip-path="url(#clip2)" clip-rule="nonzero">
<path style="fill:none;stroke-width:0.4;stroke-linecap:butt;stroke-linejoin:miter;stroke:#FFFFFF;stroke-opacity:1;stroke-miterlimit:4;" d="M 31.90625 26.863281 L 31.90625 29.894531 L 30.632812 28.550781 L 30.632812 25.542969 L 31.90625 26.863281 Z M 31.90625 26.863281 " transform="matrix(1,0,0,-1,0,51)"/>
</g>
<path style=" stroke:none;fill-rule:nonzero;fill:#CC092F;fill-opacity:1;" d="M 31.96875 19.925781 L 30.480469 21.46875 L 2.695312 21.082031 L 8.792969 19.613281 L 31.96875 19.925781 "/>
<g clip-path="url(#clip3)" clip-rule="nonzero">
<path style="fill:none;stroke-width:0.4;stroke-linecap:butt;stroke-linejoin:miter;stroke:#FFFFFF;stroke-opacity:1;stroke-miterlimit:4;" d="M 31.96875 31.074219 L 30.480469 29.53125 L 2.695312 29.917969 L 8.792969 31.386719 L 31.96875 31.074219 Z M 31.96875 31.074219 " transform="matrix(1,0,0,-1,0,51)"/>
</g>
<path style=" stroke:none;fill-rule:nonzero;fill:#CC092F;fill-opacity:1;" d="M 28.394531 20.5625 L 28.398438 20.023438 L 29.21875 18.382812 L 29.214844 19.507812 L 28.394531 20.5625 "/>
<path style="fill:none;stroke-width:0.4;stroke-linecap:butt;stroke-linejoin:miter;stroke:#FFFFFF;stroke-opacity:1;stroke-miterlimit:4;" d="M 28.394531 30.4375 L 28.398438 30.976562 L 29.21875 32.617188 L 29.214844 31.492188 L 28.394531 30.4375 Z M 28.394531 30.4375 " transform="matrix(1,0,0,-1,0,51)"/>
<path style=" stroke:none;fill-rule:nonzero;fill:#CC092F;fill-opacity:1;" d="M 28.410156 20.023438 L 29.230469 18.382812 L 27.355469 18.382812 L 26.535156 20.023438 L 28.410156 20.023438 "/>
<path style="fill:none;stroke-width:0.4;stroke-linecap:butt;stroke-linejoin:miter;stroke:#FFFFFF;stroke-opacity:1;stroke-miterlimit:4;" d="M 28.410156 30.976562 L 29.230469 32.617188 L 27.355469 32.617188 L 26.535156 30.976562 L 28.410156 30.976562 Z M 28.410156 30.976562 " transform="matrix(1,0,0,-1,0,51)"/>
<path style="fill-rule:nonzero;fill:#CC092F;fill-opacity:1;stroke-width:0.4;stroke-linecap:butt;stroke-linejoin:miter;stroke:#FFFFFF;stroke-opacity:1;stroke-miterlimit:4;" d="M 26.535156 30.976562 L 28.410156 30.976562 L 28.410156 30.453125 L 26.535156 30.453125 L 26.535156 30.976562 Z M 26.535156 30.976562 " transform="matrix(1,0,0,-1,0,51)"/>
<path style=" stroke:none;fill-rule:nonzero;fill:#CC092F;fill-opacity:1;" d="M 24.121094 20.859375 L 24.121094 20.210938 L 25.523438 18.273438 L 25.523438 19.460938 L 24.121094 20.859375 "/>
<path style="fill:none;stroke-width:0.4;stroke-linecap:butt;stroke-linejoin:miter;stroke:#FFFFFF;stroke-opacity:1;stroke-miterlimit:4;" d="M 24.121094 30.140625 L 24.121094 30.789062 L 25.523438 32.726562 L 25.523438 31.539062 L 24.121094 30.140625 Z M 24.121094 30.140625 " transform="matrix(1,0,0,-1,0,51)"/>
<path style=" stroke:none;fill-rule:nonzero;fill:#CC092F;fill-opacity:1;" d="M 24.121094 20.222656 L 11.808594 20.222656 L 13.207031 18.273438 L 25.523438 18.273438 L 24.121094 20.222656 "/>
<path style="fill:none;stroke-width:0.4;stroke-linecap:butt;stroke-linejoin:miter;stroke:#FFFFFF;stroke-opacity:1;stroke-miterlimit:4;" d="M 24.121094 30.777344 L 11.808594 30.777344 L 13.207031 32.726562 L 25.523438 32.726562 L 24.121094 30.777344 Z M 24.121094 30.777344 " transform="matrix(1,0,0,-1,0,51)"/>
<path style="fill-rule:nonzero;fill:#CC092F;fill-opacity:1;stroke-width:0.4;stroke-linecap:butt;stroke-linejoin:miter;stroke:#FFFFFF;stroke-opacity:1;stroke-miterlimit:4;" d="M 11.800781 30.777344 L 24.121094 30.777344 L 24.121094 30.140625 L 11.800781 30.140625 L 11.800781 30.777344 Z M 11.800781 30.777344 " transform="matrix(1,0,0,-1,0,51)"/>
<path style=" stroke:none;fill-rule:nonzero;fill:#CC092F;fill-opacity:1;" d="M 20.597656 42.261719 C 20.390625 43.65625 20.117188 43.976562 21.722656 44.21875 L 21.722656 44.296875 C 21.722656 44.296875 21.898438 43.917969 21.976562 44.609375 C 21.976562 44.609375 22.28125 45.691406 17.960938 44.535156 C 17.960938 44.535156 17.714844 43.738281 17.175781 44.203125 L 17.253906 44.277344 C 17.398438 43.703125 17.851562 43.519531 17.609375 42.625 L 17.625 42.710938 L 20.597656 42.261719 "/>
<path style="fill:none;stroke-width:0.4;stroke-linecap:butt;stroke-linejoin:miter;stroke:#FFFFFF;stroke-opacity:1;stroke-miterlimit:4;" d="M 20.597656 8.738281 C 20.390625 7.34375 20.117188 7.023438 21.722656 6.78125 L 21.722656 6.703125 C 21.722656 6.703125 21.898438 7.082031 21.976562 6.390625 C 21.976562 6.390625 22.28125 5.308594 17.960938 6.464844 C 17.960938 6.464844 17.714844 7.261719 17.175781 6.796875 L 17.253906 6.722656 C 17.398438 7.296875 17.851562 7.480469 17.609375 8.375 L 17.625 8.289062 L 20.597656 8.738281 Z M 20.597656 8.738281 " transform="matrix(1,0,0,-1,0,51)"/>
<path style=" stroke:none;fill-rule:nonzero;fill:#CC092F;fill-opacity:1;" d="M 23.101562 20.683594 C 23.371094 20.375 23.160156 20.503906 23.449219 20.195312 C 23.875 19.734375 24.285156 19.320312 24.648438 18.816406 C 24.867188 18.515625 25.058594 18.21875 25.292969 17.929688 C 25.523438 17.648438 26.042969 17.632812 26.359375 17.789062 C 26.628906 17.921875 26.761719 17.992188 27.042969 18.070312 C 27.214844 18.113281 27.351562 18.492188 27.152344 18.515625 C 27.3125 18.585938 27.460938 18.679688 27.519531 18.839844 C 27.53125 18.875 27.488281 18.957031 27.496094 18.984375 C 27.589844 19.265625 28.125 19.542969 27.828125 19.761719 C 27.675781 19.871094 27.398438 19.691406 27.179688 19.757812 C 26.992188 19.816406 26.890625 19.996094 26.75 20.140625 C 26.605469 20.28125 26.429688 20.320312 26.257812 20.371094 C 26 20.453125 25.769531 20.53125 25.515625 20.621094 C 25.324219 20.6875 25.183594 20.828125 25.003906 20.921875 C 24.523438 21.167969 24.628906 21.175781 24.179688 21.464844 C 23.820312 21.28125 23.363281 20.988281 23.101562 20.683594 "/>
<path style="fill:none;stroke-width:0.4;stroke-linecap:butt;stroke-linejoin:miter;stroke:#FFFFFF;stroke-opacity:1;stroke-miterlimit:4;" d="M 23.101562 30.316406 C 23.371094 30.625 23.160156 30.496094 23.449219 30.804688 C 23.875 31.265625 24.285156 31.679688 24.648438 32.183594 C 24.867188 32.484375 25.058594 32.78125 25.292969 33.070312 C 25.523438 33.351562 26.042969 33.367188 26.359375 33.210938 C 26.628906 33.078125 26.761719 33.007812 27.042969 32.929688 C 27.214844 32.886719 27.351562 32.507812 27.152344 32.484375 C 27.3125 32.414062 27.460938 32.320312 27.519531 32.160156 C 27.53125 32.125 27.488281 32.042969 27.496094 32.015625 C 27.589844 31.734375 28.125 31.457031 27.828125 31.238281 C 27.675781 31.128906 27.398438 31.308594 27.179688 31.242188 C 26.992188 31.183594 26.890625 31.003906 26.75 30.859375 C 26.605469 30.71875 26.429688 30.679688 26.257812 30.628906 C 26 30.546875 25.769531 30.46875 25.515625 30.378906 C 25.324219 30.3125 25.183594 30.171875 25.003906 30.078125 C 24.523438 29.832031 24.628906 29.824219 24.179688 29.535156 C 23.820312 29.71875 23.363281 30.011719 23.101562 30.316406 Z M 23.101562 30.316406 " transform="matrix(1,0,0,-1,0,51)"/>
<path style=" stroke:none;fill-rule:nonzero;fill:#CC092F;fill-opacity:1;" d="M 21.722656 44.296875 C 22.546875 44.421875 23.429688 44.039062 23.183594 44.636719 C 23.089844 45.558594 23.175781 45.628906 22.671875 46.246094 C 22.492188 46.433594 22.511719 46.242188 22.234375 46.4375 C 20.929688 46.660156 18.902344 45.347656 18.726562 46.347656 C 18.78125 46.296875 18.085938 47.179688 18.066406 47.328125 C 17.980469 47.382812 17.796875 47.296875 17.710938 47.328125 C 16.816406 45.980469 16.746094 45.050781 16.941406 44.277344 C 17.484375 43.816406 17.960938 44.535156 17.960938 44.535156 C 22.59375 45.613281 21.976562 44.609375 21.976562 44.609375 C 21.898438 43.917969 21.722656 44.296875 21.722656 44.296875 "/>
<path style="fill:none;stroke-width:0.4;stroke-linecap:butt;stroke-linejoin:miter;stroke:#FFFFFF;stroke-opacity:1;stroke-miterlimit:4;" d="M 21.722656 6.703125 C 22.546875 6.578125 23.429688 6.960938 23.183594 6.363281 C 23.089844 5.441406 23.175781 5.371094 22.671875 4.753906 C 22.492188 4.566406 22.511719 4.757812 22.234375 4.5625 C 20.929688 4.339844 18.902344 5.652344 18.726562 4.652344 C 18.78125 4.703125 18.085938 3.820312 18.066406 3.671875 C 17.980469 3.617188 17.796875 3.703125 17.710938 3.671875 C 16.816406 5.019531 16.746094 5.949219 16.941406 6.722656 C 17.484375 7.183594 17.960938 6.464844 17.960938 6.464844 C 22.59375 5.386719 21.976562 6.390625 21.976562 6.390625 C 21.898438 7.082031 21.722656 6.703125 21.722656 6.703125 Z M 21.722656 6.703125 " transform="matrix(1,0,0,-1,0,51)"/>
<path style=" stroke:none;fill-rule:nonzero;fill:#CC092F;fill-opacity:1;" d="M 5.855469 25.140625 C 5.210938 28.042969 5.105469 30.898438 6.035156 33.644531 C 6.207031 33.851562 6.449219 33.933594 6.753906 34.070312 C 8.449219 33.949219 8.382812 33.96875 10.359375 34.019531 L 12.71875 34.222656 C 12.890625 34.273438 13.09375 34.222656 13.246094 34.34375 C 14.160156 35.75 19.40625 33.5625 19.5625 35.070312 C 19.652344 34.628906 17.488281 35.5625 17.371094 36.648438 C 17.792969 38.382812 17.363281 41.757812 17.277344 43.386719 C 17.644531 43.660156 16.757812 43.71875 17.625 44.175781 C 18.859375 44.484375 20.597656 43.726562 20.597656 43.726562 C 21.070312 43.4375 21.226562 43.902344 21.71875 43.632812 C 21.839844 39.03125 21.5625 36.054688 22.191406 31.6875 C 22.261719 30.789062 21.992188 30.847656 21.9375 30.285156 C 21.90625 29.914062 21.480469 29.808594 21.257812 29.453125 C 20.339844 29.238281 19.144531 29.179688 18.492188 29.105469 L 16.046875 28.566406 C 16.308594 27.976562 16.128906 24.691406 16.238281 24.054688 C 16.566406 23.773438 16.648438 21.617188 16.894531 21.285156 L 17.070312 19.507812 C 17.113281 19.894531 16.957031 20.457031 17.699219 20.84375 C 18.117188 20.910156 17.945312 21.050781 18.359375 21.136719 C 18.410156 21.1875 18.457031 21.234375 18.507812 21.285156 C 18.632812 21.320312 18.757812 21.363281 18.871094 21.429688 C 19.289062 21.773438 19.851562 21.675781 20.265625 22.015625 C 20.898438 22.121094 21.410156 22.527344 22.050781 22.339844 C 22.273438 22.273438 22.503906 22.238281 22.734375 22.265625 C 23.359375 21.804688 23.921875 22.140625 24.355469 21.511719 C 24.484375 21.355469 25.054688 21.355469 25.226562 21.265625 C 25.421875 20.984375 25.378906 21.273438 25.472656 20.910156 C 25.757812 20.769531 25.886719 20.878906 26.230469 20.878906 C 26.277344 20.820312 26.710938 19.8125 26.738281 19.703125 C 26.738281 19.703125 26.074219 18.148438 24.78125 18.359375 L 23.199219 18.191406 C 22.210938 18.222656 21.164062 18.152344 20.324219 17.179688 L 20.082031 16.683594 L 20.207031 15.871094 C 20.484375 15.296875 19.886719 13.976562 19.722656 13.273438 C 18.84375 12.628906 19.363281 13.09375 18.472656 12.390625 L 6.511719 11.257812 C 6.390625 11.320312 6.175781 11.335938 6.09375 11.320312 C 5.140625 11.351562 4.378906 11.175781 3.527344 11.746094 C 3.324219 12.230469 2.929688 13.007812 2.972656 13.578125 C 3.191406 14.386719 1.71875 14.296875 2.128906 15.132812 C 2.335938 15.398438 2.230469 15.691406 2.335938 15.9375 C 2.128906 17.082031 2.378906 16.042969 2.128906 17.023438 L 2.046875 17.03125 C 0.730469 20.515625 0.210938 24.160156 0.210938 24.160156 C 0.304688 24.269531 0.410156 24.359375 0.472656 24.46875 C 1.246094 25.394531 5.4375 26.636719 5.4375 26.636719 L 5.449219 26.59375 "/>
<g clip-path="url(#clip4)" clip-rule="nonzero">
<path style="fill:none;stroke-width:0.4;stroke-linecap:butt;stroke-linejoin:miter;stroke:#FFFFFF;stroke-opacity:1;stroke-miterlimit:4;" d="M 5.855469 25.859375 C 5.210938 22.957031 5.105469 20.101562 6.035156 17.355469 C 6.207031 17.148438 6.449219 17.066406 6.753906 16.929688 C 8.449219 17.050781 8.382812 17.03125 10.359375 16.980469 L 12.71875 16.777344 C 12.890625 16.726562 13.09375 16.777344 13.246094 16.65625 C 14.160156 15.25 19.40625 17.4375 19.5625 15.929688 C 19.652344 16.371094 17.488281 15.4375 17.371094 14.351562 C 17.792969 12.617188 17.363281 9.242188 17.277344 7.613281 C 17.644531 7.339844 16.757812 7.28125 17.625 6.824219 C 18.859375 6.515625 20.597656 7.273438 20.597656 7.273438 C 21.070312 7.5625 21.226562 7.097656 21.71875 7.367188 C 21.839844 11.96875 21.5625 14.945312 22.191406 19.3125 C 22.261719 20.210938 21.992188 20.152344 21.9375 20.714844 C 21.90625 21.085938 21.480469 21.191406 21.257812 21.546875 C 20.339844 21.761719 19.144531 21.820312 18.492188 21.894531 L 16.046875 22.433594 C 16.308594 23.023438 16.128906 26.308594 16.238281 26.945312 C 16.566406 27.226562 16.648438 29.382812 16.894531 29.714844 L 17.070312 31.492188 C 17.113281 31.105469 16.957031 30.542969 17.699219 30.15625 C 18.117188 30.089844 17.945312 29.949219 18.359375 29.863281 C 18.410156 29.8125 18.457031 29.765625 18.507812 29.714844 C 18.632812 29.679688 18.757812 29.636719 18.871094 29.570312 C 19.289062 29.226562 19.851562 29.324219 20.265625 28.984375 C 20.898438 28.878906 21.410156 28.472656 22.050781 28.660156 C 22.273438 28.726562 22.503906 28.761719 22.734375 28.734375 C 23.359375 29.195312 23.921875 28.859375 24.355469 29.488281 C 24.484375 29.644531 25.054688 29.644531 25.226562 29.734375 C 25.421875 30.015625 25.378906 29.726562 25.472656 30.089844 C 25.757812 30.230469 25.886719 30.121094 26.230469 30.121094 C 26.277344 30.179688 26.710938 31.1875 26.738281 31.296875 C 26.738281 31.296875 26.074219 32.851562 24.78125 32.640625 L 23.199219 32.808594 C 22.210938 32.777344 21.164062 32.847656 20.324219 33.820312 L 20.082031 34.316406 L 20.207031 35.128906 C 20.484375 35.703125 19.886719 37.023438 19.722656 37.726562 C 18.84375 38.371094 19.363281 37.90625 18.472656 38.609375 L 6.511719 39.742188 C 6.390625 39.679688 6.175781 39.664062 6.09375 39.679688 C 5.140625 39.648438 4.378906 39.824219 3.527344 39.253906 C 3.324219 38.769531 2.929688 37.992188 2.972656 37.421875 C 3.191406 36.613281 1.71875 36.703125 2.128906 35.867188 C 2.335938 35.601562 2.230469 35.308594 2.335938 35.0625 C 2.128906 33.917969 2.378906 34.957031 2.128906 33.976562 L 2.046875 33.96875 C 0.730469 30.484375 0.210938 26.839844 0.210938 26.839844 C 0.304688 26.730469 0.410156 26.640625 0.472656 26.53125 C 1.246094 25.605469 5.4375 24.363281 5.4375 24.363281 L 5.449219 24.40625 " transform="matrix(1,0,0,-1,0,51)"/>
</g>
<path style=" stroke:none;fill-rule:nonzero;fill:#CC092F;fill-opacity:1;" d="M 10.683594 43.09375 C 10.191406 43.59375 9.90625 43.992188 9.777344 44.386719 C 10.316406 43.613281 10.941406 44.464844 10.941406 44.464844 C 12.484375 45.082031 13.179688 45.390625 13.179688 45.390625 C 15.226562 45.222656 14.53125 44.070312 14.53125 44.070312 C 13.5 43.628906 13.210938 43.339844 13.269531 43.152344 "/>
<path style="fill-rule:nonzero;fill:#CC092F;fill-opacity:1;stroke-width:0.4;stroke-linecap:butt;stroke-linejoin:miter;stroke:#FFFFFF;stroke-opacity:1;stroke-miterlimit:4;" d="M 9.929688 13.324219 L 9.308594 8.902344 L 8.933594 7.597656 L 12.460938 7.058594 L 12.574219 7.074219 C 12.636719 7.265625 13.433594 6.960938 13.8125 6.996094 C 14.324219 7.289062 13.886719 7.085938 14.414062 7.359375 C 14.359375 7.4375 14.273438 9.007812 14.292969 13.394531 " transform="matrix(1,0,0,-1,0,51)"/>
<path style=" stroke:none;fill-rule:nonzero;fill:#CC092F;fill-opacity:1;" d="M 11.492188 47.820312 L 11.996094 44.386719 "/>
<path style=" stroke:none;fill-rule:nonzero;fill:#CC092F;fill-opacity:1;" d="M 10.554688 34.839844 C 10.796875 34.800781 10.957031 34.566406 10.914062 34.324219 L 9.960938 28.894531 C 9.914062 28.648438 9.6875 28.488281 9.445312 28.53125 L 8.113281 28.765625 C 7.871094 28.808594 7.710938 29.039062 7.753906 29.28125 L 8.710938 34.714844 C 8.753906 34.953125 8.980469 35.117188 9.222656 35.074219 L 10.554688 34.839844 "/>
<path style="fill:none;stroke-width:0.4;stroke-linecap:butt;stroke-linejoin:miter;stroke:#FFFFFF;stroke-opacity:1;stroke-miterlimit:4;" d="M 10.554688 16.160156 C 10.796875 16.199219 10.957031 16.433594 10.914062 16.675781 L 9.960938 22.105469 C 9.914062 22.351562 9.6875 22.511719 9.445312 22.46875 L 8.113281 22.234375 C 7.871094 22.191406 7.710938 21.960938 7.753906 21.71875 L 8.710938 16.285156 C 8.753906 16.046875 8.980469 15.882812 9.222656 15.925781 L 10.554688 16.160156 Z M 10.554688 16.160156 " transform="matrix(1,0,0,-1,0,51)"/>
<path style="fill-rule:nonzero;fill:#CC092F;fill-opacity:1;stroke-width:0.4;stroke-linecap:butt;stroke-linejoin:miter;stroke:#FFFFFF;stroke-opacity:1;stroke-miterlimit:4;" d="M 10.644531 8.015625 C 9.75 7.816406 8.691406 7.972656 8.613281 7.414062 C 8.539062 6.859375 8.945312 6.742188 9.347656 6.722656 " transform="matrix(1,0,0,-1,0,51)"/>
<path style=" stroke:none;fill-rule:nonzero;fill:#CC092F;fill-opacity:1;" d="M 20.371094 34.804688 C 20.617188 34.550781 20.648438 34.46875 20.648438 34.226562 L 20.648438 31.277344 C 20.648438 31.03125 20.449219 30.832031 20.203125 30.832031 L 16.953125 33.96875 C 16.710938 33.96875 16.511719 34.167969 16.511719 34.414062 L 16.511719 37.691406 C 16.511719 37.9375 16.710938 38.136719 16.953125 38.136719 L 20.371094 34.804688 "/>
<path style="fill:none;stroke-width:0.4;stroke-linecap:butt;stroke-linejoin:miter;stroke:#FFFFFF;stroke-opacity:1;stroke-miterlimit:4;" d="M 20.371094 16.195312 C 20.617188 16.449219 20.648438 16.53125 20.648438 16.773438 L 20.648438 19.722656 C 20.648438 19.96875 20.449219 20.167969 20.203125 20.167969 L 16.953125 17.03125 C 16.710938 17.03125 16.511719 16.832031 16.511719 16.585938 L 16.511719 13.308594 C 16.511719 13.0625 16.710938 12.863281 16.953125 12.863281 L 20.371094 16.195312 Z M 20.371094 16.195312 " transform="matrix(1,0,0,-1,0,51)"/>
<path style=" stroke:none;fill-rule:nonzero;fill:#CC092F;fill-opacity:1;" d="M 4.246094 22.648438 C 4.179688 21.984375 4.988281 20.195312 5.019531 19.652344 C 4.871094 20.253906 4.75 23.027344 4.90625 23.429688 L 4.246094 22.648438 "/>
<path style="fill:none;stroke-width:0.4;stroke-linecap:butt;stroke-linejoin:miter;stroke:#FFFFFF;stroke-opacity:1;stroke-miterlimit:4;" d="M 4.246094 28.351562 C 4.179688 29.015625 4.988281 30.804688 5.019531 31.347656 C 4.871094 30.746094 4.75 27.972656 4.90625 27.570312 L 4.246094 28.351562 Z M 4.246094 28.351562 " transform="matrix(1,0,0,-1,0,51)"/>
<path style="fill-rule:nonzero;fill:#CC092F;fill-opacity:1;stroke-width:0.4;stroke-linecap:butt;stroke-linejoin:miter;stroke:#FFFFFF;stroke-opacity:1;stroke-miterlimit:4;" d="M 3.675781 22.304688 L 3.613281 22.496094 C 3.835938 24.464844 2.777344 27.257812 4.953125 28.585938 C 14.210938 28.628906 6.980469 28.371094 16.234375 28.390625 L 16.78125 27.980469 C 17.933594 28.144531 17.644531 22.1875 17.644531 22.1875 L 16.816406 21.660156 " transform="matrix(1,0,0,-1,0,51)"/>
<path style=" stroke:none;fill-rule:nonzero;fill:#CC092F;fill-opacity:1;" d="M 2.726562 29.238281 C 2.945312 27.269531 1.777344 23.664062 3.949219 22.335938 C 13.199219 22.292969 6.5625 22.398438 15.8125 22.375 L 16.007812 22.480469 C 17.160156 22.316406 16.796875 29.3125 16.796875 29.3125 L 2.726562 29.238281 "/>
<path style="fill:none;stroke-width:0.4;stroke-linecap:butt;stroke-linejoin:miter;stroke:#FFFFFF;stroke-opacity:1;stroke-miterlimit:4;" d="M 2.726562 21.761719 C 2.945312 23.730469 1.777344 27.335938 3.949219 28.664062 C 13.199219 28.707031 6.5625 28.601562 15.8125 28.625 L 16.007812 28.519531 C 17.160156 28.683594 16.796875 21.6875 16.796875 21.6875 L 2.726562 21.761719 Z M 2.726562 21.761719 " transform="matrix(1,0,0,-1,0,51)"/>
<path style=" stroke:none;fill-rule:nonzero;fill:#CC092F;fill-opacity:1;" d="M 16.507812 6.277344 C 16.507812 6.277344 16.542969 6.429688 16.589844 6.511719 C 16.578125 6.933594 16.824219 7.300781 16.847656 7.714844 C 16.707031 7.921875 16.535156 8.109375 16.425781 8.335938 C 16.09375 8.511719 15.707031 8.46875 15.367188 8.609375 C 15.039062 8.867188 14.84375 9.261719 14.476562 9.484375 C 14.050781 9.578125 13.605469 9.542969 13.203125 9.734375 C 12.96875 9.964844 12.660156 10.117188 12.480469 10.40625 C 12.078125 10.6875 11.59375 10.636719 11.140625 10.578125 C 10.9375 10.449219 10.703125 10.371094 10.507812 10.226562 C 10.03125 9.722656 9.539062 9.230469 9.023438 8.765625 C 8.605469 8.757812 8.1875 8.796875 7.773438 8.726562 C 7.496094 8.59375 7.320312 8.300781 7.011719 8.214844 C 6.839844 7.804688 6.625 7.410156 6.617188 6.964844 C 6.574219 6.910156 6.40625 6.820312 6.507812 6.71875 C 8.027344 6.195312 7.230469 5.101562 7.464844 4.140625 C 8.183594 3.660156 7.480469 3.296875 7.765625 2.730469 C 8.332031 0.574219 10.890625 0.984375 12.632812 0.628906 C 13.140625 0.71875 13.707031 0.636719 13.847656 1.195312 C 13.824219 1.28125 14.414062 1.355469 14.316406 1.449219 C 14.671875 1.910156 14.765625 1.621094 15.160156 2.113281 C 15.523438 2.636719 15.402344 2.824219 15.5 3.019531 C 15.988281 3.621094 16.492188 3.945312 16.5625 4.792969 C 16.597656 5.230469 16.324219 5.609375 16.21875 5.644531 C 16.4375 6.164062 16.722656 5.699219 16.507812 6.277344 "/>
<g clip-path="url(#clip5)" clip-rule="nonzero">
<path style="fill:none;stroke-width:0.4;stroke-linecap:butt;stroke-linejoin:miter;stroke:#FFFFFF;stroke-opacity:1;stroke-miterlimit:4;" d="M 16.507812 44.722656 C 16.507812 44.722656 16.542969 44.570312 16.589844 44.488281 C 16.578125 44.066406 16.824219 43.699219 16.847656 43.285156 C 16.707031 43.078125 16.535156 42.890625 16.425781 42.664062 C 16.09375 42.488281 15.707031 42.53125 15.367188 42.390625 C 15.039062 42.132812 14.84375 41.738281 14.476562 41.515625 C 14.050781 41.421875 13.605469 41.457031 13.203125 41.265625 C 12.96875 41.035156 12.660156 40.882812 12.480469 40.59375 C 12.078125 40.3125 11.59375 40.363281 11.140625 40.421875 C 10.9375 40.550781 10.703125 40.628906 10.507812 40.773438 C 10.03125 41.277344 9.539062 41.769531 9.023438 42.234375 C 8.605469 42.242188 8.1875 42.203125 7.773438 42.273438 C 7.496094 42.40625 7.320312 42.699219 7.011719 42.785156 C 6.839844 43.195312 6.625 43.589844 6.617188 44.035156 C 6.574219 44.089844 6.40625 44.179688 6.507812 44.28125 C 8.027344 44.804688 7.230469 45.898438 7.464844 46.859375 C 8.183594 47.339844 7.480469 47.703125 7.765625 48.269531 C 8.332031 50.425781 10.890625 50.015625 12.632812 50.371094 C 13.140625 50.28125 13.707031 50.363281 13.847656 49.804688 C 13.824219 49.71875 14.414062 49.644531 14.316406 49.550781 C 14.671875 49.089844 14.765625 49.378906 15.160156 48.886719 C 15.523438 48.363281 15.402344 48.175781 15.5 47.980469 C 15.988281 47.378906 16.492188 47.054688 16.5625 46.207031 C 16.597656 45.769531 16.324219 45.390625 16.21875 45.355469 C 16.4375 44.835938 16.722656 45.300781 16.507812 44.722656 " transform="matrix(1,0,0,-1,0,51)"/>
</g>
<path style=" stroke:none;fill-rule:nonzero;fill:#CC092F;fill-opacity:1;" d="M 17.007812 11.101562 C 16.980469 11.210938 16.914062 11.300781 16.835938 11.378906 C 16.390625 11.339844 16.539062 12.433594 16.148438 12.273438 C 15.917969 12.394531 15.695312 12.167969 15.480469 12.128906 C 15.3125 12.21875 15.121094 12.234375 14.949219 12.300781 C 14.71875 12.539062 14.410156 12.636719 14.097656 12.738281 C 12.945312 12.449219 11.917969 13.117188 10.808594 13.324219 C 10.539062 13.316406 9.816406 13.484375 9.734375 13.183594 C 9.1875 12.851562 9.101562 12.179688 8.589844 11.796875 C 7.859375 11.730469 7.128906 11.660156 6.398438 11.59375 C 6.273438 11.546875 6.195312 11.414062 6.046875 11.414062 C 6.042969 11.152344 5.980469 11.089844 5.90625 10.878906 C 5.875 10.808594 5.679688 10.648438 5.8125 10.59375 C 5.9375 10.539062 5.96875 10.429688 5.679688 10.21875 C 5.480469 9.507812 5.882812 7.300781 6.402344 6.773438 C 6.304688 6.875 6.574219 6.703125 6.621094 6.757812 C 6.628906 7.203125 6.773438 7.628906 6.945312 8.039062 C 7.257812 8.125 7.429688 8.414062 7.707031 8.550781 C 8.121094 8.621094 8.539062 8.582031 8.957031 8.589844 C 9.476562 9.054688 9.964844 9.546875 10.441406 10.050781 C 10.636719 10.195312 10.871094 10.273438 11.074219 10.402344 C 11.527344 10.460938 12.011719 10.511719 12.414062 10.230469 C 12.59375 9.941406 12.898438 9.789062 13.136719 9.558594 C 13.539062 9.367188 13.984375 9.402344 14.410156 9.308594 C 14.777344 9.085938 14.972656 8.691406 15.300781 8.433594 C 15.640625 8.292969 16.027344 8.335938 16.355469 8.160156 C 16.46875 7.933594 16.640625 7.742188 16.78125 7.535156 C 16.761719 7.121094 16.511719 6.757812 16.523438 6.335938 C 16.476562 6.253906 16.398438 6.210938 16.285156 6.128906 L 16.441406 6.101562 C 18.144531 7.585938 16.261719 9.246094 17.117188 10.746094 L 17.007812 11.101562 "/>
<path style="fill:none;stroke-width:0.4;stroke-linecap:butt;stroke-linejoin:miter;stroke:#FFFFFF;stroke-opacity:1;stroke-miterlimit:4;" d="M 17.007812 39.898438 C 16.980469 39.789062 16.914062 39.699219 16.835938 39.621094 C 16.390625 39.660156 16.539062 38.566406 16.148438 38.726562 C 15.917969 38.605469 15.695312 38.832031 15.480469 38.871094 C 15.3125 38.78125 15.121094 38.765625 14.949219 38.699219 C 14.71875 38.460938 14.410156 38.363281 14.097656 38.261719 C 12.945312 38.550781 11.917969 37.882812 10.808594 37.675781 C 10.539062 37.683594 9.816406 37.515625 9.734375 37.816406 C 9.1875 38.148438 9.101562 38.820312 8.589844 39.203125 C 7.859375 39.269531 7.128906 39.339844 6.398438 39.40625 C 6.273438 39.453125 6.195312 39.585938 6.046875 39.585938 C 6.042969 39.847656 5.980469 39.910156 5.90625 40.121094 C 5.875 40.191406 5.679688 40.351562 5.8125 40.40625 C 5.9375 40.460938 5.96875 40.570312 5.679688 40.78125 C 5.480469 41.492188 5.882812 43.699219 6.402344 44.226562 C 6.304688 44.125 6.574219 44.296875 6.621094 44.242188 C 6.628906 43.796875 6.773438 43.371094 6.945312 42.960938 C 7.257812 42.875 7.429688 42.585938 7.707031 42.449219 C 8.121094 42.378906 8.539062 42.417969 8.957031 42.410156 C 9.476562 41.945312 9.964844 41.453125 10.441406 40.949219 C 10.636719 40.804688 10.871094 40.726562 11.074219 40.597656 C 11.527344 40.539062 12.011719 40.488281 12.414062 40.769531 C 12.59375 41.058594 12.898438 41.210938 13.136719 41.441406 C 13.539062 41.632812 13.984375 41.597656 14.410156 41.691406 C 14.777344 41.914062 14.972656 42.308594 15.300781 42.566406 C 15.640625 42.707031 16.027344 42.664062 16.355469 42.839844 C 16.46875 43.066406 16.640625 43.257812 16.78125 43.464844 C 16.761719 43.878906 16.511719 44.242188 16.523438 44.664062 C 16.476562 44.746094 16.398438 44.789062 16.285156 44.871094 L 16.441406 44.898438 C 18.144531 43.414062 16.261719 41.753906 17.117188 40.253906 L 17.007812 39.898438 Z M 17.007812 39.898438 " transform="matrix(1,0,0,-1,0,51)"/>
<g clip-path="url(#clip6)" clip-rule="nonzero">
<path style=" stroke:none;fill-rule:nonzero;fill:#CC092F;fill-opacity:1;" d="M 14.550781 46.152344 C 14.300781 46.238281 13.605469 46.347656 13.277344 46.398438 C 12.097656 46.007812 13.367188 46.214844 11.613281 45.964844 C 11.148438 46.359375 11.292969 47.128906 11.128906 47.734375 C 11.039062 47.785156 10.871094 47.699219 10.78125 47.734375 C 9.996094 46.0625 9.492188 45.257812 9.777344 44.386719 C 10.316406 43.613281 10.941406 44.464844 10.941406 44.464844 C 12.484375 45.082031 13.179688 45.390625 13.179688 45.390625 C 15.226562 44.980469 14.53125 44.070312 14.53125 44.070312 C 15.535156 44.226562 15.496094 44.15625 15.496094 44.15625 C 16.035156 44.464844 14.550781 46.152344 14.550781 46.152344 "/>
<path style="fill-rule:nonzero;fill:#CC092F;fill-opacity:1;stroke-width:0.2;stroke-linecap:butt;stroke-linejoin:miter;stroke:#FFFFFF;stroke-opacity:1;stroke-miterlimit:4;" d="M 9.894531 13.21875 C 9.941406 9.175781 9.972656 12.433594 9.929688 8.433594 C 9.988281 8.3125 9.820312 8.109375 9.664062 8.015625 C 8.769531 7.816406 7.6875 8.238281 7.636719 7.414062 C 7.558594 6.859375 7.96875 6.742188 8.367188 6.722656 C 7.382812 5.917969 6.4375 4.914062 5.480469 4.175781 C 4.785156 3.355469 5.175781 2.632812 5.109375 1.6875 C 5.375 1.363281 5.652344 1.535156 6.039062 1.644531 C 5.945312 2.351562 6.128906 2.847656 6.113281 3.464844 C 7.335938 4.542969 8.554688 5.609375 9.789062 6.6875 C 9.882812 6.722656 9.929688 6.644531 10.003906 6.613281 C 9.648438 4.789062 8.894531 2.121094 9.1875 0.5 C 9.230469 0.394531 9.171875 0.191406 9.371094 0.101562 C 9.664062 0.0546875 10.128906 -0.179688 10.296875 0.160156 C 10.414062 1.238281 10.039062 2.082031 10.589844 3.308594 C 10.527344 3.277344 10.558594 3.339844 10.589844 3.308594 C 10.761719 2.769531 10.683594 2.460938 10.667969 1.828125 C 11.007812 1.78125 11.472656 1.597656 11.671875 2.011719 C 11.808594 3.15625 11.4375 4.421875 11.332031 5.902344 C 11.378906 6.058594 11.253906 6.195312 11.453125 6.351562 C 12.613281 5.59375 13.710938 4.34375 14.851562 3.492188 C 15.3125 3.03125 15.144531 1.441406 15.144531 1.441406 C 15.839844 1.285156 15.992188 1.363281 15.992188 1.363281 L 16.109375 1.363281 C 16.109375 1.363281 16.417969 3.0625 15.722656 4.183594 L 12.636719 6.734375 C 12.675781 6.773438 13.277344 6.757812 13.414062 6.796875 C 13.863281 6.980469 13.957031 7.414062 13.710938 7.800781 C 13.261719 7.878906 12.945312 7.925781 12.34375 7.9375 C 12.019531 7.914062 12.011719 8.136719 12.011719 8.835938 C 12.058594 12.585938 11.917969 9.234375 12.042969 13.03125 " transform="matrix(1,0,0,-1,0,51)"/>
</g>
<path style=" stroke:none;fill-rule:nonzero;fill:#CC092F;fill-opacity:1;" d="M 13.351562 43.113281 C 13.59375 43.113281 13.792969 43.3125 13.792969 43.558594 L 13.792969 43.789062 C 13.792969 44.035156 13.59375 44.234375 13.351562 44.234375 L 13.253906 44.234375 C 13.253906 44.234375 10.726562 44.851562 8.140625 44.234375 C 7.894531 44.234375 7.695312 44.035156 7.695312 43.789062 L 7.695312 43.558594 C 7.695312 43.3125 7.894531 43.113281 8.140625 43.113281 C 10.457031 43.886719 13.351562 43.113281 13.351562 43.113281 "/>
<path style="fill:none;stroke-width:0.4;stroke-linecap:butt;stroke-linejoin:miter;stroke:#FFFFFF;stroke-opacity:1;stroke-miterlimit:4;" d="M 13.351562 7.886719 C 13.59375 7.886719 13.792969 7.6875 13.792969 7.441406 L 13.792969 7.210938 C 13.792969 6.964844 13.59375 6.765625 13.351562 6.765625 L 13.253906 6.765625 C 13.253906 6.765625 10.726562 6.148438 8.140625 6.765625 C 7.894531 6.765625 7.695312 6.964844 7.695312 7.210938 L 7.695312 7.441406 C 7.695312 7.6875 7.894531 7.886719 8.140625 7.886719 C 10.457031 7.113281 13.351562 7.886719 13.351562 7.886719 Z M 13.351562 7.886719 " transform="matrix(1,0,0,-1,0,51)"/>
<path style=" stroke:none;fill-rule:nonzero;fill:#CC092F;fill-opacity:1;" d="M 8.753906 27.265625 C 9.328125 27.265625 9.789062 26.777344 9.789062 26.175781 C 9.789062 25.570312 9.328125 25.085938 8.753906 25.085938 C 8.183594 25.085938 7.71875 25.570312 7.71875 26.175781 C 7.71875 26.777344 8.183594 27.265625 8.753906 27.265625 "/>
<path style="fill:none;stroke-width:0.4;stroke-linecap:butt;stroke-linejoin:miter;stroke:#FFFFFF;stroke-opacity:1;stroke-miterlimit:4;" d="M 8.753906 23.734375 C 9.328125 23.734375 9.789062 24.222656 9.789062 24.824219 C 9.789062 25.429688 9.328125 25.914062 8.753906 25.914062 C 8.183594 25.914062 7.71875 25.429688 7.71875 24.824219 C 7.71875 24.222656 8.183594 23.734375 8.753906 23.734375 Z M 8.753906 23.734375 " transform="matrix(1,0,0,-1,0,51)"/>
<path style=" stroke:none;fill-rule:nonzero;fill:#CC092F;fill-opacity:1;" d="M 8.367188 27.34375 C 8.941406 27.34375 9.40625 26.855469 9.40625 26.253906 C 9.40625 25.648438 8.941406 25.160156 8.367188 25.160156 C 7.796875 25.160156 7.332031 25.648438 7.332031 26.253906 C 7.332031 26.855469 7.796875 27.34375 8.367188 27.34375 "/>
<path style="fill:none;stroke-width:0.4;stroke-linecap:butt;stroke-linejoin:miter;stroke:#FFFFFF;stroke-opacity:1;stroke-miterlimit:4;" d="M 8.367188 23.65625 C 8.941406 23.65625 9.40625 24.144531 9.40625 24.746094 C 9.40625 25.351562 8.941406 25.839844 8.367188 25.839844 C 7.796875 25.839844 7.332031 25.351562 7.332031 24.746094 C 7.332031 24.144531 7.796875 23.65625 8.367188 23.65625 Z M 8.367188 23.65625 " transform="matrix(1,0,0,-1,0,51)"/>
<path style="fill-rule:nonzero;fill:#CC092F;fill-opacity:1;stroke-width:0.4;stroke-linecap:butt;stroke-linejoin:miter;stroke:#FFFFFF;stroke-opacity:1;stroke-miterlimit:4;" d="M 8.640625 16.914062 L 10.914062 16.878906 " transform="matrix(1,0,0,-1,0,51)"/>
<path style=" stroke:none;fill-rule:nonzero;fill:#CC092F;fill-opacity:1;" d="M 16.761719 38.136719 C 17.007812 38.136719 17.203125 37.9375 16.835938 37.570312 L 16.835938 34.289062 C 17.203125 34.167969 17.007812 33.96875 16.761719 33.96875 L 6.554688 33.96875 L 5.996094 33.660156 C 5.75 33.660156 2.929688 33.898438 2.929688 34.144531 L 2.929688 37.691406 C 2.929688 37.9375 3.125 38.136719 3.371094 38.136719 L 16.761719 38.136719 "/>
<path style="fill:none;stroke-width:0.4;stroke-linecap:butt;stroke-linejoin:miter;stroke:#FFFFFF;stroke-opacity:1;stroke-miterlimit:4;" d="M 16.761719 12.863281 C 17.007812 12.863281 17.203125 13.0625 16.835938 13.429688 L 16.835938 16.710938 C 17.203125 16.832031 17.007812 17.03125 16.761719 17.03125 L 6.554688 17.03125 L 5.996094 17.339844 C 5.75 17.339844 2.929688 17.101562 2.929688 16.855469 L 2.929688 13.308594 C 2.929688 13.0625 3.125 12.863281 3.371094 12.863281 L 16.761719 12.863281 Z M 16.761719 12.863281 " transform="matrix(1,0,0,-1,0,51)"/>
<path style=" stroke:none;fill-rule:nonzero;fill:#CC092F;fill-opacity:1;" d="M 3.796875 37.933594 C 3.574219 37.933594 3.394531 37.753906 3.394531 37.53125 L 3.394531 34.582031 C 3.394531 34.359375 3.574219 34.183594 3.796875 34.183594 L 15.847656 34.183594 C 16.066406 34.183594 16.246094 34.359375 16.246094 34.582031 L 16.246094 37.53125 C 16.246094 37.753906 16.066406 37.933594 15.847656 37.933594 L 3.796875 37.933594 "/>
<path style="fill:none;stroke-width:0.4;stroke-linecap:butt;stroke-linejoin:miter;stroke:#FFFFFF;stroke-opacity:1;stroke-miterlimit:4;" d="M 3.796875 13.066406 C 3.574219 13.066406 3.394531 13.246094 3.394531 13.46875 L 3.394531 16.417969 C 3.394531 16.640625 3.574219 16.816406 3.796875 16.816406 L 15.847656 16.816406 C 16.066406 16.816406 16.246094 16.640625 16.246094 16.417969 L 16.246094 13.46875 C 16.246094 13.246094 16.066406 13.066406 15.847656 13.066406 L 3.796875 13.066406 Z M 3.796875 13.066406 " transform="matrix(1,0,0,-1,0,51)"/>
<path style=" stroke:none;fill-rule:nonzero;fill:#CC092F;fill-opacity:1;" d="M 20.121094 34.664062 C 20.40625 34.40625 20.347656 33.984375 20.347656 34.277344 L 20.347656 31.65625 C 20.347656 31.4375 20.171875 31.257812 19.988281 31.371094 L 17.230469 34.03125 C 16.996094 34.230469 16.855469 34.472656 16.855469 34.691406 L 16.855469 37.152344 C 16.855469 37.371094 17.035156 37.550781 17.257812 37.550781 L 20.121094 34.664062 "/>
<path style="fill:none;stroke-width:0.4;stroke-linecap:butt;stroke-linejoin:miter;stroke:#FFFFFF;stroke-opacity:1;stroke-miterlimit:4;" d="M 20.121094 16.335938 C 20.40625 16.59375 20.347656 17.015625 20.347656 16.722656 L 20.347656 19.34375 C 20.347656 19.5625 20.171875 19.742188 19.988281 19.628906 L 17.230469 16.96875 C 16.996094 16.769531 16.855469 16.527344 16.855469 16.308594 L 16.855469 13.847656 C 16.855469 13.628906 17.035156 13.449219 17.257812 13.449219 L 20.121094 16.335938 Z M 20.121094 16.335938 " transform="matrix(1,0,0,-1,0,51)"/>
<path style=" stroke:none;fill-rule:nonzero;fill:#CC092F;fill-opacity:1;" d="M 3.398438 28.902344 C 3.597656 27.132812 2.542969 23.886719 4.5 22.691406 C 12.824219 22.652344 6.851562 22.75 15.175781 22.730469 L 15.351562 22.820312 C 16.390625 22.675781 16.0625 28.972656 16.0625 28.972656 L 3.398438 28.902344 "/>
<path style="fill:none;stroke-width:0.4;stroke-linecap:butt;stroke-linejoin:miter;stroke:#FFFFFF;stroke-opacity:1;stroke-miterlimit:4;" d="M 3.398438 22.097656 C 3.597656 23.867188 2.542969 27.113281 4.5 28.308594 C 12.824219 28.347656 6.851562 28.25 15.175781 28.269531 L 15.351562 28.179688 C 16.390625 28.324219 16.0625 22.027344 16.0625 22.027344 L 3.398438 22.097656 Z M 3.398438 22.097656 " transform="matrix(1,0,0,-1,0,51)"/>
<path style=" stroke:none;fill-rule:nonzero;fill:#CC092F;fill-opacity:1;" d="M 6.164062 33.316406 L 7.144531 33.929688 L 3.347656 33.929688 L 5.554688 32.582031 L 6.164062 33.316406 "/>
<path style="fill:none;stroke-width:0.4;stroke-linecap:butt;stroke-linejoin:miter;stroke:#FFFFFF;stroke-opacity:1;stroke-miterlimit:4;" d="M 6.164062 17.683594 L 7.144531 17.070312 L 3.347656 17.070312 L 5.554688 18.417969 L 6.164062 17.683594 Z M 6.164062 17.683594 " transform="matrix(1,0,0,-1,0,51)"/>
</g>
</svg>
