<?xml version="1.0" encoding="UTF-8"?>
<svg xmlns="http://www.w3.org/2000/svg" xmlns:xlink="http://www.w3.org/1999/xlink" width="26pt" height="30pt" viewBox="0 0 26 30" version="1.1">
<defs>
<clipPath id="clip1">
  <path d="M 0.0585938 0.503906 L 25.964844 0.503906 L 25.964844 29.503906 L 0.0585938 29.503906 L 0.0585938 0.503906 Z M 0.0585938 0.503906 "/>
</clipPath>
<clipPath id="clip2">
  <path d="M 0.0585938 0.503906 L 25.964844 0.503906 L 25.964844 29.503906 L 0.0585938 29.503906 L 0.0585938 0.503906 Z M 0.0585938 0.503906 "/>
</clipPath>
<clipPath id="clip3">
  <path d="M 0.0585938 0.503906 L 25.964844 0.503906 L 25.964844 29.503906 L 0.0585938 29.503906 L 0.0585938 0.503906 Z M 0.0585938 0.503906 "/>
</clipPath>
</defs>
<g id="surface0">
<g clip-path="url(#clip1)" clip-rule="nonzero">
<path style=" stroke:none;fill-rule:nonzero;fill:#CC092F;fill-opacity:1;" d="M 20.484375 29.546875 C 21.035156 29.546875 21.484375 29.097656 21.484375 28.546875 L 21.484375 16.296875 C 21.484375 15.742188 21.035156 15.296875 20.484375 15.296875 L 1.484375 15.296875 C 0.929688 15.296875 0.484375 15.742188 0.484375 16.296875 L 0.484375 28.546875 C 0.484375 29.097656 0.929688 29.546875 1.484375 29.546875 L 20.484375 29.546875 "/>
<path style="fill:none;stroke-width:0.4;stroke-linecap:butt;stroke-linejoin:miter;stroke:#FFFFFF;stroke-opacity:1;stroke-miterlimit:4;" d="M 20.484375 0.453125 C 21.035156 0.453125 21.484375 0.902344 21.484375 1.453125 L 21.484375 13.703125 C 21.484375 14.257812 21.035156 14.703125 20.484375 14.703125 L 1.484375 14.703125 C 0.929688 14.703125 0.484375 14.257812 0.484375 13.703125 L 0.484375 1.453125 C 0.484375 0.902344 0.929688 0.453125 1.484375 0.453125 L 20.484375 0.453125 Z M 20.484375 0.453125 " transform="matrix(1,0,0,-1,0,30)"/>
</g>
<path style=" stroke:none;fill-rule:nonzero;fill:#CC092F;fill-opacity:1;" d="M 21.484375 15.269531 L 25.484375 11.269531 L 4.484375 11.269531 L 0.484375 15.269531 L 21.484375 15.269531 "/>
<g clip-path="url(#clip2)" clip-rule="nonzero">
<path style="fill:none;stroke-width:0.4;stroke-linecap:butt;stroke-linejoin:miter;stroke:#FFFFFF;stroke-opacity:1;stroke-miterlimit:4;" d="M 21.484375 14.730469 L 25.484375 18.730469 L 4.484375 18.730469 L 0.484375 14.730469 L 21.484375 14.730469 Z M 21.484375 14.730469 " transform="matrix(1,0,0,-1,0,30)"/>
<path style=" stroke:none;fill-rule:nonzero;fill:#CC092F;fill-opacity:1;" d="M 25.484375 25.519531 L 25.484375 11.269531 L 21.484375 15.269531 L 21.484375 29.519531 L 25.484375 25.519531 "/>
<path style="fill:none;stroke-width:0.4;stroke-linecap:butt;stroke-linejoin:miter;stroke:#FFFFFF;stroke-opacity:1;stroke-miterlimit:4;" d="M 25.484375 4.480469 L 25.484375 18.730469 L 21.484375 14.730469 L 21.484375 0.480469 L 25.484375 4.480469 Z M 25.484375 4.480469 " transform="matrix(1,0,0,-1,0,30)"/>
</g>
<path style=" stroke:none;fill-rule:nonzero;fill:#CC092F;fill-opacity:1;" d="M 13.117188 2.464844 C 10.09375 2.464844 7.644531 4.914062 7.644531 7.9375 L 7.648438 12.800781 C 7.691406 13.1875 7.304688 13.589844 6.722656 13.648438 C 6.144531 13.710938 5.515625 13.421875 5.472656 13.035156 L 5.472656 8.207031 C 5.472656 4.0625 8.835938 0.699219 12.980469 0.699219 C 17.128906 0.699219 20.488281 4.0625 20.488281 8.207031 L 20.488281 13.472656 C 20.449219 13.859375 20.03125 14.121094 19.445312 14.101562 C 18.914062 14.082031 18.429688 13.390625 18.46875 13.003906 L 18.488281 7.9375 C 18.488281 4.914062 16.140625 2.464844 13.117188 2.464844 "/>
<g clip-path="url(#clip3)" clip-rule="nonzero">
<path style="fill:none;stroke-width:0.4;stroke-linecap:butt;stroke-linejoin:miter;stroke:#FFFFFF;stroke-opacity:1;stroke-miterlimit:4;" d="M 13.117188 27.535156 C 10.09375 27.535156 7.644531 25.085938 7.644531 22.0625 L 7.648438 17.199219 C 7.691406 16.8125 7.304688 16.410156 6.722656 16.351562 C 6.144531 16.289062 5.515625 16.578125 5.472656 16.964844 L 5.472656 21.792969 C 5.472656 25.9375 8.835938 29.300781 12.980469 29.300781 C 17.128906 29.300781 20.488281 25.9375 20.488281 21.792969 L 20.488281 16.527344 C 20.449219 16.140625 20.03125 15.878906 19.445312 15.898438 C 18.914062 15.917969 18.429688 16.609375 18.46875 16.996094 L 18.488281 22.0625 C 18.488281 25.085938 16.140625 27.535156 13.117188 27.535156 Z M 13.117188 27.535156 " transform="matrix(1,0,0,-1,0,30)"/>
</g>
<path style=" stroke:none;fill-rule:nonzero;fill:#FFFFFF;fill-opacity:1;" d="M 10.957031 23.667969 C 11.90625 23.667969 12.675781 22.675781 12.675781 21.449219 C 12.675781 20.222656 11.90625 19.230469 10.957031 19.230469 C 10.007812 19.230469 9.238281 20.222656 9.238281 21.449219 C 9.238281 22.675781 10.007812 23.667969 10.957031 23.667969 "/>
<path style=" stroke:none;fill-rule:nonzero;fill:#FFFFFF;fill-opacity:1;" d="M 11.46875 25.945312 L 11.46875 21.585938 L 10.394531 22.371094 L 10.394531 26.734375 L 11.46875 25.945312 "/>
</g>
</svg>
