<?xml version="1.0" encoding="UTF-8"?>
<svg xmlns="http://www.w3.org/2000/svg" xmlns:xlink="http://www.w3.org/1999/xlink" width="38pt" height="38pt" viewBox="0 0 38 38" version="1.1">
<defs>
<clipPath id="clip1">
  <path d="M 0.0585938 0.589844 L 37 0.589844 L 37 37.589844 L 0.0585938 37.589844 L 0.0585938 0.589844 Z M 0.0585938 0.589844 "/>
</clipPath>
<clipPath id="clip2">
  <path d="M 0.0585938 0.589844 L 37 0.589844 L 37 37.589844 L 0.0585938 37.589844 L 0.0585938 0.589844 Z M 0.0585938 0.589844 "/>
</clipPath>
<clipPath id="clip3">
  <path d="M 22.472656 10.671875 L 21.4375 8.320312 L 26.617188 7.285156 L 25.71875 8.089844 L 34.351562 9.566406 L 32.28125 11.222656 L 23.699219 9.609375 L 22.472656 10.671875 "/>
</clipPath>
<clipPath id="clip4">
  <path d="M 19.640625 3.902344 L 25.441406 2.3125 L 25.511719 4.800781 L 24.0625 4.523438 L 21.230469 6.871094 L 18.527344 6.476562 L 21.449219 4.179688 L 19.640625 3.902344 "/>
</clipPath>
<clipPath id="clip5">
  <path d="M 17.15625 12.8125 L 11.628906 13.847656 L 11.421875 11.289062 L 13.011719 11.636719 L 16.050781 9.039062 L 18.742188 9.496094 L 15.496094 12.324219 L 17.15625 12.8125 "/>
</clipPath>
</defs>
<g id="surface0">
<g clip-path="url(#clip1)" clip-rule="nonzero">
<path style=" stroke:none;fill-rule:nonzero;fill:#CC092F;fill-opacity:1;" d="M 36.984375 7.941406 C 36.984375 11.890625 28.75 15.09375 18.59375 15.09375 C 8.433594 15.09375 0.199219 11.890625 0.199219 7.941406 L 0.199219 30.648438 C 0.199219 34.597656 8.433594 37.800781 18.59375 37.800781 C 28.75 37.800781 36.984375 34.597656 36.984375 30.648438 L 36.984375 7.941406 "/>
<path style="fill:none;stroke-width:0.4;stroke-linecap:butt;stroke-linejoin:miter;stroke:#FFFFFF;stroke-opacity:1;stroke-miterlimit:4;" d="M 36.984375 30.058594 C 36.984375 26.109375 28.75 22.90625 18.59375 22.90625 C 8.433594 22.90625 0.199219 26.109375 0.199219 30.058594 L 0.199219 7.351562 C 0.199219 3.402344 8.433594 0.199219 18.59375 0.199219 C 28.75 0.199219 36.984375 3.402344 36.984375 7.351562 L 36.984375 30.058594 Z M 36.984375 30.058594 " transform="matrix(1,0,0,-1,0,38)"/>
</g>
<path style=" stroke:none;fill-rule:nonzero;fill:#CC092F;fill-opacity:1;" d="M 18.59375 15.09375 C 28.75 15.09375 36.984375 11.890625 36.984375 7.941406 C 36.984375 3.988281 28.75 0.789062 18.59375 0.789062 C 8.433594 0.789062 0.199219 3.988281 0.199219 7.941406 C 0.199219 11.890625 8.433594 15.09375 18.59375 15.09375 "/>
<g clip-path="url(#clip2)" clip-rule="nonzero">
<path style="fill:none;stroke-width:0.4;stroke-linecap:butt;stroke-linejoin:miter;stroke:#FFFFFF;stroke-opacity:1;stroke-miterlimit:4;" d="M 18.59375 22.90625 C 28.75 22.90625 36.984375 26.109375 36.984375 30.058594 C 36.984375 34.011719 28.75 37.210938 18.59375 37.210938 C 8.433594 37.210938 0.199219 34.011719 0.199219 30.058594 C 0.199219 26.109375 8.433594 22.90625 18.59375 22.90625 Z M 18.59375 22.90625 " transform="matrix(1,0,0,-1,0,38)"/>
</g>

<path style=" stroke:none;fill-rule:nonzero;fill:#FFFFFF;fill-opacity:1;" d="M 19.640625 3.902344 L 25.441406 2.3125 L 25.511719 4.800781 L 24.0625 4.523438 L 21.230469 6.871094 L 18.527344 6.476562 L 21.449219 4.179688 L 19.640625 3.902344 "/>
<path style=" stroke:none;fill-rule:nonzero;fill:#FFFFFF;fill-opacity:1;" d="M 22.472656 10.671875 L 21.4375 8.320312 L 26.617188 7.285156 L 25.71875 8.089844 L 34.351562 9.566406 L 32.28125 11.222656 L 23.699219 9.609375 L 22.472656 10.671875 "/>
<path style=" stroke:none;fill-rule:nonzero;fill:#FFFFFF;fill-opacity:1;" d="M 17.15625 12.8125 L 11.628906 13.847656 L 11.421875 11.289062 L 13.011719 11.636719 L 16.050781 9.039062 L 18.742188 9.496094 L 15.496094 12.324219 L 17.15625 12.8125 "/>
<path style=" stroke:none;fill-rule:nonzero;fill:#FFFFFF;fill-opacity:1;" d="M 14.394531 5.144531 L 15.910156 7.425781 L 10.167969 8.75 L 11.425781 7.703125 L 2.550781 6.1875 L 4.777344 4.519531 L 13.339844 5.96875 L 14.394531 5.144531 "/>
<path style=" stroke:none;fill-rule:nonzero;fill:#FFFFFF;fill-opacity:1;" d="M 11.5 35.007812 L 11.5 30.210938 L 8.613281 32.515625 L 11.5 35.007812 "/>
<path style=" stroke:none;fill-rule:nonzero;fill:#FFFFFF;fill-opacity:1;" d="M 25.429688 16.535156 L 25.429688 21.332031 L 28.316406 19.027344 L 25.429688 16.535156 "/>
<path style=" stroke:none;fill-rule:nonzero;fill:#FFFFFF;fill-opacity:1;" d="M 11.5 21.507812 L 11.5 16.710938 L 8.613281 19.015625 L 11.5 21.507812 "/>
<path style="fill:none;stroke-width:1.425;stroke-linecap:butt;stroke-linejoin:miter;stroke:#FFFFFF;stroke-opacity:1;stroke-miterlimit:4;" d="M 27.285156 5.441406 L 22.324219 5.441406 L 15.589844 19.023438 L 10.457031 19.023438 M 10.488281 5.464844 L 15.277344 5.464844 L 21.949219 18.976562 L 27.144531 18.976562 " transform="matrix(1,0,0,-1,0,38)"/>
<path style=" stroke:none;fill-rule:nonzero;fill:#FFFFFF;fill-opacity:1;" d="M 25.429688 30.101562 L 25.429688 34.894531 L 28.316406 32.59375 L 25.429688 30.101562 "/>
</g>
</svg>
