<?xml version="1.0" encoding="UTF-8"?>
<svg xmlns="http://www.w3.org/2000/svg" xmlns:xlink="http://www.w3.org/1999/xlink" width="37pt" height="24pt" viewBox="0 0 37 24" version="1.1">
<defs>
<clipPath id="clip1">
  <path d="M 0 0.273438 L 36.570312 0.273438 L 36.570312 23.941406 L 0 23.941406 L 0 0.273438 Z M 0 0.273438 "/>
</clipPath>
<clipPath id="clip2">
  <path d="M 0 0.273438 L 36.570312 0.273438 L 36.570312 23.941406 L 0 23.941406 L 0 0.273438 Z M 0 0.273438 "/>
</clipPath>
<clipPath id="clip3">
  <path d="M 0 0.273438 L 36.570312 0.273438 L 36.570312 23.941406 L 0 23.941406 L 0 0.273438 Z M 0 0.273438 "/>
</clipPath>
</defs>
<g id="surface0">
<path style=" stroke:none;fill-rule:nonzero;fill:#CC092F;fill-opacity:1;" d="M 36.246094 7.320312 L 36.246094 16.820312 L 27.523438 23.800781 L 9.394531 23.800781 L 0.332031 16.820312 L 0.332031 7.320312 "/>
<g clip-path="url(#clip1)" clip-rule="nonzero">
<path style="fill:none;stroke-width:0.4;stroke-linecap:butt;stroke-linejoin:miter;stroke:#FFFFFF;stroke-opacity:1;stroke-miterlimit:4;" d="M 36.246094 16.679688 L 36.246094 7.179688 L 27.523438 0.199219 L 9.394531 0.199219 L 0.332031 7.179688 L 0.332031 16.679688 " transform="matrix(1,0,0,-1,0,24)"/>
</g>
<path style=" stroke:none;fill-rule:nonzero;fill:#CC092F;fill-opacity:1;" d="M 27.351562 0.476562 L 9.566406 0.476562 L 0.332031 7.320312 L 9.394531 14.300781 L 27.523438 14.300781 L 36.246094 7.320312 L 27.351562 0.476562 "/>
<g clip-path="url(#clip2)" clip-rule="nonzero">
<path style="fill:none;stroke-width:0.4;stroke-linecap:butt;stroke-linejoin:miter;stroke:#FFFFFF;stroke-opacity:1;stroke-miterlimit:4;" d="M 27.351562 23.523438 L 9.566406 23.523438 L 0.332031 16.679688 L 9.394531 9.699219 L 27.523438 9.699219 L 36.246094 16.679688 L 27.351562 23.523438 Z M 27.351562 23.523438 " transform="matrix(1,0,0,-1,0,24)"/>
</g>
<path style=" stroke:none;fill-rule:nonzero;fill:#FFFFFF;fill-opacity:1;" d="M 14.757812 4.695312 L 16.140625 6.769531 L 10.90625 7.980469 L 12.050781 7.027344 L 5.355469 5.605469 L 7.386719 4.085938 L 13.796875 5.445312 L 14.757812 4.695312 "/>
<path style=" stroke:none;fill-rule:nonzero;fill:#FFFFFF;fill-opacity:1;" d="M 22.121094 9.730469 L 21.175781 7.589844 L 25.898438 6.644531 L 25.082031 7.378906 L 32.074219 8.578125 L 30.1875 10.089844 L 23.238281 8.765625 L 22.121094 9.730469 "/>
<path style=" stroke:none;fill-rule:nonzero;fill:#FFFFFF;fill-opacity:1;" d="M 19.914062 3.0625 L 25.203125 1.613281 L 25.265625 3.878906 L 23.945312 3.628906 L 21.363281 5.769531 L 18.902344 5.40625 L 21.566406 3.316406 L 19.914062 3.0625 "/>
<path style=" stroke:none;fill-rule:nonzero;fill:#FFFFFF;fill-opacity:1;" d="M 16.6875 12.144531 L 11.652344 13.089844 L 11.464844 10.757812 L 12.910156 11.070312 L 15.683594 8.703125 L 18.136719 9.121094 L 15.175781 11.703125 L 16.6875 12.144531 "/>
<g clip-path="url(#clip3)" clip-rule="nonzero">
<path style="fill:none;stroke-width:0.4;stroke-linecap:butt;stroke-linejoin:miter;stroke:#FFFFFF;stroke-opacity:1;stroke-miterlimit:4;" d="M 9.238281 0.3125 L 9.238281 9.699219 M 27.488281 0.3125 L 27.488281 9.699219 " transform="matrix(1,0,0,-1,0,24)"/>
</g>
</g>
</svg>
