<?xml version="1.0" encoding="UTF-8"?>
<svg xmlns="http://www.w3.org/2000/svg" xmlns:xlink="http://www.w3.org/1999/xlink" width="35pt" height="30pt" viewBox="0 0 35 30" version="1.1">
<defs>
<clipPath id="clip1">
  <path d="M 0 0.789062 L 34 0.789062 L 34 29.789062 L 0 29.789062 L 0 0.789062 Z M 0 0.789062 "/>
</clipPath>
<clipPath id="clip2">
  <path d="M 0 0.789062 L 34 0.789062 L 34 29.789062 L 0 29.789062 L 0 0.789062 Z M 0 0.789062 "/>
</clipPath>
</defs>
<g id="surface0">
<g clip-path="url(#clip1)" clip-rule="nonzero">
<path style=" stroke:none;fill-rule:nonzero;fill:#CC092F;fill-opacity:1;" d="M 25.515625 23.5625 C 25.515625 19.722656 21.675781 16.84375 16.875 16.84375 C 12.554688 16.84375 8.714844 19.722656 8.714844 23.5625 C 8.714844 26.921875 12.554688 29.804688 16.875 29.804688 C 21.675781 29.804688 25.515625 26.921875 25.515625 23.5625 "/>
<path style="fill:none;stroke-width:0.4;stroke-linecap:butt;stroke-linejoin:miter;stroke:#FFFFFF;stroke-opacity:1;stroke-miterlimit:4;" d="M 25.515625 6.4375 C 25.515625 10.277344 21.675781 13.15625 16.875 13.15625 C 12.554688 13.15625 8.714844 10.277344 8.714844 6.4375 C 8.714844 3.078125 12.554688 0.195312 16.875 0.195312 C 21.675781 0.195312 25.515625 3.078125 25.515625 6.4375 Z M 25.515625 6.4375 " transform="matrix(1,0,0,-1,0,30)"/>
</g>
<path style=" stroke:none;fill-rule:evenodd;fill:#CC092F;fill-opacity:1;" d="M 22.632812 23.351562 L 25.996094 23.351562 L 28.394531 23.828125 L 31.753906 23.828125 L 32.714844 23.351562 L 33.195312 22.390625 L 33.675781 21.433594 L 33.195312 19.988281 L 30.316406 17.109375 L 28.394531 14.710938 L 25.996094 12.3125 L 24.554688 10.390625 L 23.113281 7.988281 L 21.675781 6.070312 L 20.234375 3.671875 L 19.753906 1.75 L 17.835938 0.789062 L 16.394531 0.789062 L 14.476562 1.75 L 13.996094 3.191406 L 13.035156 5.109375 L 11.59375 7.03125 L 10.636719 8.949219 L 7.753906 12.789062 L 5.835938 15.191406 L 1.035156 19.988281 L 0.554688 20.949219 L 0.554688 21.433594 L 1.515625 23.351562 L 2.476562 23.351562 L 3.433594 23.828125 L 5.355469 23.828125 L 7.273438 23.351562 L 22.632812 23.351562 "/>
<path style=" stroke:none;fill-rule:nonzero;fill:#CC092F;fill-opacity:1;" d="M 25.996094 15.191406 C 25.996094 11.351562 21.675781 8.46875 16.875 8.46875 C 12.074219 8.46875 8.234375 11.351562 8.234375 15.191406 C 8.234375 19.03125 12.074219 21.910156 16.875 21.910156 C 21.675781 21.910156 25.996094 19.03125 25.996094 15.191406 "/>
<path style="fill:none;stroke-width:0.4;stroke-linecap:butt;stroke-linejoin:miter;stroke:#FFFFFF;stroke-opacity:1;stroke-miterlimit:4;" d="M 25.996094 14.808594 C 25.996094 18.648438 21.675781 21.53125 16.875 21.53125 C 12.074219 21.53125 8.234375 18.648438 8.234375 14.808594 C 8.234375 10.96875 12.074219 8.089844 16.875 8.089844 C 21.675781 8.089844 25.996094 10.96875 25.996094 14.808594 Z M 25.996094 14.808594 " transform="matrix(1,0,0,-1,0,30)"/>
<path style=" stroke:none;fill-rule:nonzero;fill:#FFFFFF;fill-opacity:1;" d="M 17.835938 0.789062 L 18.316406 0.789062 L 18.316406 4.148438 L 17.835938 4.148438 L 17.835938 0.789062 Z M 17.835938 0.789062 "/>
<path style=" stroke:none;fill-rule:nonzero;fill:#FFFFFF;fill-opacity:1;" d="M 16.875 0.789062 L 17.355469 0.789062 L 17.355469 4.148438 L 16.875 4.148438 L 16.875 0.789062 Z M 16.875 0.789062 "/>
<path style=" stroke:none;fill-rule:nonzero;fill:#FFFFFF;fill-opacity:1;" d="M 15.914062 0.789062 L 16.394531 0.789062 L 16.394531 4.148438 L 15.914062 4.148438 L 15.914062 0.789062 Z M 15.914062 0.789062 "/>
<path style=" stroke:none;fill-rule:nonzero;fill:#FFFFFF;fill-opacity:1;" d="M 1.109375 23.511719 L 1.386719 23.902344 L 4.128906 21.960938 L 3.851562 21.566406 L 1.109375 23.511719 "/>
<path style=" stroke:none;fill-rule:nonzero;fill:#FFFFFF;fill-opacity:1;" d="M 0.554688 22.726562 L 0.832031 23.117188 L 3.574219 21.175781 L 3.296875 20.78125 L 0.554688 22.726562 "/>
<path style=" stroke:none;fill-rule:nonzero;fill:#FFFFFF;fill-opacity:1;" d="M 0 21.941406 L 0.277344 22.335938 L 3.019531 20.394531 L 2.742188 20 L 0 21.941406 "/>
<path style=" stroke:none;fill-rule:nonzero;fill:#FFFFFF;fill-opacity:1;" d="M 33.386719 23.511719 L 33.109375 23.902344 L 30.367188 21.960938 L 30.644531 21.566406 L 33.386719 23.511719 "/>
<g clip-path="url(#clip2)" clip-rule="nonzero">
<path style=" stroke:none;fill-rule:nonzero;fill:#FFFFFF;fill-opacity:1;" d="M 33.941406 22.726562 L 33.664062 23.117188 L 30.921875 21.175781 L 31.199219 20.78125 L 33.941406 22.726562 "/>
<path style=" stroke:none;fill-rule:nonzero;fill:#FFFFFF;fill-opacity:1;" d="M 34.496094 21.941406 L 34.21875 22.335938 L 31.476562 20.394531 L 31.753906 20 L 34.496094 21.941406 "/>
</g>
<path style="fill-rule:nonzero;fill:#000000;fill-opacity:1;stroke-width:0.32;stroke-linecap:butt;stroke-linejoin:miter;stroke:#FFFFFF;stroke-opacity:1;stroke-miterlimit:4;" d="M 14.351562 6.0625 L 15.820312 6.0625 L 15.820312 5.261719 L 14.351562 5.261719 L 14.351562 6.0625 Z M 14.351562 6.0625 " transform="matrix(1,0,0,-1,0,30)"/>
<path style="fill-rule:nonzero;fill:#000000;fill-opacity:1;stroke-width:0.32;stroke-linecap:butt;stroke-linejoin:miter;stroke:#FFFFFF;stroke-opacity:1;stroke-miterlimit:4;" d="M 16.21875 6.0625 L 17.6875 6.0625 L 17.6875 5.261719 L 16.21875 5.261719 L 16.21875 6.0625 Z M 16.21875 6.0625 " transform="matrix(1,0,0,-1,0,30)"/>
<path style="fill-rule:nonzero;fill:#000000;fill-opacity:1;stroke-width:0.32;stroke-linecap:butt;stroke-linejoin:miter;stroke:#FFFFFF;stroke-opacity:1;stroke-miterlimit:4;" d="M 18.085938 6.0625 L 19.554688 6.0625 L 19.554688 5.261719 L 18.085938 5.261719 L 18.085938 6.0625 Z M 18.085938 6.0625 " transform="matrix(1,0,0,-1,0,30)"/>
<path style="fill-rule:nonzero;fill:#000000;fill-opacity:1;stroke-width:0.32;stroke-linecap:butt;stroke-linejoin:miter;stroke:#FFFFFF;stroke-opacity:1;stroke-miterlimit:4;" d="M 14.351562 4.730469 L 15.820312 4.730469 L 15.820312 3.929688 L 14.351562 3.929688 L 14.351562 4.730469 Z M 14.351562 4.730469 " transform="matrix(1,0,0,-1,0,30)"/>
<path style="fill-rule:nonzero;fill:#000000;fill-opacity:1;stroke-width:0.32;stroke-linecap:butt;stroke-linejoin:miter;stroke:#FFFFFF;stroke-opacity:1;stroke-miterlimit:4;" d="M 16.21875 4.730469 L 17.6875 4.730469 L 17.6875 3.929688 L 16.21875 3.929688 L 16.21875 4.730469 Z M 16.21875 4.730469 " transform="matrix(1,0,0,-1,0,30)"/>
<path style="fill-rule:nonzero;fill:#000000;fill-opacity:1;stroke-width:0.32;stroke-linecap:butt;stroke-linejoin:miter;stroke:#FFFFFF;stroke-opacity:1;stroke-miterlimit:4;" d="M 18.085938 4.730469 L 19.554688 4.730469 L 19.554688 3.929688 L 18.085938 3.929688 L 18.085938 4.730469 Z M 18.085938 4.730469 " transform="matrix(1,0,0,-1,0,30)"/>
<path style="fill-rule:nonzero;fill:#000000;fill-opacity:1;stroke-width:0.32;stroke-linecap:butt;stroke-linejoin:miter;stroke:#FFFFFF;stroke-opacity:1;stroke-miterlimit:4;" d="M 14.351562 3.394531 L 15.820312 3.394531 L 15.820312 2.59375 L 14.351562 2.59375 L 14.351562 3.394531 Z M 14.351562 3.394531 " transform="matrix(1,0,0,-1,0,30)"/>
<path style="fill-rule:nonzero;fill:#000000;fill-opacity:1;stroke-width:0.32;stroke-linecap:butt;stroke-linejoin:miter;stroke:#FFFFFF;stroke-opacity:1;stroke-miterlimit:4;" d="M 16.21875 3.394531 L 17.6875 3.394531 L 17.6875 2.59375 L 16.21875 2.59375 L 16.21875 3.394531 Z M 16.21875 3.394531 " transform="matrix(1,0,0,-1,0,30)"/>
<path style="fill-rule:nonzero;fill:#000000;fill-opacity:1;stroke-width:0.32;stroke-linecap:butt;stroke-linejoin:miter;stroke:#FFFFFF;stroke-opacity:1;stroke-miterlimit:4;" d="M 18.085938 3.394531 L 19.554688 3.394531 L 19.554688 2.59375 L 18.085938 2.59375 L 18.085938 3.394531 Z M 18.085938 3.394531 " transform="matrix(1,0,0,-1,0,30)"/>
</g>
</svg>
