<?xml version="1.0" encoding="UTF-8"?>
<svg xmlns="http://www.w3.org/2000/svg" xmlns:xlink="http://www.w3.org/1999/xlink" width="67pt" height="25pt" viewBox="0 0 67 25" version="1.1">
<defs>
<clipPath id="clip1">
  <path d="M 0 0.601562 L 66.804688 0.601562 L 66.804688 24.941406 L 0 24.941406 L 0 0.601562 Z M 0 0.601562 "/>
</clipPath>
<clipPath id="clip2">
  <path d="M 0 0.601562 L 66.804688 0.601562 L 66.804688 24.941406 L 0 24.941406 L 0 0.601562 Z M 0 0.601562 "/>
</clipPath>
<clipPath id="clip3">
  <path d="M 0 0.601562 L 66.804688 0.601562 L 66.804688 24.941406 L 0 24.941406 L 0 0.601562 Z M 0 0.601562 "/>
</clipPath>
<clipPath id="clip4">
  <path d="M 0 0.601562 L 66.804688 0.601562 L 66.804688 24.941406 L 0 24.941406 L 0 0.601562 Z M 0 0.601562 "/>
</clipPath>
<clipPath id="clip5">
  <path d="M 0 0.601562 L 66.804688 0.601562 L 66.804688 24.941406 L 0 24.941406 L 0 0.601562 Z M 0 0.601562 "/>
</clipPath>
<clipPath id="clip6">
  <path d="M 0 0.601562 L 66.804688 0.601562 L 66.804688 24.941406 L 0 24.941406 L 0 0.601562 Z M 0 0.601562 "/>
</clipPath>
<clipPath id="clip7">
  <path d="M 0 0.601562 L 66.804688 0.601562 L 66.804688 24.941406 L 0 24.941406 L 0 0.601562 Z M 0 0.601562 "/>
</clipPath>
<clipPath id="clip8">
  <path d="M 0 0.601562 L 66.804688 0.601562 L 66.804688 24.941406 L 0 24.941406 L 0 0.601562 Z M 0 0.601562 "/>
</clipPath>
<clipPath id="clip9">
  <path d="M 0 0.601562 L 66.804688 0.601562 L 66.804688 24.941406 L 0 24.941406 L 0 0.601562 Z M 0 0.601562 "/>
</clipPath>
</defs>
<g id="surface0">
<path style="fill-rule:nonzero;fill:#CC092F;fill-opacity:1;stroke-width:0.8;stroke-linecap:butt;stroke-linejoin:miter;stroke:#FFFFFF;stroke-opacity:1;stroke-miterlimit:4;" d="M 23.253906 2.289062 L 43.496094 2.289062 L 43.496094 18.175781 L 23.253906 18.175781 L 23.253906 2.289062 Z M 23.253906 2.289062 " transform="matrix(1,0,0,-1,0,25)"/>
<path style=" stroke:none;fill-rule:nonzero;fill:#FFFFFF;fill-opacity:1;" d="M 25.125 20.894531 L 41.472656 20.894531 L 41.472656 8.605469 L 25.125 8.605469 L 25.125 20.894531 Z M 25.125 20.894531 "/>
<path style=" stroke:none;fill-rule:nonzero;fill:#CC092F;fill-opacity:1;" d="M 23.253906 6.824219 L 21.261719 5.042969 L 45.546875 5.042969 L 43.496094 6.824219 L 23.253906 6.824219 "/>
<path style="fill:none;stroke-width:0.8;stroke-linecap:butt;stroke-linejoin:miter;stroke:#FFFFFF;stroke-opacity:1;stroke-miterlimit:4;" d="M 23.253906 18.175781 L 21.261719 19.957031 L 45.546875 19.957031 L 43.496094 18.175781 L 23.253906 18.175781 Z M 23.253906 18.175781 " transform="matrix(1,0,0,-1,0,25)"/>
<path style=" stroke:none;fill-rule:nonzero;fill:#CC092F;fill-opacity:1;" d="M 43.496094 22.710938 L 45.546875 20.203125 L 45.546875 5.042969 L 43.496094 6.824219 L 43.496094 22.710938 "/>
<path style="fill:none;stroke-width:0.8;stroke-linecap:butt;stroke-linejoin:miter;stroke:#FFFFFF;stroke-opacity:1;stroke-miterlimit:4;" d="M 43.496094 2.289062 L 45.546875 4.796875 L 45.546875 19.957031 L 43.496094 18.175781 L 43.496094 2.289062 Z M 43.496094 2.289062 " transform="matrix(1,0,0,-1,0,25)"/>
<path style=" stroke:none;fill-rule:nonzero;fill:#CC092F;fill-opacity:1;" d="M 63.851562 23.921875 L 63.851562 8.035156 L 43.609375 6.820312 L 43.609375 22.707031 L 63.851562 23.921875 "/>
<g clip-path="url(#clip1)" clip-rule="nonzero">
<path style="fill:none;stroke-width:0.8;stroke-linecap:butt;stroke-linejoin:miter;stroke:#FFFFFF;stroke-opacity:1;stroke-miterlimit:4;" d="M 63.851562 1.078125 L 63.851562 16.964844 L 43.609375 18.179688 L 43.609375 2.292969 L 63.851562 1.078125 Z M 63.851562 1.078125 " transform="matrix(1,0,0,-1,0,25)"/>
</g>
<path style=" stroke:none;fill-rule:nonzero;fill:#FFFFFF;fill-opacity:1;" d="M 61.828125 21.984375 L 61.828125 9.691406 L 45.484375 8.710938 L 45.484375 21.003906 L 61.828125 21.984375 "/>
<path style=" stroke:none;fill-rule:nonzero;fill:#CC092F;fill-opacity:1;" d="M 43.609375 6.820312 L 45.574219 5.207031 L 65.761719 6.476562 L 63.851562 8.035156 L 43.609375 6.820312 "/>
<g clip-path="url(#clip2)" clip-rule="nonzero">
<path style="fill:none;stroke-width:0.8;stroke-linecap:butt;stroke-linejoin:miter;stroke:#FFFFFF;stroke-opacity:1;stroke-miterlimit:4;" d="M 43.609375 18.179688 L 45.574219 19.792969 L 65.761719 18.523438 L 63.851562 16.964844 L 43.609375 18.179688 Z M 43.609375 18.179688 " transform="matrix(1,0,0,-1,0,25)"/>
</g>
<path style=" stroke:none;fill-rule:nonzero;fill:#CC092F;fill-opacity:1;" d="M 63.851562 23.921875 L 65.902344 21.539062 L 65.902344 6.378906 L 63.851562 8.035156 L 63.851562 23.921875 "/>
<g clip-path="url(#clip3)" clip-rule="nonzero">
<path style="fill:none;stroke-width:0.8;stroke-linecap:butt;stroke-linejoin:miter;stroke:#FFFFFF;stroke-opacity:1;stroke-miterlimit:4;" d="M 63.851562 1.078125 L 65.902344 3.460938 L 65.902344 18.621094 L 63.851562 16.964844 L 63.851562 1.078125 Z M 63.851562 1.078125 " transform="matrix(1,0,0,-1,0,25)"/>
</g>
<path style=" stroke:none;fill-rule:nonzero;fill:#CC092F;fill-opacity:1;" d="M 2.953125 23.921875 L 2.953125 8.035156 L 23.195312 6.820312 L 23.195312 22.707031 L 2.953125 23.921875 "/>
<g clip-path="url(#clip4)" clip-rule="nonzero">
<path style="fill:none;stroke-width:0.8;stroke-linecap:butt;stroke-linejoin:miter;stroke:#FFFFFF;stroke-opacity:1;stroke-miterlimit:4;" d="M 2.953125 1.078125 L 2.953125 16.964844 L 23.195312 18.179688 L 23.195312 2.292969 L 2.953125 1.078125 Z M 2.953125 1.078125 " transform="matrix(1,0,0,-1,0,25)"/>
</g>
<path style=" stroke:none;fill-rule:nonzero;fill:#FFFFFF;fill-opacity:1;" d="M 4.980469 21.984375 L 4.980469 9.691406 L 21.324219 8.710938 L 21.324219 21.003906 L 4.980469 21.984375 "/>
<path style=" stroke:none;fill-rule:nonzero;fill:#CC092F;fill-opacity:1;" d="M 23.195312 6.820312 L 21.234375 5.207031 L 1.042969 6.476562 L 2.953125 8.035156 L 23.195312 6.820312 "/>
<g clip-path="url(#clip5)" clip-rule="nonzero">
<path style="fill:none;stroke-width:0.8;stroke-linecap:butt;stroke-linejoin:miter;stroke:#FFFFFF;stroke-opacity:1;stroke-miterlimit:4;" d="M 23.195312 18.179688 L 21.234375 19.792969 L 1.042969 18.523438 L 2.953125 16.964844 L 23.195312 18.179688 Z M 23.195312 18.179688 " transform="matrix(1,0,0,-1,0,25)"/>
</g>
<path style=" stroke:none;fill-rule:nonzero;fill:#CC092F;fill-opacity:1;" d="M 2.953125 23.921875 L 0.90625 21.539062 L 0.90625 6.378906 L 2.953125 8.035156 L 2.953125 23.921875 "/>
<g clip-path="url(#clip6)" clip-rule="nonzero">
<path style="fill:none;stroke-width:0.8;stroke-linecap:butt;stroke-linejoin:miter;stroke:#FFFFFF;stroke-opacity:1;stroke-miterlimit:4;" d="M 2.953125 1.078125 L 0.90625 3.460938 L 0.90625 18.621094 L 2.953125 16.964844 L 2.953125 1.078125 Z M 2.953125 1.078125 " transform="matrix(1,0,0,-1,0,25)"/>
</g>
<path style=" stroke:none;fill-rule:nonzero;fill:#CC092F;fill-opacity:1;" d="M 30.832031 7.300781 L 36.296875 7.300781 L 36.296875 0.902344 L 30.832031 0.902344 L 30.832031 7.300781 Z M 30.832031 7.300781 "/>
<g clip-path="url(#clip7)" clip-rule="nonzero">
<path style="fill:none;stroke-width:0.6;stroke-linecap:butt;stroke-linejoin:miter;stroke:#FFFFFF;stroke-opacity:1;stroke-miterlimit:4;" d="M 30.832031 17.699219 L 36.296875 17.699219 L 36.296875 24.097656 L 30.832031 24.097656 L 30.832031 17.699219 Z M 30.832031 17.699219 " transform="matrix(1,0,0,-1,0,25)"/>
</g>
<path style=" stroke:none;fill-rule:nonzero;fill:#CC092F;fill-opacity:1;" d="M 35.21875 4.667969 C 35.21875 5.550781 34.507812 6.261719 33.625 6.261719 C 32.746094 6.261719 32.035156 5.550781 32.035156 4.667969 C 32.035156 3.789062 32.746094 3.074219 33.625 3.074219 C 34.507812 3.074219 35.21875 3.789062 35.21875 4.667969 "/>
<path style="fill:none;stroke-width:0.6;stroke-linecap:butt;stroke-linejoin:miter;stroke:#FFFFFF;stroke-opacity:1;stroke-miterlimit:4;" d="M 35.21875 20.332031 C 35.21875 19.449219 34.507812 18.738281 33.625 18.738281 C 32.746094 18.738281 32.035156 19.449219 32.035156 20.332031 C 32.035156 21.210938 32.746094 21.925781 33.625 21.925781 C 34.507812 21.925781 35.21875 21.210938 35.21875 20.332031 Z M 35.21875 20.332031 " transform="matrix(1,0,0,-1,0,25)"/>
<path style=" stroke:none;fill-rule:nonzero;fill:#CC092F;fill-opacity:1;" d="M 36.277344 7.300781 L 41.742188 7.300781 L 41.742188 0.902344 L 36.277344 0.902344 L 36.277344 7.300781 Z M 36.277344 7.300781 "/>
<g clip-path="url(#clip8)" clip-rule="nonzero">
<path style="fill:none;stroke-width:0.6;stroke-linecap:butt;stroke-linejoin:miter;stroke:#FFFFFF;stroke-opacity:1;stroke-miterlimit:4;" d="M 36.277344 17.699219 L 41.742188 17.699219 L 41.742188 24.097656 L 36.277344 24.097656 L 36.277344 17.699219 Z M 36.277344 17.699219 " transform="matrix(1,0,0,-1,0,25)"/>
</g>
<path style=" stroke:none;fill-rule:nonzero;fill:#CC092F;fill-opacity:1;" d="M 40.664062 4.667969 C 40.664062 5.550781 39.953125 6.261719 39.070312 6.261719 C 38.191406 6.261719 37.480469 5.550781 37.480469 4.667969 C 37.480469 3.789062 38.191406 3.074219 39.070312 3.074219 C 39.953125 3.074219 40.664062 3.789062 40.664062 4.667969 "/>
<path style="fill:none;stroke-width:0.6;stroke-linecap:butt;stroke-linejoin:miter;stroke:#FFFFFF;stroke-opacity:1;stroke-miterlimit:4;" d="M 40.664062 20.332031 C 40.664062 19.449219 39.953125 18.738281 39.070312 18.738281 C 38.191406 18.738281 37.480469 19.449219 37.480469 20.332031 C 37.480469 21.210938 38.191406 21.925781 39.070312 21.925781 C 39.953125 21.925781 40.664062 21.210938 40.664062 20.332031 Z M 40.664062 20.332031 " transform="matrix(1,0,0,-1,0,25)"/>
<path style=" stroke:none;fill-rule:nonzero;fill:#CC092F;fill-opacity:1;" d="M 25.386719 7.300781 L 30.855469 7.300781 L 30.855469 0.902344 L 25.386719 0.902344 L 25.386719 7.300781 Z M 25.386719 7.300781 "/>
<g clip-path="url(#clip9)" clip-rule="nonzero">
<path style="fill:none;stroke-width:0.6;stroke-linecap:butt;stroke-linejoin:miter;stroke:#FFFFFF;stroke-opacity:1;stroke-miterlimit:4;" d="M 25.386719 17.699219 L 30.855469 17.699219 L 30.855469 24.097656 L 25.386719 24.097656 L 25.386719 17.699219 Z M 25.386719 17.699219 " transform="matrix(1,0,0,-1,0,25)"/>
</g>
<path style=" stroke:none;fill-rule:nonzero;fill:#CC092F;fill-opacity:1;" d="M 29.777344 4.667969 C 29.777344 5.550781 29.0625 6.261719 28.183594 6.261719 C 27.304688 6.261719 26.589844 5.550781 26.589844 4.667969 C 26.589844 3.789062 27.304688 3.074219 28.183594 3.074219 C 29.0625 3.074219 29.777344 3.789062 29.777344 4.667969 "/>
<path style="fill:none;stroke-width:0.6;stroke-linecap:butt;stroke-linejoin:miter;stroke:#FFFFFF;stroke-opacity:1;stroke-miterlimit:4;" d="M 29.777344 20.332031 C 29.777344 19.449219 29.0625 18.738281 28.183594 18.738281 C 27.304688 18.738281 26.589844 19.449219 26.589844 20.332031 C 26.589844 21.210938 27.304688 21.925781 28.183594 21.925781 C 29.0625 21.925781 29.777344 21.210938 29.777344 20.332031 Z M 29.777344 20.332031 " transform="matrix(1,0,0,-1,0,25)"/>
<path style=" stroke:none;fill-rule:nonzero;fill:#CC092F;fill-opacity:1;" d="M 35.367188 14.492188 L 35.367188 16.835938 L 31.253906 16.835938 L 31.253906 14.492188 C 33.3125 13.257812 35.367188 14.492188 35.367188 14.492188 "/>
<path style="fill:none;stroke-width:0.5;stroke-linecap:butt;stroke-linejoin:miter;stroke:#FFFFFF;stroke-opacity:1;stroke-miterlimit:4;" d="M 35.367188 10.507812 L 35.367188 8.164062 L 31.253906 8.164062 L 31.253906 10.507812 C 33.3125 11.742188 35.367188 10.507812 35.367188 10.507812 Z M 35.367188 10.507812 " transform="matrix(1,0,0,-1,0,25)"/>
<path style=" stroke:none;fill-rule:nonzero;fill:#CC092F;fill-opacity:1;" d="M 34.585938 12.804688 C 34.585938 13.488281 34.03125 14.039062 33.351562 14.039062 C 32.667969 14.039062 32.117188 13.488281 32.117188 12.804688 C 32.117188 12.125 32.667969 11.570312 33.351562 11.570312 C 34.03125 11.570312 34.585938 12.125 34.585938 12.804688 "/>
<path style="fill:none;stroke-width:0.5;stroke-linecap:butt;stroke-linejoin:miter;stroke:#FFFFFF;stroke-opacity:1;stroke-miterlimit:4;" d="M 34.585938 12.195312 C 34.585938 11.511719 34.03125 10.960938 33.351562 10.960938 C 32.667969 10.960938 32.117188 11.511719 32.117188 12.195312 C 32.117188 12.875 32.667969 13.429688 33.351562 13.429688 C 34.03125 13.429688 34.585938 12.875 34.585938 12.195312 Z M 34.585938 12.195312 " transform="matrix(1,0,0,-1,0,25)"/>
<path style=" stroke:none;fill-rule:nonzero;fill:#CC092F;fill-opacity:1;" d="M 32.722656 15.980469 L 32.722656 18.324219 L 28.605469 18.324219 L 28.605469 15.980469 C 30.664062 14.746094 32.722656 15.980469 32.722656 15.980469 "/>
<path style="fill:none;stroke-width:0.5;stroke-linecap:butt;stroke-linejoin:miter;stroke:#FFFFFF;stroke-opacity:1;stroke-miterlimit:4;" d="M 32.722656 9.019531 L 32.722656 6.675781 L 28.605469 6.675781 L 28.605469 9.019531 C 30.664062 10.253906 32.722656 9.019531 32.722656 9.019531 Z M 32.722656 9.019531 " transform="matrix(1,0,0,-1,0,25)"/>
<path style=" stroke:none;fill-rule:nonzero;fill:#CC092F;fill-opacity:1;" d="M 31.941406 14.296875 C 31.941406 14.976562 31.386719 15.527344 30.703125 15.527344 C 30.023438 15.527344 29.472656 14.976562 29.472656 14.296875 C 29.472656 13.613281 30.023438 13.058594 30.703125 13.058594 C 31.386719 13.058594 31.941406 13.613281 31.941406 14.296875 "/>
<path style="fill:none;stroke-width:0.5;stroke-linecap:butt;stroke-linejoin:miter;stroke:#FFFFFF;stroke-opacity:1;stroke-miterlimit:4;" d="M 31.941406 10.703125 C 31.941406 10.023438 31.386719 9.472656 30.703125 9.472656 C 30.023438 9.472656 29.472656 10.023438 29.472656 10.703125 C 29.472656 11.386719 30.023438 11.941406 30.703125 11.941406 C 31.386719 11.941406 31.941406 11.386719 31.941406 10.703125 Z M 31.941406 10.703125 " transform="matrix(1,0,0,-1,0,25)"/>
<path style=" stroke:none;fill-rule:nonzero;fill:#CC092F;fill-opacity:1;" d="M 38.015625 15.980469 L 38.015625 18.324219 L 33.898438 18.324219 L 33.898438 15.980469 C 35.957031 14.746094 38.015625 15.980469 38.015625 15.980469 "/>
<path style="fill:none;stroke-width:0.5;stroke-linecap:butt;stroke-linejoin:miter;stroke:#FFFFFF;stroke-opacity:1;stroke-miterlimit:4;" d="M 38.015625 9.019531 L 38.015625 6.675781 L 33.898438 6.675781 L 33.898438 9.019531 C 35.957031 10.253906 38.015625 9.019531 38.015625 9.019531 Z M 38.015625 9.019531 " transform="matrix(1,0,0,-1,0,25)"/>
<path style=" stroke:none;fill-rule:nonzero;fill:#CC092F;fill-opacity:1;" d="M 37.230469 14.296875 C 37.230469 14.976562 36.679688 15.527344 35.996094 15.527344 C 35.316406 15.527344 34.761719 14.976562 34.761719 14.296875 C 34.761719 13.613281 35.316406 13.058594 35.996094 13.058594 C 36.679688 13.058594 37.230469 13.613281 37.230469 14.296875 "/>
<path style="fill:none;stroke-width:0.5;stroke-linecap:butt;stroke-linejoin:miter;stroke:#FFFFFF;stroke-opacity:1;stroke-miterlimit:4;" d="M 37.230469 10.703125 C 37.230469 10.023438 36.679688 9.472656 35.996094 9.472656 C 35.316406 9.472656 34.761719 10.023438 34.761719 10.703125 C 34.761719 11.386719 35.316406 11.941406 35.996094 11.941406 C 36.679688 11.941406 37.230469 11.386719 37.230469 10.703125 Z M 37.230469 10.703125 " transform="matrix(1,0,0,-1,0,25)"/>
<path style=" stroke:none;fill-rule:nonzero;fill:#CC092F;fill-opacity:1;" d="M 30.207031 17.472656 L 30.207031 20.464844 L 26.089844 20.464844 L 26.089844 17.472656 C 28.148438 16.238281 30.207031 17.472656 30.207031 17.472656 "/>
<path style="fill:none;stroke-width:0.5;stroke-linecap:butt;stroke-linejoin:miter;stroke:#FFFFFF;stroke-opacity:1;stroke-miterlimit:4;" d="M 30.207031 7.527344 L 30.207031 4.535156 L 26.089844 4.535156 L 26.089844 7.527344 C 28.148438 8.761719 30.207031 7.527344 30.207031 7.527344 Z M 30.207031 7.527344 " transform="matrix(1,0,0,-1,0,25)"/>
<path style=" stroke:none;fill-rule:nonzero;fill:#CC092F;fill-opacity:1;" d="M 29.421875 15.785156 C 29.421875 16.46875 28.871094 17.023438 28.1875 17.023438 C 27.503906 17.023438 26.953125 16.46875 26.953125 15.785156 C 26.953125 15.105469 27.503906 14.550781 28.1875 14.550781 C 28.871094 14.550781 29.421875 15.105469 29.421875 15.785156 "/>
<path style="fill:none;stroke-width:0.5;stroke-linecap:butt;stroke-linejoin:miter;stroke:#FFFFFF;stroke-opacity:1;stroke-miterlimit:4;" d="M 29.421875 9.214844 C 29.421875 8.53125 28.871094 7.976562 28.1875 7.976562 C 27.503906 7.976562 26.953125 8.53125 26.953125 9.214844 C 26.953125 9.894531 27.503906 10.449219 28.1875 10.449219 C 28.871094 10.449219 29.421875 9.894531 29.421875 9.214844 Z M 29.421875 9.214844 " transform="matrix(1,0,0,-1,0,25)"/>
<path style=" stroke:none;fill-rule:nonzero;fill:#CC092F;fill-opacity:1;" d="M 35.496094 17.472656 L 35.496094 20.464844 L 31.382812 20.464844 L 31.382812 17.472656 C 33.441406 16.238281 35.496094 17.472656 35.496094 17.472656 "/>
<path style="fill:none;stroke-width:0.5;stroke-linecap:butt;stroke-linejoin:miter;stroke:#FFFFFF;stroke-opacity:1;stroke-miterlimit:4;" d="M 35.496094 7.527344 L 35.496094 4.535156 L 31.382812 4.535156 L 31.382812 7.527344 C 33.441406 8.761719 35.496094 7.527344 35.496094 7.527344 Z M 35.496094 7.527344 " transform="matrix(1,0,0,-1,0,25)"/>
<path style=" stroke:none;fill-rule:nonzero;fill:#CC092F;fill-opacity:1;" d="M 34.714844 15.785156 C 34.714844 16.46875 34.160156 17.023438 33.480469 17.023438 C 32.796875 17.023438 32.246094 16.46875 32.246094 15.785156 C 32.246094 15.105469 32.796875 14.550781 33.480469 14.550781 C 34.160156 14.550781 34.714844 15.105469 34.714844 15.785156 "/>
<path style="fill:none;stroke-width:0.5;stroke-linecap:butt;stroke-linejoin:miter;stroke:#FFFFFF;stroke-opacity:1;stroke-miterlimit:4;" d="M 34.714844 9.214844 C 34.714844 8.53125 34.160156 7.976562 33.480469 7.976562 C 32.796875 7.976562 32.246094 8.53125 32.246094 9.214844 C 32.246094 9.894531 32.796875 10.449219 33.480469 10.449219 C 34.160156 10.449219 34.714844 9.894531 34.714844 9.214844 Z M 34.714844 9.214844 " transform="matrix(1,0,0,-1,0,25)"/>
<path style=" stroke:none;fill-rule:nonzero;fill:#CC092F;fill-opacity:1;" d="M 40.789062 17.472656 L 40.789062 20.464844 L 36.671875 20.464844 L 36.671875 17.472656 C 38.730469 16.238281 40.789062 17.472656 40.789062 17.472656 "/>
<path style="fill:none;stroke-width:0.5;stroke-linecap:butt;stroke-linejoin:miter;stroke:#FFFFFF;stroke-opacity:1;stroke-miterlimit:4;" d="M 40.789062 7.527344 L 40.789062 4.535156 L 36.671875 4.535156 L 36.671875 7.527344 C 38.730469 8.761719 40.789062 7.527344 40.789062 7.527344 Z M 40.789062 7.527344 " transform="matrix(1,0,0,-1,0,25)"/>
<path style=" stroke:none;fill-rule:nonzero;fill:#CC092F;fill-opacity:1;" d="M 40.007812 15.785156 C 40.007812 16.46875 39.453125 17.023438 38.769531 17.023438 C 38.089844 17.023438 37.535156 16.46875 37.535156 15.785156 C 37.535156 15.105469 38.089844 14.550781 38.769531 14.550781 C 39.453125 14.550781 40.007812 15.105469 40.007812 15.785156 "/>
<path style="fill:none;stroke-width:0.5;stroke-linecap:butt;stroke-linejoin:miter;stroke:#FFFFFF;stroke-opacity:1;stroke-miterlimit:4;" d="M 40.007812 9.214844 C 40.007812 8.53125 39.453125 7.976562 38.769531 7.976562 C 38.089844 7.976562 37.535156 8.53125 37.535156 9.214844 C 37.535156 9.894531 38.089844 10.449219 38.769531 10.449219 C 39.453125 10.449219 40.007812 9.894531 40.007812 9.214844 Z M 40.007812 9.214844 " transform="matrix(1,0,0,-1,0,25)"/>
<path style=" stroke:none;fill-rule:nonzero;fill:#CC092F;fill-opacity:1;" d="M 10.742188 15.40625 L 10.742188 18.066406 L 15.410156 17.785156 L 15.410156 15.128906 C 13.078125 13.867188 10.742188 15.40625 10.742188 15.40625 "/>
<path style="fill:none;stroke-width:0.5;stroke-linecap:butt;stroke-linejoin:miter;stroke:#FFFFFF;stroke-opacity:1;stroke-miterlimit:4;" d="M 10.742188 9.59375 L 10.742188 6.933594 L 15.410156 7.214844 L 15.410156 9.871094 C 13.078125 11.132812 10.742188 9.59375 10.742188 9.59375 Z M 10.742188 9.59375 " transform="matrix(1,0,0,-1,0,25)"/>
<path style=" stroke:none;fill-rule:nonzero;fill:#CC092F;fill-opacity:1;" d="M 11.632812 13.441406 C 11.632812 14.214844 12.257812 14.808594 13.03125 14.761719 C 13.804688 14.714844 14.429688 14.046875 14.429688 13.273438 C 14.429688 12.503906 13.804688 11.910156 13.03125 11.960938 C 12.257812 12.003906 11.632812 12.667969 11.632812 13.441406 "/>
<path style="fill:none;stroke-width:0.5;stroke-linecap:butt;stroke-linejoin:miter;stroke:#FFFFFF;stroke-opacity:1;stroke-miterlimit:4;" d="M 11.632812 11.558594 C 11.632812 10.785156 12.257812 10.191406 13.03125 10.238281 C 13.804688 10.285156 14.429688 10.953125 14.429688 11.726562 C 14.429688 12.496094 13.804688 13.089844 13.03125 13.039062 C 12.257812 12.996094 11.632812 12.332031 11.632812 11.558594 Z M 11.632812 11.558594 " transform="matrix(1,0,0,-1,0,25)"/>
<path style=" stroke:none;fill-rule:nonzero;fill:#CC092F;fill-opacity:1;" d="M 8.191406 16.90625 L 8.191406 20.214844 L 12.859375 19.933594 L 12.859375 16.628906 C 10.527344 15.367188 8.191406 16.90625 8.191406 16.90625 "/>
<path style="fill:none;stroke-width:0.5;stroke-linecap:butt;stroke-linejoin:miter;stroke:#FFFFFF;stroke-opacity:1;stroke-miterlimit:4;" d="M 8.191406 8.09375 L 8.191406 4.785156 L 12.859375 5.066406 L 12.859375 8.371094 C 10.527344 9.632812 8.191406 8.09375 8.191406 8.09375 Z M 8.191406 8.09375 " transform="matrix(1,0,0,-1,0,25)"/>
<path style=" stroke:none;fill-rule:nonzero;fill:#CC092F;fill-opacity:1;" d="M 9.082031 14.941406 C 9.082031 15.714844 9.707031 16.308594 10.480469 16.261719 C 11.253906 16.214844 11.882812 15.546875 11.882812 14.773438 C 11.882812 14.003906 11.253906 13.410156 10.480469 13.460938 C 9.707031 13.503906 9.082031 14.167969 9.082031 14.941406 "/>
<path style="fill:none;stroke-width:0.5;stroke-linecap:butt;stroke-linejoin:miter;stroke:#FFFFFF;stroke-opacity:1;stroke-miterlimit:4;" d="M 9.082031 10.058594 C 9.082031 9.285156 9.707031 8.691406 10.480469 8.738281 C 11.253906 8.785156 11.882812 9.453125 11.882812 10.226562 C 11.882812 10.996094 11.253906 11.589844 10.480469 11.539062 C 9.707031 11.496094 9.082031 10.832031 9.082031 10.058594 Z M 9.082031 10.058594 " transform="matrix(1,0,0,-1,0,25)"/>
<path style=" stroke:none;fill-rule:nonzero;fill:#CC092F;fill-opacity:1;" d="M 13.292969 16.609375 L 13.292969 19.910156 L 17.957031 18.984375 L 17.957031 16.328125 C 15.625 15.066406 13.292969 16.609375 13.292969 16.609375 "/>
<path style="fill:none;stroke-width:0.5;stroke-linecap:butt;stroke-linejoin:miter;stroke:#FFFFFF;stroke-opacity:1;stroke-miterlimit:4;" d="M 13.292969 8.390625 L 13.292969 5.089844 L 17.957031 6.015625 L 17.957031 8.671875 C 15.625 9.933594 13.292969 8.390625 13.292969 8.390625 Z M 13.292969 8.390625 " transform="matrix(1,0,0,-1,0,25)"/>
<path style=" stroke:none;fill-rule:nonzero;fill:#CC092F;fill-opacity:1;" d="M 14.183594 14.644531 C 14.183594 15.414062 14.808594 16.007812 15.582031 15.960938 C 16.355469 15.914062 16.980469 15.246094 16.980469 14.476562 C 16.980469 13.703125 16.355469 13.113281 15.582031 13.160156 C 14.808594 13.203125 14.183594 13.867188 14.183594 14.644531 "/>
<path style="fill:none;stroke-width:0.5;stroke-linecap:butt;stroke-linejoin:miter;stroke:#FFFFFF;stroke-opacity:1;stroke-miterlimit:4;" d="M 14.183594 10.355469 C 14.183594 9.585938 14.808594 8.992188 15.582031 9.039062 C 16.355469 9.085938 16.980469 9.753906 16.980469 10.523438 C 16.980469 11.296875 16.355469 11.886719 15.582031 11.839844 C 14.808594 11.796875 14.183594 11.132812 14.183594 10.355469 Z M 14.183594 10.355469 " transform="matrix(1,0,0,-1,0,25)"/>
<path style=" stroke:none;fill-rule:nonzero;fill:#CC092F;fill-opacity:1;" d="M 5.640625 18.253906 L 5.640625 21.558594 L 10.308594 21.277344 L 10.308594 17.972656 C 7.976562 16.714844 5.640625 18.253906 5.640625 18.253906 "/>
<path style="fill:none;stroke-width:0.5;stroke-linecap:butt;stroke-linejoin:miter;stroke:#FFFFFF;stroke-opacity:1;stroke-miterlimit:4;" d="M 5.640625 6.746094 L 5.640625 3.441406 L 10.308594 3.722656 L 10.308594 7.027344 C 7.976562 8.285156 5.640625 6.746094 5.640625 6.746094 Z M 5.640625 6.746094 " transform="matrix(1,0,0,-1,0,25)"/>
<path style=" stroke:none;fill-rule:nonzero;fill:#CC092F;fill-opacity:1;" d="M 6.53125 16.285156 C 6.53125 17.0625 7.15625 17.648438 7.933594 17.605469 C 8.707031 17.558594 9.332031 16.894531 9.332031 16.117188 C 9.332031 15.347656 8.707031 14.757812 7.933594 14.804688 C 7.15625 14.851562 6.53125 15.515625 6.53125 16.285156 "/>
<path style="fill:none;stroke-width:0.5;stroke-linecap:butt;stroke-linejoin:miter;stroke:#FFFFFF;stroke-opacity:1;stroke-miterlimit:4;" d="M 6.53125 8.714844 C 6.53125 7.9375 7.15625 7.351562 7.933594 7.394531 C 8.707031 7.441406 9.332031 8.105469 9.332031 8.882812 C 9.332031 9.652344 8.707031 10.242188 7.933594 10.195312 C 7.15625 10.148438 6.53125 9.484375 6.53125 8.714844 Z M 6.53125 8.714844 " transform="matrix(1,0,0,-1,0,25)"/>
<path style=" stroke:none;fill-rule:nonzero;fill:#CC092F;fill-opacity:1;" d="M 11.042969 17.953125 L 11.042969 21.257812 L 15.707031 20.980469 L 15.707031 17.671875 C 13.375 16.410156 11.042969 17.953125 11.042969 17.953125 "/>
<path style="fill:none;stroke-width:0.5;stroke-linecap:butt;stroke-linejoin:miter;stroke:#FFFFFF;stroke-opacity:1;stroke-miterlimit:4;" d="M 11.042969 7.046875 L 11.042969 3.742188 L 15.707031 4.019531 L 15.707031 7.328125 C 13.375 8.589844 11.042969 7.046875 11.042969 7.046875 Z M 11.042969 7.046875 " transform="matrix(1,0,0,-1,0,25)"/>
<path style=" stroke:none;fill-rule:nonzero;fill:#CC092F;fill-opacity:1;" d="M 11.933594 15.988281 C 11.933594 16.761719 12.558594 17.351562 13.332031 17.304688 C 14.105469 17.257812 14.730469 16.59375 14.730469 15.820312 C 14.730469 15.046875 14.105469 14.457031 13.332031 14.503906 C 12.558594 14.550781 11.933594 15.214844 11.933594 15.988281 "/>
<path style="fill:none;stroke-width:0.5;stroke-linecap:butt;stroke-linejoin:miter;stroke:#FFFFFF;stroke-opacity:1;stroke-miterlimit:4;" d="M 11.933594 9.011719 C 11.933594 8.238281 12.558594 7.648438 13.332031 7.695312 C 14.105469 7.742188 14.730469 8.40625 14.730469 9.179688 C 14.730469 9.953125 14.105469 10.542969 13.332031 10.496094 C 12.558594 10.449219 11.933594 9.785156 11.933594 9.011719 Z M 11.933594 9.011719 " transform="matrix(1,0,0,-1,0,25)"/>
<path style=" stroke:none;fill-rule:nonzero;fill:#CC092F;fill-opacity:1;" d="M 16.140625 17.652344 L 16.140625 20.957031 L 20.808594 20.679688 L 20.808594 17.371094 C 18.476562 16.113281 16.140625 17.652344 16.140625 17.652344 "/>
<path style="fill:none;stroke-width:0.5;stroke-linecap:butt;stroke-linejoin:miter;stroke:#FFFFFF;stroke-opacity:1;stroke-miterlimit:4;" d="M 16.140625 7.347656 L 16.140625 4.042969 L 20.808594 4.320312 L 20.808594 7.628906 C 18.476562 8.886719 16.140625 7.347656 16.140625 7.347656 Z M 16.140625 7.347656 " transform="matrix(1,0,0,-1,0,25)"/>
<path style=" stroke:none;fill-rule:nonzero;fill:#CC092F;fill-opacity:1;" d="M 17.03125 15.6875 C 17.03125 16.460938 17.65625 17.050781 18.433594 17.003906 C 19.207031 16.957031 19.832031 16.292969 19.832031 15.519531 C 19.832031 14.746094 19.207031 14.15625 18.433594 14.203125 C 17.65625 14.25 17.03125 14.914062 17.03125 15.6875 "/>
<path style="fill:none;stroke-width:0.5;stroke-linecap:butt;stroke-linejoin:miter;stroke:#FFFFFF;stroke-opacity:1;stroke-miterlimit:4;" d="M 17.03125 9.3125 C 17.03125 8.539062 17.65625 7.949219 18.433594 7.996094 C 19.207031 8.042969 19.832031 8.707031 19.832031 9.480469 C 19.832031 10.253906 19.207031 10.84375 18.433594 10.796875 C 17.65625 10.75 17.03125 10.085938 17.03125 9.3125 Z M 17.03125 9.3125 " transform="matrix(1,0,0,-1,0,25)"/>
<path style=" stroke:none;fill-rule:nonzero;fill:#CC092F;fill-opacity:1;" d="M 56.035156 15.40625 L 56.035156 18.066406 L 51.371094 17.785156 L 51.371094 15.128906 C 53.703125 13.867188 56.035156 15.40625 56.035156 15.40625 "/>
<path style="fill:none;stroke-width:0.5;stroke-linecap:butt;stroke-linejoin:miter;stroke:#FFFFFF;stroke-opacity:1;stroke-miterlimit:4;" d="M 56.035156 9.59375 L 56.035156 6.933594 L 51.371094 7.214844 L 51.371094 9.871094 C 53.703125 11.132812 56.035156 9.59375 56.035156 9.59375 Z M 56.035156 9.59375 " transform="matrix(1,0,0,-1,0,25)"/>
<path style=" stroke:none;fill-rule:nonzero;fill:#CC092F;fill-opacity:1;" d="M 55.144531 13.441406 C 55.144531 14.214844 54.519531 14.808594 53.746094 14.761719 C 52.972656 14.714844 52.347656 14.046875 52.347656 13.273438 C 52.347656 12.503906 52.972656 11.910156 53.746094 11.960938 C 54.519531 12.003906 55.144531 12.667969 55.144531 13.441406 "/>
<path style="fill:none;stroke-width:0.5;stroke-linecap:butt;stroke-linejoin:miter;stroke:#FFFFFF;stroke-opacity:1;stroke-miterlimit:4;" d="M 55.144531 11.558594 C 55.144531 10.785156 54.519531 10.191406 53.746094 10.238281 C 52.972656 10.285156 52.347656 10.953125 52.347656 11.726562 C 52.347656 12.496094 52.972656 13.089844 53.746094 13.039062 C 54.519531 12.996094 55.144531 12.332031 55.144531 11.558594 Z M 55.144531 11.558594 " transform="matrix(1,0,0,-1,0,25)"/>
<path style=" stroke:none;fill-rule:nonzero;fill:#CC092F;fill-opacity:1;" d="M 58.585938 16.90625 L 58.585938 20.085938 L 53.921875 19.285156 L 53.921875 16.628906 C 56.253906 15.367188 58.585938 16.90625 58.585938 16.90625 "/>
<path style="fill:none;stroke-width:0.5;stroke-linecap:butt;stroke-linejoin:miter;stroke:#FFFFFF;stroke-opacity:1;stroke-miterlimit:4;" d="M 58.585938 8.09375 L 58.585938 4.914062 L 53.921875 5.714844 L 53.921875 8.371094 C 56.253906 9.632812 58.585938 8.09375 58.585938 8.09375 Z M 58.585938 8.09375 " transform="matrix(1,0,0,-1,0,25)"/>
<path style=" stroke:none;fill-rule:nonzero;fill:#CC092F;fill-opacity:1;" d="M 57.695312 14.941406 C 57.695312 15.714844 57.070312 16.308594 56.296875 16.261719 C 55.523438 16.214844 54.898438 15.546875 54.898438 14.773438 C 54.898438 14.003906 55.523438 13.410156 56.296875 13.460938 C 57.070312 13.503906 57.695312 14.167969 57.695312 14.941406 "/>
<path style="fill:none;stroke-width:0.5;stroke-linecap:butt;stroke-linejoin:miter;stroke:#FFFFFF;stroke-opacity:1;stroke-miterlimit:4;" d="M 57.695312 10.058594 C 57.695312 9.285156 57.070312 8.691406 56.296875 8.738281 C 55.523438 8.785156 54.898438 9.453125 54.898438 10.226562 C 54.898438 10.996094 55.523438 11.589844 56.296875 11.539062 C 57.070312 11.496094 57.695312 10.832031 57.695312 10.058594 Z M 57.695312 10.058594 " transform="matrix(1,0,0,-1,0,25)"/>
<path style=" stroke:none;fill-rule:nonzero;fill:#CC092F;fill-opacity:1;" d="M 53.484375 16.609375 L 53.484375 19.265625 L 48.820312 18.984375 L 48.820312 16.328125 C 51.152344 15.066406 53.484375 16.609375 53.484375 16.609375 "/>
<path style="fill:none;stroke-width:0.5;stroke-linecap:butt;stroke-linejoin:miter;stroke:#FFFFFF;stroke-opacity:1;stroke-miterlimit:4;" d="M 53.484375 8.390625 L 53.484375 5.734375 L 48.820312 6.015625 L 48.820312 8.671875 C 51.152344 9.933594 53.484375 8.390625 53.484375 8.390625 Z M 53.484375 8.390625 " transform="matrix(1,0,0,-1,0,25)"/>
<path style=" stroke:none;fill-rule:nonzero;fill:#CC092F;fill-opacity:1;" d="M 52.597656 14.644531 C 52.597656 15.414062 51.972656 16.007812 51.195312 15.960938 C 50.421875 15.914062 49.796875 15.246094 49.796875 14.476562 C 49.796875 13.703125 50.421875 13.113281 51.195312 13.160156 C 51.972656 13.203125 52.597656 13.867188 52.597656 14.644531 "/>
<path style="fill:none;stroke-width:0.5;stroke-linecap:butt;stroke-linejoin:miter;stroke:#FFFFFF;stroke-opacity:1;stroke-miterlimit:4;" d="M 52.597656 10.355469 C 52.597656 9.585938 51.972656 8.992188 51.195312 9.039062 C 50.421875 9.085938 49.796875 9.753906 49.796875 10.523438 C 49.796875 11.296875 50.421875 11.886719 51.195312 11.839844 C 51.972656 11.796875 52.597656 11.132812 52.597656 10.355469 Z M 52.597656 10.355469 " transform="matrix(1,0,0,-1,0,25)"/>
<path style=" stroke:none;fill-rule:nonzero;fill:#CC092F;fill-opacity:1;" d="M 61.136719 18.253906 L 61.136719 21.425781 L 56.46875 21.148438 L 56.46875 17.972656 C 58.800781 16.710938 61.136719 18.253906 61.136719 18.253906 "/>
<path style="fill:none;stroke-width:0.5;stroke-linecap:butt;stroke-linejoin:miter;stroke:#FFFFFF;stroke-opacity:1;stroke-miterlimit:4;" d="M 61.136719 6.746094 L 61.136719 3.574219 L 56.46875 3.851562 L 56.46875 7.027344 C 58.800781 8.289062 61.136719 6.746094 61.136719 6.746094 Z M 61.136719 6.746094 " transform="matrix(1,0,0,-1,0,25)"/>
<path style=" stroke:none;fill-rule:nonzero;fill:#CC092F;fill-opacity:1;" d="M 60.246094 16.285156 C 60.246094 17.058594 59.621094 17.648438 58.847656 17.601562 C 58.074219 17.558594 57.445312 16.890625 57.445312 16.117188 C 57.445312 15.347656 58.074219 14.757812 58.847656 14.800781 C 59.621094 14.847656 60.246094 15.515625 60.246094 16.285156 "/>
<path style="fill:none;stroke-width:0.5;stroke-linecap:butt;stroke-linejoin:miter;stroke:#FFFFFF;stroke-opacity:1;stroke-miterlimit:4;" d="M 60.246094 8.714844 C 60.246094 7.941406 59.621094 7.351562 58.847656 7.398438 C 58.074219 7.441406 57.445312 8.109375 57.445312 8.882812 C 57.445312 9.652344 58.074219 10.242188 58.847656 10.199219 C 59.621094 10.152344 60.246094 9.484375 60.246094 8.714844 Z M 60.246094 8.714844 " transform="matrix(1,0,0,-1,0,25)"/>
<path style=" stroke:none;fill-rule:nonzero;fill:#CC092F;fill-opacity:1;" d="M 55.734375 17.953125 L 55.734375 21.128906 L 51.070312 20.847656 L 51.070312 17.671875 C 53.402344 16.410156 55.734375 17.953125 55.734375 17.953125 "/>
<path style="fill:none;stroke-width:0.5;stroke-linecap:butt;stroke-linejoin:miter;stroke:#FFFFFF;stroke-opacity:1;stroke-miterlimit:4;" d="M 55.734375 7.046875 L 55.734375 3.871094 L 51.070312 4.152344 L 51.070312 7.328125 C 53.402344 8.589844 55.734375 7.046875 55.734375 7.046875 Z M 55.734375 7.046875 " transform="matrix(1,0,0,-1,0,25)"/>
<path style=" stroke:none;fill-rule:nonzero;fill:#CC092F;fill-opacity:1;" d="M 54.847656 15.984375 C 54.847656 16.761719 54.222656 17.351562 53.445312 17.304688 C 52.671875 17.257812 52.046875 16.59375 52.046875 15.816406 C 52.046875 15.046875 52.671875 14.457031 53.445312 14.503906 C 54.222656 14.550781 54.847656 15.214844 54.847656 15.984375 "/>
<path style="fill:none;stroke-width:0.5;stroke-linecap:butt;stroke-linejoin:miter;stroke:#FFFFFF;stroke-opacity:1;stroke-miterlimit:4;" d="M 54.847656 9.015625 C 54.847656 8.238281 54.222656 7.648438 53.445312 7.695312 C 52.671875 7.742188 52.046875 8.40625 52.046875 9.183594 C 52.046875 9.953125 52.671875 10.542969 53.445312 10.496094 C 54.222656 10.449219 54.847656 9.785156 54.847656 9.015625 Z M 54.847656 9.015625 " transform="matrix(1,0,0,-1,0,25)"/>
<path style=" stroke:none;fill-rule:nonzero;fill:#CC092F;fill-opacity:1;" d="M 50.636719 17.652344 L 50.636719 20.824219 L 45.96875 20.546875 L 45.96875 17.371094 C 48.300781 16.113281 50.636719 17.652344 50.636719 17.652344 "/>
<path style="fill:none;stroke-width:0.5;stroke-linecap:butt;stroke-linejoin:miter;stroke:#FFFFFF;stroke-opacity:1;stroke-miterlimit:4;" d="M 50.636719 7.347656 L 50.636719 4.175781 L 45.96875 4.453125 L 45.96875 7.628906 C 48.300781 8.886719 50.636719 7.347656 50.636719 7.347656 Z M 50.636719 7.347656 " transform="matrix(1,0,0,-1,0,25)"/>
<path style=" stroke:none;fill-rule:nonzero;fill:#CC092F;fill-opacity:1;" d="M 49.746094 15.6875 C 49.746094 16.460938 49.121094 17.050781 48.347656 17.003906 C 47.574219 16.957031 46.945312 16.289062 46.945312 15.519531 C 46.945312 14.746094 47.574219 14.15625 48.347656 14.203125 C 49.121094 14.25 49.746094 14.914062 49.746094 15.6875 "/>
<path style="fill:none;stroke-width:0.5;stroke-linecap:butt;stroke-linejoin:miter;stroke:#FFFFFF;stroke-opacity:1;stroke-miterlimit:4;" d="M 49.746094 9.3125 C 49.746094 8.539062 49.121094 7.949219 48.347656 7.996094 C 47.574219 8.042969 46.945312 8.710938 46.945312 9.480469 C 46.945312 10.253906 47.574219 10.84375 48.347656 10.796875 C 49.121094 10.75 49.746094 10.085938 49.746094 9.3125 Z M 49.746094 9.3125 " transform="matrix(1,0,0,-1,0,25)"/>
</g>
</svg>
