<?xml version="1.0" encoding="UTF-8"?>
<svg xmlns="http://www.w3.org/2000/svg" xmlns:xlink="http://www.w3.org/1999/xlink" width="25pt" height="37pt" viewBox="0 0 25 37" version="1.1">
<defs>
<clipPath id="clip1">
  <path d="M 0 0.464844 L 24 0.464844 L 24 36.941406 L 0 36.941406 L 0 0.464844 Z M 0 0.464844 "/>
</clipPath>
<clipPath id="clip2">
  <path d="M 0 0.464844 L 24 0.464844 L 24 36.941406 L 0 36.941406 L 0 0.464844 Z M 0 0.464844 "/>
</clipPath>
<clipPath id="clip3">
  <path d="M 0 0.464844 L 24 0.464844 L 24 36.941406 L 0 36.941406 L 0 0.464844 Z M 0 0.464844 "/>
</clipPath>
</defs>
<g id="surface0">
<path style=" stroke:none;fill-rule:nonzero;fill:#CC092F;fill-opacity:1;" d="M 0.648438 4.703125 L 19.171875 4.703125 L 19.171875 36.433594 L 0.648438 36.433594 L 0.648438 4.703125 Z M 0.648438 4.703125 "/>
<g clip-path="url(#clip1)" clip-rule="nonzero">
<path style="fill:none;stroke-width:0.4;stroke-linecap:butt;stroke-linejoin:miter;stroke:#FFFFFF;stroke-opacity:1;stroke-miterlimit:4;" d="M 0.648438 32.296875 L 19.171875 32.296875 L 19.171875 0.566406 L 0.648438 0.566406 L 0.648438 32.296875 Z M 0.648438 32.296875 " transform="matrix(1,0,0,-1,0,37)"/>
</g>
<path style=" stroke:none;fill-rule:nonzero;fill:#CC092F;fill-opacity:1;" d="M 6.203125 0.90625 L 0.648438 4.703125 L 19.171875 4.703125 L 23.78125 0.90625 L 6.203125 0.90625 "/>
<g clip-path="url(#clip2)" clip-rule="nonzero">
<path style="fill:none;stroke-width:0.4;stroke-linecap:butt;stroke-linejoin:miter;stroke:#FFFFFF;stroke-opacity:1;stroke-miterlimit:4;" d="M 6.203125 36.09375 L 0.648438 32.296875 L 19.171875 32.296875 L 23.78125 36.09375 L 6.203125 36.09375 Z M 6.203125 36.09375 " transform="matrix(1,0,0,-1,0,37)"/>
</g>
<path style=" stroke:none;fill-rule:nonzero;fill:#CC092F;fill-opacity:1;" d="M 23.78125 30.734375 L 23.78125 0.90625 L 19.171875 4.921875 L 19.171875 36.433594 L 23.78125 30.734375 "/>
<g clip-path="url(#clip3)" clip-rule="nonzero">
<path style="fill:none;stroke-width:0.4;stroke-linecap:butt;stroke-linejoin:miter;stroke:#FFFFFF;stroke-opacity:1;stroke-miterlimit:4;" d="M 23.78125 6.265625 L 23.78125 36.09375 L 19.171875 32.078125 L 19.171875 0.566406 L 23.78125 6.265625 Z M 23.78125 6.265625 " transform="matrix(1,0,0,-1,0,37)"/>
</g>
<path style=" stroke:none;fill-rule:nonzero;fill:#FFFFFF;fill-opacity:1;" d="M 10.15625 5.144531 L 1.28125 20.355469 L 19.03125 20.355469 L 10.15625 5.144531 "/>
<path style=" stroke:none;fill-rule:nonzero;fill:#FFFFFF;fill-opacity:1;" d="M 10.15625 35.570312 L 1.28125 20.355469 L 19.03125 20.355469 L 10.15625 35.570312 "/>
<path style=" stroke:none;fill-rule:nonzero;fill:#CC092F;fill-opacity:1;" d="M 9.03125 23.585938 L 11.046875 21.765625 C 9.0625 21.738281 8.054688 21.808594 6.746094 21.921875 C 6.113281 24.296875 5.578125 25.695312 4.941406 27.28125 L 7.050781 25.378906 C 8.554688 26.773438 10.410156 27.117188 11.980469 26.398438 C 12.023438 26.359375 12.070312 26.324219 12.117188 26.285156 L 14.648438 23.996094 C 13.03125 25.457031 10.746094 25.316406 9.03125 23.585938 "/>
<path style=" stroke:none;fill-rule:nonzero;fill:#CC092F;fill-opacity:1;" d="M 7.246094 20.339844 C 6.722656 18.304688 7 16.0625 8.121094 14.472656 C 8.332031 14.171875 8.566406 13.910156 8.8125 13.6875 L 6.28125 15.976562 C 6.03125 16.199219 5.800781 16.464844 5.589844 16.761719 C 4.472656 18.335938 4.199219 20.554688 4.699219 22.574219 L 7.246094 20.339844 "/>
<path style=" stroke:none;fill-rule:nonzero;fill:#CC092F;fill-opacity:1;" d="M 12.242188 13.628906 C 11.230469 13.160156 10.15625 13.078125 9.164062 13.40625 C 9.042969 13.492188 8.929688 13.585938 8.8125 13.6875 L 6.28125 15.976562 C 7.441406 14.925781 8.945312 14.707031 10.339844 15.300781 L 8.945312 16.523438 L 13.246094 16.410156 L 13.992188 12.097656 L 12.242188 13.628906 "/>
<path style=" stroke:none;fill-rule:nonzero;fill:#CC092F;fill-opacity:1;" d="M 15.476562 15.164062 C 17.066406 18.363281 16.476562 21.546875 15.339844 23.210938 C 15.128906 23.511719 14.898438 23.769531 14.648438 23.996094 L 12.117188 26.285156 C 12.363281 26.0625 12.59375 25.796875 12.808594 25.5 C 14.871094 22.460938 13.660156 19.433594 13.015625 17.4375 L 15.476562 15.164062 "/>
</g>
</svg>
