<?xml version="1.0" encoding="UTF-8"?>
<svg xmlns="http://www.w3.org/2000/svg" xmlns:xlink="http://www.w3.org/1999/xlink" width="37pt" height="17pt" viewBox="0 0 37 17" version="1.1">
<defs>
<clipPath id="clip1">
  <path d="M 0 0.570312 L 36.882812 0.570312 L 36.882812 16.570312 L 0 16.570312 L 0 0.570312 Z M 0 0.570312 "/>
</clipPath>
<clipPath id="clip2">
  <path d="M 0 0.570312 L 36.882812 0.570312 L 36.882812 16.570312 L 0 16.570312 L 0 0.570312 Z M 0 0.570312 "/>
</clipPath>
<clipPath id="clip3">
  <path d="M 0 0.570312 L 36.882812 0.570312 L 36.882812 16.570312 L 0 16.570312 L 0 0.570312 Z M 0 0.570312 "/>
</clipPath>
</defs>
<g id="surface0">
<path style=" stroke:none;fill-rule:nonzero;fill:#CC092F;fill-opacity:1;" d="M 0.605469 6.730469 L 8.300781 1.042969 L 36.40625 1.042969 L 30.8125 6.730469 L 0.605469 6.730469 "/>
<g clip-path="url(#clip1)" clip-rule="nonzero">
<path style="fill:none;stroke-width:0.4;stroke-linecap:butt;stroke-linejoin:miter;stroke:#FFFFFF;stroke-opacity:1;stroke-miterlimit:4;" d="M 0.605469 10.269531 L 8.300781 15.957031 L 36.40625 15.957031 L 30.8125 10.269531 L 0.605469 10.269531 Z M 0.605469 10.269531 " transform="matrix(1,0,0,-1,0,17)"/>
</g>
<path style=" stroke:none;fill-rule:nonzero;fill:#CC092F;fill-opacity:1;" d="M 30.8125 16.511719 L 36.40625 10.847656 L 36.40625 1.058594 L 30.8125 6.730469 L 30.8125 16.511719 "/>
<g clip-path="url(#clip2)" clip-rule="nonzero">
<path style="fill:none;stroke-width:0.4;stroke-linecap:butt;stroke-linejoin:miter;stroke:#FFFFFF;stroke-opacity:1;stroke-miterlimit:4;" d="M 30.8125 0.488281 L 36.40625 6.152344 L 36.40625 15.941406 L 30.8125 10.269531 L 30.8125 0.488281 Z M 30.8125 0.488281 " transform="matrix(1,0,0,-1,0,17)"/>
</g>
<path style=" stroke:none;fill-rule:nonzero;fill:#CC092F;fill-opacity:1;" d="M 0.648438 6.730469 L 30.8125 6.730469 L 30.8125 16.523438 L 0.648438 16.523438 L 0.648438 6.730469 Z M 0.648438 6.730469 "/>
<g clip-path="url(#clip3)" clip-rule="nonzero">
<path style="fill:none;stroke-width:0.4;stroke-linecap:butt;stroke-linejoin:miter;stroke:#FFFFFF;stroke-opacity:1;stroke-miterlimit:4;" d="M 0.648438 0.476562 L 30.8125 0.476562 L 30.8125 10.269531 L 0.648438 10.269531 L 0.648438 0.476562 Z M 0.648438 0.476562 " transform="matrix(1,0,0,-1,0,17)"/>
<path style="fill:none;stroke-width:0.45;stroke-linecap:round;stroke-linejoin:miter;stroke:#FFFFFF;stroke-opacity:1;stroke-miterlimit:1;" d="M 28.414062 5.300781 C 28.414062 5.300781 26.457031 0.269531 24.101562 5.3125 C 21.753906 10.355469 19.792969 5.324219 19.792969 5.324219 C 19.792969 5.324219 17.835938 0.289062 15.484375 5.335938 C 13.136719 10.378906 11.1875 5.304688 11.1875 5.304688 C 11.1875 5.304688 9.234375 0.269531 6.882812 5.3125 C 4.53125 10.355469 2.582031 5.328125 2.582031 5.328125 " transform="matrix(1,0,0,-1,0,17)"/>
<path style="fill:none;stroke-width:0.9;stroke-linecap:round;stroke-linejoin:miter;stroke:#FFFFFF;stroke-opacity:1;stroke-miterlimit:1;" d="M 2.582031 5.300781 C 2.582031 5.300781 4.539062 0.269531 6.890625 5.3125 C 9.242188 10.355469 11.203125 5.324219 11.203125 5.324219 C 11.203125 5.324219 13.15625 0.289062 15.507812 5.335938 C 17.859375 10.378906 19.808594 5.304688 19.808594 5.304688 C 19.808594 5.304688 21.757812 0.269531 24.113281 5.3125 C 26.460938 10.355469 28.414062 5.328125 28.414062 5.328125 " transform="matrix(1,0,0,-1,0,17)"/>
<path style="fill:none;stroke-width:0.45;stroke-linecap:round;stroke-linejoin:miter;stroke:#FFFFFF;stroke-opacity:1;stroke-miterlimit:1;" d="M 28.414062 5.300781 C 28.414062 5.300781 26.457031 0.269531 24.101562 5.3125 C 21.753906 10.355469 19.792969 5.324219 19.792969 5.324219 C 19.792969 5.324219 17.835938 0.289062 15.484375 5.335938 C 13.136719 10.378906 11.1875 5.304688 11.1875 5.304688 C 11.1875 5.304688 9.234375 0.269531 6.882812 5.3125 C 4.53125 10.355469 2.582031 5.328125 2.582031 5.328125 " transform="matrix(1,0,0,-1,0,17)"/>
<path style="fill:none;stroke-width:0.9;stroke-linecap:round;stroke-linejoin:miter;stroke:#FFFFFF;stroke-opacity:1;stroke-miterlimit:1;" d="M 2.582031 5.300781 C 2.582031 5.300781 4.539062 0.269531 6.890625 5.3125 C 9.242188 10.355469 11.203125 5.324219 11.203125 5.324219 C 11.203125 5.324219 13.15625 0.289062 15.507812 5.335938 C 17.859375 10.378906 19.808594 5.304688 19.808594 5.304688 C 19.808594 5.304688 21.757812 0.269531 24.113281 5.3125 C 26.460938 10.355469 28.414062 5.328125 28.414062 5.328125 " transform="matrix(1,0,0,-1,0,17)"/>
<path style="fill:none;stroke-width:0.45;stroke-linecap:round;stroke-linejoin:miter;stroke:#FFFFFF;stroke-opacity:1;stroke-miterlimit:1;" d="M 28.414062 5.300781 C 28.414062 5.300781 26.457031 0.269531 24.101562 5.3125 C 21.753906 10.355469 19.792969 5.324219 19.792969 5.324219 C 19.792969 5.324219 17.835938 0.289062 15.484375 5.335938 C 13.136719 10.378906 11.1875 5.304688 11.1875 5.304688 C 11.1875 5.304688 9.234375 0.269531 6.882812 5.3125 C 4.53125 10.355469 2.582031 5.328125 2.582031 5.328125 " transform="matrix(1,0,0,-1,0,17)"/>
<path style="fill:none;stroke-width:0.9;stroke-linecap:round;stroke-linejoin:miter;stroke:#FFFFFF;stroke-opacity:1;stroke-miterlimit:1;" d="M 2.582031 5.300781 C 2.582031 5.300781 4.539062 0.269531 6.890625 5.3125 C 9.242188 10.355469 11.203125 5.324219 11.203125 5.324219 C 11.203125 5.324219 13.15625 0.289062 15.507812 5.335938 C 17.859375 10.378906 19.808594 5.304688 19.808594 5.304688 C 19.808594 5.304688 21.757812 0.269531 24.113281 5.3125 C 26.460938 10.355469 28.414062 5.328125 28.414062 5.328125 " transform="matrix(1,0,0,-1,0,17)"/>
</g>
</g>
</svg>
