<?xml version="1.0" encoding="UTF-8"?>
<svg xmlns="http://www.w3.org/2000/svg" xmlns:xlink="http://www.w3.org/1999/xlink" width="50pt" height="29pt" viewBox="0 0 50 29" version="1.1">
<g id="surface0">
<path style="fill-rule:nonzero;fill:#CC092F;fill-opacity:1;stroke-width:0.4;stroke-linecap:butt;stroke-linejoin:miter;stroke:#FFFFFF;stroke-opacity:1;stroke-miterlimit:4;" d="M 1.332031 16.320312 L 15.761719 27.988281 L 49.070312 27.988281 L 37.128906 16.320312 L 1.332031 16.320312 Z M 1.332031 16.320312 " transform="matrix(1,0,0,-1,0,29)"/>
<path style="fill-rule:nonzero;fill:#CC092F;fill-opacity:1;stroke-width:0.4;stroke-linecap:butt;stroke-linejoin:miter;stroke:#FFFFFF;stroke-opacity:1;stroke-miterlimit:4;" d="M 37.128906 1.429688 L 49.070312 13.597656 L 49.070312 27.96875 L 37.128906 16.320312 L 37.128906 1.429688 Z M 37.128906 1.429688 " transform="matrix(1,0,0,-1,0,29)"/>
<path style="fill-rule:nonzero;fill:#CC092F;fill-opacity:1;stroke-width:0.4;stroke-linecap:butt;stroke-linejoin:miter;stroke:#FFFFFF;stroke-opacity:1;stroke-miterlimit:4;" d="M 1.382812 1.417969 L 37.128906 1.417969 L 37.128906 16.320312 L 1.382812 16.320312 L 1.382812 1.417969 Z M 1.382812 1.417969 " transform="matrix(1,0,0,-1,0,29)"/>
<path style="fill:none;stroke-width:0.45;stroke-linecap:round;stroke-linejoin:miter;stroke:#FFFFFF;stroke-opacity:1;stroke-miterlimit:1;" d="M 35.113281 8.449219 C 35.113281 8.449219 32.734375 2.335938 29.875 8.46875 C 27.019531 14.597656 24.636719 8.480469 24.636719 8.480469 C 24.636719 8.480469 22.257812 2.363281 19.398438 8.492188 C 16.546875 14.625 14.175781 8.453125 14.175781 8.453125 C 14.175781 8.453125 11.804688 2.335938 8.941406 8.46875 C 6.085938 14.597656 3.714844 8.484375 3.714844 8.484375 " transform="matrix(1,0,0,-1,0,29)"/>
<path style="fill:none;stroke-width:0.9;stroke-linecap:round;stroke-linejoin:miter;stroke:#FFFFFF;stroke-opacity:1;stroke-miterlimit:1;" d="M 3.714844 8.449219 C 3.714844 8.449219 6.09375 2.335938 8.953125 8.46875 C 11.8125 14.597656 14.191406 8.480469 14.191406 8.480469 C 14.191406 8.480469 16.570312 2.363281 19.429688 8.492188 C 22.285156 14.625 24.652344 8.453125 24.652344 8.453125 C 24.652344 8.453125 27.023438 2.335938 29.886719 8.46875 C 32.742188 14.597656 35.113281 8.484375 35.113281 8.484375 " transform="matrix(1,0,0,-1,0,29)"/>
<path style="fill:none;stroke-width:0.45;stroke-linecap:round;stroke-linejoin:miter;stroke:#FFFFFF;stroke-opacity:1;stroke-miterlimit:1;" d="M 35.113281 8.449219 C 35.113281 8.449219 32.734375 2.335938 29.875 8.46875 C 27.019531 14.597656 24.636719 8.480469 24.636719 8.480469 C 24.636719 8.480469 22.257812 2.363281 19.398438 8.492188 C 16.546875 14.625 14.175781 8.453125 14.175781 8.453125 C 14.175781 8.453125 11.804688 2.335938 8.941406 8.46875 C 6.085938 14.597656 3.714844 8.484375 3.714844 8.484375 " transform="matrix(1,0,0,-1,0,29)"/>
<path style="fill:none;stroke-width:0.9;stroke-linecap:round;stroke-linejoin:miter;stroke:#FFFFFF;stroke-opacity:1;stroke-miterlimit:1;" d="M 3.714844 8.449219 C 3.714844 8.449219 6.09375 2.335938 8.953125 8.46875 C 11.8125 14.597656 14.191406 8.480469 14.191406 8.480469 C 14.191406 8.480469 16.570312 2.363281 19.429688 8.492188 C 22.285156 14.625 24.652344 8.453125 24.652344 8.453125 C 24.652344 8.453125 27.023438 2.335938 29.886719 8.46875 C 32.742188 14.597656 35.113281 8.484375 35.113281 8.484375 " transform="matrix(1,0,0,-1,0,29)"/>
<path style="fill:none;stroke-width:0.45;stroke-linecap:round;stroke-linejoin:miter;stroke:#FFFFFF;stroke-opacity:1;stroke-miterlimit:1;" d="M 35.113281 8.449219 C 35.113281 8.449219 32.734375 2.335938 29.875 8.46875 C 27.019531 14.597656 24.636719 8.480469 24.636719 8.480469 C 24.636719 8.480469 22.257812 2.363281 19.398438 8.492188 C 16.546875 14.625 14.175781 8.453125 14.175781 8.453125 C 14.175781 8.453125 11.804688 2.335938 8.941406 8.46875 C 6.085938 14.597656 3.714844 8.484375 3.714844 8.484375 " transform="matrix(1,0,0,-1,0,29)"/>
<path style="fill:none;stroke-width:0.9;stroke-linecap:round;stroke-linejoin:miter;stroke:#FFFFFF;stroke-opacity:1;stroke-miterlimit:1;" d="M 3.714844 8.449219 C 3.714844 8.449219 6.09375 2.335938 8.953125 8.46875 C 11.8125 14.597656 14.191406 8.480469 14.191406 8.480469 C 14.191406 8.480469 16.570312 2.363281 19.429688 8.492188 C 22.285156 14.625 24.652344 8.453125 24.652344 8.453125 C 24.652344 8.453125 27.023438 2.335938 29.886719 8.46875 C 32.742188 14.597656 35.113281 8.484375 35.113281 8.484375 " transform="matrix(1,0,0,-1,0,29)"/>
<path style="fill:none;stroke-width:0.251;stroke-linecap:round;stroke-linejoin:miter;stroke:#FFFFFF;stroke-opacity:1;stroke-miterlimit:1;" d="M 48.136719 19.640625 C 48.136719 19.640625 47.101562 12.53125 46.480469 17.910156 C 45.859375 23.285156 44.824219 16.167969 44.824219 16.167969 C 44.824219 16.167969 43.792969 9.058594 43.171875 14.433594 C 42.550781 19.808594 41.515625 12.648438 41.515625 12.648438 C 41.515625 12.648438 40.484375 5.53125 39.863281 10.914062 C 39.242188 16.285156 38.214844 9.183594 38.214844 9.183594 " transform="matrix(1,0,0,-1,0,29)"/>
<path style="fill:none;stroke-width:0.502;stroke-linecap:round;stroke-linejoin:miter;stroke:#FFFFFF;stroke-opacity:1;stroke-miterlimit:1;" d="M 38.210938 9.144531 C 38.210938 9.144531 38.683594 3.625 39.867188 10.917969 C 41.050781 18.199219 41.523438 12.679688 41.523438 12.679688 C 41.523438 12.679688 41.996094 7.15625 43.179688 14.441406 C 44.363281 21.730469 44.828125 16.148438 44.828125 16.148438 C 44.828125 16.148438 45.300781 10.621094 46.484375 17.914062 C 47.667969 25.199219 48.140625 19.679688 48.140625 19.679688 " transform="matrix(1,0,0,-1,0,29)"/>
<path style=" stroke:none;fill-rule:nonzero;fill:#FFFFFF;fill-opacity:1;" d="M 27.359375 3.386719 L 26.007812 3.300781 L 30.421875 2.164062 L 32.351562 3.671875 L 30.925781 3.597656 L 30.644531 3.585938 L 28.265625 5.28125 L 25.03125 5.300781 L 27.570312 3.402344 L 27.359375 3.386719 "/>
<path style=" stroke:none;fill-rule:nonzero;fill:#FFFFFF;fill-opacity:1;" d="M 23.929688 10.101562 L 25.28125 10.191406 L 20.867188 11.324219 L 18.9375 9.816406 L 20.363281 9.894531 L 20.644531 9.90625 L 23.023438 8.210938 L 26.257812 8.191406 L 23.71875 10.085938 L 23.929688 10.101562 "/>
<path style=" stroke:none;fill-rule:nonzero;fill:#FFFFFF;fill-opacity:1;" d="M 17.34375 6.859375 L 12.113281 6.863281 L 13.660156 5.527344 L 18.890625 5.527344 L 19.605469 4.722656 L 22.042969 6.445312 L 15.964844 8.167969 L 17.34375 6.859375 "/>
<path style=" stroke:none;fill-rule:nonzero;fill:#FFFFFF;fill-opacity:1;" d="M 33.796875 6.207031 L 39.027344 6.203125 L 37.476562 7.539062 L 32.246094 7.542969 L 31.53125 8.347656 L 29.097656 6.625 L 35.175781 4.902344 L 33.796875 6.207031 "/>
</g>
</svg>
