<?xml version="1.0" encoding="UTF-8"?>
<svg xmlns="http://www.w3.org/2000/svg" xmlns:xlink="http://www.w3.org/1999/xlink" width="40pt" height="47pt" viewBox="0 0 40 47" version="1.1">
<g id="surface0">
<path style="fill-rule:nonzero;fill:#CC092F;fill-opacity:1;stroke-width:0.4;stroke-linecap:butt;stroke-linejoin:miter;stroke:#FFFFFF;stroke-opacity:1;stroke-miterlimit:4;" d="M 1.175781 28.113281 L 8.867188 33.800781 L 39.308594 36.132812 L 31.382812 28.113281 L 1.175781 28.113281 Z M 1.175781 28.113281 " transform="matrix(1,0,0,-1,0,47)"/>
<path style="fill-rule:nonzero;fill:#CC092F;fill-opacity:1;stroke-width:0.4;stroke-linecap:butt;stroke-linejoin:miter;stroke:#FFFFFF;stroke-opacity:1;stroke-miterlimit:4;" d="M 31.382812 0.996094 L 39.308594 8.996094 L 39.308594 36.117188 L 31.382812 28.113281 L 31.382812 0.996094 Z M 31.382812 0.996094 " transform="matrix(1,0,0,-1,0,47)"/>
<path style="fill-rule:nonzero;fill:#CC092F;fill-opacity:1;stroke-width:0.4;stroke-linecap:butt;stroke-linejoin:miter;stroke:#FFFFFF;stroke-opacity:1;stroke-miterlimit:4;" d="M 1.21875 0.984375 L 31.382812 0.984375 L 31.382812 28.113281 L 1.21875 28.113281 L 1.21875 0.984375 Z M 1.21875 0.984375 " transform="matrix(1,0,0,-1,0,47)"/>
<path style="fill-rule:nonzero;fill:#CC092F;fill-opacity:1;stroke-width:0.4;stroke-linecap:butt;stroke-linejoin:miter;stroke:#FFFFFF;stroke-opacity:1;stroke-miterlimit:4;" d="M 1.175781 37.878906 L 11.203125 45.898438 L 39.308594 45.898438 L 31.382812 37.878906 L 1.175781 37.878906 Z M 1.175781 37.878906 " transform="matrix(1,0,0,-1,0,47)"/>
<path style="fill-rule:nonzero;fill:#CC092F;fill-opacity:1;stroke-width:0.4;stroke-linecap:butt;stroke-linejoin:miter;stroke:#FFFFFF;stroke-opacity:1;stroke-miterlimit:4;" d="M 31.382812 28.09375 L 39.308594 36.097656 L 39.308594 45.882812 L 31.382812 37.878906 L 31.382812 28.09375 Z M 31.382812 28.09375 " transform="matrix(1,0,0,-1,0,47)"/>
<path style="fill-rule:nonzero;fill:#CC092F;fill-opacity:1;stroke-width:0.4;stroke-linecap:butt;stroke-linejoin:miter;stroke:#FFFFFF;stroke-opacity:1;stroke-miterlimit:4;" d="M 1.21875 28.085938 L 31.382812 28.085938 L 31.382812 37.878906 L 1.21875 37.878906 L 1.21875 28.085938 Z M 1.21875 28.085938 " transform="matrix(1,0,0,-1,0,47)"/>
<path style="fill:none;stroke-width:0.45;stroke-linecap:round;stroke-linejoin:miter;stroke:#FFFFFF;stroke-opacity:1;stroke-miterlimit:1;" d="M 28.980469 32.90625 C 28.980469 32.90625 27.023438 27.875 24.671875 32.921875 C 22.320312 37.964844 20.359375 32.933594 20.359375 32.933594 C 20.359375 32.933594 18.40625 27.898438 16.054688 32.941406 C 13.703125 37.984375 11.753906 32.910156 11.753906 32.910156 C 11.753906 32.910156 9.804688 27.875 7.449219 32.921875 C 5.101562 37.964844 3.148438 32.9375 3.148438 32.9375 " transform="matrix(1,0,0,-1,0,47)"/>
<path style="fill:none;stroke-width:0.9;stroke-linecap:round;stroke-linejoin:miter;stroke:#FFFFFF;stroke-opacity:1;stroke-miterlimit:1;" d="M 3.148438 32.90625 C 3.148438 32.90625 5.105469 27.875 7.460938 32.921875 C 9.808594 37.964844 11.769531 32.933594 11.769531 32.933594 C 11.769531 32.933594 13.726562 27.898438 16.074219 32.941406 C 18.425781 37.984375 20.375 32.910156 20.375 32.910156 C 20.375 32.910156 22.328125 27.875 24.679688 32.921875 C 27.03125 37.964844 28.980469 32.9375 28.980469 32.9375 " transform="matrix(1,0,0,-1,0,47)"/>
<path style="fill:none;stroke-width:0.45;stroke-linecap:round;stroke-linejoin:miter;stroke:#FFFFFF;stroke-opacity:1;stroke-miterlimit:1;" d="M 28.980469 32.90625 C 28.980469 32.90625 27.023438 27.875 24.671875 32.921875 C 22.320312 37.964844 20.359375 32.933594 20.359375 32.933594 C 20.359375 32.933594 18.40625 27.898438 16.054688 32.941406 C 13.703125 37.984375 11.753906 32.910156 11.753906 32.910156 C 11.753906 32.910156 9.804688 27.875 7.449219 32.921875 C 5.101562 37.964844 3.148438 32.9375 3.148438 32.9375 " transform="matrix(1,0,0,-1,0,47)"/>
<path style="fill:none;stroke-width:0.9;stroke-linecap:round;stroke-linejoin:miter;stroke:#FFFFFF;stroke-opacity:1;stroke-miterlimit:1;" d="M 3.148438 32.90625 C 3.148438 32.90625 5.105469 27.875 7.460938 32.921875 C 9.808594 37.964844 11.769531 32.933594 11.769531 32.933594 C 11.769531 32.933594 13.726562 27.898438 16.074219 32.941406 C 18.425781 37.984375 20.375 32.910156 20.375 32.910156 C 20.375 32.910156 22.328125 27.875 24.679688 32.921875 C 27.03125 37.964844 28.980469 32.9375 28.980469 32.9375 " transform="matrix(1,0,0,-1,0,47)"/>
<path style="fill:none;stroke-width:0.45;stroke-linecap:round;stroke-linejoin:miter;stroke:#FFFFFF;stroke-opacity:1;stroke-miterlimit:1;" d="M 28.980469 32.90625 C 28.980469 32.90625 27.023438 27.875 24.671875 32.921875 C 22.320312 37.964844 20.359375 32.933594 20.359375 32.933594 C 20.359375 32.933594 18.40625 27.898438 16.054688 32.941406 C 13.703125 37.984375 11.753906 32.910156 11.753906 32.910156 C 11.753906 32.910156 9.804688 27.875 7.449219 32.921875 C 5.101562 37.964844 3.148438 32.9375 3.148438 32.9375 " transform="matrix(1,0,0,-1,0,47)"/>
<path style="fill:none;stroke-width:0.9;stroke-linecap:round;stroke-linejoin:miter;stroke:#FFFFFF;stroke-opacity:1;stroke-miterlimit:1;" d="M 3.148438 32.90625 C 3.148438 32.90625 5.105469 27.875 7.460938 32.921875 C 9.808594 37.964844 11.769531 32.933594 11.769531 32.933594 C 11.769531 32.933594 13.726562 27.898438 16.074219 32.941406 C 18.425781 37.984375 20.375 32.910156 20.375 32.910156 C 20.375 32.910156 22.328125 27.875 24.679688 32.921875 C 27.03125 37.964844 28.980469 32.9375 28.980469 32.9375 " transform="matrix(1,0,0,-1,0,47)"/>
<path style=" stroke:none;fill-rule:nonzero;fill:#FFFFFF;fill-opacity:1;" d="M 17.15625 28.5625 L 17.15625 22.789062 L 18.140625 22.789062 L 16.691406 20.609375 L 15.246094 22.789062 L 16.226562 22.789062 L 16.226562 28.5625 L 17.15625 28.5625 "/>
<path style=" stroke:none;fill-rule:nonzero;fill:#FFFFFF;fill-opacity:1;" d="M 14.214844 29.394531 L 10.132812 25.3125 L 10.824219 24.621094 L 8.261719 24.101562 L 8.78125 26.664062 L 9.472656 25.972656 L 13.554688 30.054688 L 14.214844 29.394531 "/>
<path style=" stroke:none;fill-rule:nonzero;fill:#FFFFFF;fill-opacity:1;" d="M 12.722656 32.066406 L 6.945312 32.066406 L 6.945312 31.089844 L 4.769531 32.535156 L 6.945312 33.980469 L 6.945312 33 L 12.722656 33 L 12.722656 32.066406 "/>
<path style=" stroke:none;fill-rule:nonzero;fill:#FFFFFF;fill-opacity:1;" d="M 13.554688 35.011719 L 9.472656 39.09375 L 8.78125 38.402344 L 8.261719 40.964844 L 10.824219 40.445312 L 10.132812 39.753906 L 14.214844 35.671875 L 13.554688 35.011719 "/>
<path style=" stroke:none;fill-rule:nonzero;fill:#FFFFFF;fill-opacity:1;" d="M 16.226562 36.507812 L 16.226562 42.277344 L 15.246094 42.277344 L 16.691406 44.457031 L 18.140625 42.277344 L 17.15625 42.277344 L 17.15625 36.507812 L 16.226562 36.507812 "/>
<path style=" stroke:none;fill-rule:nonzero;fill:#FFFFFF;fill-opacity:1;" d="M 19.171875 35.671875 L 23.253906 39.753906 L 22.5625 40.445312 L 25.125 40.964844 L 24.605469 38.402344 L 23.914062 39.09375 L 19.828125 35.011719 L 19.171875 35.671875 "/>
<path style=" stroke:none;fill-rule:nonzero;fill:#FFFFFF;fill-opacity:1;" d="M 20.664062 33 L 26.4375 33 L 26.4375 33.980469 L 28.617188 32.535156 L 26.4375 31.089844 L 26.4375 32.066406 L 20.664062 32.066406 L 20.664062 33 "/>
<path style=" stroke:none;fill-rule:nonzero;fill:#FFFFFF;fill-opacity:1;" d="M 19.828125 30.054688 L 23.914062 25.972656 L 24.605469 26.664062 L 25.125 24.101562 L 22.5625 24.621094 L 23.253906 25.3125 L 19.171875 29.394531 L 19.828125 30.054688 "/>
<path style=" stroke:none;fill-rule:nonzero;fill:#FFFFFF;fill-opacity:1;" d="M 20.234375 37.421875 C 22.960938 35.511719 23.621094 31.757812 21.714844 29.035156 C 19.808594 26.308594 16.054688 25.648438 13.328125 27.558594 C 10.605469 29.464844 9.941406 33.21875 11.851562 35.941406 C 13.757812 38.664062 17.511719 39.328125 20.234375 37.421875 "/>
<path style=" stroke:none;fill-rule:nonzero;fill:#FFFFFF;fill-opacity:1;" d="M 12.308594 5.816406 L 15.5 5.554688 L 14.898438 6.457031 L 14.054688 6.296875 L 10.566406 7.625 L 9.726562 7.414062 L 13.09375 6.136719 L 12.308594 5.816406 "/>
<path style=" stroke:none;fill-rule:nonzero;fill:#FFFFFF;fill-opacity:1;" d="M 25.902344 5.871094 L 23.136719 5.445312 L 23.4375 6.457031 L 24.160156 6.351562 L 26.683594 7.46875 L 27.527344 7.253906 L 25.0625 6.191406 L 25.902344 5.871094 "/>
<path style=" stroke:none;fill-rule:nonzero;fill:#FFFFFF;fill-opacity:1;" d="M 21.09375 3 L 19.710938 2.894531 L 24.21875 1.882812 L 26.144531 3.265625 L 24.699219 3.160156 L 24.398438 3.160156 L 21.992188 4.699219 L 18.6875 4.699219 L 21.273438 3 L 21.09375 3 "/>
<path style=" stroke:none;fill-rule:nonzero;fill:#FFFFFF;fill-opacity:1;" d="M 18.265625 6.667969 L 17.304688 6.667969 L 19.828125 5.285156 L 20.011719 6.667969 L 18.988281 6.667969 L 19.105469 6.667969 L 17.84375 7.890625 L 16.941406 7.890625 L 18.203125 6.667969 L 18.265625 6.667969 "/>
</g>
</svg>
