<?xml version="1.0" encoding="UTF-8"?>
<svg xmlns="http://www.w3.org/2000/svg" xmlns:xlink="http://www.w3.org/1999/xlink" width="36pt" height="48pt" viewBox="0 0 36 48" version="1.1">
<defs>
<clipPath id="clip1">
  <path d="M 0 0.0390625 L 35.242188 0.0390625 L 35.242188 47.941406 L 0 47.941406 L 0 0.0390625 Z M 0 0.0390625 "/>
</clipPath>
</defs>
<g id="surface0">
<g clip-path="url(#clip1)" clip-rule="nonzero">
<path style=" stroke:none;fill-rule:evenodd;fill:#202020;fill-opacity:1;" d="M 35.242188 9.164062 L 35.1875 8.257812 L 35.082031 7.347656 L 34.816406 6.441406 L 34.550781 5.640625 L 34.128906 4.84375 L 33.703125 4.09375 L 33.175781 3.347656 L 32.59375 2.707031 L 31.960938 2.121094 L 31.21875 1.585938 L 30.476562 1.160156 L 29.683594 0.734375 L 28.890625 0.46875 L 27.992188 0.199219 L 27.089844 0.09375 L 26.191406 0.0390625 L 25.238281 0.09375 L 24.339844 0.199219 L 23.492188 0.46875 L 22.648438 0.734375 L 21.851562 1.160156 L 21.113281 1.585938 L 20.421875 2.121094 L 19.789062 2.707031 L 19.207031 3.347656 L 18.679688 4.09375 L 18.253906 4.84375 L 17.832031 5.640625 L 17.566406 6.441406 L 17.300781 7.347656 L 17.195312 8.257812 L 17.144531 9.164062 L 17.195312 10.015625 L 17.25 10.816406 L 17.40625 11.5625 L 17.671875 12.3125 L 17.089844 12.042969 L 16.667969 11.828125 L 16.351562 11.722656 L 16.242188 11.671875 L 16.03125 11.5625 L 15.765625 11.5625 L 15.554688 11.671875 L 15.398438 11.828125 L 11.269531 16.257812 L 11.164062 16.417969 L 11.109375 16.578125 L 11.058594 16.789062 L 11.109375 17.007812 L 11.21875 17.324219 L 11.535156 18.125 L 11.851562 19.03125 L 12.117188 19.777344 L 11.90625 20.046875 L 11.480469 20.472656 L 11.429688 20.523438 L 11.324219 20.632812 L 11.269531 20.792969 L 11.21875 20.898438 L 11.21875 21.273438 L 11.269531 21.804688 L 11.269531 22.871094 L 11.058594 23.085938 L 10.6875 23.515625 L 10.105469 24.152344 L 9.363281 24.898438 L 8.519531 25.808594 L 7.566406 26.820312 L 6.613281 27.890625 L 5.554688 29.007812 L 4.550781 30.074219 L 3.597656 31.140625 L 2.644531 32.15625 L 1.851562 33.007812 L 1.164062 33.757812 L 0.632812 34.34375 L 0.265625 34.714844 L 0.15625 34.824219 L 0.0507812 34.984375 L 0 35.195312 L 0 35.410156 L 0.0507812 35.570312 L 1.214844 38.769531 L 1.320312 38.984375 L 1.480469 39.144531 L 1.691406 39.195312 L 1.90625 39.25 L 6.136719 39.144531 L 6.296875 39.089844 L 6.453125 39.039062 L 6.5625 38.984375 L 6.664062 38.878906 L 7.671875 37.757812 L 7.777344 37.648438 L 7.828125 37.542969 L 7.882812 37.382812 L 7.882812 36.316406 L 7.828125 35.835938 L 8.304688 35.835938 L 8.78125 35.78125 L 9.363281 35.78125 L 9.523438 35.730469 L 9.628906 35.675781 L 9.734375 35.570312 L 10.792969 34.449219 L 10.953125 34.234375 L 11.003906 33.914062 L 10.898438 33.648438 L 10.742188 33.4375 L 10.582031 33.222656 L 10.476562 32.957031 L 10.476562 32.636719 L 10.6875 32.316406 L 10.898438 32.15625 L 11.164062 32.046875 L 11.480469 32.046875 L 11.796875 32.261719 L 12.0625 32.421875 L 12.328125 32.476562 L 12.59375 32.421875 L 12.859375 32.261719 L 13.863281 31.140625 L 13.96875 31.035156 L 14.023438 30.875 L 14.074219 30.769531 L 14.074219 30.128906 L 14.023438 29.703125 L 14.023438 29.222656 L 14.496094 29.167969 L 15.554688 29.167969 L 15.660156 29.113281 L 15.820312 29.007812 L 15.925781 28.953125 L 16.03125 28.847656 L 16.242188 28.582031 L 16.507812 28.3125 L 16.71875 28.046875 L 17.355469 28.046875 L 17.617188 27.992188 L 17.882812 28.261719 L 18.203125 28.636719 L 18.519531 28.953125 L 18.730469 29.222656 L 18.625 32.046875 L 18.464844 37.648438 L 18.253906 43.144531 L 18.148438 45.601562 L 18.203125 45.8125 L 18.253906 45.972656 L 18.359375 46.132812 L 18.519531 46.292969 L 21.484375 47.894531 L 21.695312 48 L 21.90625 48 L 22.171875 47.894531 L 22.328125 47.789062 L 25.453125 44.851562 L 25.554688 44.746094 L 25.609375 44.640625 L 25.664062 44.480469 L 25.664062 44.371094 L 25.714844 42.824219 L 25.714844 42.558594 L 25.609375 42.398438 L 25.554688 42.292969 L 25.453125 42.183594 L 25.238281 41.972656 L 24.921875 41.652344 L 24.605469 41.277344 L 24.976562 40.957031 L 25.292969 40.636719 L 25.503906 40.425781 L 25.609375 40.316406 L 25.714844 40.210938 L 25.769531 40.105469 L 25.820312 39.945312 L 25.875 39.785156 L 25.925781 38.289062 L 25.875 37.96875 L 25.714844 37.757812 L 25.503906 37.597656 L 25.1875 37.542969 L 24.921875 37.492188 L 24.710938 37.328125 L 24.5 37.117188 L 24.445312 36.742188 L 24.5 36.476562 L 24.65625 36.210938 L 24.867188 36.050781 L 25.238281 35.996094 L 25.554688 35.945312 L 25.769531 35.78125 L 25.925781 35.570312 L 26.03125 35.25 L 26.085938 33.757812 L 26.085938 33.59375 L 26.03125 33.488281 L 25.925781 33.328125 L 25.875 33.222656 L 25.769531 33.117188 L 25.554688 32.847656 L 25.238281 32.527344 L 24.921875 32.210938 L 25.292969 31.890625 L 25.609375 31.570312 L 25.820312 31.355469 L 25.925781 31.25 L 26.03125 31.140625 L 26.140625 30.980469 L 26.191406 30.875 L 26.191406 29.488281 L 26.5625 29.167969 L 27.039062 28.796875 L 27.410156 28.421875 L 27.566406 28.261719 L 27.621094 28.15625 L 27.726562 27.992188 L 27.78125 27.890625 L 27.78125 27.726562 L 27.832031 26.34375 L 28.359375 25.808594 L 28.785156 25.222656 L 29.207031 24.632812 L 29.578125 23.992188 L 29.84375 23.300781 L 30.054688 22.554688 L 30.210938 21.804688 L 30.265625 21.007812 L 30.265625 20.101562 L 30.109375 19.246094 L 29.894531 18.390625 L 29.632812 17.59375 L 30.847656 17.007812 L 31.90625 16.203125 L 32.859375 15.296875 L 33.703125 14.230469 L 34.339844 13.109375 L 34.816406 11.882812 L 35.132812 10.550781 L 35.242188 9.164062 Z M 2.117188 36.957031 L 2.59375 36.476562 L 3.171875 35.835938 L 4.65625 34.234375 L 5.5 33.328125 L 6.453125 32.316406 L 7.355469 31.300781 L 8.304688 30.289062 L 9.257812 29.328125 L 10.105469 28.367188 L 10.953125 27.460938 L 11.695312 26.660156 L 12.328125 26.019531 L 12.804688 25.484375 L 13.175781 25.113281 L 13.332031 24.898438 L 13.4375 25.007812 L 13.546875 25.058594 L 13.597656 25.167969 L 13.703125 25.273438 L 13.546875 25.433594 L 13.175781 25.808594 L 12.699219 26.34375 L 12.117188 26.980469 L 11.375 27.78125 L 10.582031 28.636719 L 9.683594 29.539062 L 8.78125 30.554688 L 7.828125 31.570312 L 6.929688 32.582031 L 5.976562 33.59375 L 5.078125 34.554688 L 4.285156 35.460938 L 3.492188 36.261719 L 2.855469 36.957031 L 2.328125 37.542969 L 2.273438 37.4375 L 2.222656 37.277344 L 2.167969 37.117188 L 2.117188 36.957031 Z M 15.078125 27.675781 L 14.867188 27.675781 L 14.601562 27.726562 L 13.226562 27.726562 L 13.070312 27.78125 L 12.960938 27.835938 L 12.804688 27.890625 L 12.699219 27.992188 L 12.644531 28.101562 L 12.59375 28.210938 L 12.539062 28.367188 L 12.539062 28.742188 L 12.59375 29.273438 L 12.59375 30.339844 L 12.488281 30.449219 L 12.382812 30.554688 L 12.328125 30.609375 L 12.167969 30.769531 L 11.796875 30.609375 L 11.429688 30.554688 L 11.058594 30.609375 L 10.742188 30.660156 L 10.421875 30.769531 L 10.105469 30.929688 L 9.839844 31.085938 L 9.628906 31.300781 L 9.152344 31.996094 L 8.992188 32.6875 L 9.046875 33.328125 L 9.3125 33.914062 L 9.152344 34.078125 L 9.046875 34.128906 L 8.992188 34.234375 L 8.890625 34.34375 L 7.828125 34.34375 L 7.566406 34.394531 L 6.929688 34.394531 L 6.773438 34.449219 L 6.664062 34.554688 L 6.5625 34.609375 L 6.453125 34.714844 L 6.402344 34.875 L 6.347656 34.984375 L 6.347656 35.355469 L 6.402344 35.890625 L 6.402344 37.007812 L 6.242188 37.171875 L 6.136719 37.328125 L 5.976562 37.492188 L 5.820312 37.648438 L 5.078125 37.648438 L 4.707031 37.703125 L 3.914062 37.703125 L 3.492188 37.757812 L 3.121094 37.757812 L 14.234375 25.753906 L 15.609375 27.089844 L 15.449219 27.246094 L 15.34375 27.40625 L 15.1875 27.566406 L 15.078125 27.675781 Z M 18.835938 25.859375 L 18.679688 26.019531 L 18.519531 26.179688 L 18.359375 26.34375 L 18.203125 26.5 L 17.832031 26.5 L 17.617188 26.554688 L 16.296875 26.554688 L 16.242188 26.605469 L 16.191406 26.605469 L 14.761719 25.222656 L 14.445312 24.953125 L 13.28125 23.835938 L 1.796875 36.210938 L 1.746094 35.996094 L 1.691406 35.835938 L 1.640625 35.675781 L 1.585938 35.515625 L 1.796875 35.304688 L 2.222656 34.824219 L 2.804688 34.183594 L 3.542969 33.382812 L 4.390625 32.476562 L 5.289062 31.460938 L 6.296875 30.449219 L 7.300781 29.328125 L 8.253906 28.261719 L 9.207031 27.246094 L 10.105469 26.289062 L 10.898438 25.433594 L 11.585938 24.6875 L 12.117188 24.152344 L 12.433594 23.78125 L 12.539062 23.671875 L 12.644531 23.566406 L 12.699219 23.40625 L 12.75 23.300781 L 12.75 22.390625 L 12.699219 21.804688 L 12.699219 21.324219 L 12.960938 21.058594 L 13.226562 20.738281 L 13.4375 20.523438 L 13.546875 20.421875 L 13.652344 20.257812 L 13.703125 20.046875 L 13.703125 19.886719 L 13.652344 19.671875 L 13.546875 19.351562 L 13.226562 18.5 L 12.910156 17.59375 L 12.644531 16.898438 L 12.910156 16.632812 L 13.332031 16.203125 L 13.808594 15.671875 L 14.339844 15.085938 L 14.867188 14.496094 L 15.398438 13.964844 L 15.820312 13.535156 L 16.085938 13.21875 L 16.296875 13.324219 L 16.5625 13.429688 L 16.878906 13.589844 L 17.195312 13.75 L 17.566406 13.910156 L 17.9375 14.070312 L 18.308594 14.28125 L 18.679688 14.445312 L 18.78125 14.445312 L 18.996094 14.765625 L 19.257812 15.085938 L 19.523438 15.351562 L 19.789062 15.671875 L 20.105469 15.9375 L 20.371094 16.203125 L 20.6875 16.472656 L 21.007812 16.683594 L 21.058594 16.898438 L 21.164062 17.109375 L 21.269531 17.324219 L 21.429688 17.484375 L 21.695312 17.644531 L 21.957031 17.804688 L 22.222656 17.859375 L 22.804688 17.859375 L 23.070312 17.753906 L 23.335938 17.59375 L 23.546875 17.378906 L 23.863281 16.898438 L 23.96875 16.3125 L 23.8125 15.777344 L 23.492188 15.296875 L 23.226562 15.085938 L 22.964844 14.925781 L 22.648438 14.871094 L 22.328125 14.871094 L 22.117188 14.765625 L 21.957031 14.605469 L 21.746094 14.445312 L 21.535156 14.28125 L 21.800781 14.179688 L 22.0625 14.070312 L 22.328125 14.015625 L 22.648438 14.015625 L 22.964844 14.070312 L 23.28125 14.230469 L 23.597656 14.445312 L 23.96875 14.710938 L 24.023438 14.765625 L 24.074219 14.816406 L 24.445312 15.242188 L 24.710938 15.992188 L 24.710938 16.898438 L 24.074219 17.964844 L 23.96875 18.125 L 23.914062 18.390625 L 23.914062 18.605469 L 23.96875 18.816406 L 24.023438 18.925781 L 24.234375 19.300781 L 24.5 19.777344 L 24.816406 20.421875 L 25.1875 21.058594 L 25.503906 21.644531 L 25.769531 22.179688 L 25.980469 22.554688 L 25.714844 22.871094 L 25.292969 23.300781 L 24.761719 23.835938 L 24.234375 24.421875 L 23.703125 25.007812 L 23.226562 25.539062 L 22.804688 26.019531 L 22.539062 26.289062 L 22.222656 26.179688 L 21.851562 26.074219 L 21.375 25.914062 L 20.953125 25.753906 L 20.476562 25.648438 L 20.105469 25.539062 L 19.894531 25.484375 L 19.789062 25.433594 L 19.578125 25.382812 L 19.367188 25.433594 L 19.207031 25.484375 L 19.046875 25.648438 L 18.996094 25.699219 L 18.890625 25.753906 L 18.835938 25.859375 Z M 20.53125 13.164062 L 20.054688 12.257812 L 19.628906 11.242188 L 19.417969 10.230469 L 19.3125 9.164062 L 19.472656 7.773438 L 19.84375 6.496094 L 20.476562 5.320312 L 21.324219 4.308594 L 22.328125 3.453125 L 23.492188 2.8125 L 24.816406 2.441406 L 26.191406 2.28125 L 27.566406 2.441406 L 28.835938 2.8125 L 30 3.453125 L 31.007812 4.308594 L 31.851562 5.320312 L 32.488281 6.496094 L 32.859375 7.773438 L 33.015625 9.164062 L 32.910156 10.28125 L 32.699219 11.296875 L 32.277344 12.3125 L 31.746094 13.21875 L 31.058594 14.015625 L 30.265625 14.710938 L 29.367188 15.296875 L 28.359375 15.726562 L 27.992188 15.351562 L 27.621094 14.976562 L 27.195312 14.65625 L 26.71875 14.335938 L 26.296875 14.070312 L 25.769531 13.804688 L 25.292969 13.589844 L 24.761719 13.429688 L 24.179688 13.003906 L 23.597656 12.734375 L 23.015625 12.578125 L 22.488281 12.578125 L 21.90625 12.632812 L 21.429688 12.734375 L 20.953125 12.894531 L 20.53125 13.164062 Z M 21.484375 46.238281 L 21.375 46.132812 L 21.269531 46.078125 L 21.113281 45.972656 L 21.007812 45.917969 L 21.164062 42.183594 L 21.324219 36.796875 L 21.535156 31.835938 L 21.585938 29.382812 L 21.746094 29.433594 L 22.117188 29.433594 L 22.011719 31.78125 L 21.851562 36.691406 L 21.640625 42.132812 L 21.484375 46.238281 Z M 24.710938 30.339844 L 24.390625 30.660156 L 23.914062 31.085938 L 23.546875 31.460938 L 23.28125 31.726562 L 23.226562 31.835938 L 23.175781 31.996094 L 23.175781 32.421875 L 23.28125 32.527344 L 23.335938 32.636719 L 23.492188 32.796875 L 23.863281 33.167969 L 24.285156 33.648438 L 24.605469 34.023438 L 24.605469 34.234375 L 24.550781 34.394531 L 24.550781 34.609375 L 24.179688 34.714844 L 23.863281 34.929688 L 23.597656 35.195312 L 23.386719 35.460938 L 23.226562 35.730469 L 23.070312 36.050781 L 23.015625 36.371094 L 22.964844 36.691406 L 23.070312 37.492188 L 23.386719 38.128906 L 23.863281 38.558594 L 24.390625 38.878906 L 24.390625 39.464844 L 24.074219 39.785156 L 23.597656 40.15625 L 23.226562 40.53125 L 23.070312 40.691406 L 22.964844 40.796875 L 22.859375 40.957031 L 22.804688 41.0625 L 22.804688 41.332031 L 22.859375 41.492188 L 22.910156 41.652344 L 23.015625 41.757812 L 23.175781 41.917969 L 23.546875 42.292969 L 23.96875 42.773438 L 24.285156 43.09375 L 24.234375 43.304688 L 24.234375 44 L 24.128906 44.105469 L 23.914062 44.265625 L 23.703125 44.480469 L 23.441406 44.746094 L 23.121094 45.011719 L 22.859375 45.28125 L 22.539062 45.546875 L 22.277344 45.8125 L 22.859375 29.433594 L 24.761719 29.539062 L 24.761719 29.96875 L 24.710938 30.179688 L 24.710938 30.339844 Z M 28.835938 20.953125 L 28.730469 21.753906 L 28.574219 22.5 L 28.308594 23.246094 L 27.9375 23.9375 L 27.621094 24.421875 L 27.25 24.847656 L 26.828125 25.222656 L 26.402344 25.59375 L 26.351562 26.179688 L 26.351562 27.40625 L 26.296875 27.40625 L 25.925781 27.726562 L 25.503906 28.15625 L 25.132812 28.476562 L 24.976562 28.636719 L 24.921875 28.6875 L 24.921875 28.742188 L 24.867188 28.796875 L 22.859375 28.6875 L 22.488281 28.6875 L 20.898438 28.636719 L 20.265625 45.546875 L 20.105469 45.4375 L 19.949219 45.332031 L 19.789062 45.28125 L 19.628906 45.171875 L 19.734375 42.292969 L 19.949219 36.742188 L 20.105469 31.40625 L 20.210938 29.007812 L 20.210938 28.847656 L 20.160156 28.6875 L 20.105469 28.582031 L 20 28.476562 L 19.949219 28.367188 L 19.734375 28.15625 L 19.472656 27.890625 L 19.207031 27.566406 L 19.367188 27.460938 L 19.523438 27.300781 L 19.628906 27.140625 L 19.789062 26.980469 L 20.105469 27.089844 L 20.476562 27.195312 L 20.953125 27.351562 L 21.429688 27.460938 L 21.851562 27.621094 L 22.222656 27.726562 L 22.488281 27.78125 L 22.59375 27.835938 L 22.964844 27.835938 L 23.175781 27.726562 L 23.335938 27.621094 L 27.410156 23.191406 L 27.566406 23.03125 L 27.621094 22.765625 L 27.621094 22.554688 L 27.566406 22.339844 L 27.515625 22.179688 L 27.304688 21.859375 L 27.039062 21.324219 L 26.667969 20.683594 L 26.296875 20.046875 L 25.980469 19.40625 L 25.714844 18.871094 L 25.503906 18.554688 L 25.925781 17.804688 L 26.191406 17.058594 L 26.242188 16.363281 L 26.140625 15.726562 L 26.71875 16.203125 L 27.304688 16.683594 L 27.726562 17.269531 L 28.148438 17.910156 L 28.46875 18.65625 L 28.679688 19.351562 L 28.785156 20.152344 L 28.835938 20.953125 Z M 29.261719 16.949219 L 29.15625 16.789062 L 29.046875 16.632812 L 28.945312 16.472656 L 28.835938 16.3125 L 29.894531 15.828125 L 30.847656 15.191406 L 31.695312 14.390625 L 32.382812 13.535156 L 32.964844 12.523438 L 33.386719 11.457031 L 33.652344 10.335938 L 33.757812 9.164062 L 33.601562 7.613281 L 33.175781 6.175781 L 32.488281 4.894531 L 31.535156 3.773438 L 30.425781 2.8125 L 29.15625 2.121094 L 27.726562 1.695312 L 26.191406 1.535156 L 24.65625 1.695312 L 23.226562 2.121094 L 21.957031 2.8125 L 20.792969 3.773438 L 19.894531 4.894531 L 19.15625 6.175781 L 18.730469 7.613281 L 18.570312 9.164062 L 18.625 10.28125 L 18.890625 11.351562 L 19.257812 12.363281 L 19.789062 13.269531 L 20.054688 13.640625 L 20.320312 14.015625 L 20.636719 14.390625 L 20.953125 14.710938 L 21.058594 14.816406 L 21.21875 14.925781 L 21.375 15.085938 L 21.535156 15.191406 L 21.695312 15.296875 L 21.851562 15.402344 L 22.011719 15.5625 L 22.171875 15.671875 L 22.277344 15.726562 L 22.328125 15.777344 L 22.433594 15.828125 L 22.539062 15.886719 L 22.59375 15.9375 L 22.59375 16.046875 L 22.648438 16.097656 L 22.648438 16.3125 L 22.59375 16.363281 L 22.488281 16.472656 L 22.382812 16.523438 L 22.277344 16.578125 L 22.171875 16.472656 L 22.011719 16.417969 L 21.851562 16.3125 L 21.746094 16.257812 L 21.585938 16.148438 L 21.429688 16.046875 L 21.269531 15.9375 L 21.113281 15.828125 L 20.898438 15.617188 L 20.6875 15.457031 L 20.476562 15.296875 L 20.265625 15.085938 L 20 14.816406 L 19.789062 14.550781 L 19.578125 14.28125 L 19.367188 13.964844 L 19.15625 13.695312 L 18.996094 13.378906 L 18.835938 13.109375 L 18.679688 12.789062 L 18.308594 11.9375 L 18.042969 11.027344 L 17.882812 10.121094 L 17.832031 9.164062 L 17.992188 7.507812 L 18.464844 5.90625 L 19.257812 4.519531 L 20.265625 3.242188 L 21.535156 2.226562 L 22.964844 1.425781 L 24.5 0.945312 L 26.191406 0.785156 L 27.832031 0.945312 L 29.417969 1.425781 L 30.796875 2.226562 L 32.066406 3.242188 L 33.070312 4.519531 L 33.863281 5.90625 L 34.339844 7.507812 L 34.5 9.164062 L 34.394531 10.441406 L 34.128906 11.617188 L 33.652344 12.789062 L 33.070312 13.855469 L 32.277344 14.816406 L 31.375 15.671875 L 30.371094 16.363281 L 29.261719 16.949219 "/>
</g>
<path style=" stroke:none;fill-rule:evenodd;fill:#BFD8E7;fill-opacity:1;" d="M 19.789062 25.433594 L 19.894531 25.484375 L 20.105469 25.539062 L 20.476562 25.648438 L 20.953125 25.753906 L 21.375 25.914062 L 21.851562 26.074219 L 22.222656 26.179688 L 22.539062 26.289062 L 22.804688 26.019531 L 23.226562 25.539062 L 23.703125 25.007812 L 24.234375 24.421875 L 24.761719 23.835938 L 25.292969 23.300781 L 25.714844 22.871094 L 25.980469 22.554688 L 25.769531 22.179688 L 25.503906 21.644531 L 25.1875 21.058594 L 24.816406 20.421875 L 24.5 19.777344 L 24.234375 19.300781 L 24.023438 18.925781 L 23.96875 18.816406 L 23.914062 18.605469 L 23.914062 18.390625 L 23.96875 18.125 L 24.074219 17.964844 L 24.710938 16.898438 L 24.710938 15.992188 L 24.445312 15.242188 L 24.074219 14.816406 L 24.023438 14.765625 L 23.96875 14.710938 L 23.597656 14.445312 L 23.28125 14.230469 L 22.964844 14.070312 L 22.648438 14.015625 L 22.328125 14.015625 L 22.0625 14.070312 L 21.800781 14.179688 L 21.535156 14.28125 L 21.746094 14.445312 L 21.957031 14.605469 L 22.117188 14.765625 L 22.328125 14.871094 L 22.648438 14.871094 L 22.964844 14.925781 L 23.226562 15.085938 L 23.492188 15.296875 L 23.8125 15.777344 L 23.96875 16.3125 L 23.863281 16.898438 L 23.546875 17.378906 L 23.335938 17.59375 L 23.070312 17.753906 L 22.804688 17.859375 L 22.222656 17.859375 L 21.957031 17.804688 L 21.695312 17.644531 L 21.429688 17.484375 L 21.269531 17.324219 L 21.164062 17.109375 L 21.058594 16.898438 L 21.007812 16.683594 L 20.6875 16.472656 L 20.371094 16.203125 L 20.105469 15.9375 L 19.789062 15.671875 L 19.523438 15.351562 L 19.257812 15.085938 L 18.996094 14.765625 L 18.78125 14.445312 L 18.679688 14.445312 L 18.308594 14.28125 L 17.9375 14.070312 L 17.566406 13.910156 L 17.195312 13.75 L 16.878906 13.589844 L 16.5625 13.429688 L 16.296875 13.324219 L 16.085938 13.21875 L 15.820312 13.535156 L 15.398438 13.964844 L 14.867188 14.496094 L 14.339844 15.085938 L 13.808594 15.671875 L 13.332031 16.203125 L 12.910156 16.632812 L 12.644531 16.898438 L 12.910156 17.59375 L 13.226562 18.5 L 13.546875 19.351562 L 13.652344 19.671875 L 13.703125 19.886719 L 13.703125 20.046875 L 13.652344 20.257812 L 13.546875 20.421875 L 13.4375 20.523438 L 13.226562 20.738281 L 12.960938 21.058594 L 12.699219 21.324219 L 12.699219 21.804688 L 12.75 22.390625 L 12.75 23.300781 L 12.699219 23.40625 L 12.644531 23.566406 L 12.539062 23.671875 L 12.433594 23.78125 L 12.117188 24.152344 L 11.585938 24.6875 L 10.898438 25.433594 L 10.105469 26.289062 L 9.207031 27.246094 L 8.253906 28.261719 L 7.300781 29.328125 L 6.296875 30.449219 L 5.289062 31.460938 L 4.390625 32.476562 L 3.542969 33.382812 L 2.804688 34.183594 L 2.222656 34.824219 L 1.796875 35.304688 L 1.585938 35.515625 L 1.640625 35.675781 L 1.691406 35.835938 L 1.746094 35.996094 L 1.796875 36.210938 L 13.28125 23.835938 L 14.445312 24.953125 L 14.761719 25.222656 L 16.191406 26.605469 L 16.242188 26.605469 L 16.296875 26.554688 L 17.617188 26.554688 L 17.832031 26.5 L 18.203125 26.5 L 18.359375 26.34375 L 18.519531 26.179688 L 18.679688 26.019531 L 18.835938 25.859375 L 18.890625 25.753906 L 18.996094 25.699219 L 19.046875 25.648438 L 19.207031 25.484375 L 19.367188 25.433594 L 19.578125 25.382812 L 19.789062 25.433594 "/>
<path style=" stroke:none;fill-rule:evenodd;fill:#BFD8E7;fill-opacity:1;" d="M 3.121094 37.757812 L 3.492188 37.757812 L 3.914062 37.703125 L 4.707031 37.703125 L 5.078125 37.648438 L 5.820312 37.648438 L 5.976562 37.492188 L 6.136719 37.328125 L 6.242188 37.171875 L 6.402344 37.007812 L 6.402344 35.890625 L 6.347656 35.355469 L 6.347656 34.984375 L 6.402344 34.875 L 6.453125 34.714844 L 6.5625 34.609375 L 6.664062 34.554688 L 6.773438 34.449219 L 6.929688 34.394531 L 7.566406 34.394531 L 7.828125 34.34375 L 8.890625 34.34375 L 8.992188 34.234375 L 9.046875 34.128906 L 9.152344 34.078125 L 9.3125 33.914062 L 9.046875 33.328125 L 8.992188 32.6875 L 9.152344 31.996094 L 9.628906 31.300781 L 9.839844 31.085938 L 10.105469 30.929688 L 10.421875 30.769531 L 10.742188 30.660156 L 11.058594 30.609375 L 11.429688 30.554688 L 11.796875 30.609375 L 12.167969 30.769531 L 12.328125 30.609375 L 12.382812 30.554688 L 12.488281 30.449219 L 12.59375 30.339844 L 12.59375 29.273438 L 12.539062 28.742188 L 12.539062 28.367188 L 12.59375 28.210938 L 12.644531 28.101562 L 12.699219 27.992188 L 12.804688 27.890625 L 12.960938 27.835938 L 13.070312 27.78125 L 13.226562 27.726562 L 14.601562 27.726562 L 14.867188 27.675781 L 15.078125 27.675781 L 15.1875 27.566406 L 15.34375 27.40625 L 15.449219 27.246094 L 15.609375 27.089844 L 14.234375 25.753906 L 3.121094 37.757812 "/>
<path style=" stroke:none;fill-rule:evenodd;fill:#3F8BB9;fill-opacity:1;" d="M 13.332031 24.898438 L 13.175781 25.113281 L 12.804688 25.484375 L 12.328125 26.019531 L 11.695312 26.660156 L 10.953125 27.460938 L 10.105469 28.367188 L 9.257812 29.328125 L 8.304688 30.289062 L 7.355469 31.300781 L 6.453125 32.316406 L 5.5 33.328125 L 4.65625 34.234375 L 3.171875 35.835938 L 2.59375 36.476562 L 2.117188 36.957031 L 2.167969 37.117188 L 2.222656 37.277344 L 2.273438 37.4375 L 2.328125 37.542969 L 2.855469 36.957031 L 3.492188 36.261719 L 4.285156 35.460938 L 5.078125 34.554688 L 5.976562 33.59375 L 6.929688 32.582031 L 7.828125 31.570312 L 8.78125 30.554688 L 9.683594 29.539062 L 10.582031 28.636719 L 11.375 27.78125 L 12.117188 26.980469 L 12.699219 26.34375 L 13.175781 25.808594 L 13.546875 25.433594 L 13.703125 25.273438 L 13.597656 25.167969 L 13.546875 25.058594 L 13.4375 25.007812 L 13.332031 24.898438 "/>
<path style=" stroke:none;fill-rule:evenodd;fill:#BFD8E7;fill-opacity:1;" d="M 22.277344 45.8125 L 22.539062 45.546875 L 22.859375 45.28125 L 23.121094 45.011719 L 23.441406 44.746094 L 23.703125 44.480469 L 23.914062 44.265625 L 24.128906 44.105469 L 24.234375 44 L 24.234375 43.304688 L 24.285156 43.09375 L 23.96875 42.773438 L 23.546875 42.292969 L 23.175781 41.917969 L 23.015625 41.757812 L 22.910156 41.652344 L 22.859375 41.492188 L 22.804688 41.332031 L 22.804688 41.0625 L 22.859375 40.957031 L 22.964844 40.796875 L 23.070312 40.691406 L 23.226562 40.53125 L 23.597656 40.15625 L 24.074219 39.785156 L 24.390625 39.464844 L 24.390625 38.878906 L 23.863281 38.558594 L 23.386719 38.128906 L 23.070312 37.492188 L 22.964844 36.691406 L 23.015625 36.371094 L 23.070312 36.050781 L 23.226562 35.730469 L 23.386719 35.460938 L 23.597656 35.195312 L 23.863281 34.929688 L 24.179688 34.714844 L 24.550781 34.609375 L 24.550781 34.394531 L 24.605469 34.234375 L 24.605469 34.023438 L 24.285156 33.648438 L 23.863281 33.167969 L 23.492188 32.796875 L 23.335938 32.636719 L 23.28125 32.527344 L 23.175781 32.421875 L 23.175781 31.996094 L 23.226562 31.835938 L 23.28125 31.726562 L 23.546875 31.460938 L 23.914062 31.085938 L 24.390625 30.660156 L 24.710938 30.339844 L 24.710938 30.179688 L 24.761719 29.96875 L 24.761719 29.539062 L 22.859375 29.433594 L 22.277344 45.8125 "/>
<path style=" stroke:none;fill-rule:evenodd;fill:#3F8BB9;fill-opacity:1;" d="M 26.191406 0.785156 L 24.5 0.945312 L 22.964844 1.425781 L 21.535156 2.226562 L 20.265625 3.242188 L 19.257812 4.519531 L 18.464844 5.90625 L 17.992188 7.507812 L 17.832031 9.164062 L 17.882812 10.121094 L 18.042969 11.027344 L 18.308594 11.9375 L 18.679688 12.789062 L 18.835938 13.109375 L 18.996094 13.378906 L 19.15625 13.695312 L 19.367188 13.964844 L 19.578125 14.28125 L 19.789062 14.550781 L 20 14.816406 L 20.265625 15.085938 L 20.476562 15.296875 L 20.6875 15.457031 L 20.898438 15.617188 L 21.113281 15.828125 L 21.269531 15.9375 L 21.429688 16.046875 L 21.585938 16.148438 L 21.746094 16.257812 L 21.851562 16.3125 L 22.011719 16.417969 L 22.171875 16.472656 L 22.277344 16.578125 L 22.382812 16.523438 L 22.488281 16.472656 L 22.59375 16.363281 L 22.648438 16.3125 L 22.648438 16.097656 L 22.59375 16.046875 L 22.59375 15.9375 L 22.539062 15.886719 L 22.433594 15.828125 L 22.328125 15.777344 L 22.277344 15.726562 L 22.171875 15.671875 L 22.011719 15.5625 L 21.851562 15.402344 L 21.695312 15.296875 L 21.535156 15.191406 L 21.375 15.085938 L 21.21875 14.925781 L 21.058594 14.816406 L 20.953125 14.710938 L 20.636719 14.390625 L 20.320312 14.015625 L 20.054688 13.640625 L 19.789062 13.269531 L 19.257812 12.363281 L 18.890625 11.351562 L 18.625 10.28125 L 18.570312 9.164062 L 18.730469 7.613281 L 19.15625 6.175781 L 19.894531 4.894531 L 20.792969 3.773438 L 21.957031 2.8125 L 23.226562 2.121094 L 24.65625 1.695312 L 26.191406 1.535156 L 27.726562 1.695312 L 29.15625 2.121094 L 30.425781 2.8125 L 31.535156 3.773438 L 32.488281 4.894531 L 33.175781 6.175781 L 33.601562 7.613281 L 33.757812 9.164062 L 33.652344 10.335938 L 33.386719 11.457031 L 32.964844 12.523438 L 32.382812 13.535156 L 31.695312 14.390625 L 30.847656 15.191406 L 29.894531 15.828125 L 28.835938 16.3125 L 28.945312 16.472656 L 29.046875 16.632812 L 29.15625 16.789062 L 29.261719 16.949219 L 30.371094 16.363281 L 31.375 15.671875 L 32.277344 14.816406 L 33.070312 13.855469 L 33.652344 12.789062 L 34.128906 11.617188 L 34.394531 10.441406 L 34.5 9.164062 L 34.339844 7.507812 L 33.863281 5.90625 L 33.070312 4.519531 L 32.066406 3.242188 L 30.796875 2.226562 L 29.417969 1.425781 L 27.832031 0.945312 L 26.191406 0.785156 "/>
<path style=" stroke:none;fill-rule:evenodd;fill:#3F8BB9;fill-opacity:1;" d="M 21.007812 45.917969 L 21.113281 45.972656 L 21.269531 46.078125 L 21.375 46.132812 L 21.484375 46.238281 L 21.640625 42.132812 L 21.851562 36.691406 L 22.011719 31.78125 L 22.117188 29.433594 L 21.746094 29.433594 L 21.585938 29.382812 L 21.535156 31.835938 L 21.324219 36.796875 L 21.164062 42.183594 L 21.007812 45.917969 "/>
<path style=" stroke:none;fill-rule:evenodd;fill:#BFD8E7;fill-opacity:1;" d="M 26.140625 15.726562 L 26.242188 16.363281 L 26.191406 17.058594 L 25.925781 17.804688 L 25.503906 18.554688 L 25.714844 18.871094 L 25.980469 19.40625 L 26.296875 20.046875 L 26.667969 20.683594 L 27.039062 21.324219 L 27.304688 21.859375 L 27.515625 22.179688 L 27.566406 22.339844 L 27.621094 22.554688 L 27.621094 22.765625 L 27.566406 23.03125 L 27.410156 23.191406 L 23.335938 27.621094 L 23.175781 27.726562 L 22.964844 27.835938 L 22.59375 27.835938 L 22.488281 27.78125 L 22.222656 27.726562 L 21.851562 27.621094 L 21.429688 27.460938 L 20.953125 27.351562 L 20.476562 27.195312 L 20.105469 27.089844 L 19.789062 26.980469 L 19.628906 27.140625 L 19.523438 27.300781 L 19.367188 27.460938 L 19.207031 27.566406 L 19.472656 27.890625 L 19.734375 28.15625 L 19.949219 28.367188 L 20 28.476562 L 20.105469 28.582031 L 20.160156 28.6875 L 20.210938 28.847656 L 20.210938 29.007812 L 20.105469 31.40625 L 19.949219 36.742188 L 19.734375 42.292969 L 19.628906 45.171875 L 19.789062 45.28125 L 19.949219 45.332031 L 20.105469 45.4375 L 20.265625 45.546875 L 20.898438 28.636719 L 22.488281 28.6875 L 22.859375 28.6875 L 24.867188 28.796875 L 24.921875 28.742188 L 24.921875 28.6875 L 24.976562 28.636719 L 25.132812 28.476562 L 25.503906 28.15625 L 25.925781 27.726562 L 26.296875 27.40625 L 26.351562 27.40625 L 26.351562 26.179688 L 26.402344 25.59375 L 26.828125 25.222656 L 27.25 24.847656 L 27.621094 24.421875 L 27.9375 23.9375 L 28.308594 23.246094 L 28.574219 22.5 L 28.730469 21.753906 L 28.835938 20.953125 L 28.785156 20.152344 L 28.679688 19.351562 L 28.46875 18.65625 L 28.148438 17.910156 L 27.726562 17.269531 L 27.304688 16.683594 L 26.71875 16.203125 L 26.140625 15.726562 "/>
<path style=" stroke:none;fill-rule:evenodd;fill:#FFFFFF;fill-opacity:1;" d="M 14.65625 19.992188 L 13.652344 17.109375 L 16.929688 13.589844 L 16.667969 13.484375 L 16.453125 13.378906 L 16.242188 13.324219 L 16.085938 13.21875 L 15.820312 13.535156 L 15.398438 13.964844 L 14.867188 14.496094 L 14.339844 15.085938 L 13.808594 15.671875 L 13.332031 16.203125 L 12.910156 16.632812 L 12.644531 16.898438 L 12.910156 17.59375 L 13.226562 18.5 L 13.546875 19.351562 L 13.652344 19.671875 L 13.703125 19.886719 L 13.703125 20.046875 L 13.652344 20.257812 L 13.546875 20.421875 L 13.4375 20.523438 L 13.226562 20.738281 L 12.960938 21.058594 L 12.699219 21.324219 L 12.699219 21.804688 L 12.75 22.390625 L 12.75 23.300781 L 12.699219 23.40625 L 12.644531 23.566406 L 12.539062 23.671875 L 12.433594 23.78125 L 12.117188 24.152344 L 11.585938 24.6875 L 10.898438 25.433594 L 10.105469 26.289062 L 9.207031 27.246094 L 8.253906 28.261719 L 7.300781 29.328125 L 6.296875 30.449219 L 5.289062 31.460938 L 4.390625 32.476562 L 3.542969 33.382812 L 2.804688 34.183594 L 2.222656 34.824219 L 1.796875 35.304688 L 1.585938 35.515625 L 1.640625 35.675781 L 1.691406 35.835938 L 1.746094 35.996094 L 1.796875 36.210938 L 13.28125 23.886719 L 13.28125 21.644531 L 14.65625 19.992188 "/>
<path style=" stroke:none;fill-rule:evenodd;fill:#FFFFFF;fill-opacity:1;" d="M 19.207031 27.566406 L 19.472656 27.890625 L 19.734375 28.15625 L 19.949219 28.367188 L 20 28.476562 L 20.105469 28.582031 L 20.160156 28.6875 L 20.210938 28.847656 L 20.210938 29.007812 L 20.105469 31.40625 L 19.949219 36.742188 L 19.734375 42.292969 L 19.628906 45.171875 L 19.789062 45.28125 L 19.949219 45.332031 L 20.105469 45.4375 L 20.265625 45.546875 L 20.898438 28.636719 L 19.628906 27.195312 L 19.523438 27.300781 L 19.417969 27.40625 L 19.3125 27.460938 L 19.207031 27.566406 "/>
</g>
</svg>
