<?xml version="1.0" encoding="UTF-8"?>
<svg xmlns="http://www.w3.org/2000/svg" xmlns:xlink="http://www.w3.org/1999/xlink" width="38pt" height="30pt" viewBox="0 0 38 30" version="1.1">
<defs>
<clipPath id="clip1">
  <path d="M 0.0585938 0.152344 L 37 0.152344 L 37 29.941406 L 0.0585938 29.941406 L 0.0585938 0.152344 Z M 0.0585938 0.152344 "/>
</clipPath>
<clipPath id="clip2">
  <path d="M 0.0585938 0.152344 L 37 0.152344 L 37 29.941406 L 0.0585938 29.941406 L 0.0585938 0.152344 Z M 0.0585938 0.152344 "/>
</clipPath>
<clipPath id="clip3">
  <path d="M 0.0585938 0.152344 L 37 0.152344 L 37 29.941406 L 0.0585938 29.941406 L 0.0585938 0.152344 Z M 0.0585938 0.152344 "/>
</clipPath>
<clipPath id="clip4">
  <path d="M 0.0585938 0.152344 L 37 0.152344 L 37 29.941406 L 0.0585938 29.941406 L 0.0585938 0.152344 Z M 0.0585938 0.152344 "/>
</clipPath>
<clipPath id="clip5">
  <path d="M 0.0585938 0.152344 L 37 0.152344 L 37 29.941406 L 0.0585938 29.941406 L 0.0585938 0.152344 Z M 0.0585938 0.152344 "/>
</clipPath>
</defs>
<g id="surface0">
<path style=" stroke:none;fill-rule:nonzero;fill:#0065A2;fill-opacity:1;" d="M 36.988281 12.171875 C 36.988281 16.121094 28.75 19.324219 18.59375 19.324219 C 8.4375 19.324219 0.199219 16.121094 0.199219 12.171875 L 0.199219 22.648438 C 0.199219 26.601562 8.4375 29.800781 18.59375 29.800781 C 28.75 29.800781 36.988281 26.601562 36.988281 22.648438 L 36.988281 12.171875 "/>
<g clip-path="url(#clip1)" clip-rule="nonzero">
<path style="fill:none;stroke-width:0.4;stroke-linecap:butt;stroke-linejoin:miter;stroke:#FFFFFF;stroke-opacity:1;stroke-miterlimit:4;" d="M 36.988281 17.828125 C 36.988281 13.878906 28.75 10.675781 18.59375 10.675781 C 8.4375 10.675781 0.199219 13.878906 0.199219 17.828125 L 0.199219 7.351562 C 0.199219 3.398438 8.4375 0.199219 18.59375 0.199219 C 28.75 0.199219 36.988281 3.398438 36.988281 7.351562 L 36.988281 17.828125 Z M 36.988281 17.828125 " transform="matrix(1,0,0,-1,0,30)"/>
</g>
<path style=" stroke:none;fill-rule:nonzero;fill:#0065A2;fill-opacity:1;" d="M 18.59375 19.324219 C 28.75 19.324219 36.988281 16.121094 36.988281 12.171875 C 36.988281 8.222656 28.75 5.019531 18.59375 5.019531 C 8.4375 5.019531 0.199219 8.222656 0.199219 12.171875 C 0.199219 16.121094 8.4375 19.324219 18.59375 19.324219 "/>
<g clip-path="url(#clip2)" clip-rule="nonzero">
<path style="fill:none;stroke-width:0.4;stroke-linecap:butt;stroke-linejoin:miter;stroke:#FFFFFF;stroke-opacity:1;stroke-miterlimit:4;" d="M 18.59375 10.675781 C 28.75 10.675781 36.988281 13.878906 36.988281 17.828125 C 36.988281 21.777344 28.75 24.980469 18.59375 24.980469 C 8.4375 24.980469 0.199219 21.777344 0.199219 17.828125 C 0.199219 13.878906 8.4375 10.675781 18.59375 10.675781 Z M 18.59375 10.675781 " transform="matrix(1,0,0,-1,0,30)"/>
</g>
<path style=" stroke:none;fill-rule:nonzero;fill:#0065A2;fill-opacity:1;" d="M 18.589844 14.601562 C 28.707031 14.601562 36.910156 11.410156 36.910156 7.476562 C 36.910156 3.542969 28.707031 0.355469 18.589844 0.355469 C 8.472656 0.355469 0.273438 3.542969 0.273438 7.476562 C 0.273438 11.410156 8.472656 14.601562 18.589844 14.601562 "/>
<g clip-path="url(#clip3)" clip-rule="nonzero">
<path style="fill:none;stroke-width:0.4;stroke-linecap:butt;stroke-linejoin:miter;stroke:#FFFFFF;stroke-opacity:1;stroke-miterlimit:4;" d="M 18.589844 15.398438 C 28.707031 15.398438 36.910156 18.589844 36.910156 22.523438 C 36.910156 26.457031 28.707031 29.644531 18.589844 29.644531 C 8.472656 29.644531 0.273438 26.457031 0.273438 22.523438 C 0.273438 18.589844 8.472656 15.398438 18.589844 15.398438 Z M 18.589844 15.398438 " transform="matrix(1,0,0,-1,0,30)"/>
</g>
<path style=" stroke:none;fill-rule:nonzero;fill:#0065A2;fill-opacity:1;" d="M 36.910156 7.476562 C 36.910156 11.410156 28.707031 14.601562 18.589844 14.601562 C 8.472656 14.601562 0.273438 11.410156 0.273438 7.476562 L 0.273438 12.523438 C 0.273438 16.460938 8.472656 19.648438 18.589844 19.648438 C 28.707031 19.648438 36.910156 16.460938 36.910156 12.523438 L 36.910156 7.476562 "/>
<g clip-path="url(#clip4)" clip-rule="nonzero">
<path style="fill:none;stroke-width:0.4;stroke-linecap:butt;stroke-linejoin:miter;stroke:#FFFFFF;stroke-opacity:1;stroke-miterlimit:4;" d="M 36.910156 22.523438 C 36.910156 18.589844 28.707031 15.398438 18.589844 15.398438 C 8.472656 15.398438 0.273438 18.589844 0.273438 22.523438 L 0.273438 17.476562 C 0.273438 13.539062 8.472656 10.351562 18.589844 10.351562 C 28.707031 10.351562 36.910156 13.539062 36.910156 17.476562 L 36.910156 22.523438 Z M 36.910156 22.523438 " transform="matrix(1,0,0,-1,0,30)"/>
</g>
<path style=" stroke:none;fill-rule:nonzero;fill:#FFFFFF;fill-opacity:1;" d="M 14.394531 4.375 L 15.914062 6.652344 L 10.167969 7.980469 L 11.425781 6.9375 L 2.550781 5.421875 L 4.773438 3.75 L 13.339844 5.199219 L 14.394531 4.375 "/>
<path style=" stroke:none;fill-rule:nonzero;fill:#FFFFFF;fill-opacity:1;" d="M 22.472656 9.898438 L 21.4375 7.550781 L 26.617188 6.515625 L 25.71875 7.320312 L 34.351562 8.796875 L 32.28125 10.453125 L 23.699219 8.84375 L 22.472656 9.898438 "/>
<path style=" stroke:none;fill-rule:nonzero;fill:#FFFFFF;fill-opacity:1;" d="M 19.640625 3.132812 L 25.441406 1.542969 L 25.511719 4.03125 L 24.0625 3.753906 L 21.230469 6.101562 L 18.527344 5.707031 L 21.449219 3.410156 L 19.640625 3.132812 "/>
<path style=" stroke:none;fill-rule:nonzero;fill:#FFFFFF;fill-opacity:1;" d="M 17.15625 12.042969 L 11.628906 13.078125 L 11.421875 10.523438 L 13.011719 10.867188 L 16.054688 8.269531 L 18.742188 8.726562 L 15.5 11.558594 L 17.15625 12.042969 "/>
<g clip-path="url(#clip5)" clip-rule="nonzero">
<path style="fill:none;stroke-width:0.3;stroke-linecap:butt;stroke-linejoin:miter;stroke:#FFFFFF;stroke-opacity:1;stroke-miterlimit:4;" d="M 14.425781 22.152344 L 19.371094 21.828125 M 3.976562 22.8125 L 9.066406 22.488281 M 1.839844 25.09375 L 5.941406 24.738281 M 6.390625 24.914062 L 1.339844 20.71875 M 11.433594 24.304688 L 4.339844 18.34375 M 16.964844 24.058594 L 8.265625 16.988281 M 6.460938 20.175781 L 11.578125 19.847656 M 28.621094 19.632812 L 33.710938 19.308594 M 18.316406 20.292969 L 23.40625 19.96875 M 20.515625 22.519531 L 12.839844 15.96875 M 25.992188 22.054688 L 18.339844 15.59375 M 31.039062 21.730469 L 24.214844 15.71875 M 36.734375 22.363281 L 31.984375 17.738281 M 10.300781 18.324219 L 15.417969 17.996094 M 20.753906 17.65625 L 25.867188 17.328125 M 10.839844 28.84375 L 6.078125 24.714844 M 17.589844 29.59375 L 11.371094 24.089844 M 30.957031 26.300781 L 34.464844 25.84375 M 23.339844 29.34375 L 14.84375 22.261719 M 28.039062 28.722656 L 19.851562 21.921875 M 31.964844 27.21875 L 25.429688 21.585938 M 35.339844 25.21875 L 30.722656 21.242188 M 12.636719 24.992188 L 17.75 24.664062 M 23.089844 24.320312 L 28.203125 23.996094 M 33.441406 23.660156 L 36.464844 23.46875 " transform="matrix(1,0,0,-1,0,30)"/>
</g>
</g>
</svg>
