<?xml version="1.0" encoding="UTF-8"?>
<svg xmlns="http://www.w3.org/2000/svg" xmlns:xlink="http://www.w3.org/1999/xlink" width="38pt" height="26pt" viewBox="0 0 38 26" version="1.1">
<defs>
<clipPath id="clip1">
  <path d="M 0.0585938 0.816406 L 37 0.816406 L 37 25.816406 L 0.0585938 25.816406 L 0.0585938 0.816406 Z M 0.0585938 0.816406 "/>
</clipPath>
<clipPath id="clip2">
  <path d="M 0.0585938 0.816406 L 37 0.816406 L 37 25.816406 L 0.0585938 25.816406 L 0.0585938 0.816406 Z M 0.0585938 0.816406 "/>
</clipPath>
</defs>
<g id="surface0">
<path style=" stroke:none;fill-rule:nonzero;fill:#0065A2;fill-opacity:1;" d="M 36.984375 8.171875 C 36.984375 12.121094 28.75 15.324219 18.59375 15.324219 C 8.433594 15.324219 0.199219 12.121094 0.199219 8.171875 L 0.199219 18.648438 C 0.199219 22.597656 8.433594 25.800781 18.59375 25.800781 C 28.75 25.800781 36.984375 22.597656 36.984375 18.648438 L 36.984375 8.171875 "/>
<g clip-path="url(#clip1)" clip-rule="nonzero">
<path style="fill:none;stroke-width:0.4;stroke-linecap:butt;stroke-linejoin:miter;stroke:#FFFFFF;stroke-opacity:1;stroke-miterlimit:4;" d="M 36.984375 17.828125 C 36.984375 13.878906 28.75 10.675781 18.59375 10.675781 C 8.433594 10.675781 0.199219 13.878906 0.199219 17.828125 L 0.199219 7.351562 C 0.199219 3.402344 8.433594 0.199219 18.59375 0.199219 C 28.75 0.199219 36.984375 3.402344 36.984375 7.351562 L 36.984375 17.828125 Z M 36.984375 17.828125 " transform="matrix(1,0,0,-1,0,26)"/>
</g>
<path style=" stroke:none;fill-rule:nonzero;fill:#0065A2;fill-opacity:1;" d="M 18.59375 15.324219 C 28.75 15.324219 36.984375 12.121094 36.984375 8.171875 C 36.984375 4.21875 28.75 1.019531 18.59375 1.019531 C 8.433594 1.019531 0.199219 4.21875 0.199219 8.171875 C 0.199219 12.121094 8.433594 15.324219 18.59375 15.324219 "/>
<g clip-path="url(#clip2)" clip-rule="nonzero">
<path style="fill:none;stroke-width:0.4;stroke-linecap:butt;stroke-linejoin:miter;stroke:#FFFFFF;stroke-opacity:1;stroke-miterlimit:4;" d="M 18.59375 10.675781 C 28.75 10.675781 36.984375 13.878906 36.984375 17.828125 C 36.984375 21.78125 28.75 24.980469 18.59375 24.980469 C 8.433594 24.980469 0.199219 21.78125 0.199219 17.828125 C 0.199219 13.878906 8.433594 10.675781 18.59375 10.675781 Z M 18.59375 10.675781 " transform="matrix(1,0,0,-1,0,26)"/>
</g>
<path style=" stroke:none;fill-rule:nonzero;fill:#FFFFFF;fill-opacity:1;" d="M 14.394531 5.371094 L 15.910156 7.652344 L 10.167969 8.980469 L 11.425781 7.933594 L 2.550781 6.417969 L 4.773438 4.746094 L 13.339844 6.199219 L 14.394531 5.371094 "/>
<path style=" stroke:none;fill-rule:nonzero;fill:#FFFFFF;fill-opacity:1;" d="M 22.472656 10.898438 L 21.433594 8.550781 L 26.613281 7.515625 L 25.71875 8.320312 L 34.351562 9.792969 L 32.277344 11.449219 L 23.699219 9.839844 L 22.472656 10.898438 "/>
<path style=" stroke:none;fill-rule:nonzero;fill:#FFFFFF;fill-opacity:1;" d="M 19.640625 4.128906 L 25.441406 2.539062 L 25.511719 5.027344 L 24.058594 4.75 L 21.230469 7.101562 L 18.527344 6.707031 L 21.449219 4.40625 L 19.640625 4.128906 "/>
<path style=" stroke:none;fill-rule:nonzero;fill:#FFFFFF;fill-opacity:1;" d="M 17.152344 13.039062 L 11.628906 14.074219 L 11.421875 11.519531 L 13.011719 11.863281 L 16.050781 9.269531 L 18.742188 9.726562 L 15.496094 12.558594 L 17.152344 13.039062 "/>
<path style=" stroke:none;fill-rule:nonzero;fill:#FFFFFF;fill-opacity:1;" d="M 17.675781 20.566406 L 23.035156 20.566406 L 23.035156 21.476562 L 25.058594 20.136719 L 23.035156 18.796875 L 23.035156 19.703125 L 17.675781 19.703125 L 17.675781 20.566406 "/>
<path style=" stroke:none;fill-rule:nonzero;fill:#FFFFFF;fill-opacity:1;" d="M 17.554688 19.078125 L 22.585938 17.246094 L 22.898438 18.101562 L 24.339844 16.148438 L 21.980469 15.582031 L 22.292969 16.4375 L 17.257812 18.269531 L 17.554688 19.078125 "/>
<path style=" stroke:none;fill-rule:nonzero;fill:#FFFFFF;fill-opacity:1;" d="M 17.554688 21.15625 L 22.585938 22.988281 L 22.898438 22.136719 L 24.339844 24.089844 L 21.980469 24.65625 L 22.292969 23.804688 L 17.257812 21.972656 L 17.554688 21.15625 "/>
<path style=" stroke:none;fill-rule:nonzero;fill:#FFFFFF;fill-opacity:1;" d="M 9.367188 20.566406 L 14.535156 20.566406 L 14.535156 21.476562 L 16.558594 20.136719 L 14.535156 18.796875 L 14.535156 19.703125 L 9.367188 19.703125 L 9.367188 20.566406 "/>
</g>
</svg>
