<?xml version="1.0" encoding="UTF-8"?>
<svg xmlns="http://www.w3.org/2000/svg" xmlns:xlink="http://www.w3.org/1999/xlink" width="37pt" height="24pt" viewBox="0 0 37 24" version="1.1">
<g id="surface0">
<path style="fill-rule:nonzero;fill:#0065A2;fill-opacity:1;stroke-width:0.46;stroke-linecap:butt;stroke-linejoin:miter;stroke:#FFFFFF;stroke-opacity:1;stroke-miterlimit:4;" d="M 1.421875 0.617188 L 32.054688 0.617188 L 32.054688 19.585938 L 1.421875 19.585938 L 1.421875 0.617188 Z M 1.421875 0.617188 " transform="matrix(1,0,0,-1,0,24)"/>
<path style="fill-rule:nonzero;fill:#0065A2;fill-opacity:1;stroke-width:0.46;stroke-linecap:butt;stroke-linejoin:miter;stroke:#FFFFFF;stroke-opacity:1;stroke-miterlimit:4;" d="M 31.988281 19.609375 L 1.441406 19.609375 L 6.238281 23.4375 L 35.945312 23.4375 L 35.945312 4.585938 L 32.03125 0.628906 L 32.03125 19.5 L 31.988281 19.609375 Z M 31.988281 19.609375 " transform="matrix(1,0,0,-1,0,24)"/>
<path style="fill-rule:nonzero;fill:#000000;fill-opacity:1;stroke-width:0.46;stroke-linecap:butt;stroke-linejoin:miter;stroke:#FFFFFF;stroke-opacity:1;stroke-miterlimit:4;" d="M 32.023438 19.644531 L 35.980469 23.488281 " transform="matrix(1,0,0,-1,0,24)"/>
<path style=" stroke:none;fill-rule:nonzero;fill:#FFFFFF;fill-opacity:1;" d="M 9.25 12.675781 L 9.25 15.023438 "/>
<path style=" stroke:none;fill-rule:nonzero;fill:#FFFFFF;fill-opacity:1;" d="M 5.960938 21.636719 L 9.53125 21.636719 L 13.460938 17.625 L 17.246094 17.625 L 21.1875 21.570312 L 28 21.570312 L 28 18.777344 L 22.796875 18.777344 L 18.765625 14.75 L 13.613281 14.75 L 9.660156 10.789062 L 5.898438 10.785156 L 5.898438 10.273438 L 4.367188 11.804688 L 5.847656 13.285156 L 5.847656 12.722656 L 8.945312 12.722656 L 8.917969 15.3125 L 5.960938 15.3125 L 5.960938 14.804688 L 4.429688 16.335938 L 5.90625 17.8125 L 5.90625 17.253906 L 8.917969 17.242188 L 8.917969 19.699219 L 5.960938 19.699219 L 5.960938 19.1875 L 4.429688 20.71875 L 5.90625 22.199219 L 5.90625 21.636719 "/>
<path style=" stroke:none;fill-rule:nonzero;fill:#FFFFFF;fill-opacity:1;" d="M 27.355469 5.898438 L 23.78125 5.898438 L 19.855469 9.910156 L 16.066406 9.910156 L 12.125 5.96875 L 5.316406 5.96875 L 5.316406 8.753906 L 10.519531 8.753906 L 14.546875 12.785156 L 19.703125 12.785156 L 23.652344 16.742188 L 27.414062 16.75 L 27.414062 17.261719 L 28.945312 15.730469 L 27.46875 14.25 L 27.46875 14.808594 L 24.371094 14.808594 L 24.398438 12.222656 L 27.355469 12.222656 L 27.355469 12.734375 L 28.886719 11.199219 L 27.40625 9.722656 L 27.40625 10.28125 L 24.398438 10.292969 L 24.398438 7.835938 L 27.355469 7.835938 L 27.355469 8.347656 L 28.886719 6.816406 L 27.40625 5.335938 L 27.40625 5.898438 "/>
</g>
</svg>
