<?xml version="1.0" encoding="UTF-8"?>
<svg xmlns="http://www.w3.org/2000/svg" xmlns:xlink="http://www.w3.org/1999/xlink" width="32pt" height="42pt" viewBox="0 0 32 42" version="1.1">
<defs>
<clipPath id="clip1">
  <path d="M 0.0585938 0.441406 L 31 0.441406 L 31 41.941406 L 0.0585938 41.941406 L 0.0585938 0.441406 Z M 0.0585938 0.441406 "/>
</clipPath>
<clipPath id="clip2">
  <path d="M 0.0585938 0.441406 L 31 0.441406 L 31 41.941406 L 0.0585938 41.941406 L 0.0585938 0.441406 Z M 0.0585938 0.441406 "/>
</clipPath>
<clipPath id="clip3">
  <path d="M 0.0585938 0.441406 L 31 0.441406 L 31 41.941406 L 0.0585938 41.941406 L 0.0585938 0.441406 Z M 0.0585938 0.441406 "/>
</clipPath>
<clipPath id="clip4">
  <path d="M 0.0585938 0.441406 L 31 0.441406 L 31 41.941406 L 0.0585938 41.941406 L 0.0585938 0.441406 Z M 0.0585938 0.441406 "/>
</clipPath>
</defs>
<g id="surface0">
<path style=" stroke:none;fill-rule:nonzero;fill:#0065A2;fill-opacity:1;" d="M 30.628906 36.660156 L 30.628906 0.910156 L 25.496094 5.785156 L 25.496094 41.535156 L 30.628906 36.660156 "/>
<g clip-path="url(#clip1)" clip-rule="nonzero">
<path style="fill:none;stroke-width:0.4;stroke-linecap:butt;stroke-linejoin:miter;stroke:#FFFFFF;stroke-opacity:1;stroke-miterlimit:4;" d="M 30.628906 5.339844 L 30.628906 41.089844 L 25.496094 36.214844 L 25.496094 0.464844 L 30.628906 5.339844 Z M 30.628906 5.339844 " transform="matrix(1,0,0,-1,0,42)"/>
</g>
<path style=" stroke:none;fill-rule:nonzero;fill:#0065A2;fill-opacity:1;" d="M 30.628906 0.910156 L 25.496094 5.785156 L 0.597656 5.785156 L 7.046875 0.910156 L 30.628906 0.910156 "/>
<g clip-path="url(#clip2)" clip-rule="nonzero">
<path style="fill:none;stroke-width:0.4;stroke-linecap:butt;stroke-linejoin:miter;stroke:#FFFFFF;stroke-opacity:1;stroke-miterlimit:4;" d="M 30.628906 41.089844 L 25.496094 36.214844 L 0.597656 36.214844 L 7.046875 41.089844 L 30.628906 41.089844 Z M 30.628906 41.089844 " transform="matrix(1,0,0,-1,0,42)"/>
</g>
<path style=" stroke:none;fill-rule:nonzero;fill:#0065A2;fill-opacity:1;" d="M 0.597656 5.785156 L 25.492188 5.785156 L 25.492188 30.410156 L 0.597656 30.410156 L 0.597656 5.785156 Z M 0.597656 5.785156 "/>
<g clip-path="url(#clip3)" clip-rule="nonzero">
<path style="fill:none;stroke-width:0.4;stroke-linecap:butt;stroke-linejoin:miter;stroke:#FFFFFF;stroke-opacity:1;stroke-miterlimit:4;" d="M 0.597656 11.589844 L 25.492188 11.589844 L 25.492188 36.214844 L 0.597656 36.214844 L 0.597656 11.589844 Z M 0.597656 11.589844 " transform="matrix(1,0,0,-1,0,42)"/>
</g>
<path style=" stroke:none;fill-rule:nonzero;fill:#0065A2;fill-opacity:1;" d="M 0.597656 30.660156 L 25.492188 30.660156 L 25.492188 41.535156 L 0.597656 41.535156 L 0.597656 30.660156 Z M 0.597656 30.660156 "/>
<g clip-path="url(#clip4)" clip-rule="nonzero">
<path style="fill:none;stroke-width:0.4;stroke-linecap:butt;stroke-linejoin:miter;stroke:#FFFFFF;stroke-opacity:1;stroke-miterlimit:4;" d="M 0.597656 0.464844 L 25.492188 0.464844 L 25.492188 11.339844 L 0.597656 11.339844 L 0.597656 0.464844 Z M 0.597656 0.464844 " transform="matrix(1,0,0,-1,0,42)"/>
</g>
<path style=" stroke:none;fill-rule:nonzero;fill:#FFFFFF;fill-opacity:1;" d="M 10.824219 15.179688 L 7.039062 11.390625 L 7.679688 10.746094 L 5.300781 10.265625 L 5.78125 12.644531 L 6.425781 12 L 10.214844 15.789062 L 10.824219 15.179688 "/>
<path style=" stroke:none;fill-rule:nonzero;fill:#FFFFFF;fill-opacity:1;" d="M 9.441406 17.65625 L 4.082031 17.65625 L 4.082031 16.746094 L 2.058594 18.089844 L 4.082031 19.429688 L 4.082031 18.523438 L 9.441406 18.523438 L 9.441406 17.65625 "/>
<path style=" stroke:none;fill-rule:nonzero;fill:#FFFFFF;fill-opacity:1;" d="M 10.214844 20.390625 L 6.425781 24.179688 L 5.78125 23.535156 L 5.300781 25.914062 L 7.679688 25.433594 L 7.039062 24.789062 L 10.824219 21.003906 L 10.214844 20.390625 "/>
<path style=" stroke:none;fill-rule:nonzero;fill:#FFFFFF;fill-opacity:1;" d="M 12.695312 21.773438 L 12.695312 27.132812 L 11.785156 27.132812 L 13.125 29.15625 L 14.46875 27.132812 L 13.558594 27.132812 L 13.558594 21.773438 L 12.695312 21.773438 "/>
<path style=" stroke:none;fill-rule:nonzero;fill:#FFFFFF;fill-opacity:1;" d="M 12.695312 14.558594 L 12.695312 9.199219 L 11.785156 9.199219 L 13.125 7.179688 L 14.46875 9.199219 L 13.558594 9.199219 L 13.558594 14.558594 L 12.695312 14.558594 "/>
<path style=" stroke:none;fill-rule:nonzero;fill:#FFFFFF;fill-opacity:1;" d="M 15.425781 21.003906 L 19.214844 24.789062 L 18.574219 25.433594 L 20.953125 25.914062 L 20.46875 23.535156 L 19.828125 24.179688 L 16.039062 20.390625 L 15.425781 21.003906 "/>
<path style=" stroke:none;fill-rule:nonzero;fill:#FFFFFF;fill-opacity:1;" d="M 16.8125 18.523438 L 22.171875 18.523438 L 22.171875 19.429688 L 24.191406 18.089844 L 22.171875 16.746094 L 22.171875 17.65625 L 16.8125 17.65625 L 16.8125 18.523438 "/>
<path style=" stroke:none;fill-rule:nonzero;fill:#FFFFFF;fill-opacity:1;" d="M 16.039062 15.789062 L 19.828125 12 L 20.46875 12.644531 L 20.953125 10.265625 L 18.574219 10.746094 L 19.214844 11.390625 L 15.425781 15.179688 L 16.039062 15.789062 "/>
<path style=" stroke:none;fill-rule:nonzero;fill:#FFFFFF;fill-opacity:1;" d="M 16.414062 22.625 C 18.941406 20.855469 19.558594 17.371094 17.785156 14.84375 C 16.015625 12.316406 12.53125 11.699219 10.003906 13.472656 C 7.476562 15.238281 6.863281 18.726562 8.632812 21.253906 C 10.402344 23.78125 13.886719 24.394531 16.414062 22.625 "/>
<path style=" stroke:none;fill-rule:nonzero;fill:#FFFFFF;fill-opacity:1;" d="M 13.363281 36.503906 L 18.722656 36.503906 L 18.722656 37.410156 L 20.742188 36.070312 L 18.722656 34.730469 L 18.722656 35.640625 L 13.363281 35.640625 L 13.363281 36.503906 "/>
<path style=" stroke:none;fill-rule:nonzero;fill:#FFFFFF;fill-opacity:1;" d="M 13.238281 35.015625 L 18.273438 33.183594 L 18.585938 34.035156 L 20.027344 32.085938 L 17.667969 31.519531 L 17.980469 32.371094 L 12.945312 34.203125 L 13.238281 35.015625 "/>
<path style=" stroke:none;fill-rule:nonzero;fill:#FFFFFF;fill-opacity:1;" d="M 13.238281 37.09375 L 18.273438 38.925781 L 18.585938 38.070312 L 20.027344 40.023438 L 17.667969 40.59375 L 17.980469 39.738281 L 12.945312 37.90625 L 13.238281 37.09375 "/>
<path style=" stroke:none;fill-rule:nonzero;fill:#FFFFFF;fill-opacity:1;" d="M 5.054688 36.503906 L 10.222656 36.503906 L 10.222656 37.410156 L 12.242188 36.070312 L 10.222656 34.730469 L 10.222656 35.640625 L 5.054688 35.640625 L 5.054688 36.503906 "/>
</g>
</svg>
