<?xml version="1.0" encoding="UTF-8"?>
<svg xmlns="http://www.w3.org/2000/svg" xmlns:xlink="http://www.w3.org/1999/xlink" width="22pt" height="31pt" viewBox="0 0 22 31" version="1.1">
<defs>
<clipPath id="clip1">
  <path d="M 0.0585938 0.59375 L 21 0.59375 L 21 30.59375 L 0.0585938 30.59375 L 0.0585938 0.59375 Z M 0.0585938 0.59375 "/>
</clipPath>
<clipPath id="clip2">
  <path d="M 0.0585938 0.59375 L 21 0.59375 L 21 30.59375 L 0.0585938 30.59375 L 0.0585938 0.59375 Z M 0.0585938 0.59375 "/>
</clipPath>
<clipPath id="clip3">
  <path d="M 0.0585938 0.59375 L 21 0.59375 L 21 30.59375 L 0.0585938 30.59375 L 0.0585938 0.59375 Z M 0.0585938 0.59375 "/>
</clipPath>
<clipPath id="clip4">
  <path d="M 0.0585938 0.59375 L 21 0.59375 L 21 30.59375 L 0.0585938 30.59375 L 0.0585938 0.59375 Z M 0.0585938 0.59375 "/>
</clipPath>
</defs>
<g id="surface0">
<path style=" stroke:none;fill-rule:nonzero;fill:#0065A2;fill-opacity:1;" d="M 0.484375 5.988281 L 15.871094 5.988281 L 15.871094 30.515625 L 0.484375 30.515625 L 0.484375 5.988281 Z M 0.484375 5.988281 "/>
<g clip-path="url(#clip1)" clip-rule="nonzero">
<path style="fill:none;stroke-width:0.4;stroke-linecap:butt;stroke-linejoin:miter;stroke:#FFFFFF;stroke-opacity:1;stroke-miterlimit:4;" d="M 15.871094 25.011719 L 0.484375 25.011719 L 0.484375 0.484375 L 15.871094 0.484375 " transform="matrix(1,0,0,-1,0,31)"/>
</g>
<path style=" stroke:none;fill-rule:nonzero;fill:#0065A2;fill-opacity:1;" d="M 20.785156 1.074219 L 5.398438 1.074219 L 0.484375 5.988281 L 15.871094 5.988281 L 20.785156 1.074219 "/>
<g clip-path="url(#clip2)" clip-rule="nonzero">
<path style="fill:none;stroke-width:0.4;stroke-linecap:butt;stroke-linejoin:miter;stroke:#FFFFFF;stroke-opacity:1;stroke-miterlimit:4;" d="M 20.785156 29.925781 L 5.398438 29.925781 L 0.484375 25.011719 L 15.871094 25.011719 L 20.785156 29.925781 Z M 20.785156 29.925781 " transform="matrix(1,0,0,-1,0,31)"/>
</g>
<path style=" stroke:none;fill-rule:nonzero;fill:#0065A2;fill-opacity:1;" d="M 15.871094 5.988281 L 15.871094 30.515625 L 20.785156 25.601562 L 20.785156 1.074219 L 15.871094 5.988281 "/>
<g clip-path="url(#clip3)" clip-rule="nonzero">
<path style="fill:none;stroke-width:0.4;stroke-linecap:butt;stroke-linejoin:miter;stroke:#FFFFFF;stroke-opacity:1;stroke-miterlimit:4;" d="M 15.871094 25.011719 L 15.871094 0.484375 L 20.785156 5.398438 L 20.785156 29.925781 L 15.871094 25.011719 Z M 15.871094 25.011719 " transform="matrix(1,0,0,-1,0,31)"/>
</g>
<path style=" stroke:none;fill-rule:nonzero;fill:#0065A2;fill-opacity:1;" d="M 15.871094 5.988281 L 20.785156 1.074219 "/>
<g clip-path="url(#clip4)" clip-rule="nonzero">
<path style="fill:none;stroke-width:0.4;stroke-linecap:butt;stroke-linejoin:miter;stroke:#FFFFFF;stroke-opacity:1;stroke-miterlimit:4;" d="M 15.871094 25.011719 L 20.785156 29.925781 " transform="matrix(1,0,0,-1,0,31)"/>
<path style="fill:none;stroke-width:0.4;stroke-linecap:butt;stroke-linejoin:miter;stroke:#FFFFFF;stroke-opacity:1;stroke-miterlimit:4;" d="M 0.730469 15.445312 L 15.730469 15.445312 M 0.730469 4.195312 L 15.730469 4.195312 M 4.230469 21.210938 L 8.605469 21.210938 M 2.480469 19.699219 L 10.230469 19.699219 L 10.230469 22.835938 L 2.480469 22.835938 L 2.480469 19.699219 Z M 2.480469 19.699219 " transform="matrix(1,0,0,-1,0,31)"/>
</g>
<path style=" stroke:none;fill-rule:nonzero;fill:#FFFFFF;fill-opacity:1;" d="M 5.617188 26.210938 L 5.289062 14.835938 L 13.578125 11.664062 L 13.742188 24.585938 L 13.253906 24.585938 L 12.6875 17.273438 L 6.023438 19.628906 L 6.023438 26.128906 L 5.617188 26.210938 "/>
<path style=" stroke:none;fill-rule:nonzero;fill:#FFFFFF;fill-opacity:1;" d="M 13.699219 24.855469 C 13.746094 25.640625 12.785156 26.335938 11.554688 26.40625 C 10.320312 26.480469 9.285156 25.90625 9.238281 25.121094 C 9.191406 24.335938 10.152344 23.644531 11.382812 23.570312 C 12.617188 23.496094 13.652344 24.070312 13.699219 24.855469 "/>
<path style=" stroke:none;fill-rule:nonzero;fill:#FFFFFF;fill-opacity:1;" d="M 6.015625 26.5625 C 6.0625 27.347656 5.101562 28.039062 3.871094 28.113281 C 2.636719 28.1875 1.601562 27.613281 1.554688 26.828125 C 1.507812 26.042969 2.46875 25.347656 3.703125 25.277344 C 4.933594 25.203125 5.96875 25.777344 6.015625 26.5625 "/>
<path style=" stroke:none;fill-rule:nonzero;fill:#808080;fill-opacity:1;" d="M 12.578125 16.101562 L 6.238281 18.296875 L 6.238281 17.078125 L 12.578125 14.882812 L 12.578125 16.101562 "/>
</g>
</svg>
