<?xml version="1.0" encoding="UTF-8"?>
<svg xmlns="http://www.w3.org/2000/svg" xmlns:xlink="http://www.w3.org/1999/xlink" width="44pt" height="31pt" viewBox="0 0 44 31" version="1.1">
<defs>
<clipPath id="clip1">
  <path d="M 0.0585938 0.265625 L 43 0.265625 L 43 30.941406 L 0.0585938 30.941406 L 0.0585938 0.265625 Z M 0.0585938 0.265625 "/>
</clipPath>
<clipPath id="clip2">
  <path d="M 0.0585938 0.265625 L 43 0.265625 L 43 30.941406 L 0.0585938 30.941406 L 0.0585938 0.265625 Z M 0.0585938 0.265625 "/>
</clipPath>
<clipPath id="clip3">
  <path d="M 0.0585938 0.265625 L 43 0.265625 L 43 30.941406 L 0.0585938 30.941406 L 0.0585938 0.265625 Z M 0.0585938 0.265625 "/>
</clipPath>
<clipPath id="clip4">
  <path d="M 0.0585938 0.265625 L 43 0.265625 L 43 30.941406 L 0.0585938 30.941406 L 0.0585938 0.265625 Z M 0.0585938 0.265625 "/>
</clipPath>
<clipPath id="clip5">
  <path d="M 0.0585938 0.265625 L 43 0.265625 L 43 30.941406 L 0.0585938 30.941406 L 0.0585938 0.265625 Z M 0.0585938 0.265625 "/>
</clipPath>
<clipPath id="clip6">
  <path d="M 0.0585938 0.265625 L 43 0.265625 L 43 30.941406 L 0.0585938 30.941406 L 0.0585938 0.265625 Z M 0.0585938 0.265625 "/>
</clipPath>
<clipPath id="clip7">
  <path d="M 0.0585938 0.265625 L 43 0.265625 L 43 30.941406 L 0.0585938 30.941406 L 0.0585938 0.265625 Z M 0.0585938 0.265625 "/>
</clipPath>
<clipPath id="clip8">
  <path d="M 0.0585938 0.265625 L 43 0.265625 L 43 30.941406 L 0.0585938 30.941406 L 0.0585938 0.265625 Z M 0.0585938 0.265625 "/>
</clipPath>
<clipPath id="clip9">
  <path d="M 0.0585938 0.265625 L 43 0.265625 L 43 30.941406 L 0.0585938 30.941406 L 0.0585938 0.265625 Z M 0.0585938 0.265625 "/>
</clipPath>
<clipPath id="clip10">
  <path d="M 0.0585938 0.265625 L 43 0.265625 L 43 30.941406 L 0.0585938 30.941406 L 0.0585938 0.265625 Z M 0.0585938 0.265625 "/>
</clipPath>
<clipPath id="clip11">
  <path d="M 0.0585938 0.265625 L 43 0.265625 L 43 30.941406 L 0.0585938 30.941406 L 0.0585938 0.265625 Z M 0.0585938 0.265625 "/>
</clipPath>
</defs>
<g id="surface0">
<path style=" stroke:none;fill-rule:nonzero;fill:#008998;fill-opacity:1;" d="M 9.332031 2.066406 L 0.695312 2.066406 L 0.695312 26.578125 L 8.832031 26.507812 "/>
<g clip-path="url(#clip1)" clip-rule="nonzero">
<path style="fill:none;stroke-width:0.4;stroke-linecap:butt;stroke-linejoin:miter;stroke:#FFFFFF;stroke-opacity:1;stroke-miterlimit:4;" d="M 9.332031 28.933594 L 0.695312 28.933594 L 0.695312 4.421875 L 8.832031 4.492188 " transform="matrix(1,0,0,-1,0,31)"/>
</g>
<path style=" stroke:none;fill-rule:nonzero;fill:#008998;fill-opacity:1;" d="M 8.832031 2.066406 L 8.832031 26.578125 L 9.496094 26.082031 L 9.496094 1.902344 L 8.832031 2.066406 "/>
<path style="fill:none;stroke-width:0.4;stroke-linecap:butt;stroke-linejoin:miter;stroke:#FFFFFF;stroke-opacity:1;stroke-miterlimit:4;" d="M 8.832031 28.933594 L 8.832031 4.421875 L 9.496094 4.917969 L 9.496094 29.097656 L 8.832031 28.933594 Z M 8.832031 28.933594 " transform="matrix(1,0,0,-1,0,31)"/>
<path style=" stroke:none;fill-rule:nonzero;fill:#008998;fill-opacity:1;" d="M 11.25 2.023438 L 11.25 26.320312 L 14.996094 23.070312 L 14.996094 0.558594 L 11.25 2.023438 "/>
<g clip-path="url(#clip2)" clip-rule="nonzero">
<path style="fill:none;stroke-width:0.4;stroke-linecap:butt;stroke-linejoin:miter;stroke:#FFFFFF;stroke-opacity:1;stroke-miterlimit:4;" d="M 11.25 28.976562 L 11.25 4.679688 L 14.996094 7.929688 L 14.996094 30.441406 L 11.25 28.976562 Z M 11.25 28.976562 " transform="matrix(1,0,0,-1,0,31)"/>
</g>
<path style="fill-rule:nonzero;fill:#008998;fill-opacity:1;stroke-width:0.4;stroke-linecap:butt;stroke-linejoin:miter;stroke:#FFFFFF;stroke-opacity:1;stroke-miterlimit:4;" d="M 8.050781 27.425781 L 1.175781 27.425781 " transform="matrix(1,0,0,-1,0,31)"/>
<path style="fill-rule:nonzero;fill:#008998;fill-opacity:1;stroke-width:0.4;stroke-linecap:butt;stroke-linejoin:miter;stroke:#FFFFFF;stroke-opacity:1;stroke-miterlimit:4;" d="M 7.386719 24.925781 L 1.761719 24.925781 " transform="matrix(1,0,0,-1,0,31)"/>
<path style=" stroke:none;fill-rule:nonzero;fill:#008998;fill-opacity:1;" d="M 9.445312 1.949219 L 11.167969 1.949219 L 11.167969 26.246094 L 9.445312 26.246094 L 9.445312 1.949219 Z M 9.445312 1.949219 "/>
<path style="fill:none;stroke-width:0.4;stroke-linecap:butt;stroke-linejoin:miter;stroke:#FFFFFF;stroke-opacity:1;stroke-miterlimit:4;" d="M 11.167969 29.050781 L 9.445312 29.050781 L 9.445312 4.753906 L 11.167969 4.753906 " transform="matrix(1,0,0,-1,0,31)"/>
<path style=" stroke:none;fill-rule:nonzero;fill:#008998;fill-opacity:1;" d="M 0.28125 4.78125 L 8.867188 4.78125 "/>
<g clip-path="url(#clip3)" clip-rule="nonzero">
<path style="fill:none;stroke-width:0.4;stroke-linecap:butt;stroke-linejoin:miter;stroke:#FFFFFF;stroke-opacity:1;stroke-miterlimit:4;" d="M 0.28125 26.21875 L 8.867188 26.21875 " transform="matrix(1,0,0,-1,0,31)"/>
</g>
<path style=" stroke:none;fill-rule:nonzero;fill:#008998;fill-opacity:1;" d="M 0.28125 7.199219 L 8.867188 7.199219 "/>
<g clip-path="url(#clip4)" clip-rule="nonzero">
<path style="fill:none;stroke-width:0.4;stroke-linecap:butt;stroke-linejoin:miter;stroke:#FFFFFF;stroke-opacity:1;stroke-miterlimit:4;" d="M 0.28125 23.800781 L 8.867188 23.800781 " transform="matrix(1,0,0,-1,0,31)"/>
</g>
<path style=" stroke:none;fill-rule:nonzero;fill:#008998;fill-opacity:1;" d="M 10.367188 23.601562 C 10.53125 23.601562 10.660156 23.46875 10.660156 23.308594 C 10.660156 23.148438 10.53125 23.019531 10.367188 23.019531 C 10.207031 23.019531 10.078125 23.148438 10.078125 23.308594 C 10.078125 23.46875 10.207031 23.601562 10.367188 23.601562 "/>
<path style="fill:none;stroke-width:0.4;stroke-linecap:butt;stroke-linejoin:miter;stroke:#FFFFFF;stroke-opacity:1;stroke-miterlimit:4;" d="M 10.367188 7.398438 C 10.53125 7.398438 10.660156 7.53125 10.660156 7.691406 C 10.660156 7.851562 10.53125 7.980469 10.367188 7.980469 C 10.207031 7.980469 10.078125 7.851562 10.078125 7.691406 C 10.078125 7.53125 10.207031 7.398438 10.367188 7.398438 Z M 10.367188 7.398438 " transform="matrix(1,0,0,-1,0,31)"/>
<path style=" stroke:none;fill-rule:nonzero;fill:#008998;fill-opacity:1;" d="M 10.367188 25.59375 C 10.53125 25.59375 10.660156 25.464844 10.660156 25.304688 C 10.660156 25.144531 10.53125 25.011719 10.367188 25.011719 C 10.207031 25.011719 10.078125 25.144531 10.078125 25.304688 C 10.078125 25.464844 10.207031 25.59375 10.367188 25.59375 "/>
<path style="fill:none;stroke-width:0.4;stroke-linecap:butt;stroke-linejoin:miter;stroke:#FFFFFF;stroke-opacity:1;stroke-miterlimit:4;" d="M 10.367188 5.40625 C 10.53125 5.40625 10.660156 5.535156 10.660156 5.695312 C 10.660156 5.855469 10.53125 5.988281 10.367188 5.988281 C 10.207031 5.988281 10.078125 5.855469 10.078125 5.695312 C 10.078125 5.535156 10.207031 5.40625 10.367188 5.40625 Z M 10.367188 5.40625 " transform="matrix(1,0,0,-1,0,31)"/>
<g clip-path="url(#clip5)" clip-rule="nonzero">
<path style=" stroke:none;fill-rule:nonzero;fill:#008998;fill-opacity:1;" d="M 11.46875 1.964844 L 15.277344 0.476562 L 6.464844 0.476562 L 0.0507812 2.140625 L 8.6875 2.140625 L 9.230469 2.035156 L 11.46875 1.964844 "/>
<path style="fill:none;stroke-width:0.4;stroke-linecap:butt;stroke-linejoin:miter;stroke:#FFFFFF;stroke-opacity:1;stroke-miterlimit:4;" d="M 11.46875 29.035156 L 15.277344 30.523438 L 6.464844 30.523438 L 0.0507812 28.859375 L 8.6875 28.859375 L 9.230469 28.964844 L 11.46875 29.035156 Z M 11.46875 29.035156 " transform="matrix(1,0,0,-1,0,31)"/>
</g>
<path style="fill-rule:nonzero;fill:#008998;fill-opacity:1;stroke-width:0.4;stroke-linecap:butt;stroke-linejoin:miter;stroke:#FFFFFF;stroke-opacity:1;stroke-miterlimit:4;" d="M 36.863281 10.308594 L 13.976562 10.308594 " transform="matrix(1,0,0,-1,0,31)"/>
<path style=" stroke:none;fill-rule:nonzero;fill:#008998;fill-opacity:1;" d="M 13.976562 3.371094 L 36.832031 3.371094 L 36.832031 20.605469 L 13.976562 20.605469 L 13.976562 3.371094 Z M 13.976562 3.371094 "/>
<path style="fill:none;stroke-width:0.4;stroke-linecap:butt;stroke-linejoin:miter;stroke:#FFFFFF;stroke-opacity:1;stroke-miterlimit:4;" d="M 36.832031 10.394531 L 36.832031 27.628906 L 13.976562 27.628906 L 13.976562 10.394531 " transform="matrix(1,0,0,-1,0,31)"/>
<path style=" stroke:none;fill-rule:nonzero;fill:#008998;fill-opacity:1;" d="M 36.832031 20.667969 L 39.484375 15.953125 L 39.484375 0.847656 L 22.75 0.847656 L 13.976562 3.371094 L 36.832031 3.371094 L 36.832031 20.667969 "/>
<g clip-path="url(#clip6)" clip-rule="nonzero">
<path style="fill:none;stroke-width:0.4;stroke-linecap:butt;stroke-linejoin:miter;stroke:#FFFFFF;stroke-opacity:1;stroke-miterlimit:4;" d="M 36.832031 10.332031 L 39.484375 15.046875 L 39.484375 30.152344 L 22.75 30.152344 L 13.976562 27.628906 L 36.832031 27.628906 L 36.832031 10.332031 Z M 36.832031 10.332031 " transform="matrix(1,0,0,-1,0,31)"/>
</g>
<path style=" stroke:none;fill-rule:nonzero;fill:#008998;fill-opacity:1;" d="M 15.972656 5.367188 L 34.839844 5.367188 L 34.839844 18.609375 L 15.972656 18.609375 L 15.972656 5.367188 Z M 15.972656 5.367188 "/>
<path style="fill:none;stroke-width:0.4;stroke-linecap:butt;stroke-linejoin:miter;stroke:#FFFFFF;stroke-opacity:1;stroke-miterlimit:4;" d="M 15.972656 12.390625 L 34.839844 12.390625 L 34.839844 25.632812 L 15.972656 25.632812 L 15.972656 12.390625 Z M 15.972656 12.390625 " transform="matrix(1,0,0,-1,0,31)"/>
<path style=" stroke:none;fill-rule:nonzero;fill:#008998;fill-opacity:1;" d="M 36.832031 3.371094 L 39.484375 0.847656 "/>
<g clip-path="url(#clip7)" clip-rule="nonzero">
<path style="fill:none;stroke-width:0.4;stroke-linecap:butt;stroke-linejoin:miter;stroke:#FFFFFF;stroke-opacity:1;stroke-miterlimit:4;" d="M 36.832031 27.628906 L 39.484375 30.152344 " transform="matrix(1,0,0,-1,0,31)"/>
</g>
<path style=" stroke:none;fill-rule:nonzero;fill:#008998;fill-opacity:1;" d="M 35.359375 30.472656 L 35.359375 27.9375 L 9.054688 27.9375 L 13.421875 24.945312 L 38.351562 24.945312 L 38.351562 27.105469 L 35.359375 30.472656 "/>
<g clip-path="url(#clip8)" clip-rule="nonzero">
<path style="fill:none;stroke-width:0.4;stroke-linecap:butt;stroke-linejoin:miter;stroke:#FFFFFF;stroke-opacity:1;stroke-miterlimit:4;" d="M 35.359375 0.527344 L 35.359375 3.0625 L 9.054688 3.0625 L 13.421875 6.054688 L 38.351562 6.054688 L 38.351562 3.894531 L 35.359375 0.527344 Z M 35.359375 0.527344 " transform="matrix(1,0,0,-1,0,31)"/>
</g>
<path style=" stroke:none;fill-rule:nonzero;fill:#008998;fill-opacity:1;" d="M 9.054688 27.9375 L 35.359375 27.9375 L 35.359375 30.472656 L 9.054688 30.472656 L 9.054688 27.9375 Z M 9.054688 27.9375 "/>
<g clip-path="url(#clip9)" clip-rule="nonzero">
<path style="fill:none;stroke-width:0.4;stroke-linecap:butt;stroke-linejoin:miter;stroke:#FFFFFF;stroke-opacity:1;stroke-miterlimit:4;" d="M 9.054688 3.0625 L 35.359375 3.0625 L 35.359375 0.527344 L 9.054688 0.527344 L 9.054688 3.0625 Z M 9.054688 3.0625 " transform="matrix(1,0,0,-1,0,31)"/>
</g>
<path style="fill-rule:nonzero;fill:#008998;fill-opacity:1;stroke-width:0.4;stroke-linecap:butt;stroke-linejoin:miter;stroke:#FFFFFF;stroke-opacity:1;stroke-miterlimit:4;" d="M 35.359375 3.0625 L 38.351562 6.054688 " transform="matrix(1,0,0,-1,0,31)"/>
<path style=" stroke:none;fill-rule:nonzero;fill:#008998;fill-opacity:1;" d="M 37.007812 29.253906 L 36.601562 30.46875 L 41.007812 30.46875 L 40.804688 29.253906 "/>
<g clip-path="url(#clip10)" clip-rule="nonzero">
<path style="fill:none;stroke-width:0.4;stroke-linecap:butt;stroke-linejoin:miter;stroke:#FFFFFF;stroke-opacity:1;stroke-miterlimit:4;" d="M 37.007812 1.746094 L 36.601562 0.53125 L 41.007812 0.53125 L 40.804688 1.746094 " transform="matrix(1,0,0,-1,0,31)"/>
</g>
<path style=" stroke:none;fill-rule:nonzero;fill:#008998;fill-opacity:1;" d="M 40.804688 29.253906 L 40.703125 27.632812 L 38.78125 27.632812 L 36.957031 29.253906 L 40.804688 29.253906 "/>
<path style="fill:none;stroke-width:0.4;stroke-linecap:butt;stroke-linejoin:miter;stroke:#FFFFFF;stroke-opacity:1;stroke-miterlimit:4;" d="M 40.804688 1.746094 L 40.703125 3.367188 L 38.78125 3.367188 L 36.957031 1.746094 L 40.804688 1.746094 Z M 40.804688 1.746094 " transform="matrix(1,0,0,-1,0,31)"/>
<path style="fill-rule:nonzero;fill:#008998;fill-opacity:1;stroke-width:0.4;stroke-linecap:butt;stroke-linejoin:miter;stroke:#FFFFFF;stroke-opacity:1;stroke-miterlimit:4;" d="M 33.210938 8.320312 L 34.148438 6.132812 L 36.773438 9.007812 L 36.460938 10.070312 " transform="matrix(1,0,0,-1,0,31)"/>
<path style=" stroke:none;fill-rule:nonzero;fill:#008998;fill-opacity:1;" d="M 33.210938 22.679688 L 36.835938 20.679688 L 13.960938 20.679688 L 19.023438 22.679688 L 33.210938 22.679688 "/>
<path style="fill:none;stroke-width:0.4;stroke-linecap:butt;stroke-linejoin:miter;stroke:#FFFFFF;stroke-opacity:1;stroke-miterlimit:4;" d="M 33.210938 8.320312 L 36.835938 10.320312 L 13.960938 10.320312 L 19.023438 8.320312 L 33.210938 8.320312 Z M 33.210938 8.320312 " transform="matrix(1,0,0,-1,0,31)"/>
<path style=" stroke:none;fill-rule:nonzero;fill:#008998;fill-opacity:1;" d="M 34.210938 24.929688 L 33.210938 22.679688 L 19.023438 22.679688 L 17.710938 24.929688 L 34.210938 24.929688 "/>
<g clip-path="url(#clip11)" clip-rule="nonzero">
<path style="fill:none;stroke-width:0.4;stroke-linecap:butt;stroke-linejoin:miter;stroke:#FFFFFF;stroke-opacity:1;stroke-miterlimit:4;" d="M 34.210938 6.070312 L 33.210938 8.320312 L 19.023438 8.320312 L 17.710938 6.070312 L 34.210938 6.070312 Z M 34.210938 6.070312 " transform="matrix(1,0,0,-1,0,31)"/>
<path style="fill:none;stroke-width:0.4;stroke-linecap:butt;stroke-linejoin:miter;stroke:#008998;stroke-opacity:1;stroke-miterlimit:4;" d="M 39.847656 3.199219 C 40.257812 3.691406 38.03125 4.351562 40.535156 4.765625 C 42.132812 5.027344 46.976562 7.871094 35.621094 8.019531 " transform="matrix(1,0,0,-1,0,31)"/>
</g>
</g>
</svg>
