<?xml version="1.0" encoding="UTF-8"?>
<svg xmlns="http://www.w3.org/2000/svg" xmlns:xlink="http://www.w3.org/1999/xlink" width="24pt" height="12pt" viewBox="0 0 24 12" version="1.1">
<defs>
<clipPath id="clip1">
  <path d="M 0 0.84375 L 24 0.84375 L 24 11.84375 L 0 11.84375 L 0 0.84375 Z M 0 0.84375 "/>
</clipPath>
</defs>
<g id="surface0">
<g clip-path="url(#clip1)" clip-rule="nonzero">
<path style="fill:none;stroke-width:1.5;stroke-linecap:butt;stroke-linejoin:miter;stroke:#C0C0C0;stroke-opacity:1;stroke-miterlimit:4;" d="M 6.371094 5.046875 C 7.609375 5.046875 8.613281 6.050781 8.613281 7.285156 C 8.613281 8.523438 7.609375 9.523438 6.371094 9.523438 C 5.136719 9.523438 4.132812 8.523438 4.132812 7.285156 C 4.132812 6.050781 5.136719 5.046875 6.371094 5.046875 Z M 6.371094 0.691406 C 7.609375 0.691406 8.613281 1.695312 8.613281 2.933594 C 8.613281 4.167969 7.609375 5.171875 6.371094 5.171875 C 5.136719 5.171875 4.132812 4.167969 4.132812 2.933594 C 4.132812 1.695312 5.136719 0.691406 6.371094 0.691406 Z M 3.0625 3.34375 C 4.050781 3.34375 4.851562 4.148438 4.851562 5.136719 C 4.851562 6.125 4.050781 6.925781 3.0625 6.925781 C 2.070312 6.925781 1.269531 6.125 1.269531 5.136719 C 1.269531 4.148438 2.070312 3.34375 3.0625 3.34375 Z M 8.445312 8.660156 C 8.457031 7.828125 8.789062 7.078125 9.121094 6.328125 C 9.371094 5.742188 9.957031 5.242188 10.621094 4.992188 M 8.445312 1.410156 C 8.457031 2.242188 8.789062 2.992188 9.121094 3.742188 C 9.371094 4.328125 9.957031 4.828125 10.621094 5.078125 " transform="matrix(1,0,0,-1,0,12)"/>
<path style="fill:none;stroke-width:1.5;stroke-linecap:butt;stroke-linejoin:miter;stroke:#008998;stroke-opacity:1;stroke-miterlimit:4;" d="M 5.632812 5.984375 C 6.871094 5.984375 7.871094 6.988281 7.871094 8.222656 C 7.871094 9.460938 6.871094 10.460938 5.632812 10.460938 C 4.398438 10.460938 3.394531 9.460938 3.394531 8.222656 C 3.394531 6.988281 4.398438 5.984375 5.632812 5.984375 Z M 5.632812 1.628906 C 6.871094 1.628906 7.871094 2.632812 7.871094 3.867188 C 7.871094 5.105469 6.871094 6.109375 5.632812 6.109375 C 4.398438 6.109375 3.394531 5.105469 3.394531 3.867188 C 3.394531 2.632812 4.398438 1.628906 5.632812 1.628906 Z M 2.320312 4.28125 C 3.3125 4.28125 4.113281 5.085938 4.113281 6.074219 C 4.113281 7.0625 3.3125 7.863281 2.320312 7.863281 C 1.332031 7.863281 0.53125 7.0625 0.53125 6.074219 C 0.53125 5.085938 1.332031 4.28125 2.320312 4.28125 Z M 7.707031 9.597656 C 7.71875 8.765625 8.050781 8.015625 8.382812 7.265625 C 8.632812 6.683594 9.21875 6.183594 9.882812 5.933594 " transform="matrix(1,0,0,-1,0,12)"/>
</g>
<path style=" stroke:none;fill-rule:nonzero;fill:#C0C0C0;fill-opacity:1;" d="M 23.957031 8.316406 L 23.957031 5.984375 L 13.761719 5.984375 C 13.628906 5.429688 13.382812 5.058594 13.101562 5.058594 C 12.820312 5.058594 12.574219 5.429688 12.441406 5.984375 L 12.269531 5.984375 C 12.140625 5.40625 11.890625 5.015625 11.601562 5.015625 C 11.3125 5.015625 11.0625 5.40625 10.933594 5.984375 L 9.226562 5.984375 L 9.226562 7.902344 L 10.953125 7.902344 C 11.089844 8.433594 11.328125 8.785156 11.601562 8.785156 C 11.875 8.785156 12.113281 8.433594 12.25 7.902344 L 12.441406 7.902344 C 12.574219 8.457031 12.820312 8.828125 13.101562 8.828125 C 13.382812 8.828125 13.628906 8.457031 13.761719 7.902344 L 21.394531 7.902344 L 21.394531 11.632812 L 23.828125 11.632812 L 23.828125 10.714844 L 22.726562 10.714844 L 22.726562 10.066406 L 23.894531 10.066406 L 23.894531 9.152344 L 22.726562 9.152344 L 22.726562 8.316406 L 23.957031 8.316406 "/>
<path style=" stroke:none;fill-rule:nonzero;fill:#008998;fill-opacity:1;" d="M 23.21875 7.382812 L 23.21875 5.046875 L 13.019531 5.046875 C 12.886719 4.492188 12.644531 4.121094 12.363281 4.121094 C 12.082031 4.121094 11.835938 4.492188 11.703125 5.046875 L 11.53125 5.046875 C 11.398438 4.46875 11.148438 4.078125 10.863281 4.078125 C 10.574219 4.078125 10.324219 4.46875 10.191406 5.046875 L 8.488281 5.046875 L 8.488281 6.964844 L 10.214844 6.964844 C 10.347656 7.496094 10.589844 7.851562 10.863281 7.851562 C 11.136719 7.851562 11.375 7.496094 11.511719 6.964844 L 11.703125 6.964844 C 11.835938 7.519531 12.082031 7.890625 12.363281 7.890625 C 12.644531 7.890625 12.886719 7.519531 13.019531 6.964844 L 20.652344 6.964844 L 20.652344 10.691406 L 23.089844 10.691406 L 23.089844 9.777344 L 21.988281 9.777344 L 21.988281 9.132812 L 23.15625 9.132812 L 23.15625 8.214844 L 21.988281 8.214844 L 21.988281 7.382812 L 23.21875 7.382812 "/>
</g>
</svg>
