<?xml version="1.0" encoding="UTF-8"?>
<svg xmlns="http://www.w3.org/2000/svg" xmlns:xlink="http://www.w3.org/1999/xlink" width="33pt" height="19pt" viewBox="0 0 33 19" version="1.1">
<defs>
<clipPath id="clip1">
  <path d="M 0.0585938 0.746094 L 32.824219 0.746094 L 32.824219 18.746094 L 0.0585938 18.746094 L 0.0585938 0.746094 Z M 0.0585938 0.746094 "/>
</clipPath>
<clipPath id="clip2">
  <path d="M 0.0585938 0.746094 L 32.824219 0.746094 L 32.824219 18.746094 L 0.0585938 18.746094 L 0.0585938 0.746094 Z M 0.0585938 0.746094 "/>
</clipPath>
<clipPath id="clip3">
  <path d="M 0.0585938 0.746094 L 32.824219 0.746094 L 32.824219 18.746094 L 0.0585938 18.746094 L 0.0585938 0.746094 Z M 0.0585938 0.746094 "/>
</clipPath>
</defs>
<g id="surface0">
<path style=" stroke:none;fill-rule:nonzero;fill:#008998;fill-opacity:1;" d="M 32.289062 17.152344 L 32.289062 1.1875 L 30.691406 2.59375 L 30.691406 18.558594 L 32.289062 17.152344 "/>
<g clip-path="url(#clip1)" clip-rule="nonzero">
<path style="fill:none;stroke-width:0.4;stroke-linecap:butt;stroke-linejoin:miter;stroke:#FFFFFF;stroke-opacity:1;stroke-miterlimit:4;" d="M 32.289062 1.847656 L 32.289062 17.8125 L 30.691406 16.40625 L 30.691406 0.441406 L 32.289062 1.847656 Z M 32.289062 1.847656 " transform="matrix(1,0,0,-1,0,19)"/>
</g>
<path style=" stroke:none;fill-rule:nonzero;fill:#008998;fill-opacity:1;" d="M 0.53125 2.625 L 30.65625 2.625 L 30.65625 18.53125 L 0.53125 18.53125 L 0.53125 2.625 Z M 0.53125 2.625 "/>
<g clip-path="url(#clip2)" clip-rule="nonzero">
<path style="fill:none;stroke-width:0.4;stroke-linecap:butt;stroke-linejoin:miter;stroke:#FFFFFF;stroke-opacity:1;stroke-miterlimit:4;" d="M 0.53125 0.46875 L 30.65625 0.46875 L 30.65625 16.375 L 0.53125 16.375 L 0.53125 0.46875 Z M 0.53125 0.46875 " transform="matrix(1,0,0,-1,0,19)"/>
</g>
<path style=" stroke:none;fill-rule:nonzero;fill:#008998;fill-opacity:1;" d="M 2.367188 6.113281 C 2.367188 4.515625 4.023438 4.28125 4.023438 4.28125 C 4.023438 4.28125 21.339844 4.28125 22.875 4.28125 C 24.886719 4.28125 24.824219 6.171875 24.824219 6.171875 C 24.824219 6.171875 24.824219 13.976562 24.824219 15.101562 C 24.824219 16.226562 23.289062 16.699219 23.289062 16.699219 C 23.289062 16.699219 5.675781 16.699219 4.257812 16.699219 C 2.839844 16.699219 2.367188 15.21875 2.367188 15.21875 L 2.367188 6.113281 "/>
<path style="fill:none;stroke-width:0.4;stroke-linecap:butt;stroke-linejoin:miter;stroke:#FFFFFF;stroke-opacity:1;stroke-miterlimit:4;" d="M 2.367188 12.886719 C 2.367188 14.484375 4.023438 14.71875 4.023438 14.71875 C 4.023438 14.71875 21.339844 14.71875 22.875 14.71875 C 24.886719 14.71875 24.824219 12.828125 24.824219 12.828125 C 24.824219 12.828125 24.824219 5.023438 24.824219 3.898438 C 24.824219 2.773438 23.289062 2.300781 23.289062 2.300781 C 23.289062 2.300781 5.675781 2.300781 4.257812 2.300781 C 2.839844 2.300781 2.367188 3.78125 2.367188 3.78125 L 2.367188 12.886719 Z M 2.367188 12.886719 " transform="matrix(1,0,0,-1,0,19)"/>
<path style=" stroke:none;fill-rule:nonzero;fill:#008998;fill-opacity:1;" d="M 32.289062 1.195312 L 2.167969 1.195312 L 0.53125 2.625 L 30.652344 2.625 L 32.289062 1.195312 "/>
<g clip-path="url(#clip3)" clip-rule="nonzero">
<path style="fill:none;stroke-width:0.4;stroke-linecap:butt;stroke-linejoin:miter;stroke:#FFFFFF;stroke-opacity:1;stroke-miterlimit:4;" d="M 32.289062 17.804688 L 2.167969 17.804688 L 0.53125 16.375 L 30.652344 16.375 L 32.289062 17.804688 Z M 32.289062 17.804688 " transform="matrix(1,0,0,-1,0,19)"/>
</g>
<path style=" stroke:none;fill-rule:nonzero;fill:#008998;fill-opacity:1;" d="M 28.523438 5.902344 C 28.523438 6.15625 28.152344 6.359375 27.691406 6.359375 C 27.230469 6.359375 26.859375 6.15625 26.859375 5.902344 C 26.859375 5.648438 27.230469 5.445312 27.691406 5.445312 C 28.152344 5.445312 28.523438 5.648438 28.523438 5.902344 "/>
<path style="fill:none;stroke-width:0.4;stroke-linecap:butt;stroke-linejoin:miter;stroke:#FFFFFF;stroke-opacity:1;stroke-miterlimit:4;" d="M 28.523438 13.097656 C 28.523438 12.84375 28.152344 12.640625 27.691406 12.640625 C 27.230469 12.640625 26.859375 12.84375 26.859375 13.097656 C 26.859375 13.351562 27.230469 13.554688 27.691406 13.554688 C 28.152344 13.554688 28.523438 13.351562 28.523438 13.097656 Z M 28.523438 13.097656 " transform="matrix(1,0,0,-1,0,19)"/>
<path style=" stroke:none;fill-rule:nonzero;fill:#008998;fill-opacity:1;" d="M 28.523438 9.234375 C 28.523438 9.488281 28.152344 9.695312 27.691406 9.695312 C 27.230469 9.695312 26.859375 9.488281 26.859375 9.234375 C 26.859375 8.980469 27.230469 8.777344 27.691406 8.777344 C 28.152344 8.777344 28.523438 8.980469 28.523438 9.234375 "/>
<path style="fill:none;stroke-width:0.4;stroke-linecap:butt;stroke-linejoin:miter;stroke:#FFFFFF;stroke-opacity:1;stroke-miterlimit:4;" d="M 28.523438 9.765625 C 28.523438 9.511719 28.152344 9.304688 27.691406 9.304688 C 27.230469 9.304688 26.859375 9.511719 26.859375 9.765625 C 26.859375 10.019531 27.230469 10.222656 27.691406 10.222656 C 28.152344 10.222656 28.523438 10.019531 28.523438 9.765625 Z M 28.523438 9.765625 " transform="matrix(1,0,0,-1,0,19)"/>
<path style=" stroke:none;fill-rule:nonzero;fill:#008998;fill-opacity:1;" d="M 28.523438 12.570312 C 28.523438 12.820312 28.152344 13.027344 27.691406 13.027344 C 27.230469 13.027344 26.859375 12.820312 26.859375 12.570312 C 26.859375 12.316406 27.230469 12.109375 27.691406 12.109375 C 28.152344 12.109375 28.523438 12.316406 28.523438 12.570312 "/>
<path style="fill:none;stroke-width:0.4;stroke-linecap:butt;stroke-linejoin:miter;stroke:#FFFFFF;stroke-opacity:1;stroke-miterlimit:4;" d="M 28.523438 6.429688 C 28.523438 6.179688 28.152344 5.972656 27.691406 5.972656 C 27.230469 5.972656 26.859375 6.179688 26.859375 6.429688 C 26.859375 6.683594 27.230469 6.890625 27.691406 6.890625 C 28.152344 6.890625 28.523438 6.683594 28.523438 6.429688 Z M 28.523438 6.429688 " transform="matrix(1,0,0,-1,0,19)"/>
<path style=" stroke:none;fill-rule:nonzero;fill:#008998;fill-opacity:1;" d="M 28.523438 15.902344 C 28.523438 16.15625 28.152344 16.359375 27.691406 16.359375 C 27.230469 16.359375 26.859375 16.15625 26.859375 15.902344 C 26.859375 15.648438 27.230469 15.441406 27.691406 15.441406 C 28.152344 15.441406 28.523438 15.648438 28.523438 15.902344 "/>
<path style="fill:none;stroke-width:0.4;stroke-linecap:butt;stroke-linejoin:miter;stroke:#FFFFFF;stroke-opacity:1;stroke-miterlimit:4;" d="M 28.523438 3.097656 C 28.523438 2.84375 28.152344 2.640625 27.691406 2.640625 C 27.230469 2.640625 26.859375 2.84375 26.859375 3.097656 C 26.859375 3.351562 27.230469 3.558594 27.691406 3.558594 C 28.152344 3.558594 28.523438 3.351562 28.523438 3.097656 Z M 28.523438 3.097656 " transform="matrix(1,0,0,-1,0,19)"/>
</g>
</svg>
