<?xml version="1.0" encoding="UTF-8"?>
<svg xmlns="http://www.w3.org/2000/svg" xmlns:xlink="http://www.w3.org/1999/xlink" width="36pt" height="18pt" viewBox="0 0 36 18" version="1.1">
<defs>
<clipPath id="clip1">
  <path d="M 0 0.238281 L 35.511719 0.238281 L 35.511719 17.941406 L 0 17.941406 L 0 0.238281 Z M 0 0.238281 "/>
</clipPath>
<clipPath id="clip2">
  <path d="M 0 0.238281 L 35.511719 0.238281 L 35.511719 17.941406 L 0 17.941406 L 0 0.238281 Z M 0 0.238281 "/>
</clipPath>
<clipPath id="clip3">
  <path d="M 0 0.238281 L 35.511719 0.238281 L 35.511719 17.941406 L 0 17.941406 L 0 0.238281 Z M 0 0.238281 "/>
</clipPath>
</defs>
<g id="surface0">
<path style=" stroke:none;fill-rule:nonzero;fill:#008998;fill-opacity:1;" d="M 0.566406 9.121094 L 10.980469 0.699219 L 35.019531 0.699219 L 26.402344 9.121094 L 0.566406 9.121094 "/>
<g clip-path="url(#clip1)" clip-rule="nonzero">
<path style="fill:none;stroke-width:0.4;stroke-linecap:butt;stroke-linejoin:miter;stroke:#FFFFFF;stroke-opacity:1;stroke-miterlimit:4;" d="M 0.566406 8.878906 L 10.980469 17.300781 L 35.019531 17.300781 L 26.402344 8.878906 L 0.566406 8.878906 Z M 0.566406 8.878906 " transform="matrix(1,0,0,-1,0,18)"/>
</g>
<path style=" stroke:none;fill-rule:nonzero;fill:#008998;fill-opacity:1;" d="M 26.402344 17.488281 L 35.019531 8.183594 L 35.019531 0.714844 L 26.402344 9.121094 L 26.402344 17.488281 "/>
<g clip-path="url(#clip2)" clip-rule="nonzero">
<path style="fill:none;stroke-width:0.4;stroke-linecap:butt;stroke-linejoin:miter;stroke:#FFFFFF;stroke-opacity:1;stroke-miterlimit:4;" d="M 26.402344 0.511719 L 35.019531 9.816406 L 35.019531 17.285156 L 26.402344 8.878906 L 26.402344 0.511719 Z M 26.402344 0.511719 " transform="matrix(1,0,0,-1,0,18)"/>
</g>
<path style=" stroke:none;fill-rule:nonzero;fill:#008998;fill-opacity:1;" d="M 0.601562 9.121094 L 26.402344 9.121094 L 26.402344 17.496094 L 0.601562 17.496094 L 0.601562 9.121094 Z M 0.601562 9.121094 "/>
<g clip-path="url(#clip3)" clip-rule="nonzero">
<path style="fill:none;stroke-width:0.4;stroke-linecap:butt;stroke-linejoin:miter;stroke:#FFFFFF;stroke-opacity:1;stroke-miterlimit:4;" d="M 0.601562 0.503906 L 26.402344 0.503906 L 26.402344 8.882812 L 0.601562 8.882812 L 0.601562 0.503906 Z M 0.601562 0.503906 " transform="matrix(1,0,0,-1,0,18)"/>
</g>
<path style=" stroke:none;fill-rule:nonzero;fill:#FFFFFF;fill-opacity:1;" d="M 14.65625 13.761719 L 4.570312 13.769531 L 4.570312 12.535156 L 14.65625 12.53125 L 14.660156 10.613281 L 19.140625 13.148438 L 14.660156 15.6875 L 14.65625 13.761719 "/>
<path style="fill:none;stroke-width:0.398;stroke-linecap:butt;stroke-linejoin:miter;stroke:#FFFFFF;stroke-opacity:1;stroke-miterlimit:4;" d="M 14.65625 4.238281 L 4.570312 4.230469 L 4.570312 5.464844 L 14.65625 5.46875 L 14.660156 7.386719 L 19.140625 4.851562 L 14.660156 2.3125 L 14.65625 4.238281 Z M 14.65625 4.238281 " transform="matrix(1,0,0,-1,0,18)"/>
<path style="fill-rule:nonzero;fill:#FFFFFF;fill-opacity:1;stroke-width:0.398;stroke-linecap:butt;stroke-linejoin:miter;stroke:#FFFFFF;stroke-opacity:1;stroke-miterlimit:4;" d="M 5.679688 5.460938 L 5.675781 7.382812 L 1.191406 4.84375 L 5.675781 2.308594 L 5.679688 4.230469 " transform="matrix(1,0,0,-1,0,18)"/>
<path style=" stroke:none;fill-rule:nonzero;fill:#FFFFFF;fill-opacity:1;" d="M 25.285156 12.539062 L 25.28125 10.617188 L 20.796875 13.15625 L 25.28125 15.691406 L 25.285156 13.769531 L 25.285156 12.539062 "/>
<path style="fill:none;stroke-width:0.398;stroke-linecap:butt;stroke-linejoin:miter;stroke:#FFFFFF;stroke-opacity:1;stroke-miterlimit:4;" d="M 25.285156 5.460938 L 25.28125 7.382812 L 20.796875 4.84375 L 25.28125 2.308594 L 25.285156 4.230469 L 25.285156 5.460938 Z M 25.285156 5.460938 " transform="matrix(1,0,0,-1,0,18)"/>
</g>
</svg>
