<?xml version="1.0" encoding="UTF-8"?>
<svg xmlns="http://www.w3.org/2000/svg" xmlns:xlink="http://www.w3.org/1999/xlink" width="39pt" height="33pt" viewBox="0 0 39 33" version="1.1">
<defs>
<clipPath id="clip1">
  <path d="M 0.0585938 0.160156 L 38 0.160156 L 38 33 L 0.0585938 33 L 0.0585938 0.160156 Z M 0.0585938 0.160156 "/>
</clipPath>
<clipPath id="clip2">
  <path d="M 0.0585938 0.160156 L 38 0.160156 L 38 33 L 0.0585938 33 L 0.0585938 0.160156 Z M 0.0585938 0.160156 "/>
</clipPath>
<clipPath id="clip3">
  <path d="M 0.0585938 0.160156 L 38 0.160156 L 38 33 L 0.0585938 33 L 0.0585938 0.160156 Z M 0.0585938 0.160156 "/>
</clipPath>
<clipPath id="clip4">
  <path d="M 0.0585938 0.160156 L 38 0.160156 L 38 33 L 0.0585938 33 L 0.0585938 0.160156 Z M 0.0585938 0.160156 "/>
</clipPath>
<clipPath id="clip5">
  <path d="M 0.0585938 0.160156 L 38 0.160156 L 38 33 L 0.0585938 33 L 0.0585938 0.160156 Z M 0.0585938 0.160156 "/>
</clipPath>
<clipPath id="clip6">
  <path d="M 0.0585938 0.160156 L 38 0.160156 L 38 33 L 0.0585938 33 L 0.0585938 0.160156 Z M 0.0585938 0.160156 "/>
</clipPath>
<clipPath id="clip7">
  <path d="M 0.0585938 0.160156 L 38 0.160156 L 38 33 L 0.0585938 33 L 0.0585938 0.160156 Z M 0.0585938 0.160156 "/>
</clipPath>
</defs>
<g id="surface0">
<path style=" stroke:none;fill-rule:nonzero;fill:#202020;fill-opacity:1;" d="M 31.230469 18.8125 L 28.351562 22.652344 L 4.488281 22.652344 L 8.398438 18.746094 L 31.230469 18.8125 "/>
<path style="fill:none;stroke-width:0.4;stroke-linecap:butt;stroke-linejoin:miter;stroke:#FFFFFF;stroke-opacity:1;stroke-miterlimit:4;" d="M 31.230469 14.1875 L 28.351562 10.347656 L 4.488281 10.347656 L 8.398438 14.253906 L 31.230469 14.1875 Z M 31.230469 14.1875 " transform="matrix(1,0,0,-1,0,33)"/>
<path style="fill-rule:nonzero;fill:#008998;fill-opacity:1;stroke-width:0.4;stroke-linecap:butt;stroke-linejoin:miter;stroke:#FFFFFF;stroke-opacity:1;stroke-miterlimit:4;" d="M 4.429688 10.296875 L 27.328125 10.296875 L 27.328125 6.027344 L 4.429688 6.027344 L 4.429688 10.296875 Z M 4.429688 10.296875 " transform="matrix(1,0,0,-1,0,33)"/>
<path style="fill-rule:nonzero;fill:#008998;fill-opacity:1;stroke-width:0.4;stroke-linecap:butt;stroke-linejoin:miter;stroke:#FFFFFF;stroke-opacity:1;stroke-miterlimit:4;" d="M 4.355469 28.464844 L 27.175781 28.464844 L 27.175781 11.257812 L 4.355469 11.257812 L 4.355469 28.464844 Z M 4.355469 28.464844 " transform="matrix(1,0,0,-1,0,33)"/>
<path style=" stroke:none;fill-rule:nonzero;fill:#008998;fill-opacity:1;" d="M 27.175781 21.742188 L 31.070312 17.847656 L 31.070312 0.644531 L 27.175781 4.535156 L 27.175781 21.742188 "/>
<g clip-path="url(#clip1)" clip-rule="nonzero">
<path style="fill:none;stroke-width:0.4;stroke-linecap:butt;stroke-linejoin:miter;stroke:#FFFFFF;stroke-opacity:1;stroke-miterlimit:4;" d="M 27.175781 11.257812 L 31.070312 15.152344 L 31.070312 32.355469 L 27.175781 28.464844 L 27.175781 11.257812 Z M 27.175781 11.257812 " transform="matrix(1,0,0,-1,0,33)"/>
</g>
<path style=" stroke:none;fill-rule:nonzero;fill:#008998;fill-opacity:1;" d="M 35.796875 30.726562 L 37.542969 27.234375 L 33.550781 27.234375 L 31.804688 30.726562 L 35.796875 30.726562 "/>
<g clip-path="url(#clip2)" clip-rule="nonzero">
<path style="fill:none;stroke-width:0.4;stroke-linecap:butt;stroke-linejoin:miter;stroke:#FFFFFF;stroke-opacity:1;stroke-miterlimit:4;" d="M 35.796875 2.273438 L 37.542969 5.765625 L 33.550781 5.765625 L 31.804688 2.273438 L 35.796875 2.273438 Z M 35.796875 2.273438 " transform="matrix(1,0,0,-1,0,33)"/>
</g>
<path style="fill-rule:nonzero;fill:#008998;fill-opacity:1;stroke-width:0.4;stroke-linecap:butt;stroke-linejoin:miter;stroke:#FFFFFF;stroke-opacity:1;stroke-miterlimit:4;" d="M 31.804688 2.273438 L 35.796875 2.273438 L 35.796875 1.148438 L 31.804688 1.148438 L 31.804688 2.273438 Z M 31.804688 2.273438 " transform="matrix(1,0,0,-1,0,33)"/>
<path style=" stroke:none;fill-rule:nonzero;fill:#202020;fill-opacity:1;" d="M 35.765625 31.882812 L 35.777344 30.726562 L 37.523438 27.234375 L 37.515625 29.636719 L 35.765625 31.882812 "/>
<g clip-path="url(#clip3)" clip-rule="nonzero">
<path style="fill:none;stroke-width:0.4;stroke-linecap:butt;stroke-linejoin:miter;stroke:#FFFFFF;stroke-opacity:1;stroke-miterlimit:4;" d="M 35.765625 1.117188 L 35.777344 2.273438 L 37.523438 5.765625 L 37.515625 3.363281 L 35.765625 1.117188 Z M 35.765625 1.117188 " transform="matrix(1,0,0,-1,0,33)"/>
</g>
<path style=" stroke:none;fill-rule:nonzero;fill:#008998;fill-opacity:1;" d="M 27.3125 26.984375 L 27.3125 22.710938 L 31.179688 18.84375 L 31.179688 23.113281 L 27.3125 26.984375 "/>
<path style="fill:none;stroke-width:0.4;stroke-linecap:butt;stroke-linejoin:miter;stroke:#FFFFFF;stroke-opacity:1;stroke-miterlimit:4;" d="M 27.3125 6.015625 L 27.3125 10.289062 L 31.179688 14.15625 L 31.179688 9.886719 L 27.3125 6.015625 Z M 27.3125 6.015625 " transform="matrix(1,0,0,-1,0,33)"/>
<path style=" stroke:none;fill-rule:nonzero;fill:#008998;fill-opacity:1;" d="M 8.144531 6.519531 L 23.394531 6.519531 C 24.386719 6.519531 25.191406 7.324219 25.191406 8.316406 L 25.191406 17.949219 C 25.191406 18.941406 24.386719 19.746094 23.394531 19.746094 L 8.144531 19.746094 C 7.152344 19.746094 6.347656 18.941406 6.347656 17.949219 L 6.347656 8.316406 C 6.347656 7.324219 7.152344 6.519531 8.144531 6.519531 "/>
<path style="fill:none;stroke-width:0.4;stroke-linecap:butt;stroke-linejoin:miter;stroke:#FFFFFF;stroke-opacity:1;stroke-miterlimit:4;" d="M 8.144531 26.480469 L 23.394531 26.480469 C 24.386719 26.480469 25.191406 25.675781 25.191406 24.683594 L 25.191406 15.050781 C 25.191406 14.058594 24.386719 13.253906 23.394531 13.253906 L 8.144531 13.253906 C 7.152344 13.253906 6.347656 14.058594 6.347656 15.050781 L 6.347656 24.683594 C 6.347656 25.675781 7.152344 26.480469 8.144531 26.480469 Z M 8.144531 26.480469 " transform="matrix(1,0,0,-1,0,33)"/>
<path style=" stroke:none;fill-rule:nonzero;fill:#008998;fill-opacity:1;" d="M 31.070312 0.644531 L 8.875 0.644531 L 4.355469 4.535156 L 27.175781 4.535156 L 31.070312 0.644531 "/>
<g clip-path="url(#clip4)" clip-rule="nonzero">
<path style="fill:none;stroke-width:0.4;stroke-linecap:butt;stroke-linejoin:miter;stroke:#FFFFFF;stroke-opacity:1;stroke-miterlimit:4;" d="M 31.070312 32.355469 L 8.875 32.355469 L 4.355469 28.464844 L 27.175781 28.464844 L 31.070312 32.355469 Z M 31.070312 32.355469 " transform="matrix(1,0,0,-1,0,33)"/>
</g>
<path style=" stroke:none;fill-rule:nonzero;fill:#008998;fill-opacity:1;" d="M 26.652344 32.519531 L 26.652344 31.132812 L 29.640625 26.996094 L 29.640625 29.527344 L 26.652344 32.519531 "/>
<g clip-path="url(#clip5)" clip-rule="nonzero">
<path style="fill:none;stroke-width:0.4;stroke-linecap:butt;stroke-linejoin:miter;stroke:#FFFFFF;stroke-opacity:1;stroke-miterlimit:4;" d="M 26.652344 0.480469 L 26.652344 1.867188 L 29.640625 6.003906 L 29.640625 3.472656 L 26.652344 0.480469 Z M 26.652344 0.480469 " transform="matrix(1,0,0,-1,0,33)"/>
</g>
<path style=" stroke:none;fill-rule:nonzero;fill:#008998;fill-opacity:1;" d="M 26.652344 31.152344 L 0.390625 31.152344 L 3.378906 26.996094 L 29.640625 26.996094 L 26.652344 31.152344 "/>
<g clip-path="url(#clip6)" clip-rule="nonzero">
<path style="fill:none;stroke-width:0.4;stroke-linecap:butt;stroke-linejoin:miter;stroke:#FFFFFF;stroke-opacity:1;stroke-miterlimit:4;" d="M 26.652344 1.847656 L 0.390625 1.847656 L 3.378906 6.003906 L 29.640625 6.003906 L 26.652344 1.847656 Z M 26.652344 1.847656 " transform="matrix(1,0,0,-1,0,33)"/>
</g>
<path style=" stroke:none;fill-rule:nonzero;fill:#008998;fill-opacity:1;" d="M 0.375 31.152344 L 26.652344 31.152344 L 26.652344 32.515625 L 0.375 32.515625 L 0.375 31.152344 Z M 0.375 31.152344 "/>
<g clip-path="url(#clip7)" clip-rule="nonzero">
<path style="fill:none;stroke-width:0.4;stroke-linecap:butt;stroke-linejoin:miter;stroke:#FFFFFF;stroke-opacity:1;stroke-miterlimit:4;" d="M 0.375 1.847656 L 26.652344 1.847656 L 26.652344 0.484375 L 0.375 0.484375 L 0.375 1.847656 Z M 0.375 1.847656 " transform="matrix(1,0,0,-1,0,33)"/>
<path style="fill:none;stroke-width:0.5;stroke-linecap:butt;stroke-linejoin:miter;stroke:#008998;stroke-opacity:1;stroke-miterlimit:4;" d="M 36.546875 5.640625 C 39.667969 7.140625 37.171875 13.503906 30.953125 10.3125 " transform="matrix(1,0,0,-1,0,33)"/>
</g>
<path style=" stroke:none;fill-rule:nonzero;fill:#FFFFFF;fill-opacity:1;" d="M 15.304688 12.269531 L 16.136719 12.269531 L 16.328125 12.460938 L 16.96875 12.460938 L 17.679688 11.9375 L 18.453125 11.9375 L 19.109375 12.667969 L 19.839844 12.664062 L 20.636719 11.933594 L 21.304688 11.933594 L 21.878906 12.558594 L 22.539062 12.558594 L 22.789062 12.082031 L 24.71875 13.257812 L 23.367188 14.394531 L 15.308594 14.410156 L 15.308594 14.671875 L 14.050781 14.675781 C 13.734375 14.675781 13.464844 14.859375 13.339844 15.132812 C 12.742188 16.070312 11.699219 16.695312 10.507812 16.699219 C 8.652344 16.703125 7.144531 15.1875 7.144531 13.320312 C 7.144531 11.453125 8.652344 9.9375 10.507812 9.933594 C 11.683594 9.929688 12.71875 10.535156 13.316406 11.457031 C 13.433594 11.75 13.71875 11.953125 14.050781 11.953125 L 15.304688 11.953125 L 15.304688 12.269531 "/>
<path style="fill:none;stroke-width:0.35;stroke-linecap:butt;stroke-linejoin:round;stroke:#202020;stroke-opacity:1;stroke-miterlimit:4;" d="M 23.964844 19.152344 L 15.308594 19.140625 C 14.96875 19.136719 14.492188 19.046875 14.054688 18.859375 C 14.492188 18.679688 14.96875 18.589844 15.308594 18.589844 M 24.339844 19.941406 L 15.683594 19.929688 C 15.296875 19.925781 14.492188 20.003906 14.3125 20.078125 " transform="matrix(1,0,0,-1,0,33)"/>
<path style=" stroke:none;fill-rule:nonzero;fill:#FFFFFF;fill-opacity:1;" d="M 10.507812 16.335938 C 12.164062 16.332031 13.507812 14.976562 13.507812 13.3125 C 13.507812 11.644531 12.164062 10.292969 10.507812 10.296875 C 8.851562 10.300781 7.507812 11.652344 7.507812 13.320312 C 7.507812 14.988281 8.851562 16.339844 10.507812 16.335938 "/>
<path style="fill:none;stroke-width:0.25;stroke-linecap:butt;stroke-linejoin:round;stroke:#202020;stroke-opacity:1;stroke-miterlimit:4;" d="M 10.507812 16.664062 C 12.164062 16.667969 13.507812 18.023438 13.507812 19.6875 C 13.507812 21.355469 12.164062 22.707031 10.507812 22.703125 C 8.851562 22.699219 7.507812 21.347656 7.507812 19.679688 C 7.507812 18.011719 8.851562 16.660156 10.507812 16.664062 Z M 10.507812 16.664062 " transform="matrix(1,0,0,-1,0,33)"/>
<path style=" stroke:none;fill-rule:nonzero;fill:#FFFFFF;fill-opacity:1;" d="M 8.789062 14.109375 C 9.222656 14.109375 9.574219 13.757812 9.574219 13.316406 C 9.574219 12.878906 9.222656 12.523438 8.789062 12.523438 C 8.355469 12.527344 8 12.882812 8 13.320312 C 8 13.757812 8.355469 14.109375 8.789062 14.109375 "/>
<path style="fill:none;stroke-width:0.35;stroke-linecap:butt;stroke-linejoin:round;stroke:#202020;stroke-opacity:1;stroke-miterlimit:4;" d="M 8.789062 18.890625 C 9.222656 18.890625 9.574219 19.242188 9.574219 19.683594 C 9.574219 20.121094 9.222656 20.476562 8.789062 20.476562 C 8.355469 20.472656 8 20.117188 8 19.679688 C 8 19.242188 8.355469 18.890625 8.789062 18.890625 Z M 8.789062 18.890625 " transform="matrix(1,0,0,-1,0,33)"/>
</g>
</svg>
