<?xml version="1.0" encoding="UTF-8"?>
<svg xmlns="http://www.w3.org/2000/svg" xmlns:xlink="http://www.w3.org/1999/xlink" width="38pt" height="26pt" viewBox="0 0 38 26" version="1.1">
<defs>
<clipPath id="clip1">
  <path d="M 0.0585938 0.820312 L 37 0.820312 L 37 25.820312 L 0.0585938 25.820312 L 0.0585938 0.820312 Z M 0.0585938 0.820312 "/>
</clipPath>
<clipPath id="clip2">
  <path d="M 0.0585938 0.820312 L 37 0.820312 L 37 25.820312 L 0.0585938 25.820312 L 0.0585938 0.820312 Z M 0.0585938 0.820312 "/>
</clipPath>
</defs>
<g id="surface0">
<path style=" stroke:none;fill-rule:nonzero;fill:#008998;fill-opacity:1;" d="M 36.980469 8.171875 C 36.980469 12.121094 28.746094 15.324219 18.59375 15.324219 C 8.433594 15.324219 0.199219 12.121094 0.199219 8.171875 L 0.199219 18.648438 C 0.199219 22.597656 8.433594 25.800781 18.59375 25.800781 C 28.746094 25.800781 36.980469 22.597656 36.980469 18.648438 L 36.980469 8.171875 "/>
<g clip-path="url(#clip1)" clip-rule="nonzero">
<path style="fill:none;stroke-width:0.4;stroke-linecap:butt;stroke-linejoin:miter;stroke:#FFFFFF;stroke-opacity:1;stroke-miterlimit:4;" d="M 36.980469 17.828125 C 36.980469 13.878906 28.746094 10.675781 18.59375 10.675781 C 8.433594 10.675781 0.199219 13.878906 0.199219 17.828125 L 0.199219 7.351562 C 0.199219 3.402344 8.433594 0.199219 18.59375 0.199219 C 28.746094 0.199219 36.980469 3.402344 36.980469 7.351562 L 36.980469 17.828125 Z M 36.980469 17.828125 " transform="matrix(1,0,0,-1,0,26)"/>
</g>
<path style=" stroke:none;fill-rule:nonzero;fill:#008998;fill-opacity:1;" d="M 18.59375 15.324219 C 28.746094 15.324219 36.980469 12.121094 36.980469 8.171875 C 36.980469 4.222656 28.746094 1.019531 18.59375 1.019531 C 8.433594 1.019531 0.199219 4.222656 0.199219 8.171875 C 0.199219 12.121094 8.433594 15.324219 18.59375 15.324219 "/>
<g clip-path="url(#clip2)" clip-rule="nonzero">
<path style="fill:none;stroke-width:0.4;stroke-linecap:butt;stroke-linejoin:miter;stroke:#FFFFFF;stroke-opacity:1;stroke-miterlimit:4;" d="M 18.59375 10.675781 C 28.746094 10.675781 36.980469 13.878906 36.980469 17.828125 C 36.980469 21.777344 28.746094 24.980469 18.59375 24.980469 C 8.433594 24.980469 0.199219 21.777344 0.199219 17.828125 C 0.199219 13.878906 8.433594 10.675781 18.59375 10.675781 Z M 18.59375 10.675781 " transform="matrix(1,0,0,-1,0,26)"/>
</g>
<path style=" stroke:none;fill-rule:nonzero;fill:#FFFFFF;fill-opacity:1;" d="M 14.394531 5.375 L 15.910156 7.652344 L 10.167969 8.980469 L 11.425781 7.933594 L 2.550781 6.417969 L 4.773438 4.75 L 13.339844 6.199219 L 14.394531 5.375 "/>
<path style=" stroke:none;fill-rule:nonzero;fill:#FFFFFF;fill-opacity:1;" d="M 22.46875 10.898438 L 21.433594 8.550781 L 26.613281 7.515625 L 25.714844 8.320312 L 34.347656 9.792969 L 32.277344 11.453125 L 23.695312 9.839844 L 22.46875 10.898438 "/>
<path style=" stroke:none;fill-rule:nonzero;fill:#FFFFFF;fill-opacity:1;" d="M 19.640625 4.132812 L 25.4375 2.542969 L 25.507812 5.027344 L 24.058594 4.753906 L 21.226562 7.101562 L 18.527344 6.707031 L 21.445312 4.410156 L 19.640625 4.132812 "/>
<path style=" stroke:none;fill-rule:nonzero;fill:#FFFFFF;fill-opacity:1;" d="M 17.152344 13.039062 L 11.628906 14.074219 L 11.421875 11.519531 L 13.011719 11.867188 L 16.050781 9.269531 L 18.742188 9.726562 L 15.496094 12.558594 L 17.152344 13.039062 "/>
<path style=" stroke:none;fill-rule:nonzero;fill:#FFFFFF;fill-opacity:1;" d="M 26.886719 20.605469 C 26.886719 22.871094 23.3125 24.710938 18.910156 24.710938 C 14.503906 24.710938 10.929688 22.871094 10.929688 20.605469 C 10.929688 18.339844 14.503906 16.5 18.910156 16.5 C 23.3125 16.5 26.886719 18.339844 26.886719 20.605469 "/>
<path style=" stroke:none;fill-rule:nonzero;fill:#008998;fill-opacity:1;" d="M 14.019531 21.265625 L 16.488281 18.796875 L 15.28125 17.589844 L 19.007812 17.328125 L 18.796875 21.109375 L 17.484375 19.796875 L 15.019531 22.261719 L 14.019531 21.265625 "/>
<path style="fill:none;stroke-width:0.4;stroke-linecap:butt;stroke-linejoin:miter;stroke:#FFFFFF;stroke-opacity:1;stroke-miterlimit:4;" d="M 14.019531 4.734375 L 16.488281 7.203125 L 15.28125 8.410156 L 19.007812 8.671875 L 18.796875 4.890625 L 17.484375 6.203125 L 15.019531 3.738281 L 14.019531 4.734375 Z M 14.019531 4.734375 " transform="matrix(1,0,0,-1,0,26)"/>
<path style=" stroke:none;fill-rule:nonzero;fill:#008998;fill-opacity:1;" d="M 18.453125 23.257812 L 20.921875 20.789062 L 19.714844 19.582031 L 23.4375 19.320312 L 23.230469 23.097656 L 21.914062 21.785156 L 19.453125 24.253906 L 18.453125 23.257812 "/>
<path style="fill:none;stroke-width:0.4;stroke-linecap:butt;stroke-linejoin:miter;stroke:#FFFFFF;stroke-opacity:1;stroke-miterlimit:4;" d="M 18.453125 2.742188 L 20.921875 5.210938 L 19.714844 6.417969 L 23.4375 6.679688 L 23.230469 2.902344 L 21.914062 4.214844 L 19.453125 1.746094 L 18.453125 2.742188 Z M 18.453125 2.742188 " transform="matrix(1,0,0,-1,0,26)"/>
</g>
</svg>
