<?xml version="1.0" encoding="UTF-8"?>
<svg xmlns="http://www.w3.org/2000/svg" xmlns:xlink="http://www.w3.org/1999/xlink" width="30pt" height="33pt" viewBox="0 0 30 33" version="1.1">
<g id="surface0">
<path style="fill-rule:nonzero;fill:#000000;fill-opacity:1;stroke-width:0.4;stroke-linecap:butt;stroke-linejoin:miter;stroke:#FFFFFF;stroke-opacity:1;stroke-miterlimit:4;" d="M 1.265625 9.914062 L 1.265625 0.40625 L 24.933594 0.40625 L 24.933594 9.914062 " transform="matrix(1,0,0,-1,0,33)"/>
<path style="fill-rule:nonzero;fill:#008998;fill-opacity:1;stroke-width:0.4;stroke-linecap:butt;stroke-linejoin:miter;stroke:#FFFFFF;stroke-opacity:1;stroke-miterlimit:4;" d="M 1.265625 28.882812 L 5.398438 32.109375 L 29.171875 32.109375 L 24.933594 28.882812 L 1.265625 28.882812 Z M 1.265625 28.882812 " transform="matrix(1,0,0,-1,0,33)"/>
<path style="fill-rule:nonzero;fill:#000000;fill-opacity:1;stroke-width:0.4;stroke-linecap:round;stroke-linejoin:round;stroke:#FFFFFF;stroke-opacity:1;stroke-miterlimit:4;" d="M 24.933594 0.226562 L 29.171875 3.652344 L 29.171875 13.296875 L 24.933594 10.066406 L 24.933594 0.226562 Z M 24.933594 0.226562 " transform="matrix(1,0,0,-1,0,33)"/>
<path style="fill:none;stroke-width:0.4;stroke-linecap:round;stroke-linejoin:round;stroke:#FFFFFF;stroke-opacity:1;stroke-miterlimit:4;" d="M 24.933594 6.832031 L 1.265625 6.832031 M 24.933594 3.554688 L 1.265625 3.554688 M 28.855469 6.40625 L 25.125 3.503906 M 8.273438 3.390625 L 8.273438 0.414062 M 17.429688 3.390625 L 17.429688 0.414062 M 13.035156 6.6875 L 13.035156 3.710938 M 3.886719 6.6875 L 3.886719 3.710938 M 22.1875 6.6875 L 22.1875 3.710938 " transform="matrix(1,0,0,-1,0,33)"/>
<path style="fill-rule:nonzero;fill:#008998;fill-opacity:1;stroke-width:0.4;stroke-linecap:butt;stroke-linejoin:miter;stroke:#FFFFFF;stroke-opacity:1;stroke-miterlimit:4;" d="M 25.046875 29.054688 L 25.046875 6.824219 L 1.148438 6.824219 L 1.148438 29.101562 L 25.046875 29.054688 Z M 25.046875 29.054688 " transform="matrix(1,0,0,-1,0,33)"/>
<path style="fill-rule:nonzero;fill:#008998;fill-opacity:1;stroke-width:0.4;stroke-linecap:butt;stroke-linejoin:miter;stroke:#FFFFFF;stroke-opacity:1;stroke-miterlimit:4;" d="M 29.023438 10.226562 L 29.023438 32.03125 L 24.96875 28.976562 L 24.96875 6.964844 L 29.023438 10.226562 Z M 29.023438 10.226562 " transform="matrix(1,0,0,-1,0,33)"/>
<path style="fill:none;stroke-width:0.4;stroke-linecap:round;stroke-linejoin:round;stroke:#FFFFFF;stroke-opacity:1;stroke-miterlimit:4;" d="M 28.125 9.320312 L 28.125 5.808594 M 26.75 4.761719 L 26.75 1.246094 " transform="matrix(1,0,0,-1,0,33)"/>
<path style=" stroke:none;fill-rule:nonzero;fill:#FFFFFF;fill-opacity:1;" d="M 5.738281 12.390625 L 14.964844 12.390625 L 14.964844 11.769531 L 17.027344 13.015625 L 14.964844 14.300781 L 14.964844 13.675781 L 5.738281 13.675781 L 5.738281 12.390625 "/>
<path style=" stroke:none;fill-rule:nonzero;fill:#FFFFFF;fill-opacity:1;" d="M 19.9375 15.691406 L 12.179688 15.691406 L 12.179688 15.066406 L 10.117188 16.316406 L 12.179688 17.601562 L 12.179688 16.976562 L 19.9375 16.976562 L 19.9375 15.691406 "/>
<path style="fill-rule:nonzero;fill:#FFFFFF;fill-opacity:1;stroke-width:0.2;stroke-linecap:butt;stroke-linejoin:miter;stroke:#000000;stroke-opacity:1;stroke-miterlimit:4;" d="M 22.910156 9.398438 C 22.488281 9.351562 22.109375 9.652344 22.0625 10.070312 C 22.015625 10.492188 22.316406 10.871094 22.734375 10.917969 C 23.15625 10.96875 23.535156 10.664062 23.585938 10.246094 C 23.632812 9.828125 23.328125 9.445312 22.910156 9.398438 Z M 22.910156 9.398438 " transform="matrix(1,0,0,-1,0,33)"/>
<path style="fill-rule:nonzero;fill:#FFFFFF;fill-opacity:1;stroke-width:0.2;stroke-linecap:butt;stroke-linejoin:miter;stroke:#000000;stroke-opacity:1;stroke-miterlimit:4;" d="M 23.382812 11.046875 L 22.0625 9.421875 L 17.371094 13.238281 L 18.691406 14.863281 L 23.382812 11.046875 Z M 23.382812 11.046875 " transform="matrix(1,0,0,-1,0,33)"/>
<path style="fill-rule:nonzero;fill:#FFFFFF;fill-opacity:1;stroke-width:0.2;stroke-linecap:butt;stroke-linejoin:miter;stroke:#000000;stroke-opacity:1;stroke-miterlimit:4;" d="M 6.402344 19.398438 C 5.960938 15.519531 8.753906 12.003906 12.632812 11.558594 C 16.511719 11.113281 20.03125 13.910156 20.476562 17.789062 C 20.917969 21.667969 18.121094 25.183594 14.246094 25.628906 C 10.363281 26.074219 6.847656 23.277344 6.402344 19.398438 Z M 7.390625 19.285156 C 7.769531 22.625 10.796875 25.027344 14.132812 24.644531 C 17.46875 24.261719 19.871094 21.234375 19.488281 17.898438 C 19.109375 14.566406 16.082031 12.160156 12.746094 12.542969 C 9.410156 12.925781 7.007812 15.949219 7.390625 19.285156 Z M 7.390625 19.285156 " transform="matrix(1,0,0,-1,0,33)"/>
<path style="fill-rule:nonzero;fill:#FFFFFF;fill-opacity:1;stroke-width:0.2;stroke-linecap:butt;stroke-linejoin:miter;stroke:#000000;stroke-opacity:1;stroke-miterlimit:4;" d="M 5.53125 19.089844 C 5.089844 15.210938 7.882812 11.691406 11.761719 11.246094 C 15.640625 10.804688 19.15625 13.597656 19.601562 17.476562 C 20.046875 21.355469 17.25 24.871094 13.371094 25.316406 C 9.496094 25.761719 5.976562 22.964844 5.53125 19.089844 Z M 6.519531 18.976562 C 6.898438 22.3125 9.925781 24.71875 13.261719 24.335938 C 16.597656 23.949219 19 20.925781 18.617188 17.589844 C 18.234375 14.253906 15.210938 11.851562 11.875 12.230469 C 8.539062 12.613281 6.136719 15.640625 6.519531 18.976562 Z M 6.519531 18.976562 " transform="matrix(1,0,0,-1,0,33)"/>
<path style="fill:none;stroke-width:0.5;stroke-linecap:butt;stroke-linejoin:miter;stroke:#FFFFFF;stroke-opacity:1;stroke-miterlimit:4;" d="M 19.9375 16.527344 L 23.855469 16.527344 M 2.496094 19.984375 L 6.414062 19.984375 " transform="matrix(1,0,0,-1,0,33)"/>
</g>
</svg>
