<?xml version="1.0" encoding="UTF-8"?>
<svg xmlns="http://www.w3.org/2000/svg" xmlns:xlink="http://www.w3.org/1999/xlink" width="44pt" height="32pt" viewBox="0 0 44 32" version="1.1">
<defs>
<clipPath id="clip1">
  <path d="M 0.0585938 0.410156 L 43.527344 0.410156 L 43.527344 32 L 0.0585938 32 L 0.0585938 0.410156 Z M 0.0585938 0.410156 "/>
</clipPath>
<clipPath id="clip2">
  <path d="M 0.0585938 0.410156 L 43.527344 0.410156 L 43.527344 32 L 0.0585938 32 L 0.0585938 0.410156 Z M 0.0585938 0.410156 "/>
</clipPath>
<clipPath id="clip3">
  <path d="M 0.0585938 0.410156 L 43.527344 0.410156 L 43.527344 32 L 0.0585938 32 L 0.0585938 0.410156 Z M 0.0585938 0.410156 "/>
</clipPath>
</defs>
<g id="surface0">
<path style=" stroke:none;fill-rule:nonzero;fill:#008998;fill-opacity:1;" d="M 0.566406 6.289062 L 38.714844 6.289062 L 38.714844 31.355469 L 0.566406 31.355469 L 0.566406 6.289062 Z M 0.566406 6.289062 "/>
<g clip-path="url(#clip1)" clip-rule="nonzero">
<path style="fill:none;stroke-width:0.4;stroke-linecap:butt;stroke-linejoin:miter;stroke:#FFFFFF;stroke-opacity:1;stroke-miterlimit:4;" d="M 0.566406 0.648438 L 38.714844 0.648438 L 38.714844 25.710938 L 0.566406 25.710938 L 0.566406 0.648438 Z M 0.566406 0.648438 " transform="matrix(1,0,0,-1,0,32)"/>
</g>
<path style=" stroke:none;fill-rule:nonzero;fill:#008998;fill-opacity:1;" d="M 43.101562 24.933594 L 38.714844 31.351562 L 38.714844 6.289062 L 43.101562 0.96875 L 43.101562 24.933594 "/>
<g clip-path="url(#clip2)" clip-rule="nonzero">
<path style="fill:none;stroke-width:0.4;stroke-linecap:butt;stroke-linejoin:miter;stroke:#FFFFFF;stroke-opacity:1;stroke-miterlimit:4;" d="M 43.101562 7.066406 L 38.714844 0.648438 L 38.714844 25.710938 L 43.101562 31.03125 L 43.101562 7.066406 Z M 43.101562 7.066406 " transform="matrix(1,0,0,-1,0,32)"/>
</g>
<path style=" stroke:none;fill-rule:nonzero;fill:#008998;fill-opacity:1;" d="M 7.148438 0.96875 L 43.101562 0.96875 L 38.714844 6.289062 L 0.566406 6.289062 L 7.148438 0.96875 "/>
<g clip-path="url(#clip3)" clip-rule="nonzero">
<path style="fill:none;stroke-width:0.4;stroke-linecap:butt;stroke-linejoin:miter;stroke:#FFFFFF;stroke-opacity:1;stroke-miterlimit:4;" d="M 7.148438 31.03125 L 43.101562 31.03125 L 38.714844 25.710938 L 0.566406 25.710938 L 7.148438 31.03125 Z M 7.148438 31.03125 " transform="matrix(1,0,0,-1,0,32)"/>
</g>
<path style=" stroke:none;fill-rule:nonzero;fill:#FFFFFF;fill-opacity:1;" d="M 18.933594 26.5 L 18.925781 23.109375 L 19.941406 23.109375 L 19.945312 26.5 L 21.53125 26.5 L 19.4375 30.199219 L 17.34375 26.5 L 18.933594 26.5 "/>
<path style=" stroke:none;fill-rule:nonzero;fill:#FFFFFF;fill-opacity:1;" d="M 7.066406 25.609375 L 9.726562 21.015625 L 8.660156 20.398438 L 6.003906 24.996094 L 4.339844 24.039062 L 4.296875 29.183594 L 8.730469 26.574219 L 7.066406 25.609375 "/>
<path style=" stroke:none;fill-rule:nonzero;fill:#FFFFFF;fill-opacity:1;" d="M 32.148438 25.609375 L 29.488281 21.015625 L 30.550781 20.398438 L 33.210938 24.996094 L 34.875 24.039062 L 34.917969 29.183594 L 30.484375 26.574219 L 32.148438 25.609375 "/>
<path style=" stroke:none;fill-rule:nonzero;fill:#FFFFFF;fill-opacity:1;" d="M 25.535156 26.089844 L 24.652344 22.816406 L 25.632812 22.554688 L 26.515625 25.824219 L 28.046875 25.417969 L 26.980469 29.53125 L 24 26.5 L 25.535156 26.089844 "/>
<path style=" stroke:none;fill-rule:nonzero;fill:#FFFFFF;fill-opacity:1;" d="M 13.484375 26.089844 L 14.367188 22.816406 L 13.386719 22.554688 L 12.507812 25.824219 L 10.972656 25.417969 L 12.039062 29.53125 L 15.019531 26.5 L 13.484375 26.089844 "/>
<path style=" stroke:none;fill-rule:nonzero;fill:#FFFFFF;fill-opacity:1;" d="M 11.179688 12.394531 L 11.183594 17.703125 L 9.953125 17.703125 L 9.949219 12.394531 L 8.03125 12.390625 L 10.566406 7.914062 L 13.101562 12.390625 L 11.179688 12.394531 "/>
<path style=" stroke:none;fill-rule:nonzero;fill:#FFFFFF;fill-opacity:1;" d="M 28.53125 12.394531 L 28.535156 17.703125 L 27.308594 17.703125 L 27.304688 12.394531 L 25.382812 12.390625 L 27.917969 7.914062 L 30.449219 12.390625 L 28.53125 12.394531 "/>
<path style=" stroke:none;fill-rule:nonzero;fill:#008998;fill-opacity:1;" d="M 24.003906 17.59375 C 24.003906 20.128906 21.945312 22.1875 19.410156 22.1875 C 16.875 22.1875 14.816406 20.128906 14.816406 17.59375 C 14.816406 15.054688 16.875 13 19.410156 13 C 21.945312 13 24.003906 15.054688 24.003906 17.59375 "/>
<path style="fill:none;stroke-width:0.8;stroke-linecap:butt;stroke-linejoin:miter;stroke:#FFFFFF;stroke-opacity:1;stroke-miterlimit:4;" d="M 24.003906 14.40625 C 24.003906 11.871094 21.945312 9.8125 19.410156 9.8125 C 16.875 9.8125 14.816406 11.871094 14.816406 14.40625 C 14.816406 16.945312 16.875 19 19.410156 19 C 21.945312 19 24.003906 16.945312 24.003906 14.40625 Z M 24.003906 14.40625 " transform="matrix(1,0,0,-1,0,32)"/>
</g>
</svg>
