<?xml version="1.0" encoding="UTF-8"?>
<svg xmlns="http://www.w3.org/2000/svg" xmlns:xlink="http://www.w3.org/1999/xlink" width="50pt" height="26pt" viewBox="0 0 50 26" version="1.1">
<g id="surface0">
<path style="fill-rule:nonzero;fill:#008998;fill-opacity:1;stroke-width:0.4;stroke-linecap:butt;stroke-linejoin:miter;stroke:#FFFFFF;stroke-opacity:1;stroke-miterlimit:4;" d="M 1.1875 12.941406 L 15.613281 24.605469 L 48.925781 24.605469 L 36.984375 12.941406 L 1.1875 12.941406 Z M 1.1875 12.941406 " transform="matrix(1,0,0,-1,0,26)"/>
<path style=" stroke:none;fill-rule:nonzero;fill:#FFFFFF;fill-opacity:1;" d="M 33.953125 7.863281 L 34.84375 6.976562 L 37.269531 8.015625 L 32.402344 9.414062 L 33.636719 8.179688 L 24.726562 8.179688 L 25.046875 7.863281 L 33.953125 7.863281 "/>
<path style=" stroke:none;fill-rule:nonzero;fill:#FFFFFF;fill-opacity:1;" d="M 28.28125 4.886719 L 27.964844 5.203125 L 19.054688 5.203125 L 18.164062 6.09375 L 15.75 5.039062 L 20.605469 3.652344 L 19.371094 4.886719 L 28.28125 4.886719 "/>
<path style="fill-rule:nonzero;fill:#008998;fill-opacity:1;stroke-width:0.4;stroke-linecap:butt;stroke-linejoin:miter;stroke:#FFFFFF;stroke-opacity:1;stroke-miterlimit:4;" d="M 36.984375 1.34375 L 48.925781 14.234375 L 48.925781 24.585938 L 36.984375 12.941406 L 36.984375 1.34375 Z M 36.984375 1.34375 " transform="matrix(1,0,0,-1,0,26)"/>
<path style=" stroke:none;fill-rule:nonzero;fill:#FFFFFF;fill-opacity:1;" d="M 23.25 9.917969 L 22.933594 10.234375 L 14.023438 10.234375 L 13.136719 11.125 L 10.71875 10.070312 L 15.574219 8.683594 L 14.339844 9.917969 L 23.25 9.917969 "/>
<path style=" stroke:none;fill-rule:nonzero;fill:#FFFFFF;fill-opacity:1;" d="M 39.03125 3.660156 L 39.917969 2.773438 L 42.34375 3.816406 L 37.476562 5.214844 L 38.714844 3.980469 L 29.804688 3.980469 L 30.121094 3.660156 L 39.03125 3.660156 "/>
<path style="fill-rule:nonzero;fill:#008998;fill-opacity:1;stroke-width:0.4;stroke-linecap:butt;stroke-linejoin:miter;stroke:#FFFFFF;stroke-opacity:1;stroke-miterlimit:4;" d="M 1.234375 1.335938 L 36.984375 1.335938 L 36.984375 12.941406 L 1.234375 12.941406 L 1.234375 1.335938 Z M 1.234375 1.335938 " transform="matrix(1,0,0,-1,0,26)"/>
<path style=" stroke:none;fill-rule:nonzero;fill:#FFFFFF;fill-opacity:1;" d="M 10.738281 17.464844 L 10.738281 15.144531 L 11.132812 15.144531 L 10.554688 14.269531 L 9.972656 15.144531 L 10.363281 15.144531 L 10.363281 17.464844 L 10.738281 17.464844 "/>
<path style=" stroke:none;fill-rule:nonzero;fill:#FFFFFF;fill-opacity:1;" d="M 9.558594 17.800781 L 7.914062 16.160156 L 8.195312 15.882812 L 7.164062 15.671875 L 7.371094 16.703125 L 7.652344 16.425781 L 9.292969 18.066406 L 9.558594 17.800781 "/>
<path style=" stroke:none;fill-rule:nonzero;fill:#FFFFFF;fill-opacity:1;" d="M 8.957031 18.871094 L 6.636719 18.871094 L 6.636719 18.480469 L 5.761719 19.058594 L 6.636719 19.640625 L 6.636719 19.246094 L 8.957031 19.246094 L 8.957031 18.871094 "/>
<path style=" stroke:none;fill-rule:nonzero;fill:#FFFFFF;fill-opacity:1;" d="M 9.292969 20.058594 L 7.652344 21.695312 L 7.371094 21.417969 L 7.164062 22.449219 L 8.195312 22.238281 L 7.914062 21.960938 L 9.558594 20.320312 L 9.292969 20.058594 "/>
<path style=" stroke:none;fill-rule:nonzero;fill:#FFFFFF;fill-opacity:1;" d="M 10.363281 20.65625 L 10.363281 22.976562 L 9.972656 22.976562 L 10.554688 23.851562 L 11.132812 22.976562 L 10.738281 22.976562 L 10.738281 20.65625 L 10.363281 20.65625 "/>
<path style=" stroke:none;fill-rule:nonzero;fill:#FFFFFF;fill-opacity:1;" d="M 11.8125 18.066406 L 13.453125 16.425781 L 13.730469 16.703125 L 13.941406 15.671875 L 12.910156 15.882812 L 13.1875 16.160156 L 11.550781 17.800781 L 11.8125 18.066406 "/>
<path style=" stroke:none;fill-rule:nonzero;fill:#FFFFFF;fill-opacity:1;" d="M 11.972656 21.003906 C 13.058594 20.242188 13.324219 18.746094 12.5625 17.660156 C 11.800781 16.570312 10.304688 16.308594 9.21875 17.070312 C 8.128906 17.828125 7.867188 19.328125 8.628906 20.414062 C 9.386719 21.503906 10.886719 21.765625 11.972656 21.003906 "/>
<path style=" stroke:none;fill-rule:nonzero;fill:#FFFFFF;fill-opacity:1;" d="M 11.761719 20.320312 L 13.402344 21.960938 L 13.125 22.238281 L 14.152344 22.449219 L 13.945312 21.417969 L 13.667969 21.695312 L 12.027344 20.058594 L 11.761719 20.320312 "/>
<path style="fill:none;stroke-width:1;stroke-linecap:butt;stroke-linejoin:miter;stroke:#FFFFFF;stroke-opacity:1;stroke-miterlimit:4;" d="M 11.925781 6.910156 L 27.191406 6.910156 " transform="matrix(1,0,0,-1,0,26)"/>
<path style=" stroke:none;fill-rule:nonzero;fill:#FFFFFF;fill-opacity:1;" d="M 28.199219 20.109375 L 28.199219 21.734375 L 27.921875 21.734375 L 28.328125 22.347656 L 28.734375 21.734375 L 28.460938 21.734375 L 28.460938 20.109375 L 28.199219 20.109375 "/>
<path style=" stroke:none;fill-rule:nonzero;fill:#FFFFFF;fill-opacity:1;" d="M 29.027344 19.878906 L 30.175781 21.023438 L 29.980469 21.222656 L 30.699219 21.363281 L 30.554688 20.644531 L 30.359375 20.839844 L 29.214844 19.691406 L 29.027344 19.878906 "/>
<path style=" stroke:none;fill-rule:nonzero;fill:#FFFFFF;fill-opacity:1;" d="M 29.445312 19.125 L 31.070312 19.125 L 31.070312 19.398438 L 31.683594 18.992188 L 31.070312 18.589844 L 31.070312 18.863281 L 29.445312 18.863281 L 29.445312 19.125 "/>
<path style=" stroke:none;fill-rule:nonzero;fill:#FFFFFF;fill-opacity:1;" d="M 29.214844 18.296875 L 30.359375 17.148438 L 30.554688 17.34375 L 30.699219 16.621094 L 29.980469 16.769531 L 30.175781 16.964844 L 29.027344 18.109375 L 29.214844 18.296875 "/>
<path style=" stroke:none;fill-rule:nonzero;fill:#FFFFFF;fill-opacity:1;" d="M 28.460938 17.878906 L 28.460938 16.253906 L 28.734375 16.253906 L 28.328125 15.640625 L 27.921875 16.253906 L 28.199219 16.253906 L 28.199219 17.878906 L 28.460938 17.878906 "/>
<path style=" stroke:none;fill-rule:nonzero;fill:#FFFFFF;fill-opacity:1;" d="M 27.445312 19.691406 L 26.300781 20.839844 L 26.105469 20.644531 L 25.960938 21.363281 L 26.679688 21.222656 L 26.484375 21.023438 L 27.632812 19.878906 L 27.445312 19.691406 "/>
<path style=" stroke:none;fill-rule:nonzero;fill:#FFFFFF;fill-opacity:1;" d="M 27.335938 17.632812 C 26.574219 18.164062 26.390625 19.214844 26.925781 19.976562 C 27.457031 20.734375 28.503906 20.921875 29.265625 20.390625 C 30.023438 19.855469 30.210938 18.808594 29.679688 18.046875 C 29.144531 17.285156 28.097656 17.101562 27.335938 17.632812 "/>
<path style=" stroke:none;fill-rule:nonzero;fill:#FFFFFF;fill-opacity:1;" d="M 27.480469 18.109375 L 26.335938 16.964844 L 26.527344 16.769531 L 25.808594 16.621094 L 25.953125 17.34375 L 26.148438 17.148438 L 27.296875 18.296875 L 27.480469 18.109375 "/>
</g>
</svg>
