<?xml version="1.0" encoding="UTF-8"?>
<svg xmlns="http://www.w3.org/2000/svg" xmlns:xlink="http://www.w3.org/1999/xlink" width="61pt" height="29pt" viewBox="0 0 61 29" version="1.1">
<defs>
<clipPath id="clip1">
  <path d="M 0 0.0976562 L 60 0.0976562 L 60 28.941406 L 0 28.941406 L 0 0.0976562 Z M 0 0.0976562 "/>
</clipPath>
<clipPath id="clip2">
  <path d="M 0 0.0976562 L 60 0.0976562 L 60 28.941406 L 0 28.941406 L 0 0.0976562 Z M 0 0.0976562 "/>
</clipPath>
<clipPath id="clip3">
  <path d="M 0 0.0976562 L 60 0.0976562 L 60 28.941406 L 0 28.941406 L 0 0.0976562 Z M 0 0.0976562 "/>
</clipPath>
<clipPath id="clip4">
  <path d="M 0 0.0976562 L 60 0.0976562 L 60 28.941406 L 0 28.941406 L 0 0.0976562 Z M 0 0.0976562 "/>
</clipPath>
<clipPath id="clip5">
  <path d="M 0 0.0976562 L 60 0.0976562 L 60 28.941406 L 0 28.941406 L 0 0.0976562 Z M 0 0.0976562 "/>
</clipPath>
<clipPath id="clip6">
  <path d="M 0 0.0976562 L 60 0.0976562 L 60 28.941406 L 0 28.941406 L 0 0.0976562 Z M 0 0.0976562 "/>
</clipPath>
</defs>
<g id="surface0">
<path style=" stroke:none;fill-rule:nonzero;fill:#008998;fill-opacity:1;" d="M 0.558594 15.351562 L 40.335938 15.351562 L 40.335938 28.472656 L 0.558594 28.472656 L 0.558594 15.351562 Z M 0.558594 15.351562 "/>
<g clip-path="url(#clip1)" clip-rule="nonzero">
<path style="fill:none;stroke-width:0.4;stroke-linecap:butt;stroke-linejoin:miter;stroke:#FFFFFF;stroke-opacity:1;stroke-miterlimit:4;" d="M 0.558594 13.648438 L 40.335938 13.648438 L 40.335938 0.527344 L 0.558594 0.527344 L 0.558594 13.648438 Z M 0.558594 13.648438 " transform="matrix(1,0,0,-1,0,29)"/>
</g>
<path style=" stroke:none;fill-rule:nonzero;fill:#008998;fill-opacity:1;" d="M 0.558594 15.351562 L 40.335938 15.351562 L 46.644531 9.039062 L 8.253906 9.039062 L 0.558594 15.351562 "/>
<g clip-path="url(#clip2)" clip-rule="nonzero">
<path style="fill:none;stroke-width:0.4;stroke-linecap:butt;stroke-linejoin:miter;stroke:#FFFFFF;stroke-opacity:1;stroke-miterlimit:4;" d="M 0.558594 13.648438 L 40.335938 13.648438 L 46.644531 19.960938 L 8.253906 19.960938 L 0.558594 13.648438 Z M 0.558594 13.648438 " transform="matrix(1,0,0,-1,0,29)"/>
</g>
<path style=" stroke:none;fill-rule:nonzero;fill:#008998;fill-opacity:1;" d="M 40.335938 28.472656 L 46.644531 21.3125 L 46.644531 9.039062 L 40.335938 15.351562 L 40.335938 28.472656 "/>
<g clip-path="url(#clip3)" clip-rule="nonzero">
<path style="fill:none;stroke-width:0.4;stroke-linecap:butt;stroke-linejoin:miter;stroke:#FFFFFF;stroke-opacity:1;stroke-miterlimit:4;" d="M 40.335938 0.527344 L 46.644531 7.6875 L 46.644531 19.960938 L 40.335938 13.648438 L 40.335938 0.527344 Z M 40.335938 0.527344 " transform="matrix(1,0,0,-1,0,29)"/>
</g>
<path style=" stroke:none;fill-rule:nonzero;fill:#008998;fill-opacity:1;" d="M 11.46875 7.550781 L 10.960938 10.265625 L 15.859375 10.265625 L 15.351562 7.550781 L 11.46875 7.550781 "/>
<path style="fill:none;stroke-width:0.4;stroke-linecap:butt;stroke-linejoin:miter;stroke:#FFFFFF;stroke-opacity:1;stroke-miterlimit:4;" d="M 11.46875 21.449219 L 10.960938 18.734375 L 15.859375 18.734375 L 15.351562 21.449219 L 11.46875 21.449219 Z M 11.46875 21.449219 " transform="matrix(1,0,0,-1,0,29)"/>
<path style=" stroke:none;fill-rule:nonzero;fill:#008998;fill-opacity:1;" d="M 5.40625 11.929688 L 4.898438 14.640625 L 9.792969 14.640625 L 9.285156 11.929688 L 5.40625 11.929688 "/>
<path style="fill:none;stroke-width:0.4;stroke-linecap:butt;stroke-linejoin:miter;stroke:#FFFFFF;stroke-opacity:1;stroke-miterlimit:4;" d="M 5.40625 17.070312 L 4.898438 14.359375 L 9.792969 14.359375 L 9.285156 17.070312 L 5.40625 17.070312 Z M 5.40625 17.070312 " transform="matrix(1,0,0,-1,0,29)"/>
<path style=" stroke:none;fill-rule:nonzero;fill:#008998;fill-opacity:1;" d="M 12.054688 10.855469 L 15.039062 10.855469 L 14.335938 9.234375 L 12.054688 10.855469 "/>
<path style="fill:none;stroke-width:0.4;stroke-linecap:butt;stroke-linejoin:miter;stroke:#FFFFFF;stroke-opacity:1;stroke-miterlimit:4;" d="M 12.054688 18.144531 L 15.039062 18.144531 L 14.335938 19.765625 L 12.054688 18.144531 Z M 12.054688 18.144531 " transform="matrix(1,0,0,-1,0,29)"/>
<path style=" stroke:none;fill-rule:nonzero;fill:#008998;fill-opacity:1;" d="M 11.46875 7.550781 C 8.21875 7.210938 5.289062 11.050781 5.40625 11.929688 L 9.285156 11.929688 C 9.167969 11.050781 12.101562 7.210938 15.351562 7.550781 L 11.46875 7.550781 "/>
<path style="fill:none;stroke-width:0.4;stroke-linecap:butt;stroke-linejoin:miter;stroke:#FFFFFF;stroke-opacity:1;stroke-miterlimit:4;" d="M 11.46875 21.449219 C 8.21875 21.789062 5.289062 17.949219 5.40625 17.070312 L 9.285156 17.070312 C 9.167969 17.949219 12.101562 21.789062 15.351562 21.449219 L 11.46875 21.449219 Z M 11.46875 21.449219 " transform="matrix(1,0,0,-1,0,29)"/>
<path style=" stroke:none;fill-rule:nonzero;fill:#008998;fill-opacity:1;" d="M 15.859375 10.265625 L 15.039062 10.855469 L 14.335938 9.234375 L 11.902344 10.992188 L 11.648438 13.304688 L 9.792969 14.640625 L 9.285156 11.929688 C 9.167969 11.050781 12.101562 7.210938 15.351562 7.550781 L 15.859375 10.265625 "/>
<path style="fill:none;stroke-width:0.4;stroke-linecap:butt;stroke-linejoin:miter;stroke:#FFFFFF;stroke-opacity:1;stroke-miterlimit:4;" d="M 15.859375 18.734375 L 15.039062 18.144531 L 14.335938 19.765625 L 11.902344 18.007812 L 11.648438 15.695312 L 9.792969 14.359375 L 9.285156 17.070312 C 9.167969 17.949219 12.101562 21.789062 15.351562 21.449219 L 15.859375 18.734375 Z M 15.859375 18.734375 " transform="matrix(1,0,0,-1,0,29)"/>
<path style=" stroke:none;fill-rule:nonzero;fill:#008998;fill-opacity:1;" d="M 20.773438 0.417969 L 14.464844 6.726562 L 15.328125 6.726562 L 21.636719 0.417969 L 20.773438 0.417969 "/>
<g clip-path="url(#clip4)" clip-rule="nonzero">
<path style="fill:none;stroke-width:0.4;stroke-linecap:butt;stroke-linejoin:miter;stroke:#FFFFFF;stroke-opacity:1;stroke-miterlimit:4;" d="M 20.773438 28.582031 L 14.464844 22.273438 L 15.328125 22.273438 L 21.636719 28.582031 L 20.773438 28.582031 Z M 20.773438 28.582031 " transform="matrix(1,0,0,-1,0,29)"/>
</g>
<path style=" stroke:none;fill-rule:nonzero;fill:#008998;fill-opacity:1;" d="M 27.070312 9.039062 L 20.757812 15.351562 L 15.328125 6.726562 L 21.636719 0.417969 L 27.070312 9.039062 "/>
<g clip-path="url(#clip5)" clip-rule="nonzero">
<path style="fill:none;stroke-width:0.4;stroke-linecap:butt;stroke-linejoin:miter;stroke:#FFFFFF;stroke-opacity:1;stroke-miterlimit:4;" d="M 27.070312 19.960938 L 20.757812 13.648438 L 15.328125 22.273438 L 21.636719 28.582031 L 27.070312 19.960938 Z M 27.070312 19.960938 " transform="matrix(1,0,0,-1,0,29)"/>
</g>
<path style=" stroke:none;fill-rule:nonzero;fill:#008998;fill-opacity:1;" d="M 19.898438 15.351562 L 14.464844 6.726562 L 15.328125 6.726562 L 20.757812 15.351562 L 19.898438 15.351562 "/>
<path style="fill:none;stroke-width:0.4;stroke-linecap:butt;stroke-linejoin:miter;stroke:#FFFFFF;stroke-opacity:1;stroke-miterlimit:4;" d="M 19.898438 13.648438 L 14.464844 22.273438 L 15.328125 22.273438 L 20.757812 13.648438 L 19.898438 13.648438 Z M 19.898438 13.648438 " transform="matrix(1,0,0,-1,0,29)"/>
<g clip-path="url(#clip6)" clip-rule="nonzero">
<path style=" stroke:none;fill-rule:nonzero;fill:#008998;fill-opacity:1;" d="M 60.089844 11.035156 L 53.695312 17.480469 L 40.285156 22.261719 L 46.679688 15.816406 L 60.089844 11.035156 "/>
<path style="fill:none;stroke-width:0.4;stroke-linecap:butt;stroke-linejoin:miter;stroke:#FFFFFF;stroke-opacity:1;stroke-miterlimit:4;" d="M 60.089844 17.964844 L 53.695312 11.519531 L 40.285156 6.738281 L 46.679688 13.183594 L 60.089844 17.964844 Z M 60.089844 17.964844 " transform="matrix(1,0,0,-1,0,29)"/>
<path style=" stroke:none;fill-rule:nonzero;fill:#008998;fill-opacity:1;" d="M 60.140625 12.148438 L 53.746094 18.597656 L 53.695312 17.480469 L 60.089844 11.035156 L 60.140625 12.148438 "/>
<path style="fill:none;stroke-width:0.4;stroke-linecap:butt;stroke-linejoin:miter;stroke:#FFFFFF;stroke-opacity:1;stroke-miterlimit:4;" d="M 60.140625 16.851562 L 53.746094 10.402344 L 53.695312 11.519531 L 60.089844 17.964844 L 60.140625 16.851562 Z M 60.140625 16.851562 " transform="matrix(1,0,0,-1,0,29)"/>
</g>
<path style=" stroke:none;fill-rule:nonzero;fill:#008998;fill-opacity:1;" d="M 40.285156 22.261719 L 40.285156 22.992188 L 53.746094 18.597656 L 53.746094 17.480469 L 40.285156 22.261719 "/>
<path style="fill:none;stroke-width:0.4;stroke-linecap:butt;stroke-linejoin:miter;stroke:#FFFFFF;stroke-opacity:1;stroke-miterlimit:4;" d="M 40.285156 6.738281 L 40.285156 6.007812 L 53.746094 10.402344 L 53.746094 11.519531 L 40.285156 6.738281 Z M 40.285156 6.738281 " transform="matrix(1,0,0,-1,0,29)"/>
<path style="fill-rule:nonzero;fill:#008998;fill-opacity:1;stroke-width:0.4;stroke-linecap:butt;stroke-linejoin:miter;stroke:#FFFFFF;stroke-opacity:1;stroke-miterlimit:4;" d="M 20.511719 27.105469 L 25.671875 18.914062 " transform="matrix(1,0,0,-1,0,29)"/>
<path style="fill-rule:nonzero;fill:#008998;fill-opacity:1;stroke-width:0.4;stroke-linecap:butt;stroke-linejoin:miter;stroke:#FFFFFF;stroke-opacity:1;stroke-miterlimit:4;" d="M 19.25 25.84375 L 24.410156 17.648438 " transform="matrix(1,0,0,-1,0,29)"/>
<path style="fill-rule:nonzero;fill:#008998;fill-opacity:1;stroke-width:0.4;stroke-linecap:butt;stroke-linejoin:miter;stroke:#FFFFFF;stroke-opacity:1;stroke-miterlimit:4;" d="M 17.988281 24.582031 L 23.148438 16.386719 " transform="matrix(1,0,0,-1,0,29)"/>
<path style="fill-rule:nonzero;fill:#008998;fill-opacity:1;stroke-width:0.4;stroke-linecap:butt;stroke-linejoin:miter;stroke:#FFFFFF;stroke-opacity:1;stroke-miterlimit:4;" d="M 16.722656 23.320312 L 21.886719 15.125 " transform="matrix(1,0,0,-1,0,29)"/>
</g>
</svg>
