<?xml version="1.0" encoding="UTF-8"?>
<svg xmlns="http://www.w3.org/2000/svg" xmlns:xlink="http://www.w3.org/1999/xlink" width="27pt" height="26pt" viewBox="0 0 27 26" version="1.1">
<defs>
<clipPath id="clip1">
  <path d="M 0.0585938 0.128906 L 26 0.128906 L 26 26 L 0.0585938 26 L 0.0585938 0.128906 Z M 0.0585938 0.128906 "/>
</clipPath>
<clipPath id="clip2">
  <path d="M 0.0585938 0.128906 L 26 0.128906 L 26 26 L 0.0585938 26 L 0.0585938 0.128906 Z M 0.0585938 0.128906 "/>
</clipPath>
<clipPath id="clip3">
  <path d="M 0.0585938 0.128906 L 26 0.128906 L 26 26 L 0.0585938 26 L 0.0585938 0.128906 Z M 0.0585938 0.128906 "/>
</clipPath>
<clipPath id="clip4">
  <path d="M 0.0585938 0.128906 L 26 0.128906 L 26 26 L 0.0585938 26 L 0.0585938 0.128906 Z M 0.0585938 0.128906 "/>
</clipPath>
<clipPath id="clip5">
  <path d="M 0.0585938 0.128906 L 26 0.128906 L 26 26 L 0.0585938 26 L 0.0585938 0.128906 Z M 0.0585938 0.128906 "/>
</clipPath>
<clipPath id="clip6">
  <path d="M 0.0585938 0.128906 L 26 0.128906 L 26 26 L 0.0585938 26 L 0.0585938 0.128906 Z M 0.0585938 0.128906 "/>
</clipPath>
</defs>
<g id="surface0">
<path style=" stroke:none;fill-rule:nonzero;fill:#7B2927;fill-opacity:1;" d="M 25.820312 17.726562 L 23.207031 21.453125 L 0.53125 21.453125 L 4.273438 17.726562 L 25.820312 17.726562 "/>
<g clip-path="url(#clip1)" clip-rule="nonzero">
<path style="fill:none;stroke-width:0.4;stroke-linecap:butt;stroke-linejoin:miter;stroke:#FFFFFF;stroke-opacity:1;stroke-miterlimit:4;" d="M 25.820312 8.273438 L 23.207031 4.546875 L 0.53125 4.546875 L 4.273438 8.273438 L 25.820312 8.273438 Z M 25.820312 8.273438 " transform="matrix(1,0,0,-1,0,26)"/>
</g>
<path style=" stroke:none;fill-rule:nonzero;fill:#7B2927;fill-opacity:1;" d="M 0.53125 21.453125 L 22.179688 21.453125 L 22.179688 25.507812 L 0.53125 25.507812 L 0.53125 21.453125 Z M 0.53125 21.453125 "/>
<g clip-path="url(#clip2)" clip-rule="nonzero">
<path style="fill:none;stroke-width:0.4;stroke-linecap:butt;stroke-linejoin:miter;stroke:#FFFFFF;stroke-opacity:1;stroke-miterlimit:4;" d="M 0.53125 4.546875 L 22.179688 4.546875 L 22.179688 0.492188 L 0.53125 0.492188 L 0.53125 4.546875 Z M 0.53125 4.546875 " transform="matrix(1,0,0,-1,0,26)"/>
</g>
<path style=" stroke:none;fill-rule:nonzero;fill:#7B2927;fill-opacity:1;" d="M 0.53125 4.292969 L 22.03125 4.292969 L 22.03125 20.5625 L 0.53125 20.5625 L 0.53125 4.292969 Z M 0.53125 4.292969 "/>
<g clip-path="url(#clip3)" clip-rule="nonzero">
<path style="fill:none;stroke-width:0.4;stroke-linecap:butt;stroke-linejoin:miter;stroke:#FFFFFF;stroke-opacity:1;stroke-miterlimit:4;" d="M 0.53125 21.707031 L 22.03125 21.707031 L 22.03125 5.4375 L 0.53125 5.4375 L 0.53125 21.707031 Z M 0.53125 21.707031 " transform="matrix(1,0,0,-1,0,26)"/>
</g>
<path style=" stroke:none;fill-rule:nonzero;fill:#7B2927;fill-opacity:1;" d="M 22.035156 20.5625 L 25.714844 16.878906 L 25.714844 0.613281 L 22.035156 4.292969 L 22.035156 20.5625 "/>
<g clip-path="url(#clip4)" clip-rule="nonzero">
<path style="fill:none;stroke-width:0.4;stroke-linecap:butt;stroke-linejoin:miter;stroke:#FFFFFF;stroke-opacity:1;stroke-miterlimit:4;" d="M 22.035156 5.4375 L 25.714844 9.121094 L 25.714844 25.386719 L 22.035156 21.707031 L 22.035156 5.4375 Z M 22.035156 5.4375 " transform="matrix(1,0,0,-1,0,26)"/>
</g>
<path style=" stroke:none;fill-rule:nonzero;fill:#7B2927;fill-opacity:1;" d="M 22.160156 25.519531 L 22.160156 21.453125 L 25.820312 17.816406 L 25.820312 21.859375 L 22.160156 25.519531 "/>
<g clip-path="url(#clip5)" clip-rule="nonzero">
<path style="fill:none;stroke-width:0.4;stroke-linecap:butt;stroke-linejoin:miter;stroke:#FFFFFF;stroke-opacity:1;stroke-miterlimit:4;" d="M 22.160156 0.480469 L 22.160156 4.546875 L 25.820312 8.183594 L 25.820312 4.140625 L 22.160156 0.480469 Z M 22.160156 0.480469 " transform="matrix(1,0,0,-1,0,26)"/>
</g>
<path style=" stroke:none;fill-rule:nonzero;fill:#FFFFFF;fill-opacity:1;" d="M 4.035156 6.167969 L 18.457031 6.167969 C 19.394531 6.167969 20.15625 6.929688 20.15625 7.867188 L 20.15625 16.976562 C 20.15625 17.914062 19.394531 18.675781 18.457031 18.675781 L 4.035156 18.675781 C 3.097656 18.675781 2.339844 17.914062 2.339844 16.976562 L 2.339844 7.867188 C 2.339844 6.929688 3.097656 6.167969 4.035156 6.167969 "/>
<path style="fill:none;stroke-width:0.4;stroke-linecap:butt;stroke-linejoin:miter;stroke:#FFFFFF;stroke-opacity:1;stroke-miterlimit:4;" d="M 4.035156 19.832031 L 18.457031 19.832031 C 19.394531 19.832031 20.15625 19.070312 20.15625 18.132812 L 20.15625 9.023438 C 20.15625 8.085938 19.394531 7.324219 18.457031 7.324219 L 4.035156 7.324219 C 3.097656 7.324219 2.339844 8.085938 2.339844 9.023438 L 2.339844 18.132812 C 2.339844 19.070312 3.097656 19.832031 4.035156 19.832031 Z M 4.035156 19.832031 " transform="matrix(1,0,0,-1,0,26)"/>
<path style=" stroke:none;fill-rule:nonzero;fill:#7B2927;fill-opacity:1;" d="M 25.714844 0.613281 L 4.726562 0.613281 L 0.53125 4.292969 L 22.035156 4.292969 L 25.714844 0.613281 "/>
<g clip-path="url(#clip6)" clip-rule="nonzero">
<path style="fill:none;stroke-width:0.4;stroke-linecap:butt;stroke-linejoin:miter;stroke:#FFFFFF;stroke-opacity:1;stroke-miterlimit:4;" d="M 25.714844 25.386719 L 4.726562 25.386719 L 0.53125 21.707031 L 22.035156 21.707031 L 25.714844 25.386719 Z M 25.714844 25.386719 " transform="matrix(1,0,0,-1,0,26)"/>
</g>
<path style=" stroke:none;fill-rule:nonzero;fill:#7B2927;fill-opacity:1;" d="M 4.285156 23.53125 C 4.285156 24.234375 3.714844 24.808594 3.011719 24.808594 C 2.304688 24.808594 1.734375 24.234375 1.734375 23.53125 C 1.734375 22.828125 2.304688 22.257812 3.011719 22.257812 C 3.714844 22.257812 4.285156 22.828125 4.285156 23.53125 "/>
<path style="fill:none;stroke-width:0.4;stroke-linecap:butt;stroke-linejoin:miter;stroke:#FFFFFF;stroke-opacity:1;stroke-miterlimit:4;" d="M 4.285156 2.46875 C 4.285156 1.765625 3.714844 1.191406 3.011719 1.191406 C 2.304688 1.191406 1.734375 1.765625 1.734375 2.46875 C 1.734375 3.171875 2.304688 3.742188 3.011719 3.742188 C 3.714844 3.742188 4.285156 3.171875 4.285156 2.46875 Z M 4.285156 2.46875 " transform="matrix(1,0,0,-1,0,26)"/>
<path style=" stroke:none;fill-rule:nonzero;fill:#7B2927;fill-opacity:1;" d="M 21.167969 23.53125 C 21.167969 24.234375 20.59375 24.808594 19.890625 24.808594 C 19.1875 24.808594 18.613281 24.234375 18.613281 23.53125 C 18.613281 22.828125 19.1875 22.257812 19.890625 22.257812 C 20.59375 22.257812 21.167969 22.828125 21.167969 23.53125 "/>
<path style="fill:none;stroke-width:0.4;stroke-linecap:butt;stroke-linejoin:miter;stroke:#FFFFFF;stroke-opacity:1;stroke-miterlimit:4;" d="M 21.167969 2.46875 C 21.167969 1.765625 20.59375 1.191406 19.890625 1.191406 C 19.1875 1.191406 18.613281 1.765625 18.613281 2.46875 C 18.613281 3.171875 19.1875 3.742188 19.890625 3.742188 C 20.59375 3.742188 21.167969 3.171875 21.167969 2.46875 Z M 21.167969 2.46875 " transform="matrix(1,0,0,-1,0,26)"/>
<path style=" stroke:none;fill-rule:nonzero;fill:#7B2927;fill-opacity:1;" d="M 9.105469 23.859375 C 9.105469 24.226562 8.808594 24.519531 8.445312 24.519531 C 8.082031 24.519531 7.785156 24.226562 7.785156 23.859375 C 7.785156 23.496094 8.082031 23.203125 8.445312 23.203125 C 8.808594 23.203125 9.105469 23.496094 9.105469 23.859375 "/>
<path style="fill:none;stroke-width:0.4;stroke-linecap:butt;stroke-linejoin:miter;stroke:#FFFFFF;stroke-opacity:1;stroke-miterlimit:4;" d="M 9.105469 2.140625 C 9.105469 1.773438 8.808594 1.480469 8.445312 1.480469 C 8.082031 1.480469 7.785156 1.773438 7.785156 2.140625 C 7.785156 2.503906 8.082031 2.796875 8.445312 2.796875 C 8.808594 2.796875 9.105469 2.503906 9.105469 2.140625 Z M 9.105469 2.140625 " transform="matrix(1,0,0,-1,0,26)"/>
<path style=" stroke:none;fill-rule:nonzero;fill:#7B2927;fill-opacity:1;" d="M 11.738281 23.859375 C 11.738281 24.226562 11.441406 24.519531 11.078125 24.519531 C 10.714844 24.519531 10.421875 24.226562 10.421875 23.859375 C 10.421875 23.496094 10.714844 23.203125 11.078125 23.203125 C 11.441406 23.203125 11.738281 23.496094 11.738281 23.859375 "/>
<path style="fill:none;stroke-width:0.4;stroke-linecap:butt;stroke-linejoin:miter;stroke:#FFFFFF;stroke-opacity:1;stroke-miterlimit:4;" d="M 11.738281 2.140625 C 11.738281 1.773438 11.441406 1.480469 11.078125 1.480469 C 10.714844 1.480469 10.421875 1.773438 10.421875 2.140625 C 10.421875 2.503906 10.714844 2.796875 11.078125 2.796875 C 11.441406 2.796875 11.738281 2.503906 11.738281 2.140625 Z M 11.738281 2.140625 " transform="matrix(1,0,0,-1,0,26)"/>
<path style=" stroke:none;fill-rule:nonzero;fill:#7B2927;fill-opacity:1;" d="M 14.371094 23.859375 C 14.371094 24.226562 14.078125 24.519531 13.714844 24.519531 C 13.351562 24.519531 13.054688 24.226562 13.054688 23.859375 C 13.054688 23.496094 13.351562 23.203125 13.714844 23.203125 C 14.078125 23.203125 14.371094 23.496094 14.371094 23.859375 "/>
<path style="fill:none;stroke-width:0.4;stroke-linecap:butt;stroke-linejoin:miter;stroke:#FFFFFF;stroke-opacity:1;stroke-miterlimit:4;" d="M 14.371094 2.140625 C 14.371094 1.773438 14.078125 1.480469 13.714844 1.480469 C 13.351562 1.480469 13.054688 1.773438 13.054688 2.140625 C 13.054688 2.503906 13.351562 2.796875 13.714844 2.796875 C 14.078125 2.796875 14.371094 2.503906 14.371094 2.140625 Z M 14.371094 2.140625 " transform="matrix(1,0,0,-1,0,26)"/>
<path style=" stroke:none;fill-rule:nonzero;fill:#FFFFFF;fill-opacity:1;" d="M 7.046875 8.273438 L 8.96875 6.570312 L 10.394531 7.230469 L 10.230469 8.769531 L 10.726562 9.863281 L 10.175781 11.347656 L 10.136719 11.683594 C 10.023438 12.066406 9.640625 11.898438 9.640625 11.898438 L 8.96875 14.53125 L 7.15625 12.171875 L 6.9375 11.128906 L 6.167969 8.933594 "/>
<path style=" stroke:none;fill-rule:nonzero;fill:#7B2927;fill-opacity:1;" d="M 7.890625 7.84375 C 7.976562 7.953125 8.015625 8.105469 8.023438 8.203125 C 8.074219 8.675781 7.902344 9.15625 7.734375 9.597656 C 7.6875 9.710938 7.695312 10.011719 7.5625 9.925781 C 7.402344 9.820312 7.273438 9.589844 7.105469 9.53125 C 6.898438 9.457031 6.679688 9.667969 6.472656 9.785156 C 6.855469 10.300781 7.320312 10.824219 7.121094 11.492188 C 6.636719 10.773438 6.125 10.066406 5.765625 9.289062 C 5.566406 8.867188 5.644531 8.253906 5.902344 7.902344 C 6.296875 7.363281 6.894531 6.90625 7.550781 6.738281 C 8.4375 6.515625 9.320312 6.328125 10.234375 6.320312 C 9.410156 6.730469 8.632812 7.128906 7.835938 7.6875 C 7.796875 7.714844 7.847656 7.796875 7.890625 7.84375 "/>
<path style=" stroke:none;fill-rule:nonzero;fill:#7B2927;fill-opacity:1;" d="M 11.007812 7.910156 C 10.800781 8.3125 10.601562 8.707031 10.355469 9.082031 C 10.367188 9.023438 10.339844 8.980469 10.292969 8.972656 C 10.175781 8.949219 10.023438 9.003906 9.964844 8.941406 C 9.902344 8.886719 9.902344 8.695312 9.964844 8.628906 C 10.03125 8.554688 10.246094 8.667969 10.261719 8.648438 C 10.664062 8 9.921875 7.472656 9.648438 6.90625 C 10.246094 6.894531 10.726562 7.289062 11.296875 7.378906 C 11.179688 7.542969 11.101562 7.730469 11.007812 7.910156 "/>
<path style=" stroke:none;fill-rule:nonzero;fill:#7B2927;fill-opacity:1;" d="M 8.765625 9.027344 C 8.667969 9.011719 8.511719 9.039062 8.503906 9.015625 C 8.335938 8.441406 9.117188 8.710938 9.472656 8.554688 C 9.386719 8.929688 9.164062 9.105469 8.765625 9.027344 "/>
<path style=" stroke:none;fill-rule:nonzero;fill:#7B2927;fill-opacity:1;" d="M 9.863281 10.171875 C 9.726562 10.171875 9.589844 10.171875 9.449219 10.171875 C 9.613281 10.03125 9.785156 9.90625 9.980469 9.820312 C 9.960938 9.941406 9.996094 10.058594 10.039062 10.171875 C 9.980469 10.171875 9.921875 10.171875 9.863281 10.171875 "/>
<path style=" stroke:none;fill-rule:nonzero;fill:#7B2927;fill-opacity:1;" d="M 9.746094 10.878906 C 9.472656 10.878906 9.195312 10.878906 8.925781 10.878906 C 9.023438 10.785156 9.179688 10.75 9.277344 10.734375 C 9.539062 10.707031 9.886719 10.519531 10.097656 10.878906 C 9.980469 10.878906 9.863281 10.878906 9.746094 10.878906 "/>
<path style=" stroke:none;fill-rule:nonzero;fill:#7B2927;fill-opacity:1;" d="M 9.683594 11.128906 C 9.878906 11.210938 9.597656 11.214844 9.628906 11.289062 C 9.476562 11.324219 9.425781 11.183594 9.335938 11.113281 C 9.449219 11.113281 9.578125 11.085938 9.683594 11.128906 "/>
<path style=" stroke:none;fill-rule:nonzero;fill:#7B2927;fill-opacity:1;" d="M 13.867188 16.84375 C 13.871094 16.460938 13.960938 16.066406 14.050781 15.664062 C 14.132812 15.320312 14.28125 14.925781 14.164062 14.703125 C 14.007812 14.394531 13.59375 14.136719 13.222656 13.992188 C 12.179688 13.589844 11.148438 13.21875 10.132812 12.753906 L 9.972656 12.8125 L 10.148438 15.398438 L 9.269531 18.222656 "/>
<path style=" stroke:none;fill-rule:nonzero;fill:#7B2927;fill-opacity:1;" d="M 9.269531 18.335938 L 7.386719 15.691406 L 6.5 12.902344 C 6.335938 13.015625 6.15625 13.113281 5.980469 13.195312 C 4.699219 13.78125 3.644531 13.964844 2.445312 14.722656 C 2.453125 17.195312 3.523438 16.242188 3.382812 18.707031 "/>
<path style=" stroke:none;fill-rule:nonzero;fill:#BD9493;fill-opacity:1;" d="M 9.0625 18.59375 L 10.148438 15.398438 L 9.972656 12.8125 L 9.617188 12.460938 L 9.03125 13.550781 L 7.121094 12.019531 C 7.121094 12.402344 6.496094 12.777344 6.496094 12.777344 L 7.386719 15.574219 L 9.269531 18.222656 "/>
<path style=" stroke:none;fill-rule:nonzero;fill:#7B2927;fill-opacity:1;" d="M 8.414062 18.191406 L 8.824219 14.285156 L 8.59375 13.988281 L 8.824219 13.609375 L 9.0625 13.753906 L 9.210938 13.578125 L 9.441406 13.902344 L 9.148438 14.3125 L 9.59375 17.746094 "/>
<path style=" stroke:none;fill-rule:nonzero;fill:#7B2927;fill-opacity:1;" d="M 11.949219 14.347656 C 11.765625 14.148438 11.421875 14.144531 11.421875 13.816406 C 11.625 13.820312 11.832031 13.835938 12.007812 13.699219 C 11.660156 13.574219 11.488281 13.261719 11.453125 12.933594 C 11.449219 12.890625 11.53125 12.722656 11.59375 12.726562 C 11.734375 12.738281 11.742188 12.980469 11.894531 13.050781 C 11.945312 13.074219 11.992188 13.039062 12.003906 12.992188 C 12.046875 12.8125 11.980469 12.640625 11.949219 12.46875 C 12.144531 12.527344 12.496094 12.601562 12.492188 12.40625 C 12.488281 12.117188 12.085938 11.796875 12.335938 11.5625 C 12.40625 11.492188 12.691406 11.855469 12.71875 11.636719 C 12.742188 11.429688 12.4375 11.179688 12.457031 10.941406 C 12.472656 10.773438 12.796875 10.730469 12.859375 10.570312 C 12.964844 10.308594 12.746094 9.96875 12.820312 9.71875 C 13.046875 8.984375 13.480469 8.335938 13.832031 7.644531 C 14.734375 7.617188 15.074219 6.734375 16.53125 7.507812 C 16.570312 7.527344 16.386719 7.496094 16.425781 7.585938 C 16.445312 7.632812 16.492188 7.6875 16.535156 7.691406 C 16.777344 7.714844 17.054688 7.667969 17.15625 7.894531 C 17.230469 8.054688 16.988281 8.253906 17.039062 8.398438 C 17.117188 8.621094 17.554688 8.519531 17.601562 8.71875 C 17.695312 9.097656 17.253906 9.46875 17.3125 9.808594 C 17.34375 10 17.777344 10.085938 17.910156 10.3125 C 18.0625 10.574219 17.867188 10.953125 18.121094 11.230469 C 18.222656 11.113281 18.34375 11.023438 18.476562 10.9375 C 18.511719 11.167969 18.605469 11.378906 18.710938 11.585938 C 18.859375 11.382812 19.039062 11.207031 19.179688 10.996094 C 19.320312 11.117188 19.257812 11.332031 19.210938 11.378906 C 18.960938 11.617188 18.71875 11.933594 18.367188 12.027344 C 18.320312 12.042969 18.292969 12.074219 18.273438 12.113281 L 17.859375 11.878906 C 17.808594 11.980469 18.152344 12.132812 18.003906 12.171875 L 18.0625 12.40625 C 18.277344 12.636719 18.527344 12.480469 18.769531 12.40625 C 18.890625 12.816406 18.339844 12.871094 18.285156 13.179688 C 18.257812 13.339844 18.550781 13.292969 18.710938 13.230469 C 18.65625 13.519531 18.40625 13.667969 18.242188 13.878906 "/>
<path style=" stroke:none;fill-rule:nonzero;fill:#7B2927;fill-opacity:1;" d="M 9.34375 18.648438 C 9.605469 17.363281 9.453125 16.539062 9.597656 15.289062 C 10.332031 14.839844 11.132812 14.554688 11.949219 14.289062 L 15.566406 13.496094 L 18.242188 13.820312 C 18.792969 14.007812 19.390625 13.984375 19.945312 14.171875 C 20.429688 15.476562 19.078125 16.972656 19.558594 18.289062 L 19.191406 18.621094 "/>
<path style=" stroke:none;fill-rule:nonzero;fill:#FFFFFF;fill-opacity:1;" d="M 16.773438 15.21875 C 16.734375 15.207031 16.710938 15.152344 16.652344 15.171875 C 16.652344 15.089844 16.625 14.988281 16.667969 14.949219 C 16.707031 14.90625 16.808594 14.9375 16.886719 14.9375 C 16.871094 14.992188 16.90625 15.023438 16.949219 15.050781 C 17.078125 14.640625 16.960938 14.226562 16.902344 13.824219 C 16.882812 13.667969 16.546875 13.675781 16.453125 13.554688 C 16.269531 13.316406 16.167969 12.464844 16.410156 12.480469 C 17.039062 12.527344 17.070312 11.304688 17.253906 10.621094 C 17.328125 10.339844 17.183594 10.242188 17.0625 9.9375 C 16.980469 9.976562 17.027344 10.085938 16.996094 10.097656 C 16.863281 10.164062 16.660156 10.25 16.554688 10.152344 C 16.496094 10.097656 16.496094 9.898438 16.554688 9.84375 C 16.660156 9.75 17.121094 9.675781 17.113281 9.691406 C 17.226562 9.367188 17.042969 9.109375 16.828125 8.820312 C 16.722656 8.988281 16.613281 9.027344 16.417969 8.996094 C 16.542969 8.890625 16.535156 8.542969 16.386719 8.632812 C 16.136719 8.777344 16.167969 9.230469 15.769531 9.230469 C 15.78125 9.0625 15.78125 8.894531 15.652344 8.761719 C 15.527344 8.949219 15.382812 9.15625 15.1875 9.132812 C 15.058594 9.117188 15.101562 8.738281 14.917969 8.910156 C 14.703125 9.105469 15.078125 9.378906 14.996094 9.644531 C 14.839844 10.167969 14.84375 10.683594 14.550781 11.183594 C 14.507812 11.257812 14.511719 11.378906 14.550781 11.460938 C 14.609375 11.59375 14.730469 11.679688 14.890625 11.644531 C 14.882812 11.871094 14.636719 11.742188 14.546875 11.886719 C 14.519531 11.929688 14.519531 12.003906 14.546875 12.050781 C 14.65625 12.238281 14.867188 12.253906 15.066406 12.230469 C 15.011719 12.585938 14.609375 12.640625 14.359375 12.46875 C 14.300781 12.828125 14.492188 13.144531 14.832031 13.230469 C 14.671875 13.449219 14.421875 13.269531 14.265625 13.382812 C 14.066406 13.527344 14.316406 13.816406 14.242188 14.054688 C 14.203125 13.96875 14.101562 13.976562 14.082031 14.007812 C 13.90625 14.261719 14.128906 14.597656 14.183594 14.878906 C 14.222656 14.792969 14.300781 14.808594 14.359375 14.824219 C 14.464844 14.859375 14.40625 14.972656 14.417969 15.050781 C 14.359375 15.050781 14.296875 15.035156 14.246094 15.0625 C 14.078125 15.136719 14.304688 15.25 14.242188 15.347656 C 14.800781 15.664062 15.433594 15.851562 16.058594 15.769531 C 16.222656 15.75 16.433594 15.652344 16.59375 15.523438 C 16.445312 15.414062 16.140625 15.511719 16.25 15.230469 C 16.300781 15.109375 16.453125 15.152344 16.527344 15.1875 C 16.617188 15.230469 16.515625 15.367188 16.539062 15.460938 C 16.554688 15.511719 16.601562 15.550781 16.648438 15.515625 C 16.804688 15.40625 16.980469 15.328125 17.046875 15.164062 C 17.058594 15.144531 16.984375 15.066406 16.945312 15.066406 C 16.863281 15.0625 16.902344 15.269531 16.773438 15.21875 "/>
<path style=" stroke:none;fill-rule:nonzero;fill:#7B2927;fill-opacity:1;" d="M 16.0625 10.152344 C 16.035156 10.203125 15.984375 10.265625 15.949219 10.261719 C 15.695312 10.226562 15.4375 10.242188 15.300781 9.980469 C 15.617188 9.886719 15.941406 9.75 16.222656 9.949219 C 16.296875 10.003906 16.109375 10.0625 16.0625 10.152344 "/>
<path style=" stroke:none;fill-rule:nonzero;fill:#7B2927;fill-opacity:1;" d="M 16.855469 10.984375 C 16.789062 11.167969 16.5625 11.011719 16.386719 11.054688 C 16.496094 10.871094 16.582031 10.796875 16.800781 10.761719 C 16.800781 10.863281 16.875 10.933594 16.855469 10.984375 "/>
<path style=" stroke:none;fill-rule:nonzero;fill:#000000;fill-opacity:1;" d="M 16.636719 11.5625 C 16.441406 11.582031 16.246094 11.636719 16.046875 11.574219 C 16.351562 11.390625 16.707031 11.476562 17.03125 11.394531 C 16.992188 11.429688 16.964844 11.464844 16.984375 11.519531 C 16.871094 11.53125 16.753906 11.546875 16.636719 11.5625 "/>
<path style=" stroke:none;fill-rule:nonzero;fill:#000000;fill-opacity:1;" d="M 16.058594 15.628906 C 15.9375 15.703125 15.71875 15.585938 15.78125 15.410156 C 15.8125 15.324219 15.898438 15.246094 16.003906 15.292969 C 16.132812 15.351562 16.195312 15.539062 16.058594 15.628906 "/>
<path style=" stroke:none;fill-rule:nonzero;fill:#000000;fill-opacity:1;" d="M 15.535156 15.582031 C 15.457031 15.617188 15.4375 15.488281 15.359375 15.523438 C 15.371094 15.441406 15.3125 15.324219 15.421875 15.300781 C 15.496094 15.277344 15.609375 15.242188 15.648438 15.347656 C 15.683594 15.445312 15.640625 15.53125 15.535156 15.582031 "/>
<path style=" stroke:none;fill-rule:nonzero;fill:#000000;fill-opacity:1;" d="M 15.066406 15.460938 C 15 15.46875 14.914062 15.492188 14.898438 15.402344 C 14.886719 15.324219 14.84375 15.210938 14.953125 15.179688 C 15.109375 15.132812 15.246094 15.257812 15.175781 15.398438 C 15.160156 15.433594 15.109375 15.453125 15.066406 15.460938 "/>
<path style=" stroke:none;fill-rule:nonzero;fill:#000000;fill-opacity:1;" d="M 14.707031 15.21875 C 14.65625 15.242188 14.570312 15.253906 14.539062 15.167969 C 14.484375 15.007812 14.683594 14.941406 14.757812 15.011719 C 14.804688 15.050781 14.785156 15.179688 14.707031 15.21875 "/>
<path style=" stroke:none;fill-rule:nonzero;fill:#7B2927;fill-opacity:1;" d="M 16.605469 11.808594 C 16.488281 11.8125 16.394531 11.777344 16.300781 11.722656 C 16.496094 11.695312 16.691406 11.671875 16.886719 11.648438 C 16.824219 11.757812 16.734375 11.800781 16.605469 11.808594 "/>
<path style=" stroke:none;fill-rule:nonzero;fill:#7B2927;fill-opacity:1;" d="M 3.628906 17.8125 L 19.191406 17.8125 L 19.191406 18.675781 L 3.628906 18.675781 L 3.628906 17.8125 Z M 3.628906 17.8125 "/>
</g>
</svg>
