<?xml version="1.0" encoding="UTF-8"?>
<svg xmlns="http://www.w3.org/2000/svg" xmlns:xlink="http://www.w3.org/1999/xlink" width="83pt" height="48pt" viewBox="0 0 83 48" version="1.1">
<defs>
<clipPath id="clip1">
  <path d="M 0 0.136719 L 82 0.136719 L 82 47.941406 L 0 47.941406 L 0 0.136719 Z M 0 0.136719 "/>
</clipPath>
</defs>
<g id="surface0">
<g clip-path="url(#clip1)" clip-rule="nonzero">
<path style=" stroke:none;fill-rule:nonzero;fill:#FFFFFF;fill-opacity:1;" d="M 28.574219 5.800781 C 14.175781 2.925781 6.574219 10.300781 7.777344 16.675781 L 7.871094 17.023438 C -3.347656 18.933594 -0.40625 32.175781 4.976562 32.175781 L 5.507812 32.160156 C 4.148438 38.382812 17.265625 44.714844 24.574219 41.550781 L 25.046875 41.035156 C 27.652344 46.632812 36.914062 47.566406 46.074219 47.800781 C 54.015625 48.003906 58.648438 47.375 62.050781 43.894531 L 62.574219 44.050781 C 75.28125 45.070312 81.070312 36.296875 78.292969 29.992188 L 78.976562 29.800781 C 83.308594 28.65625 83.808594 18.65625 76.375 17.175781 L 76.519531 16.789062 C 79.746094 10.285156 72.136719 4.148438 61.574219 5.300781 L 60.84375 4.917969 C 53.285156 -1.925781 31.53125 -0.808594 29.011719 5.960938 L 28.574219 5.800781 "/>
<path style="fill:none;stroke-width:0.4;stroke-linecap:butt;stroke-linejoin:miter;stroke:#7B2927;stroke-opacity:1;stroke-miterlimit:4;" d="M 28.574219 42.199219 C 14.175781 45.074219 6.574219 37.699219 7.777344 31.324219 L 7.871094 30.976562 C -3.347656 29.066406 -0.40625 15.824219 4.976562 15.824219 L 5.507812 15.839844 C 4.148438 9.617188 17.265625 3.285156 24.574219 6.449219 L 25.046875 6.964844 C 27.652344 1.367188 36.914062 0.433594 46.074219 0.199219 C 54.015625 -0.00390625 58.648438 0.625 62.050781 4.105469 L 62.574219 3.949219 C 75.28125 2.929688 81.070312 11.703125 78.292969 18.007812 L 78.976562 18.199219 C 83.308594 19.34375 83.808594 29.34375 76.375 30.824219 L 76.519531 31.210938 C 79.746094 37.714844 72.136719 43.851562 61.574219 42.699219 L 60.84375 43.082031 C 53.285156 49.925781 31.53125 48.808594 29.011719 42.039062 L 28.574219 42.199219 Z M 28.574219 42.199219 " transform="matrix(1,0,0,-1,0,48)"/>
</g>
</g>
</svg>
