<?xml version="1.0" encoding="UTF-8"?>
<svg xmlns="http://www.w3.org/2000/svg" xmlns:xlink="http://www.w3.org/1999/xlink" width="38pt" height="36pt" viewBox="0 0 38 36" version="1.1">
<defs>
<clipPath id="clip1">
  <path d="M 0.0585938 0.484375 L 37.1875 0.484375 L 37.1875 35.941406 L 0.0585938 35.941406 L 0.0585938 0.484375 Z M 0.0585938 0.484375 "/>
</clipPath>
<clipPath id="clip2">
  <path d="M 0.0585938 0.484375 L 37.1875 0.484375 L 37.1875 35.941406 L 0.0585938 35.941406 L 0.0585938 0.484375 Z M 0.0585938 0.484375 "/>
</clipPath>
<clipPath id="clip3">
  <path d="M 0.0585938 0.484375 L 37.1875 0.484375 L 37.1875 35.941406 L 0.0585938 35.941406 L 0.0585938 0.484375 Z M 0.0585938 0.484375 "/>
</clipPath>
</defs>
<g id="surface0">
<path style=" stroke:none;fill-rule:nonzero;fill:#BD9493;fill-opacity:1;" d="M 36.984375 7.835938 C 36.984375 11.789062 28.75 14.988281 18.59375 14.988281 C 8.433594 14.988281 0.199219 11.789062 0.199219 7.835938 L 0.199219 16.191406 C 0.199219 20.144531 8.433594 23.347656 18.59375 23.347656 C 28.75 23.347656 36.984375 20.144531 36.984375 16.191406 L 36.984375 7.835938 "/>
<g clip-path="url(#clip1)" clip-rule="nonzero">
<path style="fill:none;stroke-width:0.4;stroke-linecap:butt;stroke-linejoin:miter;stroke:#FFFFFF;stroke-opacity:1;stroke-miterlimit:4;" d="M 36.984375 28.164062 C 36.984375 24.210938 28.75 21.011719 18.59375 21.011719 C 8.433594 21.011719 0.199219 24.210938 0.199219 28.164062 L 0.199219 19.808594 C 0.199219 15.855469 8.433594 12.652344 18.59375 12.652344 C 28.75 12.652344 36.984375 15.855469 36.984375 19.808594 L 36.984375 28.164062 Z M 36.984375 28.164062 " transform="matrix(1,0,0,-1,0,36)"/>
</g>
<path style=" stroke:none;fill-rule:nonzero;fill:#7B2927;fill-opacity:1;" d="M 36.984375 16.050781 C 36.984375 20 28.75 23.203125 18.59375 23.203125 C 8.433594 23.203125 0.199219 20 0.199219 16.050781 L 0.199219 28.648438 C 0.199219 32.597656 8.433594 35.800781 18.59375 35.800781 C 28.75 35.800781 36.984375 32.597656 36.984375 28.648438 L 36.984375 16.050781 "/>
<g clip-path="url(#clip2)" clip-rule="nonzero">
<path style="fill:none;stroke-width:0.4;stroke-linecap:butt;stroke-linejoin:miter;stroke:#FFFFFF;stroke-opacity:1;stroke-miterlimit:4;" d="M 36.984375 19.949219 C 36.984375 16 28.75 12.796875 18.59375 12.796875 C 8.433594 12.796875 0.199219 16 0.199219 19.949219 L 0.199219 7.351562 C 0.199219 3.402344 8.433594 0.199219 18.59375 0.199219 C 28.75 0.199219 36.984375 3.402344 36.984375 7.351562 L 36.984375 19.949219 Z M 36.984375 19.949219 " transform="matrix(1,0,0,-1,0,36)"/>
</g>
<path style=" stroke:none;fill-rule:nonzero;fill:#BD9493;fill-opacity:1;" d="M 18.59375 14.988281 C 28.75 14.988281 36.984375 11.789062 36.984375 7.835938 C 36.984375 3.886719 28.75 0.683594 18.59375 0.683594 C 8.433594 0.683594 0.199219 3.886719 0.199219 7.835938 C 0.199219 11.789062 8.433594 14.988281 18.59375 14.988281 "/>
<g clip-path="url(#clip3)" clip-rule="nonzero">
<path style="fill:none;stroke-width:0.4;stroke-linecap:butt;stroke-linejoin:miter;stroke:#FFFFFF;stroke-opacity:1;stroke-miterlimit:4;" d="M 18.59375 21.011719 C 28.75 21.011719 36.984375 24.210938 36.984375 28.164062 C 36.984375 32.113281 28.75 35.316406 18.59375 35.316406 C 8.433594 35.316406 0.199219 32.113281 0.199219 28.164062 C 0.199219 24.210938 8.433594 21.011719 18.59375 21.011719 Z M 18.59375 21.011719 " transform="matrix(1,0,0,-1,0,36)"/>
</g>
<path style=" stroke:none;fill-rule:nonzero;fill:#FFFFFF;fill-opacity:1;" d="M 14.394531 5.039062 L 15.910156 7.320312 L 10.167969 8.644531 L 11.425781 7.601562 L 2.550781 6.085938 L 4.773438 4.414062 L 13.339844 5.867188 L 14.394531 5.039062 "/>
<path style=" stroke:none;fill-rule:nonzero;fill:#FFFFFF;fill-opacity:1;" d="M 22.472656 10.566406 L 21.4375 8.21875 L 26.617188 7.179688 L 25.71875 7.984375 L 34.351562 9.460938 L 32.277344 11.117188 L 23.699219 9.507812 L 22.472656 10.566406 "/>
<path style=" stroke:none;fill-rule:nonzero;fill:#FFFFFF;fill-opacity:1;" d="M 19.640625 3.796875 L 25.441406 2.207031 L 25.511719 4.695312 L 24.0625 4.417969 L 21.230469 6.765625 L 18.527344 6.371094 L 21.449219 4.074219 L 19.640625 3.796875 "/>
<path style=" stroke:none;fill-rule:nonzero;fill:#FFFFFF;fill-opacity:1;" d="M 17.15625 12.707031 L 11.628906 13.742188 L 11.421875 11.1875 L 13.011719 11.53125 L 16.050781 8.933594 L 18.742188 9.390625 L 15.496094 12.222656 L 17.15625 12.707031 "/>
<path style=" stroke:none;fill-rule:nonzero;fill:#7B2927;fill-opacity:1;" d="M 0.621094 18.324219 C 2.53125 21.527344 9.265625 23.699219 18.21875 23.699219 C 26.933594 23.699219 34.484375 21.28125 36.601562 18.21875 L 36.582031 16.117188 C 36.582031 19.605469 27.90625 22.699219 18.21875 22.699219 C 8.53125 22.699219 1.023438 19.703125 0.535156 16.367188 L 0.621094 18.324219 "/>
<path style=" stroke:none;fill-rule:nonzero;fill:#BD9493;fill-opacity:1;" d="M 16.792969 21.375 L 16.792969 22.277344 L 13.648438 22.277344 L 18.292969 28.308594 L 22.9375 22.277344 L 19.789062 22.277344 L 19.789062 21.375 L 16.792969 21.375 "/>
<path style=" stroke:none;fill-rule:nonzero;fill:#FFFFFF;fill-opacity:1;" d="M 13.882812 33.453125 L 24.882812 22.453125 L 23.886719 21.898438 L 12.886719 32.898438 L 13.882812 33.453125 "/>
<path style=" stroke:none;fill-rule:nonzero;fill:#FFFFFF;fill-opacity:1;" d="M 22.710938 33.300781 L 11.8125 22.433594 L 12.796875 21.867188 L 23.691406 32.734375 L 22.710938 33.300781 "/>
<path style=" stroke:none;fill-rule:nonzero;fill:#FFFFFF;fill-opacity:1;" d="M 19.828125 32.726562 L 19.8125 33.726562 C 22.78125 33.5625 27.085938 33.109375 29.519531 32.421875 L 29.539062 31.457031 C 27.171875 32.128906 22.726562 32.566406 19.828125 32.726562 "/>
<path style=" stroke:none;fill-rule:nonzero;fill:#FFFFFF;fill-opacity:1;" d="M 7.722656 32.4375 C 10.0625 33.09375 13.960938 33.535156 16.800781 33.710938 L 16.863281 32.78125 C 13.859375 32.597656 9.796875 32.042969 7.773438 31.472656 L 7.722656 32.4375 "/>
<path style=" stroke:none;fill-rule:nonzero;fill:#FFFFFF;fill-opacity:1;" d="M 7.433594 21.878906 C 9.78125 22.5625 13.703125 23.027344 16.585938 23.21875 L 16.578125 22.222656 C 13.535156 22.019531 9.449219 21.507812 7.421875 20.917969 L 7.433594 21.878906 "/>
<path style=" stroke:none;fill-rule:nonzero;fill:#FFFFFF;fill-opacity:1;" d="M 19.890625 22.25 L 19.800781 23.25 C 22.859375 23.078125 27.238281 22.609375 29.730469 21.882812 L 29.742188 20.925781 C 27.320312 21.628906 22.875 22.085938 19.890625 22.25 "/>
<path style=" stroke:none;fill-rule:nonzero;fill:#FFFFFF;fill-opacity:1;" d="M 10.355469 28.152344 L 11.820312 28.410156 L 11.109375 26.011719 L 11.09375 26.011719 L 10.355469 28.152344 Z M 9.636719 30.203125 L 8.375 29.984375 L 10.421875 24.597656 L 11.804688 24.839844 L 13.828125 30.9375 L 12.523438 30.707031 L 12.15625 29.460938 L 10.039062 29.089844 L 9.636719 30.203125 "/>
<path style=" stroke:none;fill-rule:nonzero;fill:#FFFFFF;fill-opacity:1;" d="M 26.226562 27.476562 C 27.121094 27.351562 27.121094 26.710938 27.121094 26.457031 C 27.121094 25.894531 26.808594 25.707031 26.066406 25.8125 L 25.113281 25.945312 L 25.113281 27.636719 L 26.226562 27.476562 Z M 25.113281 30.699219 L 23.914062 30.867188 L 23.914062 25.125 L 26.539062 24.753906 C 27.648438 24.597656 28.320312 25.214844 28.320312 26.34375 C 28.320312 26.863281 28.03125 28.214844 26.488281 28.433594 L 25.113281 28.628906 L 25.113281 30.699219 "/>
</g>
</svg>
