<?xml version="1.0" encoding="UTF-8"?>
<svg xmlns="http://www.w3.org/2000/svg" xmlns:xlink="http://www.w3.org/1999/xlink" width="37pt" height="27pt" viewBox="0 0 37 27" version="1.1">
<defs>
<clipPath id="clip1">
  <path d="M 0 0.914062 L 36.882812 0.914062 L 36.882812 26.914062 L 0 26.914062 L 0 0.914062 Z M 0 0.914062 "/>
</clipPath>
<clipPath id="clip2">
  <path d="M 0 0.914062 L 36.882812 0.914062 L 36.882812 26.914062 L 0 26.914062 L 0 0.914062 Z M 0 0.914062 "/>
</clipPath>
<clipPath id="clip3">
  <path d="M 0 0.914062 L 36.882812 0.914062 L 36.882812 26.914062 L 0 26.914062 L 0 0.914062 Z M 0 0.914062 "/>
</clipPath>
<clipPath id="clip4">
  <path d="M 0 0.914062 L 36.882812 0.914062 L 36.882812 26.914062 L 0 26.914062 L 0 0.914062 Z M 0 0.914062 "/>
</clipPath>
<clipPath id="clip5">
  <path d="M 0 0.914062 L 36.882812 0.914062 L 36.882812 26.914062 L 0 26.914062 L 0 0.914062 Z M 0 0.914062 "/>
</clipPath>
</defs>
<g id="surface0">
<g clip-path="url(#clip1)" clip-rule="nonzero">
<path style="fill:none;stroke-width:0.45;stroke-linecap:round;stroke-linejoin:miter;stroke:#FFFFFF;stroke-opacity:1;stroke-miterlimit:1;" d="M 28.414062 5.300781 C 28.414062 5.300781 26.457031 0.269531 24.101562 5.3125 C 21.753906 10.355469 19.792969 5.324219 19.792969 5.324219 C 19.792969 5.324219 17.835938 0.289062 15.484375 5.335938 C 13.136719 10.378906 11.1875 5.304688 11.1875 5.304688 C 11.1875 5.304688 9.234375 0.269531 6.882812 5.3125 C 4.53125 10.355469 2.582031 5.328125 2.582031 5.328125 " transform="matrix(1,0,0,-1,0,27)"/>
<path style="fill:none;stroke-width:0.9;stroke-linecap:round;stroke-linejoin:miter;stroke:#FFFFFF;stroke-opacity:1;stroke-miterlimit:1;" d="M 2.582031 5.300781 C 2.582031 5.300781 4.539062 0.269531 6.890625 5.3125 C 9.242188 10.355469 11.203125 5.324219 11.203125 5.324219 C 11.203125 5.324219 13.15625 0.289062 15.507812 5.335938 C 17.859375 10.378906 19.808594 5.304688 19.808594 5.304688 C 19.808594 5.304688 21.757812 0.269531 24.113281 5.3125 C 26.460938 10.355469 28.414062 5.328125 28.414062 5.328125 " transform="matrix(1,0,0,-1,0,27)"/>
<path style="fill:none;stroke-width:0.45;stroke-linecap:round;stroke-linejoin:miter;stroke:#FFFFFF;stroke-opacity:1;stroke-miterlimit:1;" d="M 28.414062 5.300781 C 28.414062 5.300781 26.457031 0.269531 24.101562 5.3125 C 21.753906 10.355469 19.792969 5.324219 19.792969 5.324219 C 19.792969 5.324219 17.835938 0.289062 15.484375 5.335938 C 13.136719 10.378906 11.1875 5.304688 11.1875 5.304688 C 11.1875 5.304688 9.234375 0.269531 6.882812 5.3125 C 4.53125 10.355469 2.582031 5.328125 2.582031 5.328125 " transform="matrix(1,0,0,-1,0,27)"/>
<path style="fill:none;stroke-width:0.9;stroke-linecap:round;stroke-linejoin:miter;stroke:#FFFFFF;stroke-opacity:1;stroke-miterlimit:1;" d="M 2.582031 5.300781 C 2.582031 5.300781 4.539062 0.269531 6.890625 5.3125 C 9.242188 10.355469 11.203125 5.324219 11.203125 5.324219 C 11.203125 5.324219 13.15625 0.289062 15.507812 5.335938 C 17.859375 10.378906 19.808594 5.304688 19.808594 5.304688 C 19.808594 5.304688 21.757812 0.269531 24.113281 5.3125 C 26.460938 10.355469 28.414062 5.328125 28.414062 5.328125 " transform="matrix(1,0,0,-1,0,27)"/>
</g>
<path style=" stroke:none;fill-rule:nonzero;fill:#7B2927;fill-opacity:1;" d="M 0.605469 7.070312 L 8.300781 1.386719 L 36.40625 1.386719 L 30.8125 7.070312 L 0.605469 7.070312 "/>
<g clip-path="url(#clip2)" clip-rule="nonzero">
<path style="fill:none;stroke-width:0.4;stroke-linecap:butt;stroke-linejoin:miter;stroke:#FFFFFF;stroke-opacity:1;stroke-miterlimit:4;" d="M 0.605469 19.929688 L 8.300781 25.613281 L 36.40625 25.613281 L 30.8125 19.929688 L 0.605469 19.929688 Z M 0.605469 19.929688 " transform="matrix(1,0,0,-1,0,27)"/>
</g>
<path style=" stroke:none;fill-rule:nonzero;fill:#7B2927;fill-opacity:1;" d="M 30.8125 26.511719 L 36.40625 20.847656 L 36.40625 1.402344 L 30.8125 7.070312 L 30.8125 26.511719 "/>
<g clip-path="url(#clip3)" clip-rule="nonzero">
<path style="fill:none;stroke-width:0.4;stroke-linecap:butt;stroke-linejoin:miter;stroke:#FFFFFF;stroke-opacity:1;stroke-miterlimit:4;" d="M 30.8125 0.488281 L 36.40625 6.152344 L 36.40625 25.597656 L 30.8125 19.929688 L 30.8125 0.488281 Z M 30.8125 0.488281 " transform="matrix(1,0,0,-1,0,27)"/>
</g>
<path style=" stroke:none;fill-rule:nonzero;fill:#7B2927;fill-opacity:1;" d="M 0.648438 7.070312 L 30.8125 7.070312 L 30.8125 26.523438 L 0.648438 26.523438 L 0.648438 7.070312 Z M 0.648438 7.070312 "/>
<g clip-path="url(#clip4)" clip-rule="nonzero">
<path style="fill:none;stroke-width:0.4;stroke-linecap:butt;stroke-linejoin:miter;stroke:#FFFFFF;stroke-opacity:1;stroke-miterlimit:4;" d="M 0.648438 0.476562 L 30.8125 0.476562 L 30.8125 19.929688 L 0.648438 19.929688 L 0.648438 0.476562 Z M 0.648438 0.476562 " transform="matrix(1,0,0,-1,0,27)"/>
</g>
<path style="fill:none;stroke-width:0.45;stroke-linecap:round;stroke-linejoin:miter;stroke:#FFFFFF;stroke-opacity:1;stroke-miterlimit:1;" d="M 28.414062 14.957031 C 28.414062 14.957031 26.457031 9.925781 24.101562 14.972656 C 21.753906 20.015625 19.792969 14.980469 19.792969 14.980469 C 19.792969 14.980469 17.835938 9.945312 15.484375 14.992188 C 13.136719 20.035156 11.1875 14.960938 11.1875 14.960938 C 11.1875 14.960938 9.234375 9.925781 6.882812 14.972656 C 4.53125 20.015625 2.582031 14.984375 2.582031 14.984375 " transform="matrix(1,0,0,-1,0,27)"/>
<path style="fill:none;stroke-width:0.9;stroke-linecap:round;stroke-linejoin:miter;stroke:#FFFFFF;stroke-opacity:1;stroke-miterlimit:1;" d="M 2.582031 14.957031 C 2.582031 14.957031 4.539062 9.925781 6.890625 14.972656 C 9.242188 20.015625 11.203125 14.980469 11.203125 14.980469 C 11.203125 14.980469 13.15625 9.945312 15.507812 14.992188 C 17.859375 20.035156 19.808594 14.960938 19.808594 14.960938 C 19.808594 14.960938 21.757812 9.925781 24.113281 14.972656 C 26.460938 20.015625 28.414062 14.984375 28.414062 14.984375 " transform="matrix(1,0,0,-1,0,27)"/>
<path style="fill:none;stroke-width:0.45;stroke-linecap:round;stroke-linejoin:miter;stroke:#FFFFFF;stroke-opacity:1;stroke-miterlimit:1;" d="M 28.414062 14.957031 C 28.414062 14.957031 26.457031 9.925781 24.101562 14.972656 C 21.753906 20.015625 19.792969 14.980469 19.792969 14.980469 C 19.792969 14.980469 17.835938 9.945312 15.484375 14.992188 C 13.136719 20.035156 11.1875 14.960938 11.1875 14.960938 C 11.1875 14.960938 9.234375 9.925781 6.882812 14.972656 C 4.53125 20.015625 2.582031 14.984375 2.582031 14.984375 " transform="matrix(1,0,0,-1,0,27)"/>
<path style="fill:none;stroke-width:0.9;stroke-linecap:round;stroke-linejoin:miter;stroke:#FFFFFF;stroke-opacity:1;stroke-miterlimit:1;" d="M 2.582031 14.957031 C 2.582031 14.957031 4.539062 9.925781 6.890625 14.972656 C 9.242188 20.015625 11.203125 14.980469 11.203125 14.980469 C 11.203125 14.980469 13.15625 9.945312 15.507812 14.992188 C 17.859375 20.035156 19.808594 14.960938 19.808594 14.960938 C 19.808594 14.960938 21.757812 9.925781 24.113281 14.972656 C 26.460938 20.015625 28.414062 14.984375 28.414062 14.984375 " transform="matrix(1,0,0,-1,0,27)"/>
<path style="fill:none;stroke-width:0.45;stroke-linecap:round;stroke-linejoin:miter;stroke:#FFFFFF;stroke-opacity:1;stroke-miterlimit:1;" d="M 28.414062 14.957031 C 28.414062 14.957031 26.457031 9.925781 24.101562 14.972656 C 21.753906 20.015625 19.792969 14.980469 19.792969 14.980469 C 19.792969 14.980469 17.835938 9.945312 15.484375 14.992188 C 13.136719 20.035156 11.1875 14.960938 11.1875 14.960938 C 11.1875 14.960938 9.234375 9.925781 6.882812 14.972656 C 4.53125 20.015625 2.582031 14.984375 2.582031 14.984375 " transform="matrix(1,0,0,-1,0,27)"/>
<g clip-path="url(#clip5)" clip-rule="nonzero">
<path style="fill:none;stroke-width:0.9;stroke-linecap:round;stroke-linejoin:miter;stroke:#FFFFFF;stroke-opacity:1;stroke-miterlimit:1;" d="M 2.582031 14.957031 C 2.582031 14.957031 4.539062 9.925781 6.890625 14.972656 C 9.242188 20.015625 11.203125 14.980469 11.203125 14.980469 C 11.203125 14.980469 13.15625 9.945312 15.507812 14.992188 C 17.859375 20.035156 19.808594 14.960938 19.808594 14.960938 C 19.808594 14.960938 21.757812 9.925781 24.113281 14.972656 C 26.460938 20.015625 28.414062 14.984375 28.414062 14.984375 " transform="matrix(1,0,0,-1,0,27)"/>
<path style="fill:none;stroke-width:0.45;stroke-linecap:round;stroke-linejoin:miter;stroke:#FFFFFF;stroke-opacity:1;stroke-miterlimit:1;" d="M 28.414062 5.300781 C 28.414062 5.300781 26.457031 0.269531 24.101562 5.3125 C 21.753906 10.355469 19.792969 5.324219 19.792969 5.324219 C 19.792969 5.324219 17.835938 0.289062 15.484375 5.335938 C 13.136719 10.378906 11.1875 5.304688 11.1875 5.304688 C 11.1875 5.304688 9.234375 0.269531 6.882812 5.3125 C 4.53125 10.355469 2.582031 5.328125 2.582031 5.328125 " transform="matrix(1,0,0,-1,0,27)"/>
<path style="fill:none;stroke-width:0.9;stroke-linecap:round;stroke-linejoin:miter;stroke:#FFFFFF;stroke-opacity:1;stroke-miterlimit:1;" d="M 2.582031 5.300781 C 2.582031 5.300781 4.539062 0.269531 6.890625 5.3125 C 9.242188 10.355469 11.203125 5.324219 11.203125 5.324219 C 11.203125 5.324219 13.15625 0.289062 15.507812 5.335938 C 17.859375 10.378906 19.808594 5.304688 19.808594 5.304688 C 19.808594 5.304688 21.757812 0.269531 24.113281 5.3125 C 26.460938 10.355469 28.414062 5.328125 28.414062 5.328125 " transform="matrix(1,0,0,-1,0,27)"/>
</g>
</g>
</svg>
