<?xml version="1.0" encoding="UTF-8"?>
<svg xmlns="http://www.w3.org/2000/svg" xmlns:xlink="http://www.w3.org/1999/xlink" width="42pt" height="19pt" viewBox="0 0 42 19" version="1.1">
<defs>
<clipPath id="clip1">
  <path d="M 0 0.933594 L 41 0.933594 L 41 18.933594 L 0 18.933594 L 0 0.933594 Z M 0 0.933594 "/>
</clipPath>
<clipPath id="clip2">
  <path d="M 0 0.933594 L 41 0.933594 L 41 18.933594 L 0 18.933594 L 0 0.933594 Z M 0 0.933594 "/>
</clipPath>
</defs>
<g id="surface0">
<g clip-path="url(#clip1)" clip-rule="nonzero">
<path style="fill-rule:nonzero;fill:#707070;fill-opacity:1;stroke-width:0.4;stroke-linecap:butt;stroke-linejoin:miter;stroke:#FFFFFF;stroke-opacity:1;stroke-miterlimit:4;" d="M 35.199219 0.699219 L 41.199219 9.082031 L 41.199219 14.988281 C 41.199219 16.578125 39.910156 17.867188 38.320312 17.867188 L 8.078125 17.867188 C 6.488281 17.867188 5.867188 16.699219 4.867188 15.699219 L 0.535156 11.035156 " transform="matrix(1,0,0,-1,0,19)"/>
</g>
<path style=" stroke:none;fill-rule:nonzero;fill:#707070;fill-opacity:1;" d="M 36.199219 15.917969 C 36.199219 17.511719 34.910156 18.800781 33.320312 18.800781 L 3.078125 18.800781 C 1.488281 18.800781 0.199219 17.511719 0.199219 15.917969 L 0.199219 10.011719 C 0.199219 8.421875 1.488281 7.132812 3.078125 7.132812 L 33.320312 7.132812 C 34.910156 7.132812 36.199219 8.421875 36.199219 10.011719 L 36.199219 15.917969 "/>
<g clip-path="url(#clip2)" clip-rule="nonzero">
<path style="fill:none;stroke-width:0.4;stroke-linecap:butt;stroke-linejoin:miter;stroke:#FFFFFF;stroke-opacity:1;stroke-miterlimit:4;" d="M 36.199219 3.082031 C 36.199219 1.488281 34.910156 0.199219 33.320312 0.199219 L 3.078125 0.199219 C 1.488281 0.199219 0.199219 1.488281 0.199219 3.082031 L 0.199219 8.988281 C 0.199219 10.578125 1.488281 11.867188 3.078125 11.867188 L 33.320312 11.867188 C 34.910156 11.867188 36.199219 10.578125 36.199219 8.988281 L 36.199219 3.082031 Z M 36.199219 3.082031 " transform="matrix(1,0,0,-1,0,19)"/>
</g>
<path style="fill-rule:nonzero;fill:#707070;fill-opacity:1;stroke-width:0.4;stroke-linecap:butt;stroke-linejoin:miter;stroke:#FFFFFF;stroke-opacity:1;stroke-miterlimit:4;" d="M 11.042969 10.851562 L 26.210938 10.851562 L 26.210938 6.050781 L 11.042969 6.050781 L 11.042969 10.851562 Z M 11.042969 10.851562 " transform="matrix(1,0,0,-1,0,19)"/>
<path style=" stroke:none;fill-rule:nonzero;fill:#707070;fill-opacity:1;" d="M 29.738281 9.972656 C 29.738281 10.488281 29.320312 10.90625 28.804688 10.90625 C 28.289062 10.90625 27.871094 10.488281 27.871094 9.972656 C 27.871094 9.457031 28.289062 9.039062 28.804688 9.039062 C 29.320312 9.039062 29.738281 9.457031 29.738281 9.972656 "/>
<path style="fill:none;stroke-width:0.4;stroke-linecap:butt;stroke-linejoin:miter;stroke:#FFFFFF;stroke-opacity:1;stroke-miterlimit:4;" d="M 29.738281 9.027344 C 29.738281 8.511719 29.320312 8.09375 28.804688 8.09375 C 28.289062 8.09375 27.871094 8.511719 27.871094 9.027344 C 27.871094 9.542969 28.289062 9.960938 28.804688 9.960938 C 29.320312 9.960938 29.738281 9.542969 29.738281 9.027344 Z M 29.738281 9.027344 " transform="matrix(1,0,0,-1,0,19)"/>
<path style=" stroke:none;fill-rule:nonzero;fill:#707070;fill-opacity:1;" d="M 29.738281 12.640625 C 29.738281 13.15625 29.320312 13.574219 28.804688 13.574219 C 28.289062 13.574219 27.871094 13.15625 27.871094 12.640625 C 27.871094 12.125 28.289062 11.707031 28.804688 11.707031 C 29.320312 11.707031 29.738281 12.125 29.738281 12.640625 "/>
<path style="fill:none;stroke-width:0.4;stroke-linecap:butt;stroke-linejoin:miter;stroke:#FFFFFF;stroke-opacity:1;stroke-miterlimit:4;" d="M 29.738281 6.359375 C 29.738281 5.84375 29.320312 5.425781 28.804688 5.425781 C 28.289062 5.425781 27.871094 5.84375 27.871094 6.359375 C 27.871094 6.875 28.289062 7.292969 28.804688 7.292969 C 29.320312 7.292969 29.738281 6.875 29.738281 6.359375 Z M 29.738281 6.359375 " transform="matrix(1,0,0,-1,0,19)"/>
<path style=" stroke:none;fill-rule:nonzero;fill:#707070;fill-opacity:1;" d="M 29.738281 15.304688 C 29.738281 15.820312 29.320312 16.238281 28.804688 16.238281 C 28.289062 16.238281 27.871094 15.820312 27.871094 15.304688 C 27.871094 14.789062 28.289062 14.375 28.804688 14.375 C 29.320312 14.375 29.738281 14.789062 29.738281 15.304688 "/>
<path style="fill:none;stroke-width:0.4;stroke-linecap:butt;stroke-linejoin:miter;stroke:#FFFFFF;stroke-opacity:1;stroke-miterlimit:4;" d="M 29.738281 3.695312 C 29.738281 3.179688 29.320312 2.761719 28.804688 2.761719 C 28.289062 2.761719 27.871094 3.179688 27.871094 3.695312 C 27.871094 4.210938 28.289062 4.625 28.804688 4.625 C 29.320312 4.625 29.738281 4.210938 29.738281 3.695312 Z M 29.738281 3.695312 " transform="matrix(1,0,0,-1,0,19)"/>
<path style=" stroke:none;fill-rule:nonzero;fill:#707070;fill-opacity:1;" d="M 23.394531 16.148438 C 23.394531 16.882812 21.457031 17.480469 19.0625 17.480469 C 16.671875 17.480469 14.730469 16.882812 14.730469 16.148438 C 14.730469 15.410156 16.671875 14.8125 19.0625 14.8125 C 21.457031 14.8125 23.394531 15.410156 23.394531 16.148438 "/>
<path style="fill:none;stroke-width:0.4;stroke-linecap:butt;stroke-linejoin:miter;stroke:#FFFFFF;stroke-opacity:1;stroke-miterlimit:4;" d="M 23.394531 2.851562 C 23.394531 2.117188 21.457031 1.519531 19.0625 1.519531 C 16.671875 1.519531 14.730469 2.117188 14.730469 2.851562 C 14.730469 3.589844 16.671875 4.1875 19.0625 4.1875 C 21.457031 4.1875 23.394531 3.589844 23.394531 2.851562 Z M 23.394531 2.851562 " transform="matrix(1,0,0,-1,0,19)"/>
</g>
</svg>
