<?xml version="1.0" encoding="UTF-8"?>
<svg xmlns="http://www.w3.org/2000/svg" xmlns:xlink="http://www.w3.org/1999/xlink" width="40pt" height="48pt" viewBox="0 0 40 48" version="1.1">
<defs>
<clipPath id="clip1">
  <path d="M 0.0585938 0.78125 L 39.628906 0.78125 L 39.628906 47.78125 L 0.0585938 47.78125 L 0.0585938 0.78125 Z M 0.0585938 0.78125 "/>
</clipPath>
<clipPath id="clip2">
  <path d="M 0.0585938 0.78125 L 39.628906 0.78125 L 39.628906 47.78125 L 0.0585938 47.78125 L 0.0585938 0.78125 Z M 0.0585938 0.78125 "/>
</clipPath>
<clipPath id="clip3">
  <path d="M 0.0585938 0.78125 L 39.628906 0.78125 L 39.628906 47.78125 L 0.0585938 47.78125 L 0.0585938 0.78125 Z M 0.0585938 0.78125 "/>
</clipPath>
<clipPath id="clip4">
  <path d="M 0.0585938 0.78125 L 39.628906 0.78125 L 39.628906 47.78125 L 0.0585938 47.78125 L 0.0585938 0.78125 Z M 0.0585938 0.78125 "/>
</clipPath>
<clipPath id="clip5">
  <path d="M 0.0585938 0.78125 L 39.628906 0.78125 L 39.628906 47.78125 L 0.0585938 47.78125 L 0.0585938 0.78125 Z M 0.0585938 0.78125 "/>
</clipPath>
<clipPath id="clip6">
  <path d="M 0.0585938 0.78125 L 39.628906 0.78125 L 39.628906 47.78125 L 0.0585938 47.78125 L 0.0585938 0.78125 Z M 0.0585938 0.78125 "/>
</clipPath>
<clipPath id="clip7">
  <path d="M 0.0585938 0.78125 L 39.628906 0.78125 L 39.628906 47.78125 L 0.0585938 47.78125 L 0.0585938 0.78125 Z M 0.0585938 0.78125 "/>
</clipPath>
</defs>
<g id="surface0">
<path style=" stroke:none;fill-rule:nonzero;fill:#707070;fill-opacity:1;" d="M 19.859375 34.636719 C 30.667969 34.636719 39.429688 32.128906 39.429688 29.035156 C 39.429688 25.9375 30.667969 23.429688 19.859375 23.429688 C 9.054688 23.429688 0.292969 25.9375 0.292969 29.035156 C 0.292969 32.128906 9.054688 34.636719 19.859375 34.636719 "/>
<g clip-path="url(#clip1)" clip-rule="nonzero">
<path style="fill:none;stroke-width:0.4;stroke-linecap:butt;stroke-linejoin:miter;stroke:#FFFFFF;stroke-opacity:1;stroke-miterlimit:4;" d="M 19.859375 13.363281 C 30.667969 13.363281 39.429688 15.871094 39.429688 18.964844 C 39.429688 22.0625 30.667969 24.570312 19.859375 24.570312 C 9.054688 24.570312 0.292969 22.0625 0.292969 18.964844 C 0.292969 15.871094 9.054688 13.363281 19.859375 13.363281 Z M 19.859375 13.363281 " transform="matrix(1,0,0,-1,0,48)"/>
</g>
<path style=" stroke:none;fill-rule:nonzero;fill:#707070;fill-opacity:1;" d="M 19.574219 8.761719 C 27.078125 8.761719 33.164062 7.019531 33.164062 4.871094 C 33.164062 2.722656 27.078125 0.980469 19.574219 0.980469 C 12.066406 0.980469 5.984375 2.722656 5.984375 4.871094 C 5.984375 7.019531 12.066406 8.761719 19.574219 8.761719 "/>
<g clip-path="url(#clip2)" clip-rule="nonzero">
<path style="fill:none;stroke-width:0.4;stroke-linecap:butt;stroke-linejoin:miter;stroke:#FFFFFF;stroke-opacity:1;stroke-miterlimit:4;" d="M 19.574219 39.238281 C 27.078125 39.238281 33.164062 40.980469 33.164062 43.128906 C 33.164062 45.277344 27.078125 47.019531 19.574219 47.019531 C 12.066406 47.019531 5.984375 45.277344 5.984375 43.128906 C 5.984375 40.980469 12.066406 39.238281 19.574219 39.238281 Z M 19.574219 39.238281 " transform="matrix(1,0,0,-1,0,48)"/>
</g>
<path style=" stroke:none;fill-rule:nonzero;fill:#707070;fill-opacity:1;" d="M 19.609375 25.9375 L 19.574219 30.300781 C 12.066406 30.300781 5.984375 28.558594 5.984375 26.40625 L 5.984375 4.871094 C 5.984375 7.019531 12.066406 8.761719 19.574219 8.761719 C 27.078125 8.761719 33.164062 7.019531 33.164062 4.871094 L 33.164062 26.40625 C 33.164062 27.785156 30.378906 29.058594 26.601562 29.746094 "/>
<path style="fill:none;stroke-width:0.4;stroke-linecap:butt;stroke-linejoin:miter;stroke:#FFFFFF;stroke-opacity:1;stroke-miterlimit:4;" d="M 19.609375 22.0625 L 19.574219 17.699219 C 12.066406 17.699219 5.984375 19.441406 5.984375 21.59375 L 5.984375 43.128906 C 5.984375 40.980469 12.066406 39.238281 19.574219 39.238281 C 27.078125 39.238281 33.164062 40.980469 33.164062 43.128906 L 33.164062 21.59375 C 33.164062 20.214844 30.378906 18.941406 26.601562 18.253906 M 36.359375 6.074219 L 36.359375 15.90625 L 31.144531 19.523438 L 31.144531 41.0625 M 9.1875 4.246094 L 9.1875 14.078125 L 12.269531 18.3125 L 12.269531 39.851562 M 3.039062 6.136719 L 3.039062 15.964844 L 8.003906 19.644531 L 8.003906 41.179688 M 19.574219 39.238281 L 19.574219 17.699219 " transform="matrix(1,0,0,-1,0,48)"/>
<path style="fill-rule:nonzero;fill:#000000;fill-opacity:1;stroke-width:0.4;stroke-linecap:butt;stroke-linejoin:miter;stroke:#FFFFFF;stroke-opacity:1;stroke-miterlimit:4;" d="M 26.507812 18.25 L 26.507812 39.800781 " transform="matrix(1,0,0,-1,0,48)"/>
<path style=" stroke:none;fill-rule:nonzero;fill:#707070;fill-opacity:1;" d="M 39.429688 38.960938 C 39.179688 40.933594 35.5625 42.757812 30.175781 43.753906 L 30.191406 33.800781 C 35.5625 32.800781 39.179688 31.070312 39.429688 29.097656 L 39.429688 38.960938 "/>
<g clip-path="url(#clip3)" clip-rule="nonzero">
<path style="fill:none;stroke-width:0.4;stroke-linecap:butt;stroke-linejoin:miter;stroke:#FFFFFF;stroke-opacity:1;stroke-miterlimit:4;" d="M 39.429688 9.039062 C 39.179688 7.066406 35.5625 5.242188 30.175781 4.246094 L 30.191406 14.199219 C 35.5625 15.199219 39.179688 16.929688 39.429688 18.902344 L 39.429688 9.039062 Z M 39.429688 9.039062 " transform="matrix(1,0,0,-1,0,48)"/>
<path style=" stroke:none;fill-rule:nonzero;fill:#707070;fill-opacity:1;" d="M 0.167969 38.8125 C 0.0429688 42.15625 9.316406 44.59375 20.125 44.59375 L 20.125 34.613281 C 9.128906 34.671875 0.0429688 32.234375 0.167969 28.890625 L 0.167969 38.8125 "/>
<path style="fill:none;stroke-width:0.4;stroke-linecap:butt;stroke-linejoin:miter;stroke:#FFFFFF;stroke-opacity:1;stroke-miterlimit:4;" d="M 0.167969 9.1875 C 0.0429688 5.84375 9.316406 3.40625 20.125 3.40625 L 20.125 13.386719 C 9.128906 13.328125 0.0429688 15.765625 0.167969 19.109375 L 0.167969 9.1875 Z M 0.167969 9.1875 " transform="matrix(1,0,0,-1,0,48)"/>
</g>
<path style=" stroke:none;fill-rule:nonzero;fill:#707070;fill-opacity:1;" d="M 19.609375 8.675781 L 19.546875 6.113281 C 20.394531 6.113281 21.242188 6.039062 21.894531 5.972656 L 26.507812 8.199219 L 26.507812 29.75 L 30.195312 33.738281 L 30.195312 43.808594 L 21.785156 40 C 21.5 40 20.175781 40.179688 20.082031 40.179688 L 20.082031 34.628906 L 19.609375 30.285156 L 19.609375 8.675781 "/>
<path style="fill:none;stroke-width:0.4;stroke-linecap:butt;stroke-linejoin:miter;stroke:#FFFFFF;stroke-opacity:1;stroke-miterlimit:4;" d="M 19.609375 39.324219 L 19.546875 41.886719 C 20.394531 41.886719 21.242188 41.960938 21.894531 42.027344 L 26.507812 39.800781 L 26.507812 18.25 L 30.195312 14.261719 L 30.195312 4.191406 L 21.785156 8 C 21.5 8 20.175781 7.820312 20.082031 7.820312 L 20.082031 13.371094 L 19.609375 17.714844 L 19.609375 39.324219 Z M 21.785156 42.003906 L 21.785156 8 " transform="matrix(1,0,0,-1,0,48)"/>
<g clip-path="url(#clip4)" clip-rule="nonzero">
<path style="fill-rule:nonzero;fill:#000000;fill-opacity:1;stroke-width:0.4;stroke-linecap:butt;stroke-linejoin:miter;stroke:#FFFFFF;stroke-opacity:1;stroke-miterlimit:4;" d="M 0.359375 19.289062 L 5.859375 21.289062 " transform="matrix(1,0,0,-1,0,48)"/>
</g>
<path style=" stroke:none;fill-rule:nonzero;fill:#000000;fill-opacity:1;" d="M 39.234375 28.460938 L 33.234375 26.710938 "/>
<g clip-path="url(#clip5)" clip-rule="nonzero">
<path style="fill:none;stroke-width:0.4;stroke-linecap:butt;stroke-linejoin:bevel;stroke:#FFFFFF;stroke-opacity:1;stroke-miterlimit:4;" d="M 39.234375 19.539062 L 33.234375 21.289062 " transform="matrix(1,0,0,-1,0,48)"/>
</g>
<path style=" stroke:none;fill-rule:nonzero;fill:#707070;fill-opacity:1;" d="M 22.921875 9.46875 L 25.171875 9.160156 L 29.859375 11.226562 C 28.109375 11.695312 23.984375 12.222656 23.171875 12.078125 L 22.921875 9.46875 "/>
<path style="fill:none;stroke-width:0.4;stroke-linecap:butt;stroke-linejoin:miter;stroke:#FFFFFF;stroke-opacity:1;stroke-miterlimit:4;" d="M 22.921875 38.53125 L 25.171875 38.839844 L 29.859375 36.773438 C 28.109375 36.304688 23.984375 35.777344 23.171875 35.921875 L 22.921875 38.53125 Z M 22.921875 38.53125 " transform="matrix(1,0,0,-1,0,48)"/>
<g clip-path="url(#clip6)" clip-rule="nonzero">
<path style=" stroke:none;fill-rule:nonzero;fill:#707070;fill-opacity:1;" d="M 22.859375 9.46875 L 23.171875 12.078125 L 23.171875 33.578125 L 23.671875 37.925781 L 23.671875 47.863281 L 22.859375 43.65625 L 22.859375 9.46875 "/>
<path style="fill:none;stroke-width:0.4;stroke-linecap:butt;stroke-linejoin:miter;stroke:#FFFFFF;stroke-opacity:1;stroke-miterlimit:4;" d="M 22.859375 38.53125 L 23.171875 35.921875 L 23.171875 14.421875 L 23.671875 10.074219 L 23.671875 0.136719 L 22.859375 4.34375 L 22.859375 38.53125 Z M 22.859375 38.53125 " transform="matrix(1,0,0,-1,0,48)"/>
</g>
<path style=" stroke:none;fill-rule:nonzero;fill:#707070;fill-opacity:1;" d="M 23.171875 12.078125 C 24.421875 12.136719 28.859375 11.59375 29.859375 11.164062 L 29.859375 32.789062 C 28.046875 33.136719 24.671875 33.625 23.171875 33.515625 L 23.171875 12.078125 "/>
<path style="fill:none;stroke-width:0.4;stroke-linecap:butt;stroke-linejoin:miter;stroke:#FFFFFF;stroke-opacity:1;stroke-miterlimit:4;" d="M 23.171875 35.921875 C 24.421875 35.863281 28.859375 36.40625 29.859375 36.835938 L 29.859375 15.210938 C 28.046875 14.863281 24.671875 14.375 23.171875 14.484375 L 23.171875 35.921875 Z M 23.171875 35.921875 " transform="matrix(1,0,0,-1,0,48)"/>
<path style=" stroke:none;fill-rule:nonzero;fill:#707070;fill-opacity:1;" d="M 29.859375 32.789062 L 33.609375 36.59375 C 31.609375 37.136719 24.921875 37.863281 23.671875 37.863281 L 23.171875 33.515625 C 23.921875 33.601562 29.546875 32.933594 29.859375 32.789062 "/>
<path style="fill:none;stroke-width:0.4;stroke-linecap:butt;stroke-linejoin:miter;stroke:#FFFFFF;stroke-opacity:1;stroke-miterlimit:4;" d="M 29.859375 15.210938 L 33.609375 11.40625 C 31.609375 10.863281 24.921875 10.136719 23.671875 10.136719 L 23.171875 14.484375 C 23.921875 14.398438 29.546875 15.066406 29.859375 15.210938 Z M 29.859375 15.210938 " transform="matrix(1,0,0,-1,0,48)"/>
<g clip-path="url(#clip7)" clip-rule="nonzero">
<path style=" stroke:none;fill-rule:nonzero;fill:#707070;fill-opacity:1;" d="M 33.546875 36.535156 L 33.546875 46.535156 C 32.234375 46.917969 25.296875 47.84375 23.671875 47.800781 L 23.671875 37.925781 C 24.921875 37.925781 31.046875 37.164062 33.546875 36.535156 "/>
<path style="fill:none;stroke-width:0.4;stroke-linecap:butt;stroke-linejoin:miter;stroke:#FFFFFF;stroke-opacity:1;stroke-miterlimit:4;" d="M 33.546875 11.464844 L 33.546875 1.464844 C 32.234375 1.082031 25.296875 0.15625 23.671875 0.199219 L 23.671875 10.074219 C 24.921875 10.074219 31.046875 10.835938 33.546875 11.464844 Z M 33.546875 11.464844 " transform="matrix(1,0,0,-1,0,48)"/>
</g>
</g>
</svg>
