<?xml version="1.0" encoding="UTF-8"?>
<svg xmlns="http://www.w3.org/2000/svg" xmlns:xlink="http://www.w3.org/1999/xlink" width="38pt" height="38pt" viewBox="0 0 38 38" version="1.1">
<defs>
<clipPath id="clip1">
  <path d="M 0.0585938 0.589844 L 37 0.589844 L 37 37.589844 L 0.0585938 37.589844 L 0.0585938 0.589844 Z M 0.0585938 0.589844 "/>
</clipPath>
<clipPath id="clip2">
  <path d="M 0.0585938 0.589844 L 37 0.589844 L 37 37.589844 L 0.0585938 37.589844 L 0.0585938 0.589844 Z M 0.0585938 0.589844 "/>
</clipPath>
</defs>
<g id="surface0">
<g clip-path="url(#clip1)" clip-rule="nonzero">
<path style=" stroke:none;fill-rule:nonzero;fill:#707070;fill-opacity:1;" d="M 36.984375 7.941406 C 36.984375 11.894531 28.75 15.09375 18.59375 15.09375 C 8.433594 15.09375 0.199219 11.894531 0.199219 7.941406 L 0.199219 30.648438 C 0.199219 34.597656 8.433594 37.800781 18.59375 37.800781 C 28.75 37.800781 36.984375 34.597656 36.984375 30.648438 L 36.984375 7.941406 "/>
<path style="fill:none;stroke-width:0.4;stroke-linecap:butt;stroke-linejoin:miter;stroke:#FFFFFF;stroke-opacity:1;stroke-miterlimit:4;" d="M 36.984375 30.058594 C 36.984375 26.105469 28.75 22.90625 18.59375 22.90625 C 8.433594 22.90625 0.199219 26.105469 0.199219 30.058594 L 0.199219 7.351562 C 0.199219 3.402344 8.433594 0.199219 18.59375 0.199219 C 28.75 0.199219 36.984375 3.402344 36.984375 7.351562 L 36.984375 30.058594 Z M 36.984375 30.058594 " transform="matrix(1,0,0,-1,0,38)"/>
</g>
<path style=" stroke:none;fill-rule:nonzero;fill:#707070;fill-opacity:1;" d="M 18.59375 15.09375 C 28.75 15.09375 36.984375 11.894531 36.984375 7.941406 C 36.984375 3.992188 28.75 0.789062 18.59375 0.789062 C 8.433594 0.789062 0.199219 3.992188 0.199219 7.941406 C 0.199219 11.894531 8.433594 15.09375 18.59375 15.09375 "/>
<g clip-path="url(#clip2)" clip-rule="nonzero">
<path style="fill:none;stroke-width:0.4;stroke-linecap:butt;stroke-linejoin:miter;stroke:#FFFFFF;stroke-opacity:1;stroke-miterlimit:4;" d="M 18.59375 22.90625 C 28.75 22.90625 36.984375 26.105469 36.984375 30.058594 C 36.984375 34.007812 28.75 37.210938 18.59375 37.210938 C 8.433594 37.210938 0.199219 34.007812 0.199219 30.058594 C 0.199219 26.105469 8.433594 22.90625 18.59375 22.90625 Z M 18.59375 22.90625 " transform="matrix(1,0,0,-1,0,38)"/>
</g>
<path style=" stroke:none;fill-rule:nonzero;fill:#FFFFFF;fill-opacity:1;" d="M 16.59375 18.863281 L 16.59375 32.527344 L 32.574219 25.921875 L 16.59375 18.863281 "/>
<path style=" stroke:none;fill-rule:nonzero;fill:#FFFFFF;fill-opacity:1;" d="M 14.871094 18.734375 L 14.871094 21.589844 L 9.6875 21.59375 L 9.6875 18.738281 L 14.871094 18.734375 "/>
<path style="fill:none;stroke-width:0.4;stroke-linecap:butt;stroke-linejoin:miter;stroke:#707070;stroke-opacity:1;stroke-miterlimit:4;" d="M 14.871094 19.265625 L 14.871094 16.410156 L 9.6875 16.40625 L 9.6875 19.261719 L 14.871094 19.265625 Z M 14.871094 19.265625 " transform="matrix(1,0,0,-1,0,38)"/>
<path style=" stroke:none;fill-rule:nonzero;fill:#FFFFFF;fill-opacity:1;" d="M 14.871094 22.460938 L 14.871094 25.316406 L 9.6875 25.320312 L 9.6875 22.464844 L 14.871094 22.460938 "/>
<path style="fill:none;stroke-width:0.4;stroke-linecap:butt;stroke-linejoin:miter;stroke:#707070;stroke-opacity:1;stroke-miterlimit:4;" d="M 14.871094 15.539062 L 14.871094 12.683594 L 9.6875 12.679688 L 9.6875 15.535156 L 14.871094 15.539062 Z M 14.871094 15.539062 " transform="matrix(1,0,0,-1,0,38)"/>
<path style=" stroke:none;fill-rule:nonzero;fill:#FFFFFF;fill-opacity:1;" d="M 14.871094 26.257812 L 14.871094 29.117188 L 9.6875 29.117188 L 9.6875 26.265625 L 14.871094 26.257812 "/>
<path style="fill:none;stroke-width:0.4;stroke-linecap:butt;stroke-linejoin:miter;stroke:#707070;stroke-opacity:1;stroke-miterlimit:4;" d="M 14.871094 11.742188 L 14.871094 8.882812 L 9.6875 8.882812 L 9.6875 11.734375 L 14.871094 11.742188 Z M 14.871094 11.742188 " transform="matrix(1,0,0,-1,0,38)"/>
<path style=" stroke:none;fill-rule:nonzero;fill:#FFFFFF;fill-opacity:1;" d="M 14.871094 30.058594 L 14.871094 32.914062 L 9.6875 32.917969 L 9.6875 30.066406 L 14.871094 30.058594 "/>
<path style="fill:none;stroke-width:0.4;stroke-linecap:butt;stroke-linejoin:miter;stroke:#707070;stroke-opacity:1;stroke-miterlimit:4;" d="M 14.871094 7.941406 L 14.871094 5.085938 L 9.6875 5.082031 L 9.6875 7.933594 L 14.871094 7.941406 Z M 14.871094 7.941406 " transform="matrix(1,0,0,-1,0,38)"/>
<path style=" stroke:none;fill-rule:nonzero;fill:#FFFFFF;fill-opacity:1;" d="M 14.652344 4.898438 L 16.171875 7.175781 L 10.429688 8.503906 L 11.683594 7.457031 L 2.8125 5.941406 L 5.035156 4.273438 L 13.601562 5.722656 L 14.652344 4.898438 "/>
<path style=" stroke:none;fill-rule:nonzero;fill:#FFFFFF;fill-opacity:1;" d="M 22.734375 10.421875 L 21.699219 8.074219 L 26.878906 7.039062 L 25.980469 7.84375 L 34.613281 9.316406 L 32.539062 10.976562 L 23.960938 9.363281 L 22.734375 10.421875 "/>
<path style=" stroke:none;fill-rule:nonzero;fill:#FFFFFF;fill-opacity:1;" d="M 19.902344 3.65625 L 25.703125 2.066406 L 25.773438 4.554688 L 24.320312 4.277344 L 21.492188 6.625 L 18.789062 6.230469 L 21.710938 3.933594 L 19.902344 3.65625 "/>
<path style=" stroke:none;fill-rule:nonzero;fill:#FFFFFF;fill-opacity:1;" d="M 17.414062 12.5625 L 11.890625 13.601562 L 11.683594 11.046875 L 13.273438 11.390625 L 16.3125 8.792969 L 19.003906 9.25 L 15.757812 12.078125 L 17.414062 12.5625 "/>
</g>
</svg>
