<?xml version="1.0" encoding="UTF-8"?>
<svg xmlns="http://www.w3.org/2000/svg" xmlns:xlink="http://www.w3.org/1999/xlink" width="32pt" height="43pt" viewBox="0 0 32 43" version="1.1">
<g id="surface0">
<path style="fill-rule:nonzero;fill:#707070;fill-opacity:1;stroke-width:0.4;stroke-linecap:butt;stroke-linejoin:miter;stroke:#FFFFFF;stroke-opacity:1;stroke-miterlimit:4;" d="M 0.773438 28.175781 L 27.597656 28.175781 L 27.597656 1.371094 L 0.773438 1.371094 L 0.773438 28.175781 Z M 0.773438 28.175781 " transform="matrix(1,0,0,-1,0,43)"/>
<path style="fill-rule:nonzero;fill:#707070;fill-opacity:1;stroke-width:0.4;stroke-linecap:butt;stroke-linejoin:miter;stroke:#FFFFFF;stroke-opacity:1;stroke-miterlimit:4;" d="M 30.988281 4.726562 L 30.988281 31.527344 L 27.601562 28.175781 L 27.601562 1.371094 L 30.988281 4.726562 Z M 30.988281 4.726562 " transform="matrix(1,0,0,-1,0,43)"/>
<path style="fill-rule:nonzero;fill:#707070;fill-opacity:1;stroke-width:0.4;stroke-linecap:butt;stroke-linejoin:miter;stroke:#FFFFFF;stroke-opacity:1;stroke-miterlimit:4;" d="M 5.679688 42.394531 L 0.773438 39.039062 L 27.601562 39.039062 L 30.988281 42.394531 L 5.679688 42.394531 Z M 5.679688 42.394531 " transform="matrix(1,0,0,-1,0,43)"/>
<path style="fill-rule:nonzero;fill:#707070;fill-opacity:1;stroke-width:0.4;stroke-linecap:butt;stroke-linejoin:miter;stroke:#FFFFFF;stroke-opacity:1;stroke-miterlimit:4;" d="M 0.773438 39.039062 L 27.597656 39.039062 L 27.597656 28.175781 L 0.773438 28.175781 L 0.773438 39.039062 Z M 0.773438 39.039062 " transform="matrix(1,0,0,-1,0,43)"/>
<path style="fill-rule:nonzero;fill:#707070;fill-opacity:1;stroke-width:0.4;stroke-linecap:butt;stroke-linejoin:miter;stroke:#FFFFFF;stroke-opacity:1;stroke-miterlimit:4;" d="M 30.988281 31.527344 L 30.988281 42.394531 L 27.601562 39.039062 L 27.601562 28.175781 L 30.988281 31.527344 Z M 30.988281 31.527344 " transform="matrix(1,0,0,-1,0,43)"/>
<path style="fill-rule:nonzero;fill:#707070;fill-opacity:1;stroke-width:0.4;stroke-linecap:butt;stroke-linejoin:miter;stroke:#FFFFFF;stroke-opacity:1;stroke-miterlimit:4;" d="M 27.601562 28.175781 L 0.773438 28.175781 " transform="matrix(1,0,0,-1,0,43)"/>
<path style="fill-rule:nonzero;fill:#707070;fill-opacity:1;stroke-width:0.4;stroke-linecap:butt;stroke-linejoin:miter;stroke:#FFFFFF;stroke-opacity:1;stroke-miterlimit:4;" d="M 27.601562 28.175781 L 30.988281 31.527344 " transform="matrix(1,0,0,-1,0,43)"/>
<path style=" stroke:none;fill-rule:nonzero;fill:#FFFFFF;fill-opacity:1;" d="M 5.148438 5.421875 L 9.476562 5.421875 L 9.476562 7.671875 L 5.148438 7.671875 L 5.148438 5.421875 Z M 5.148438 5.421875 "/>
<path style=" stroke:none;fill-rule:nonzero;fill:#FFFFFF;fill-opacity:1;" d="M 19.367188 5.421875 L 23.691406 5.421875 L 23.691406 7.671875 L 19.367188 7.671875 L 19.367188 5.421875 Z M 19.367188 5.421875 "/>
<path style=" stroke:none;fill-rule:nonzero;fill:#FFFFFF;fill-opacity:1;" d="M 5.148438 11.050781 L 9.476562 11.050781 L 9.476562 13.300781 L 5.148438 13.300781 L 5.148438 11.050781 Z M 5.148438 11.050781 "/>
<path style=" stroke:none;fill-rule:nonzero;fill:#FFFFFF;fill-opacity:1;" d="M 19.367188 11.050781 L 23.691406 11.050781 L 23.691406 13.300781 L 19.367188 13.300781 L 19.367188 11.050781 Z M 19.367188 11.050781 "/>
<path style="fill-rule:nonzero;fill:#000000;fill-opacity:1;stroke-width:0.4;stroke-linecap:butt;stroke-linejoin:miter;stroke:#FFFFFF;stroke-opacity:1;stroke-miterlimit:4;" d="M 8.085938 36.453125 L 21.375 36.453125 " transform="matrix(1,0,0,-1,0,43)"/>
<path style="fill-rule:nonzero;fill:#000000;fill-opacity:1;stroke-width:0.4;stroke-linecap:butt;stroke-linejoin:miter;stroke:#FFFFFF;stroke-opacity:1;stroke-miterlimit:4;" d="M 8.085938 30.820312 L 21.375 30.820312 " transform="matrix(1,0,0,-1,0,43)"/>
<path style="fill-rule:nonzero;fill:#000000;fill-opacity:1;stroke-width:0.4;stroke-linecap:butt;stroke-linejoin:miter;stroke:#FFFFFF;stroke-opacity:1;stroke-miterlimit:4;" d="M 7.3125 30.820312 L 21.375 36.453125 " transform="matrix(1,0,0,-1,0,43)"/>
<path style="fill-rule:nonzero;fill:#000000;fill-opacity:1;stroke-width:0.4;stroke-linecap:butt;stroke-linejoin:miter;stroke:#FFFFFF;stroke-opacity:1;stroke-miterlimit:4;" d="M 7.3125 36.453125 L 21.375 30.820312 " transform="matrix(1,0,0,-1,0,43)"/>
<path style=" stroke:none;fill-rule:nonzero;fill:#FFFFFF;fill-opacity:1;" d="M 15.558594 22.171875 L 17.414062 22.171875 L 17.414062 22.484375 L 18.113281 22.023438 L 17.414062 21.558594 L 17.414062 21.871094 L 15.558594 21.871094 L 15.558594 22.171875 "/>
<path style=" stroke:none;fill-rule:nonzero;fill:#FFFFFF;fill-opacity:1;" d="M 15.289062 21.226562 L 16.601562 19.914062 L 16.824219 20.136719 L 16.992188 19.3125 L 16.167969 19.476562 L 16.390625 19.699219 L 15.078125 21.015625 L 15.289062 21.226562 "/>
<path style=" stroke:none;fill-rule:nonzero;fill:#FFFFFF;fill-opacity:1;" d="M 14.433594 20.746094 L 14.433594 18.890625 L 14.746094 18.890625 L 14.28125 18.191406 L 13.816406 18.890625 L 14.132812 18.890625 L 14.132812 20.746094 L 14.433594 20.746094 "/>
<path style=" stroke:none;fill-rule:nonzero;fill:#FFFFFF;fill-opacity:1;" d="M 13.484375 21.015625 L 12.171875 19.699219 L 12.394531 19.476562 L 11.570312 19.3125 L 11.738281 20.136719 L 11.960938 19.914062 L 13.273438 21.226562 L 13.484375 21.015625 "/>
<path style=" stroke:none;fill-rule:nonzero;fill:#FFFFFF;fill-opacity:1;" d="M 13.003906 21.871094 L 11.148438 21.871094 L 11.148438 21.558594 L 10.449219 22.023438 L 11.148438 22.484375 L 11.148438 22.171875 L 13.003906 22.171875 L 13.003906 21.871094 "/>
<path style=" stroke:none;fill-rule:nonzero;fill:#FFFFFF;fill-opacity:1;" d="M 15.078125 23.03125 L 16.390625 24.34375 L 16.167969 24.566406 L 16.992188 24.730469 L 16.824219 23.90625 L 16.601562 24.132812 L 15.289062 22.820312 L 15.078125 23.03125 "/>
<path style=" stroke:none;fill-rule:nonzero;fill:#FFFFFF;fill-opacity:1;" d="M 12.726562 23.15625 C 13.335938 24.027344 14.53125 24.238281 15.402344 23.628906 C 16.273438 23.019531 16.484375 21.824219 15.875 20.953125 C 15.265625 20.085938 14.066406 19.871094 13.199219 20.480469 C 12.328125 21.089844 12.117188 22.289062 12.726562 23.15625 "/>
<path style=" stroke:none;fill-rule:nonzero;fill:#FFFFFF;fill-opacity:1;" d="M 13.273438 22.988281 L 11.960938 24.300781 L 11.738281 24.078125 L 11.570312 24.902344 L 12.394531 24.734375 L 12.171875 24.515625 L 13.484375 23.203125 L 13.273438 22.988281 "/>
<path style="fill:none;stroke-width:0.8;stroke-linecap:butt;stroke-linejoin:miter;stroke:#FFFFFF;stroke-opacity:1;stroke-miterlimit:4;" d="M 14.257812 19.878906 L 14.257812 7.667969 " transform="matrix(1,0,0,-1,0,43)"/>
<path style=" stroke:none;fill-rule:nonzero;fill:#FFFFFF;fill-opacity:1;" d="M 13.441406 36.140625 L 12.140625 36.140625 L 12.140625 35.917969 L 11.652344 36.242188 L 12.140625 36.570312 L 12.140625 36.347656 L 13.441406 36.347656 L 13.441406 36.140625 "/>
<path style=" stroke:none;fill-rule:nonzero;fill:#FFFFFF;fill-opacity:1;" d="M 13.628906 36.800781 L 12.710938 37.722656 L 12.554688 37.566406 L 12.4375 38.140625 L 13.015625 38.023438 L 12.855469 37.867188 L 13.777344 36.949219 L 13.628906 36.800781 "/>
<path style=" stroke:none;fill-rule:nonzero;fill:#FFFFFF;fill-opacity:1;" d="M 14.230469 37.136719 L 14.230469 38.4375 L 14.007812 38.4375 L 14.335938 38.925781 L 14.660156 38.4375 L 14.4375 38.4375 L 14.4375 37.136719 L 14.230469 37.136719 "/>
<path style=" stroke:none;fill-rule:nonzero;fill:#FFFFFF;fill-opacity:1;" d="M 14.890625 36.949219 L 15.808594 37.867188 L 15.65625 38.023438 L 16.230469 38.140625 L 16.113281 37.566406 L 15.960938 37.722656 L 15.039062 36.800781 L 14.890625 36.949219 "/>
<path style=" stroke:none;fill-rule:nonzero;fill:#FFFFFF;fill-opacity:1;" d="M 15.226562 36.347656 L 16.527344 36.347656 L 16.527344 36.570312 L 17.019531 36.242188 L 16.527344 35.917969 L 16.527344 36.140625 L 15.226562 36.140625 L 15.226562 36.347656 "/>
<path style=" stroke:none;fill-rule:nonzero;fill:#FFFFFF;fill-opacity:1;" d="M 13.777344 35.539062 L 12.855469 34.617188 L 13.015625 34.464844 L 12.4375 34.347656 L 12.554688 34.921875 L 12.710938 34.769531 L 13.628906 35.683594 L 13.777344 35.539062 "/>
<path style=" stroke:none;fill-rule:nonzero;fill:#FFFFFF;fill-opacity:1;" d="M 15.421875 35.449219 C 14.996094 34.839844 14.15625 34.691406 13.550781 35.117188 C 12.941406 35.546875 12.792969 36.382812 13.21875 36.992188 C 13.644531 37.601562 14.484375 37.746094 15.09375 37.320312 C 15.699219 36.898438 15.847656 36.058594 15.421875 35.449219 "/>
<path style=" stroke:none;fill-rule:nonzero;fill:#FFFFFF;fill-opacity:1;" d="M 15.039062 35.566406 L 15.960938 34.648438 L 16.113281 34.804688 L 16.230469 34.226562 L 15.65625 34.34375 L 15.808594 34.5 L 14.890625 35.417969 L 15.039062 35.566406 "/>
</g>
</svg>
