<?xml version="1.0" encoding="UTF-8"?>
<svg xmlns="http://www.w3.org/2000/svg" xmlns:xlink="http://www.w3.org/1999/xlink" width="32pt" height="31pt" viewBox="0 0 32 31" version="1.1">
<defs>
<clipPath id="clip1">
  <path d="M 0.0585938 0.308594 L 31 0.308594 L 31 30.941406 L 0.0585938 30.941406 L 0.0585938 0.308594 Z M 0.0585938 0.308594 "/>
</clipPath>
<clipPath id="clip2">
  <path d="M 0.0585938 0.308594 L 31 0.308594 L 31 30.941406 L 0.0585938 30.941406 L 0.0585938 0.308594 Z M 0.0585938 0.308594 "/>
</clipPath>
<clipPath id="clip3">
  <path d="M 0.0585938 0.308594 L 31 0.308594 L 31 30.941406 L 0.0585938 30.941406 L 0.0585938 0.308594 Z M 0.0585938 0.308594 "/>
</clipPath>
</defs>
<g id="surface0">
<path style=" stroke:none;fill-rule:nonzero;fill:#707070;fill-opacity:1;" d="M 0.582031 7.464844 L 23.257812 7.464844 L 23.257812 30.539062 L 0.582031 30.539062 L 0.582031 7.464844 Z M 0.582031 7.464844 "/>
<g clip-path="url(#clip1)" clip-rule="nonzero">
<path style="fill:none;stroke-width:0.4;stroke-linecap:butt;stroke-linejoin:miter;stroke:#FFFFFF;stroke-opacity:1;stroke-miterlimit:4;" d="M 0.582031 0.460938 L 23.257812 0.460938 L 23.257812 23.535156 L 0.582031 23.535156 L 0.582031 0.460938 Z M 0.582031 0.460938 " transform="matrix(1,0,0,-1,0,31)"/>
</g>
<path style=" stroke:none;fill-rule:nonzero;fill:#FFFFFF;fill-opacity:1;" d="M 4.828125 28.347656 L 4.828125 23.550781 L 1.9375 25.855469 L 4.828125 28.347656 "/>
<path style=" stroke:none;fill-rule:nonzero;fill:#FFFFFF;fill-opacity:1;" d="M 18.753906 9.878906 L 18.753906 14.671875 L 21.640625 12.367188 L 18.753906 9.878906 "/>
<path style=" stroke:none;fill-rule:nonzero;fill:#FFFFFF;fill-opacity:1;" d="M 4.828125 14.847656 L 4.828125 10.050781 L 1.9375 12.355469 L 4.828125 14.847656 "/>
<path style="fill:none;stroke-width:1.425;stroke-linecap:butt;stroke-linejoin:miter;stroke:#FFFFFF;stroke-opacity:1;stroke-miterlimit:4;" d="M 20.609375 5.101562 L 15.648438 5.101562 L 8.914062 18.683594 L 3.78125 18.683594 " transform="matrix(1,0,0,-1,0,31)"/>
<path style=" stroke:none;fill-rule:nonzero;fill:#707070;fill-opacity:1;" d="M 30.558594 0.746094 L 23.257812 7.457031 L 0.554688 7.457031 L 8.664062 0.746094 L 30.558594 0.746094 "/>
<g clip-path="url(#clip2)" clip-rule="nonzero">
<path style="fill:none;stroke-width:0.4;stroke-linecap:butt;stroke-linejoin:miter;stroke:#FFFFFF;stroke-opacity:1;stroke-miterlimit:4;" d="M 30.558594 30.253906 L 23.257812 23.542969 L 0.554688 23.542969 L 8.664062 30.253906 L 30.558594 30.253906 Z M 30.558594 30.253906 " transform="matrix(1,0,0,-1,0,31)"/>
</g>
<path style=" stroke:none;fill-rule:nonzero;fill:#707070;fill-opacity:1;" d="M 30.585938 21.6875 L 30.585938 0.761719 L 23.257812 7.480469 L 23.257812 30.449219 L 30.585938 21.6875 "/>
<g clip-path="url(#clip3)" clip-rule="nonzero">
<path style="fill:none;stroke-width:0.4;stroke-linecap:butt;stroke-linejoin:miter;stroke:#FFFFFF;stroke-opacity:1;stroke-miterlimit:4;" d="M 30.585938 9.3125 L 30.585938 30.238281 L 23.257812 23.519531 L 23.257812 0.550781 L 30.585938 9.3125 Z M 30.585938 9.3125 " transform="matrix(1,0,0,-1,0,31)"/>
</g>
<path style="fill:none;stroke-width:1.425;stroke-linecap:butt;stroke-linejoin:miter;stroke:#FFFFFF;stroke-opacity:1;stroke-miterlimit:4;" d="M 3.8125 5.121094 L 8.605469 5.121094 L 15.273438 18.636719 L 20.46875 18.636719 " transform="matrix(1,0,0,-1,0,31)"/>
<path style=" stroke:none;fill-rule:nonzero;fill:#FFFFFF;fill-opacity:1;" d="M 18.753906 23.441406 L 18.753906 28.234375 L 21.640625 25.933594 L 18.753906 23.441406 "/>
<path style=" stroke:none;fill-rule:nonzero;fill:#FFFFFF;fill-opacity:1;" d="M 19.148438 4.851562 L 20.105469 4.132812 L 22.722656 4.976562 L 17.476562 6.105469 L 18.355469 5.242188 L 13.15625 5.242188 L 13.945312 4.851562 L 19.148438 4.851562 "/>
<path style=" stroke:none;fill-rule:nonzero;fill:#FFFFFF;fill-opacity:1;" d="M 16.585938 2.902344 L 16.152344 3.363281 L 11.847656 3.363281 L 10.980469 3.882812 L 8.378906 3.027344 L 13.613281 1.902344 L 12.28125 2.902344 L 16.585938 2.902344 "/>
<path style=" stroke:none;fill-rule:nonzero;fill:#FFFFFF;fill-opacity:1;" d="M 12.867188 5.863281 L 12.257812 6.324219 L 7.953125 6.324219 L 7.265625 6.84375 L 4.660156 5.988281 L 9.894531 4.867188 L 8.566406 5.863281 L 12.867188 5.863281 "/>
<path style=" stroke:none;fill-rule:nonzero;fill:#FFFFFF;fill-opacity:1;" d="M 23.273438 2.15625 L 24.230469 1.4375 L 26.84375 2.28125 L 21.597656 3.414062 L 22.570312 2.617188 L 17.367188 2.617188 L 18.070312 2.15625 L 23.273438 2.15625 "/>
</g>
</svg>
