<?xml version="1.0" encoding="UTF-8"?>
<svg xmlns="http://www.w3.org/2000/svg" xmlns:xlink="http://www.w3.org/1999/xlink" width="32pt" height="42pt" viewBox="0 0 32 42" version="1.1">
<defs>
<clipPath id="clip1">
  <path d="M 0.0585938 0.441406 L 31 0.441406 L 31 41.941406 L 0.0585938 41.941406 L 0.0585938 0.441406 Z M 0.0585938 0.441406 "/>
</clipPath>
<clipPath id="clip2">
  <path d="M 0.0585938 0.441406 L 31 0.441406 L 31 41.941406 L 0.0585938 41.941406 L 0.0585938 0.441406 Z M 0.0585938 0.441406 "/>
</clipPath>
<clipPath id="clip3">
  <path d="M 0.0585938 0.441406 L 31 0.441406 L 31 41.941406 L 0.0585938 41.941406 L 0.0585938 0.441406 Z M 0.0585938 0.441406 "/>
</clipPath>
<clipPath id="clip4">
  <path d="M 0.0585938 0.441406 L 31 0.441406 L 31 41.941406 L 0.0585938 41.941406 L 0.0585938 0.441406 Z M 0.0585938 0.441406 "/>
</clipPath>
<clipPath id="clip5">
  <path d="M 0.0585938 0.441406 L 31 0.441406 L 31 41.941406 L 0.0585938 41.941406 L 0.0585938 0.441406 Z M 0.0585938 0.441406 "/>
</clipPath>
<clipPath id="clip6">
  <path d="M 0.0585938 0.441406 L 31 0.441406 L 31 41.941406 L 0.0585938 41.941406 L 0.0585938 0.441406 Z M 0.0585938 0.441406 "/>
</clipPath>
<clipPath id="clip7">
  <path d="M 0.0585938 0.441406 L 31 0.441406 L 31 41.941406 L 0.0585938 41.941406 L 0.0585938 0.441406 Z M 0.0585938 0.441406 "/>
</clipPath>
</defs>
<g id="surface0">
<path style=" stroke:none;fill-rule:nonzero;fill:#707070;fill-opacity:1;" d="M 15.011719 39.195312 L 15.011719 28.320312 L 12.546875 30.660156 L 12.546875 41.535156 L 15.011719 39.195312 "/>
<g clip-path="url(#clip1)" clip-rule="nonzero">
<path style="fill:none;stroke-width:0.4;stroke-linecap:butt;stroke-linejoin:miter;stroke:#FFFFFF;stroke-opacity:1;stroke-miterlimit:4;" d="M 15.011719 2.804688 L 15.011719 13.679688 L 12.546875 11.339844 L 12.546875 0.464844 L 15.011719 2.804688 Z M 15.011719 2.804688 " transform="matrix(1,0,0,-1,0,42)"/>
</g>
<path style=" stroke:none;fill-rule:nonzero;fill:#707070;fill-opacity:1;" d="M 0.597656 30.660156 L 12.546875 30.660156 L 12.546875 41.535156 L 0.597656 41.535156 L 0.597656 30.660156 Z M 0.597656 30.660156 "/>
<g clip-path="url(#clip2)" clip-rule="nonzero">
<path style="fill:none;stroke-width:0.4;stroke-linecap:butt;stroke-linejoin:miter;stroke:#FFFFFF;stroke-opacity:1;stroke-miterlimit:4;" d="M 0.597656 0.464844 L 12.546875 0.464844 L 12.546875 11.339844 L 0.597656 11.339844 L 0.597656 0.464844 Z M 0.597656 0.464844 " transform="matrix(1,0,0,-1,0,42)"/>
</g>
<path style=" stroke:none;fill-rule:nonzero;fill:#707070;fill-opacity:1;" d="M 13.535156 30.660156 L 25.484375 30.660156 L 25.484375 41.535156 L 13.535156 41.535156 L 13.535156 30.660156 Z M 13.535156 30.660156 "/>
<g clip-path="url(#clip3)" clip-rule="nonzero">
<path style="fill:none;stroke-width:0.4;stroke-linecap:butt;stroke-linejoin:miter;stroke:#FFFFFF;stroke-opacity:1;stroke-miterlimit:4;" d="M 13.535156 0.464844 L 25.484375 0.464844 L 25.484375 11.339844 L 13.535156 11.339844 L 13.535156 0.464844 Z M 13.535156 0.464844 " transform="matrix(1,0,0,-1,0,42)"/>
</g>
<path style=" stroke:none;fill-rule:nonzero;fill:#707070;fill-opacity:1;" d="M 30.628906 25.535156 L 30.628906 0.910156 L 25.496094 5.785156 L 25.496094 30.410156 L 30.628906 25.535156 "/>
<g clip-path="url(#clip4)" clip-rule="nonzero">
<path style="fill:none;stroke-width:0.4;stroke-linecap:butt;stroke-linejoin:miter;stroke:#FFFFFF;stroke-opacity:1;stroke-miterlimit:4;" d="M 30.628906 16.464844 L 30.628906 41.089844 L 25.496094 36.214844 L 25.496094 11.589844 L 30.628906 16.464844 Z M 30.628906 16.464844 " transform="matrix(1,0,0,-1,0,42)"/>
</g>
<path style=" stroke:none;fill-rule:nonzero;fill:#707070;fill-opacity:1;" d="M 30.621094 36.660156 L 30.621094 25.785156 L 25.484375 30.660156 L 25.484375 41.535156 L 30.621094 36.660156 "/>
<g clip-path="url(#clip5)" clip-rule="nonzero">
<path style="fill:none;stroke-width:0.4;stroke-linecap:butt;stroke-linejoin:miter;stroke:#FFFFFF;stroke-opacity:1;stroke-miterlimit:4;" d="M 30.621094 5.339844 L 30.621094 16.214844 L 25.484375 11.339844 L 25.484375 0.464844 L 30.621094 5.339844 Z M 30.621094 5.339844 " transform="matrix(1,0,0,-1,0,42)"/>
</g>
<path style=" stroke:none;fill-rule:nonzero;fill:#707070;fill-opacity:1;" d="M 30.628906 0.910156 L 25.496094 5.785156 L 0.597656 5.785156 L 7.046875 0.910156 L 30.628906 0.910156 "/>
<g clip-path="url(#clip6)" clip-rule="nonzero">
<path style="fill:none;stroke-width:0.4;stroke-linecap:butt;stroke-linejoin:miter;stroke:#FFFFFF;stroke-opacity:1;stroke-miterlimit:4;" d="M 30.628906 41.089844 L 25.496094 36.214844 L 0.597656 36.214844 L 7.046875 41.089844 L 30.628906 41.089844 Z M 30.628906 41.089844 " transform="matrix(1,0,0,-1,0,42)"/>
</g>
<path style=" stroke:none;fill-rule:nonzero;fill:#707070;fill-opacity:1;" d="M 0.597656 5.785156 L 25.496094 5.785156 L 25.496094 30.410156 L 0.597656 30.410156 L 0.597656 5.785156 Z M 0.597656 5.785156 "/>
<g clip-path="url(#clip7)" clip-rule="nonzero">
<path style="fill:none;stroke-width:0.4;stroke-linecap:butt;stroke-linejoin:miter;stroke:#FFFFFF;stroke-opacity:1;stroke-miterlimit:4;" d="M 0.597656 11.589844 L 25.496094 11.589844 L 25.496094 36.214844 L 0.597656 36.214844 L 0.597656 11.589844 Z M 0.597656 11.589844 " transform="matrix(1,0,0,-1,0,42)"/>
</g>
<path style=" stroke:none;fill-rule:nonzero;fill:#FFFFFF;fill-opacity:1;" d="M 10.828125 15.175781 L 7.039062 11.390625 L 7.679688 10.746094 L 5.300781 10.265625 L 5.785156 12.644531 L 6.425781 12 L 10.214844 15.789062 L 10.828125 15.175781 "/>
<path style=" stroke:none;fill-rule:nonzero;fill:#FFFFFF;fill-opacity:1;" d="M 9.441406 17.65625 L 4.082031 17.65625 L 4.082031 16.75 L 2.0625 18.089844 L 4.082031 19.429688 L 4.082031 18.523438 L 9.441406 18.523438 L 9.441406 17.65625 "/>
<path style=" stroke:none;fill-rule:nonzero;fill:#FFFFFF;fill-opacity:1;" d="M 10.214844 20.390625 L 6.425781 24.179688 L 5.785156 23.535156 L 5.300781 25.914062 L 7.679688 25.433594 L 7.039062 24.789062 L 10.828125 21.003906 L 10.214844 20.390625 "/>
<path style=" stroke:none;fill-rule:nonzero;fill:#FFFFFF;fill-opacity:1;" d="M 12.695312 21.777344 L 12.695312 27.132812 L 11.785156 27.132812 L 13.128906 29.15625 L 14.46875 27.132812 L 13.558594 27.132812 L 13.558594 21.777344 L 12.695312 21.777344 "/>
<path style=" stroke:none;fill-rule:nonzero;fill:#FFFFFF;fill-opacity:1;" d="M 12.695312 14.558594 L 12.695312 9.199219 L 11.785156 9.199219 L 13.128906 7.179688 L 14.46875 9.199219 L 13.558594 9.199219 L 13.558594 14.558594 L 12.695312 14.558594 "/>
<path style=" stroke:none;fill-rule:nonzero;fill:#FFFFFF;fill-opacity:1;" d="M 15.429688 21.003906 L 19.21875 24.789062 L 18.574219 25.433594 L 20.953125 25.914062 L 20.472656 23.535156 L 19.828125 24.179688 L 16.039062 20.390625 L 15.429688 21.003906 "/>
<path style=" stroke:none;fill-rule:nonzero;fill:#FFFFFF;fill-opacity:1;" d="M 16.8125 18.523438 L 22.171875 18.523438 L 22.171875 19.429688 L 24.195312 18.089844 L 22.171875 16.75 L 22.171875 17.65625 L 16.8125 17.65625 L 16.8125 18.523438 "/>
<path style=" stroke:none;fill-rule:nonzero;fill:#FFFFFF;fill-opacity:1;" d="M 16.039062 15.789062 L 19.828125 12 L 20.472656 12.644531 L 20.953125 10.265625 L 18.574219 10.746094 L 19.21875 11.390625 L 15.429688 15.175781 L 16.039062 15.789062 "/>
<path style=" stroke:none;fill-rule:nonzero;fill:#FFFFFF;fill-opacity:1;" d="M 2.847656 33.445312 L 3.613281 33.445312 L 2.488281 31.742188 L 1.359375 33.445312 L 2.117188 33.445312 L 2.117188 39.019531 L 1.351562 39.019531 L 2.480469 40.722656 L 3.605469 39.019531 L 2.847656 39.019531 L 2.847656 33.445312 "/>
<path style=" stroke:none;fill-rule:nonzero;fill:#FFFFFF;fill-opacity:1;" d="M 5.582031 33.445312 L 6.347656 33.445312 L 5.222656 31.742188 L 4.09375 33.445312 L 4.851562 33.445312 L 4.851562 39.019531 L 4.085938 39.019531 L 5.210938 40.722656 L 6.339844 39.019531 L 5.582031 39.019531 L 5.582031 33.445312 "/>
<path style=" stroke:none;fill-rule:nonzero;fill:#FFFFFF;fill-opacity:1;" d="M 8.3125 33.445312 L 9.082031 33.445312 L 7.953125 31.742188 L 6.828125 33.445312 L 7.585938 33.445312 L 7.585938 39.019531 L 6.820312 39.019531 L 7.945312 40.722656 L 9.074219 39.019531 L 8.3125 39.019531 L 8.3125 33.445312 "/>
<path style=" stroke:none;fill-rule:nonzero;fill:#FFFFFF;fill-opacity:1;" d="M 11.046875 33.445312 L 11.816406 33.445312 L 10.6875 31.742188 L 9.5625 33.445312 L 10.320312 33.445312 L 10.320312 39.019531 L 9.550781 39.019531 L 10.679688 40.722656 L 11.808594 39.019531 L 11.046875 39.019531 L 11.046875 33.445312 "/>
<path style=" stroke:none;fill-rule:nonzero;fill:#FFFFFF;fill-opacity:1;" d="M 15.785156 33.445312 L 16.550781 33.445312 L 15.425781 31.742188 L 14.296875 33.445312 L 15.054688 33.445312 L 15.054688 39.019531 L 14.289062 39.019531 L 15.414062 40.722656 L 16.542969 39.019531 L 15.785156 39.019531 L 15.785156 33.445312 "/>
<path style=" stroke:none;fill-rule:nonzero;fill:#FFFFFF;fill-opacity:1;" d="M 18.519531 33.445312 L 19.285156 33.445312 L 18.160156 31.742188 L 17.03125 33.445312 L 17.789062 33.445312 L 17.789062 39.019531 L 17.023438 39.019531 L 18.148438 40.722656 L 19.277344 39.019531 L 18.519531 39.019531 L 18.519531 33.445312 "/>
<path style=" stroke:none;fill-rule:nonzero;fill:#FFFFFF;fill-opacity:1;" d="M 21.25 33.445312 L 22.019531 33.445312 L 20.890625 31.742188 L 19.765625 33.445312 L 20.523438 33.445312 L 20.523438 39.019531 L 19.757812 39.019531 L 20.882812 40.722656 L 22.011719 39.019531 L 21.25 39.019531 L 21.25 33.445312 "/>
<path style=" stroke:none;fill-rule:nonzero;fill:#FFFFFF;fill-opacity:1;" d="M 23.984375 33.445312 L 24.753906 33.445312 L 23.625 31.742188 L 22.5 33.445312 L 23.257812 33.445312 L 23.257812 39.019531 L 22.488281 39.019531 L 23.617188 40.722656 L 24.746094 39.019531 L 23.984375 39.019531 L 23.984375 33.445312 "/>
</g>
</svg>
