<?xml version="1.0" encoding="UTF-8"?>
<svg xmlns="http://www.w3.org/2000/svg" xmlns:xlink="http://www.w3.org/1999/xlink" width="27pt" height="33pt" viewBox="0 0 27 33" version="1.1">
<g id="surface0">
<path style="fill-rule:nonzero;fill:#FFFFFF;fill-opacity:1;stroke-width:0.4;stroke-linecap:butt;stroke-linejoin:miter;stroke:#707070;stroke-opacity:1;stroke-miterlimit:4;" d="M 4.601562 24.289062 L 0.503906 24.289062 L 0.503906 20.90625 L 4.109375 20.914062 L 4.539062 20.914062 " transform="matrix(1,0,0,-1,0,33)"/>
<path style="fill-rule:nonzero;fill:#FFFFFF;fill-opacity:1;stroke-width:0.4;stroke-linecap:butt;stroke-linejoin:miter;stroke:#707070;stroke-opacity:1;stroke-miterlimit:4;" d="M 22.039062 20.914062 L 22.523438 20.914062 C 26.136719 20.914062 26.710938 17.664062 26.710938 17.664062 L 26.710938 21.039062 C 26.710938 21.039062 26.136719 24.289062 22.523438 24.289062 L 21.726562 24.289062 " transform="matrix(1,0,0,-1,0,33)"/>
<path style="fill-rule:nonzero;fill:#707070;fill-opacity:1;stroke-width:0.4;stroke-linecap:butt;stroke-linejoin:miter;stroke:#FFFFFF;stroke-opacity:1;stroke-miterlimit:4;" d="M 3.957031 0.878906 L 20.121094 0.878906 L 20.121094 29.066406 L 3.957031 29.066406 L 3.957031 0.878906 Z M 3.957031 0.878906 " transform="matrix(1,0,0,-1,0,33)"/>
<path style="fill-rule:nonzero;fill:#707070;fill-opacity:1;stroke-width:0.4;stroke-linecap:butt;stroke-linejoin:miter;stroke:#FFFFFF;stroke-opacity:1;stroke-miterlimit:4;" d="M 3.957031 29.066406 L 7.046875 31.574219 L 22.628906 31.574219 L 20.121094 29.066406 L 3.957031 29.066406 Z M 3.957031 29.066406 " transform="matrix(1,0,0,-1,0,33)"/>
<path style="fill-rule:nonzero;fill:#707070;fill-opacity:1;stroke-width:0.4;stroke-linecap:butt;stroke-linejoin:miter;stroke:#FFFFFF;stroke-opacity:1;stroke-miterlimit:4;" d="M 20.121094 0.878906 L 22.628906 3.96875 L 22.628906 31.574219 L 20.121094 29.066406 L 20.121094 0.878906 Z M 20.121094 0.878906 " transform="matrix(1,0,0,-1,0,33)"/>
<path style="fill-rule:nonzero;fill:#FFFFFF;fill-opacity:1;stroke-width:0.4;stroke-linecap:butt;stroke-linejoin:miter;stroke:#707070;stroke-opacity:1;stroke-miterlimit:4;" d="M 26.710938 21.226562 L 26.710938 17.226562 C 26.320312 12.476562 17.898438 12.726562 17.898438 12.726562 L 17.898438 9.226562 L 12.398438 14.726562 L 17.898438 20.226562 L 17.898438 16.726562 C 17.898438 16.726562 26.460938 16.476562 26.710938 21.226562 " transform="matrix(1,0,0,-1,0,33)"/>
<path style=" stroke:none;fill-rule:nonzero;fill:#FFFFFF;fill-opacity:1;" d="M 6.777344 9.398438 L 5.851562 10.300781 L 5.855469 6.050781 L 10.101562 6.050781 L 9.164062 7.015625 L 8.984375 7.203125 L 15.304688 13.515625 L 13.242188 15.578125 L 6.925781 9.261719 L 6.777344 9.398438 "/>
<path style=" stroke:none;fill-rule:nonzero;fill:#FFFFFF;fill-opacity:1;" d="M 6.777344 27.148438 L 5.851562 26.246094 L 5.855469 30.496094 L 10.101562 30.496094 L 9.164062 29.53125 L 8.984375 29.34375 L 15.304688 23.03125 L 13.242188 20.96875 L 6.925781 27.285156 L 6.777344 27.148438 "/>
</g>
</svg>
