<?xml version="1.0" encoding="UTF-8"?>
<svg xmlns="http://www.w3.org/2000/svg" xmlns:xlink="http://www.w3.org/1999/xlink" width="29pt" height="29pt" viewBox="0 0 29 29" version="1.1">
<defs>
<clipPath id="clip1">
  <path d="M 0 0.40625 L 28 0.40625 L 28 28.941406 L 0 28.941406 L 0 0.40625 Z M 0 0.40625 "/>
</clipPath>
<clipPath id="clip2">
  <path d="M 0 0.40625 L 28 0.40625 L 28 28.941406 L 0 28.941406 L 0 0.40625 Z M 0 0.40625 "/>
</clipPath>
<clipPath id="clip3">
  <path d="M 0 0.40625 L 28 0.40625 L 28 28.941406 L 0 28.941406 L 0 0.40625 Z M 0 0.40625 "/>
</clipPath>
</defs>
<g id="surface0">
<path style=" stroke:none;fill-rule:nonzero;fill:#707070;fill-opacity:1;" d="M 0.546875 5.457031 L 23.226562 5.457031 L 23.226562 28.53125 L 0.546875 28.53125 L 0.546875 5.457031 Z M 0.546875 5.457031 "/>
<g clip-path="url(#clip1)" clip-rule="nonzero">
<path style="fill:none;stroke-width:0.4;stroke-linecap:butt;stroke-linejoin:miter;stroke:#FFFFFF;stroke-opacity:1;stroke-miterlimit:4;" d="M 0.546875 0.46875 L 23.226562 0.46875 L 23.226562 23.542969 L 0.546875 23.542969 L 0.546875 0.46875 Z M 0.546875 0.46875 " transform="matrix(1,0,0,-1,0,29)"/>
</g>
<path style=" stroke:none;fill-rule:nonzero;fill:#FFFFFF;fill-opacity:1;" d="M 18.929688 14.175781 L 18.929688 19.222656 L 21.96875 16.796875 L 18.929688 14.175781 "/>
<path style="fill:none;stroke-width:0.2;stroke-linecap:butt;stroke-linejoin:miter;stroke:#FFFFFF;stroke-opacity:1;stroke-miterlimit:4;" d="M 18.929688 14.824219 L 18.929688 9.777344 L 21.96875 12.203125 L 18.929688 14.824219 Z M 18.929688 14.824219 " transform="matrix(1,0,0,-1,0,29)"/>
<path style=" stroke:none;fill-rule:nonzero;fill:#FFFFFF;fill-opacity:1;" d="M 9.5625 9.953125 L 14.609375 9.953125 L 12.183594 6.910156 L 9.5625 9.953125 "/>
<path style="fill:none;stroke-width:0.2;stroke-linecap:butt;stroke-linejoin:miter;stroke:#FFFFFF;stroke-opacity:1;stroke-miterlimit:4;" d="M 9.5625 19.046875 L 14.609375 19.046875 L 12.183594 22.089844 L 9.5625 19.046875 Z M 9.5625 19.046875 " transform="matrix(1,0,0,-1,0,29)"/>
<path style=" stroke:none;fill-rule:nonzero;fill:#FFFFFF;fill-opacity:1;" d="M 14.699219 24.539062 L 9.652344 24.539062 L 12.101562 27.582031 L 14.699219 24.539062 "/>
<path style="fill:none;stroke-width:0.2;stroke-linecap:butt;stroke-linejoin:miter;stroke:#FFFFFF;stroke-opacity:1;stroke-miterlimit:4;" d="M 14.699219 4.460938 L 9.652344 4.460938 L 12.101562 1.417969 L 14.699219 4.460938 Z M 14.699219 4.460938 " transform="matrix(1,0,0,-1,0,29)"/>
<path style=" stroke:none;fill-rule:nonzero;fill:#FFFFFF;fill-opacity:1;" d="M 4.695312 19.816406 L 4.695312 14.769531 L 1.652344 17.191406 L 4.695312 19.816406 "/>
<path style="fill:none;stroke-width:0.2;stroke-linecap:butt;stroke-linejoin:miter;stroke:#FFFFFF;stroke-opacity:1;stroke-miterlimit:4;" d="M 4.695312 9.183594 L 4.695312 14.230469 L 1.652344 11.808594 L 4.695312 9.183594 Z M 4.695312 9.183594 " transform="matrix(1,0,0,-1,0,29)"/>
<path style=" stroke:none;fill-rule:nonzero;fill:#707070;fill-opacity:1;" d="M 23.144531 5.429688 L 0.570312 5.429688 L 6.292969 0.863281 L 27.871094 0.863281 L 27.871094 0.890625 L 27.804688 0.890625 L 23.199219 5.417969 L 23.199219 5.5625 L 23.144531 5.429688 "/>
<g clip-path="url(#clip2)" clip-rule="nonzero">
<path style="fill:none;stroke-width:0.4;stroke-linecap:butt;stroke-linejoin:miter;stroke:#FFFFFF;stroke-opacity:1;stroke-miterlimit:4;" d="M 23.144531 23.570312 L 0.570312 23.570312 L 6.292969 28.136719 L 27.871094 28.136719 L 27.871094 28.109375 L 27.804688 28.109375 L 23.199219 23.582031 L 23.199219 23.4375 L 23.144531 23.570312 Z M 23.144531 23.570312 " transform="matrix(1,0,0,-1,0,29)"/>
</g>
<path style=" stroke:none;fill-rule:nonzero;fill:#707070;fill-opacity:1;" d="M 27.820312 23.925781 L 27.820312 0.890625 L 23.226562 5.480469 L 23.226562 28.515625 L 27.820312 23.925781 "/>
<g clip-path="url(#clip3)" clip-rule="nonzero">
<path style="fill:none;stroke-width:0.4;stroke-linecap:butt;stroke-linejoin:miter;stroke:#FFFFFF;stroke-opacity:1;stroke-miterlimit:4;" d="M 27.820312 5.074219 L 27.820312 28.109375 L 23.226562 23.519531 L 23.226562 0.484375 L 27.820312 5.074219 Z M 27.820312 5.074219 " transform="matrix(1,0,0,-1,0,29)"/>
</g>
<path style=" stroke:none;fill-rule:nonzero;fill:#FFFFFF;fill-opacity:1;" d="M 15.726562 14.351562 L 15.726562 16.273438 L 18.1875 16.273438 L 18.1875 14.953125 C 18.1875 12.796875 15.460938 11.648438 12.097656 11.648438 L 12.191406 11.648438 C 8.828125 11.648438 6.101562 12.796875 6.101562 14.953125 L 6.101562 16.273438 L 8.5625 16.273438 L 8.5625 14.351562 C 11.8125 10.097656 15.726562 14.351562 15.726562 14.351562 "/>
<path style=" stroke:none;fill-rule:nonzero;fill:#FFFFFF;fill-opacity:1;" d="M 12.570312 13.691406 L 14.699219 13.691406 L 14.699219 16.09375 L 17.070312 18.074219 L 17.070312 22.8125 L 7.195312 22.8125 L 7.195312 18.074219 L 9.570312 16.09375 L 9.570312 13.691406 L 12.570312 13.691406 "/>
</g>
</svg>
